<?xml version="1.0" encoding="UTF-8" standalone="no"?>
<!DOCTYPE svg PUBLIC "-//W3C//DTD SVG 1.1//EN"
 "http://www.w3.org/Graphics/SVG/1.1/DTD/svg11.dtd">
<!-- Generated by graphviz version 2.38.0 (20140413.2041)
 -->
<!-- Title: QtDefines.hpp Pages: 1 -->
<svg width="3955pt" height="218pt"
 viewBox="0.00 0.00 3955.00 218.00" xmlns="http://www.w3.org/2000/svg" xmlns:xlink="http://www.w3.org/1999/xlink">
<g id="graph0" class="graph" transform="scale(1 1) rotate(0) translate(4 214)">
<title>QtDefines.hpp</title>
<!-- Node1 -->
<g id="node1" class="node"><title>Node1</title>
<polygon fill="#bfbfbf" stroke="black" points="323.5,-190.5 323.5,-209.5 403.5,-209.5 403.5,-190.5 323.5,-190.5"/>
<text text-anchor="middle" x="363.5" y="-197.5" font-family="Helvetica,sans-Serif" font-size="10.00">QtDefines.hpp</text>
</g>
<!-- Node2 -->
<g id="node2" class="node"><title>Node2</title>
<polygon fill="none" stroke="#bfbfbf" points="198,-0.5 198,-19.5 261,-19.5 261,-0.5 198,-0.5"/>
<text text-anchor="middle" x="229.5" y="-7.5" font-family="Helvetica,sans-Serif" font-size="10.00">QtWidgets</text>
</g>
<!-- Node1&#45;&gt;Node2 -->
<g id="edge1" class="edge"><title>Node1&#45;&gt;Node2</title>
<path fill="none" stroke="midnightblue" d="M357.394,-190.434C336.728,-161.439 269.159,-66.6406 241.484,-27.8131"/>
<polygon fill="midnightblue" stroke="midnightblue" points="244.296,-25.7285 235.642,-19.6168 238.596,-29.7915 244.296,-25.7285"/>
</g>
<!-- Node3 -->
<g id="node3" class="node"><title>Node3</title>
<g id="a_node3"><a xlink:href="../../d3/d52/a00023.php" target="_top" xlink:title="Widget.hpp">
<polygon fill="none" stroke="black" points="196.5,-134.5 196.5,-153.5 262.5,-153.5 262.5,-134.5 196.5,-134.5"/>
<text text-anchor="middle" x="229.5" y="-141.5" font-family="Helvetica,sans-Serif" font-size="10.00">Widget.hpp</text>
</a>
</g>
</g>
<!-- Node1&#45;&gt;Node3 -->
<g id="edge2" class="edge"><title>Node1&#45;&gt;Node3</title>
<path fill="none" stroke="midnightblue" d="M342.267,-190.444C320.116,-181.517 285.181,-167.439 260.064,-157.317"/>
<polygon fill="midnightblue" stroke="midnightblue" points="261.217,-154.008 250.633,-153.516 258.6,-160.501 261.217,-154.008"/>
</g>
<!-- Node4 -->
<g id="node4" class="node"><title>Node4</title>
<g id="a_node4"><a xlink:href="../../d2/de7/a00014.php" target="_top" xlink:title="DrawScene.hpp">
<polygon fill="none" stroke="black" points="356.5,-134.5 356.5,-153.5 442.5,-153.5 442.5,-134.5 356.5,-134.5"/>
<text text-anchor="middle" x="399.5" y="-141.5" font-family="Helvetica,sans-Serif" font-size="10.00">DrawScene.hpp</text>
</a>
</g>
</g>
<!-- Node1&#45;&gt;Node4 -->
<g id="edge4" class="edge"><title>Node1&#45;&gt;Node4</title>
<path fill="none" stroke="midnightblue" d="M369.445,-190.083C374.477,-182.534 381.837,-171.495 388.013,-162.23"/>
<polygon fill="midnightblue" stroke="midnightblue" points="391.031,-164.013 393.666,-153.751 385.207,-160.13 391.031,-164.013"/>
</g>
<!-- Node5 -->
<g id="node5" class="node"><title>Node5</title>
<g id="a_node5"><a xlink:href="../../db/db2/a00020.php" target="_top" xlink:title="Scene.hpp">
<polygon fill="none" stroke="black" points="308,-67.5 308,-86.5 371,-86.5 371,-67.5 308,-67.5"/>
<text text-anchor="middle" x="339.5" y="-74.5" font-family="Helvetica,sans-Serif" font-size="10.00">Scene.hpp</text>
</a>
</g>
</g>
<!-- Node1&#45;&gt;Node5 -->
<g id="edge14" class="edge"><title>Node1&#45;&gt;Node5</title>
<path fill="none" stroke="midnightblue" d="M359.677,-190.22C355.953,-181.281 350.437,-166.937 347.5,-154 343.146,-134.823 341.152,-112.376 340.245,-96.8735"/>
<polygon fill="midnightblue" stroke="midnightblue" points="343.724,-96.3596 339.742,-86.5417 336.732,-96.7001 343.724,-96.3596"/>
</g>
<!-- Node7 -->
<g id="node7" class="node"><title>Node7</title>
<g id="a_node7"><a xlink:href="../../d7/d7a/a00016.php" target="_top" xlink:title="GraphScene.hpp">
<polygon fill="none" stroke="black" points="461,-134.5 461,-153.5 550,-153.5 550,-134.5 461,-134.5"/>
<text text-anchor="middle" x="505.5" y="-141.5" font-family="Helvetica,sans-Serif" font-size="10.00">GraphScene.hpp</text>
</a>
</g>
</g>
<!-- Node1&#45;&gt;Node7 -->
<g id="edge8" class="edge"><title>Node1&#45;&gt;Node7</title>
<path fill="none" stroke="midnightblue" d="M386,-190.444C409.577,-181.478 446.822,-167.314 473.464,-157.183"/>
<polygon fill="midnightblue" stroke="midnightblue" points="475.002,-160.342 483.105,-153.516 472.514,-153.8 475.002,-160.342"/>
</g>
<!-- Node12 -->
<g id="node12" class="node"><title>Node12</title>
<g id="a_node12"><a xlink:href="../../de/d11/a00021.php" target="_top" xlink:title="Spacers.hpp">
<polygon fill="none" stroke="black" points="0,-134.5 0,-153.5 71,-153.5 71,-134.5 0,-134.5"/>
<text text-anchor="middle" x="35.5" y="-141.5" font-family="Helvetica,sans-Serif" font-size="10.00">Spacers.hpp</text>
</a>
</g>
</g>
<!-- Node1&#45;&gt;Node12 -->
<g id="edge15" class="edge"><title>Node1&#45;&gt;Node12</title>
<path fill="none" stroke="midnightblue" d="M323.427,-193.226C270.28,-185.442 173.319,-170.803 81.0772,-154.226"/>
<polygon fill="midnightblue" stroke="midnightblue" points="81.4785,-150.742 71.0152,-152.406 80.2328,-157.63 81.4785,-150.742"/>
</g>
<!-- Node13 -->
<g id="node13" class="node"><title>Node13</title>
<g id="a_node13"><a xlink:href="../../dd/da2/a00019.php" target="_top" xlink:title="QtFunctions.hpp">
<polygon fill="none" stroke="black" points="89,-134.5 89,-153.5 178,-153.5 178,-134.5 89,-134.5"/>
<text text-anchor="middle" x="133.5" y="-141.5" font-family="Helvetica,sans-Serif" font-size="10.00">QtFunctions.hpp</text>
</a>
</g>
</g>
<!-- Node1&#45;&gt;Node13 -->
<g id="edge17" class="edge"><title>Node1&#45;&gt;Node13</title>
<path fill="none" stroke="midnightblue" d="M327.056,-190.444C287.101,-181.063 222.913,-165.993 179.515,-155.804"/>
<polygon fill="midnightblue" stroke="midnightblue" points="180.309,-152.395 169.774,-153.516 178.709,-159.21 180.309,-152.395"/>
</g>
<!-- Node15 -->
<g id="node15" class="node"><title>Node15</title>
<g id="a_node15"><a xlink:href="../../dd/d1b/a00015.php" target="_top" xlink:title="Font.hpp">
<polygon fill="none" stroke="red" points="1831,-134.5 1831,-153.5 1886,-153.5 1886,-134.5 1831,-134.5"/>
<text text-anchor="middle" x="1858.5" y="-141.5" font-family="Helvetica,sans-Serif" font-size="10.00">Font.hpp</text>
</a>
</g>
</g>
<!-- Node1&#45;&gt;Node15 -->
<g id="edge20" class="edge"><title>Node1&#45;&gt;Node15</title>
<path fill="none" stroke="midnightblue" d="M403.778,-197.457C617.271,-189.536 1613.82,-153.543 1820.82,-146.28"/>
<polygon fill="midnightblue" stroke="midnightblue" points="1821.03,-149.775 1830.9,-145.927 1820.78,-142.779 1821.03,-149.775"/>
</g>
<!-- Node50 -->
<g id="node50" class="node"><title>Node50</title>
<polygon fill="none" stroke="#bfbfbf" points="1904,-134.5 1904,-153.5 1981,-153.5 1981,-134.5 1904,-134.5"/>
<text text-anchor="middle" x="1942.5" y="-141.5" font-family="Helvetica,sans-Serif" font-size="10.00">C++/C++.hpp</text>
</g>
<!-- Node1&#45;&gt;Node50 -->
<g id="edge61" class="edge"><title>Node1&#45;&gt;Node50</title>
<path fill="none" stroke="midnightblue" d="M403.651,-198.69C612.075,-196.95 1573.01,-187.294 1893.63,-154.002"/>
<polygon fill="midnightblue" stroke="midnightblue" points="1894.27,-157.453 1903.85,-152.909 1893.53,-150.493 1894.27,-157.453"/>
</g>
<!-- Node3&#45;&gt;Node2 -->
<g id="edge3" class="edge"><title>Node3&#45;&gt;Node2</title>
<path fill="none" stroke="midnightblue" d="M229.5,-134.339C229.5,-113.174 229.5,-58.4482 229.5,-29.5329"/>
<polygon fill="midnightblue" stroke="midnightblue" points="233,-29.5211 229.5,-19.5212 226,-29.5212 233,-29.5211"/>
</g>
<!-- Node4&#45;&gt;Node5 -->
<g id="edge5" class="edge"><title>Node4&#45;&gt;Node5</title>
<path fill="none" stroke="midnightblue" d="M391.408,-134.234C381.962,-124 366.144,-106.864 354.447,-94.1924"/>
<polygon fill="midnightblue" stroke="midnightblue" points="356.818,-91.6014 347.464,-86.6273 351.675,-96.3494 356.818,-91.6014"/>
</g>
<!-- Node5&#45;&gt;Node2 -->
<g id="edge6" class="edge"><title>Node5&#45;&gt;Node2</title>
<path fill="none" stroke="midnightblue" d="M324.665,-67.2338C306.192,-56.3182 274.428,-37.5487 252.72,-24.7209"/>
<polygon fill="midnightblue" stroke="midnightblue" points="254.49,-21.7014 244.1,-19.6273 250.929,-27.7279 254.49,-21.7014"/>
</g>
<!-- Node6 -->
<g id="node6" class="node"><title>Node6</title>
<polygon fill="none" stroke="#bfbfbf" points="729.5,-0.5 729.5,-19.5 783.5,-19.5 783.5,-0.5 729.5,-0.5"/>
<text text-anchor="middle" x="756.5" y="-7.5" font-family="Helvetica,sans-Serif" font-size="10.00">iostream</text>
</g>
<!-- Node5&#45;&gt;Node6 -->
<g id="edge7" class="edge"><title>Node5&#45;&gt;Node6</title>
<path fill="none" stroke="midnightblue" d="M354.201,-67.3375C361.805,-63.2479 371.384,-58.6855 380.5,-56 500.822,-20.5552 650.645,-12.9481 719.162,-11.3725"/>
<polygon fill="midnightblue" stroke="midnightblue" points="719.516,-14.8663 729.444,-11.1681 719.376,-7.86764 719.516,-14.8663"/>
</g>
<!-- Node7&#45;&gt;Node5 -->
<g id="edge13" class="edge"><title>Node7&#45;&gt;Node5</title>
<path fill="none" stroke="midnightblue" d="M479.329,-134.5C453.817,-125.999 414.07,-112.181 380.5,-98 375.521,-95.8966 370.282,-93.4932 365.277,-91.0993"/>
<polygon fill="midnightblue" stroke="midnightblue" points="366.588,-87.8442 356.068,-86.5888 363.509,-94.1306 366.588,-87.8442"/>
</g>
<!-- Node8 -->
<g id="node8" class="node"><title>Node8</title>
<polygon fill="none" stroke="#bfbfbf" points="510,-67.5 510,-86.5 545,-86.5 545,-67.5 510,-67.5"/>
<text text-anchor="middle" x="527.5" y="-74.5" font-family="Helvetica,sans-Serif" font-size="10.00">map</text>
</g>
<!-- Node7&#45;&gt;Node8 -->
<g id="edge9" class="edge"><title>Node7&#45;&gt;Node8</title>
<path fill="none" stroke="midnightblue" d="M508.467,-134.234C511.733,-124.585 517.075,-108.8 521.27,-96.4063"/>
<polygon fill="midnightblue" stroke="midnightblue" points="524.689,-97.2216 524.58,-86.6273 518.059,-94.9774 524.689,-97.2216"/>
</g>
<!-- Node9 -->
<g id="node9" class="node"><title>Node9</title>
<polygon fill="none" stroke="#bfbfbf" points="563.5,-67.5 563.5,-86.5 607.5,-86.5 607.5,-67.5 563.5,-67.5"/>
<text text-anchor="middle" x="585.5" y="-74.5" font-family="Helvetica,sans-Serif" font-size="10.00">vector</text>
</g>
<!-- Node7&#45;&gt;Node9 -->
<g id="edge10" class="edge"><title>Node7&#45;&gt;Node9</title>
<path fill="none" stroke="midnightblue" d="M516.289,-134.234C529.244,-123.708 551.187,-105.879 566.894,-93.1174"/>
<polygon fill="midnightblue" stroke="midnightblue" points="569.328,-95.6497 574.882,-86.6273 564.914,-90.2169 569.328,-95.6497"/>
</g>
<!-- Node10 -->
<g id="node10" class="node"><title>Node10</title>
<polygon fill="none" stroke="#bfbfbf" points="389.5,-67.5 389.5,-86.5 429.5,-86.5 429.5,-67.5 389.5,-67.5"/>
<text text-anchor="middle" x="409.5" y="-74.5" font-family="Helvetica,sans-Serif" font-size="10.00">utility</text>
</g>
<!-- Node7&#45;&gt;Node10 -->
<g id="edge11" class="edge"><title>Node7&#45;&gt;Node10</title>
<path fill="none" stroke="midnightblue" d="M492.624,-134.42C479.111,-125.4 457.265,-110.772 438.5,-98 435.855,-96.1998 433.08,-94.3002 430.339,-92.417"/>
<polygon fill="midnightblue" stroke="midnightblue" points="432.116,-89.391 421.896,-86.5982 428.144,-95.1548 432.116,-89.391"/>
</g>
<!-- Node11 -->
<g id="node11" class="node"><title>Node11</title>
<polygon fill="none" stroke="#bfbfbf" points="447.5,-67.5 447.5,-86.5 491.5,-86.5 491.5,-67.5 447.5,-67.5"/>
<text text-anchor="middle" x="469.5" y="-74.5" font-family="Helvetica,sans-Serif" font-size="10.00">cmath</text>
</g>
<!-- Node7&#45;&gt;Node11 -->
<g id="edge12" class="edge"><title>Node7&#45;&gt;Node11</title>
<path fill="none" stroke="midnightblue" d="M500.645,-134.234C495.193,-124.39 486.204,-108.16 479.281,-95.6594"/>
<polygon fill="midnightblue" stroke="midnightblue" points="482.185,-93.6795 474.278,-86.6273 476.061,-97.071 482.185,-93.6795"/>
</g>
<!-- Node12&#45;&gt;Node2 -->
<g id="edge16" class="edge"><title>Node12&#45;&gt;Node2</title>
<path fill="none" stroke="midnightblue" d="M38.9011,-134.457C46.2362,-117.107 65.2007,-77.5655 93.5,-56 121.071,-34.9892 158.936,-23.5178 187.711,-17.4266"/>
<polygon fill="midnightblue" stroke="midnightblue" points="188.735,-20.792 197.865,-15.4181 187.376,-13.925 188.735,-20.792"/>
</g>
<!-- Node13&#45;&gt;Node2 -->
<g id="edge18" class="edge"><title>Node13&#45;&gt;Node2</title>
<path fill="none" stroke="midnightblue" d="M125.325,-134.121C111.055,-117.509 84.7344,-81.1428 102.5,-56 121.699,-28.8283 158.767,-17.9586 187.922,-13.6639"/>
<polygon fill="midnightblue" stroke="midnightblue" points="188.382,-17.1337 197.862,-12.403 187.501,-10.1893 188.382,-17.1337"/>
</g>
<!-- Node14 -->
<g id="node14" class="node"><title>Node14</title>
<polygon fill="none" stroke="#bfbfbf" points="112,-67.5 112,-86.5 201,-86.5 201,-67.5 112,-67.5"/>
<text text-anchor="middle" x="156.5" y="-74.5" font-family="Helvetica,sans-Serif" font-size="10.00">C++/defines.hpp</text>
</g>
<!-- Node13&#45;&gt;Node14 -->
<g id="edge19" class="edge"><title>Node13&#45;&gt;Node14</title>
<path fill="none" stroke="midnightblue" d="M136.602,-134.234C140.016,-124.585 145.602,-108.8 149.987,-96.4063"/>
<polygon fill="midnightblue" stroke="midnightblue" points="153.411,-97.2221 153.447,-86.6273 146.812,-94.887 153.411,-97.2221"/>
</g>
<!-- Node15&#45;&gt;Node1 -->
<g id="edge21" class="edge"><title>Node15&#45;&gt;Node1</title>
<path fill="none" stroke="midnightblue" d="M1830.71,-146.079C1650.62,-152.803 650.022,-188.951 413.553,-197.285"/>
<polygon fill="midnightblue" stroke="midnightblue" points="413.389,-193.789 403.518,-197.638 413.635,-200.784 413.389,-193.789"/>
</g>
<!-- Node15&#45;&gt;Node6 -->
<g id="edge43" class="edge"><title>Node15&#45;&gt;Node6</title>
<path fill="none" stroke="midnightblue" d="M1830.69,-142.343C1712.04,-139.373 1251.48,-126.114 1193.5,-98 1170.85,-87.0175 1177.9,-67.4864 1155.5,-56 1092.83,-23.8619 880.493,-14.4219 793.815,-11.871"/>
<polygon fill="midnightblue" stroke="midnightblue" points="793.739,-8.36755 783.645,-11.5866 793.543,-15.3648 793.739,-8.36755"/>
</g>
<!-- Node15&#45;&gt;Node8 -->
<g id="edge59" class="edge"><title>Node15&#45;&gt;Node8</title>
<path fill="none" stroke="midnightblue" d="M1830.98,-143.029C1653.95,-143.09 678.87,-141.438 554.5,-98 550.979,-96.7702 547.532,-94.9071 544.343,-92.8038"/>
<polygon fill="midnightblue" stroke="midnightblue" points="546.256,-89.8604 536.186,-86.5662 542.003,-95.4209 546.256,-89.8604"/>
</g>
<!-- Node15&#45;&gt;Node9 -->
<g id="edge47" class="edge"><title>Node15&#45;&gt;Node9</title>
<path fill="none" stroke="midnightblue" d="M1830.95,-142.877C1658.93,-141.995 735.884,-135.531 616.5,-98 612.238,-96.6602 607.998,-94.5658 604.083,-92.2275"/>
<polygon fill="midnightblue" stroke="midnightblue" points="605.932,-89.2534 595.683,-86.5688 602.021,-95.0589 605.932,-89.2534"/>
</g>
<!-- Node15&#45;&gt;Node10 -->
<g id="edge23" class="edge"><title>Node15&#45;&gt;Node10</title>
<path fill="none" stroke="midnightblue" d="M1830.99,-143.06C1645.05,-143.344 575.35,-143.004 438.5,-98 434.56,-96.7044 430.673,-94.6918 427.086,-92.433"/>
<polygon fill="midnightblue" stroke="midnightblue" points="429.098,-89.5684 418.933,-86.579 425.015,-95.2545 429.098,-89.5684"/>
</g>
<!-- Node15&#45;&gt;Node11 -->
<g id="edge60" class="edge"><title>Node15&#45;&gt;Node11</title>
<path fill="none" stroke="midnightblue" d="M1830.76,-142.969C1649.01,-142.646 631.646,-139.006 500.5,-98 496.236,-96.6668 491.995,-94.5754 488.08,-92.2379"/>
<polygon fill="midnightblue" stroke="midnightblue" points="489.929,-89.2639 479.68,-86.5782 486.017,-95.0689 489.929,-89.2639"/>
</g>
<!-- Node16 -->
<g id="node16" class="node"><title>Node16</title>
<polygon fill="none" stroke="#bfbfbf" points="1202.5,-67.5 1202.5,-86.5 1242.5,-86.5 1242.5,-67.5 1202.5,-67.5"/>
<text text-anchor="middle" x="1222.5" y="-74.5" font-family="Helvetica,sans-Serif" font-size="10.00">limits</text>
</g>
<!-- Node15&#45;&gt;Node16 -->
<g id="edge22" class="edge"><title>Node15&#45;&gt;Node16</title>
<path fill="none" stroke="midnightblue" d="M1830.96,-142.862C1727.26,-142.051 1360.63,-136.465 1251.5,-98 1247.76,-96.6823 1244.06,-94.7499 1240.61,-92.5984"/>
<polygon fill="midnightblue" stroke="midnightblue" points="1242.42,-89.5899 1232.23,-86.6638 1238.37,-95.3013 1242.42,-89.5899"/>
</g>
<!-- Node17 -->
<g id="node17" class="node"><title>Node17</title>
<polygon fill="none" stroke="#bfbfbf" points="1260.5,-67.5 1260.5,-86.5 1312.5,-86.5 1312.5,-67.5 1260.5,-67.5"/>
<text text-anchor="middle" x="1286.5" y="-74.5" font-family="Helvetica,sans-Serif" font-size="10.00">memory</text>
</g>
<!-- Node15&#45;&gt;Node17 -->
<g id="edge24" class="edge"><title>Node15&#45;&gt;Node17</title>
<path fill="none" stroke="midnightblue" d="M1830.73,-142.208C1734.97,-139.24 1419.1,-127.397 1322.5,-98 1317.55,-96.4921 1312.51,-94.2362 1307.84,-91.7764"/>
<polygon fill="midnightblue" stroke="midnightblue" points="1309.32,-88.5859 1298.91,-86.6152 1305.81,-94.6475 1309.32,-88.5859"/>
</g>
<!-- Node18 -->
<g id="node18" class="node"><title>Node18</title>
<polygon fill="none" stroke="#bfbfbf" points="1331,-67.5 1331,-86.5 1378,-86.5 1378,-67.5 1331,-67.5"/>
<text text-anchor="middle" x="1354.5" y="-74.5" font-family="Helvetica,sans-Serif" font-size="10.00">iterator</text>
</g>
<!-- Node15&#45;&gt;Node18 -->
<g id="edge25" class="edge"><title>Node15&#45;&gt;Node18</title>
<path fill="none" stroke="midnightblue" d="M1830.75,-141.972C1742.73,-138.459 1470.73,-125.589 1387.5,-98 1383.01,-96.5134 1378.5,-94.3278 1374.3,-91.9412"/>
<polygon fill="midnightblue" stroke="midnightblue" points="1376.11,-88.9445 1365.78,-86.589 1372.39,-94.872 1376.11,-88.9445"/>
</g>
<!-- Node19 -->
<g id="node19" class="node"><title>Node19</title>
<polygon fill="none" stroke="#bfbfbf" points="1396.5,-67.5 1396.5,-86.5 1434.5,-86.5 1434.5,-67.5 1396.5,-67.5"/>
<text text-anchor="middle" x="1415.5" y="-74.5" font-family="Helvetica,sans-Serif" font-size="10.00">tuple</text>
</g>
<!-- Node15&#45;&gt;Node19 -->
<g id="edge26" class="edge"><title>Node15&#45;&gt;Node19</title>
<path fill="none" stroke="midnightblue" d="M1830.96,-141.768C1750.32,-137.885 1515.91,-124.553 1444.5,-98 1440.78,-96.6184 1437.09,-94.6545 1433.65,-92.4916"/>
<polygon fill="midnightblue" stroke="midnightblue" points="1435.46,-89.4829 1425.27,-86.565 1431.41,-95.1976 1435.46,-89.4829"/>
</g>
<!-- Node20 -->
<g id="node20" class="node"><title>Node20</title>
<polygon fill="none" stroke="#bfbfbf" points="1453,-67.5 1453,-86.5 1482,-86.5 1482,-67.5 1453,-67.5"/>
<text text-anchor="middle" x="1467.5" y="-74.5" font-family="Helvetica,sans-Serif" font-size="10.00">ios</text>
</g>
<!-- Node15&#45;&gt;Node20 -->
<g id="edge27" class="edge"><title>Node15&#45;&gt;Node20</title>
<path fill="none" stroke="midnightblue" d="M1830.82,-141.629C1756.26,-137.617 1552.7,-124.48 1491.5,-98 1488.7,-96.7884 1485.97,-95.1437 1483.42,-93.3147"/>
<polygon fill="midnightblue" stroke="midnightblue" points="1485.48,-90.4779 1475.57,-86.7479 1480.99,-95.8478 1485.48,-90.4779"/>
</g>
<!-- Node21 -->
<g id="node21" class="node"><title>Node21</title>
<polygon fill="none" stroke="#bfbfbf" points="1500,-56.5 1500,-97.5 1619,-97.5 1619,-56.5 1500,-56.5"/>
<text text-anchor="start" x="1508" y="-85.5" font-family="Helvetica,sans-Serif" font-size="10.00">/home/mathias/Bureau</text>
<text text-anchor="start" x="1508" y="-74.5" font-family="Helvetica,sans-Serif" font-size="10.00">/Algo/QTTests/Widgets</text>
<text text-anchor="middle" x="1559.5" y="-63.5" font-family="Helvetica,sans-Serif" font-size="10.00">/C++/bdd.hpp</text>
</g>
<!-- Node15&#45;&gt;Node21 -->
<g id="edge28" class="edge"><title>Node15&#45;&gt;Node21</title>
<path fill="none" stroke="midnightblue" d="M1830.71,-138.386C1789.08,-131.296 1707.88,-116.785 1629.32,-98.0929"/>
<polygon fill="midnightblue" stroke="midnightblue" points="1629.79,-94.6081 1619.25,-95.6719 1628.16,-101.414 1629.79,-94.6081"/>
</g>
<!-- Node22 -->
<g id="node22" class="node"><title>Node22</title>
<polygon fill="none" stroke="#bfbfbf" points="1637,-67.5 1637,-86.5 1726,-86.5 1726,-67.5 1637,-67.5"/>
<text text-anchor="middle" x="1681.5" y="-74.5" font-family="Helvetica,sans-Serif" font-size="10.00">cppconn/driver.h</text>
</g>
<!-- Node15&#45;&gt;Node22 -->
<g id="edge29" class="edge"><title>Node15&#45;&gt;Node22</title>
<path fill="none" stroke="midnightblue" d="M1834.91,-134.401C1810.14,-125.365 1770.07,-110.725 1735.5,-98 1728.69,-95.494 1721.41,-92.8018 1714.46,-90.2303"/>
<polygon fill="midnightblue" stroke="midnightblue" points="1715.21,-86.7766 1704.62,-86.5848 1712.78,-93.3407 1715.21,-86.7766"/>
</g>
<!-- Node23 -->
<g id="node23" class="node"><title>Node23</title>
<polygon fill="none" stroke="#bfbfbf" points="1744,-67.5 1744,-86.5 1851,-86.5 1851,-67.5 1744,-67.5"/>
<text text-anchor="middle" x="1797.5" y="-74.5" font-family="Helvetica,sans-Serif" font-size="10.00">cppconn/exception.h</text>
</g>
<!-- Node15&#45;&gt;Node23 -->
<g id="edge30" class="edge"><title>Node15&#45;&gt;Node23</title>
<path fill="none" stroke="midnightblue" d="M1850.27,-134.234C1840.67,-124 1824.59,-106.864 1812.7,-94.1924"/>
<polygon fill="midnightblue" stroke="midnightblue" points="1814.99,-91.5241 1805.6,-86.6273 1809.89,-96.3143 1814.99,-91.5241"/>
</g>
<!-- Node24 -->
<g id="node24" class="node"><title>Node24</title>
<polygon fill="none" stroke="#bfbfbf" points="1868.5,-67.5 1868.5,-86.5 1970.5,-86.5 1970.5,-67.5 1868.5,-67.5"/>
<text text-anchor="middle" x="1919.5" y="-74.5" font-family="Helvetica,sans-Serif" font-size="10.00">cppconn/resultset.h</text>
</g>
<!-- Node15&#45;&gt;Node24 -->
<g id="edge31" class="edge"><title>Node15&#45;&gt;Node24</title>
<path fill="none" stroke="midnightblue" d="M1866.73,-134.234C1876.33,-124 1892.41,-106.864 1904.3,-94.1924"/>
<polygon fill="midnightblue" stroke="midnightblue" points="1907.11,-96.3143 1911.4,-86.6273 1902.01,-91.5241 1907.11,-96.3143"/>
</g>
<!-- Node25 -->
<g id="node25" class="node"><title>Node25</title>
<polygon fill="none" stroke="#bfbfbf" points="1988.5,-67.5 1988.5,-86.5 2096.5,-86.5 2096.5,-67.5 1988.5,-67.5"/>
<text text-anchor="middle" x="2042.5" y="-74.5" font-family="Helvetica,sans-Serif" font-size="10.00">cppconn/statement.h</text>
</g>
<!-- Node15&#45;&gt;Node25 -->
<g id="edge32" class="edge"><title>Node15&#45;&gt;Node25</title>
<path fill="none" stroke="midnightblue" d="M1882.93,-134.369C1915.19,-122.973 1972.15,-102.853 2008.57,-89.9869"/>
<polygon fill="midnightblue" stroke="midnightblue" points="2010,-93.1948 2018.26,-86.5637 2007.66,-86.5945 2010,-93.1948"/>
</g>
<!-- Node26 -->
<g id="node26" class="node"><title>Node26</title>
<polygon fill="none" stroke="#bfbfbf" points="2115,-67.5 2115,-86.5 2174,-86.5 2174,-67.5 2115,-67.5"/>
<text text-anchor="middle" x="2144.5" y="-74.5" font-family="Helvetica,sans-Serif" font-size="10.00">functional</text>
</g>
<!-- Node15&#45;&gt;Node26 -->
<g id="edge33" class="edge"><title>Node15&#45;&gt;Node26</title>
<path fill="none" stroke="midnightblue" d="M1886.33,-136.012C1889.42,-135.302 1892.52,-134.617 1895.5,-134 1988.23,-114.798 2015.67,-127.951 2105.5,-98 2110.69,-96.2694 2116.04,-93.9331 2121.05,-91.4679"/>
<polygon fill="midnightblue" stroke="midnightblue" points="2122.92,-94.4421 2130.15,-86.6937 2119.66,-88.2448 2122.92,-94.4421"/>
</g>
<!-- Node27 -->
<g id="node27" class="node"><title>Node27</title>
<polygon fill="none" stroke="#bfbfbf" points="2192,-56.5 2192,-97.5 2311,-97.5 2311,-56.5 2192,-56.5"/>
<text text-anchor="start" x="2200" y="-85.5" font-family="Helvetica,sans-Serif" font-size="10.00">/home/mathias/Bureau</text>
<text text-anchor="start" x="2200" y="-74.5" font-family="Helvetica,sans-Serif" font-size="10.00">/Algo/QTTests/Widgets</text>
<text text-anchor="middle" x="2251.5" y="-63.5" font-family="Helvetica,sans-Serif" font-size="10.00">/C++/errors.hpp</text>
</g>
<!-- Node15&#45;&gt;Node27 -->
<g id="edge34" class="edge"><title>Node15&#45;&gt;Node27</title>
<path fill="none" stroke="midnightblue" d="M1886.31,-135.875C1889.4,-135.191 1892.51,-134.549 1895.5,-134 2019.16,-111.309 2055.38,-123.62 2181.86,-98.1781"/>
<polygon fill="midnightblue" stroke="midnightblue" points="2182.84,-101.55 2191.93,-96.1115 2181.43,-94.6929 2182.84,-101.55"/>
</g>
<!-- Node28 -->
<g id="node28" class="node"><title>Node28</title>
<polygon fill="none" stroke="#bfbfbf" points="2329,-56.5 2329,-97.5 2448,-97.5 2448,-56.5 2329,-56.5"/>
<text text-anchor="start" x="2337" y="-85.5" font-family="Helvetica,sans-Serif" font-size="10.00">/home/mathias/Bureau</text>
<text text-anchor="start" x="2337" y="-74.5" font-family="Helvetica,sans-Serif" font-size="10.00">/Algo/QTTests/Widgets</text>
<text text-anchor="middle" x="2388.5" y="-63.5" font-family="Helvetica,sans-Serif" font-size="10.00">/C++/console.hpp</text>
</g>
<!-- Node15&#45;&gt;Node28 -->
<g id="edge35" class="edge"><title>Node15&#45;&gt;Node28</title>
<path fill="none" stroke="midnightblue" d="M1886.29,-135.755C1889.38,-135.093 1892.5,-134.489 1895.5,-134 2079.4,-104.029 2132.38,-131.934 2319.1,-98.0719"/>
<polygon fill="midnightblue" stroke="midnightblue" points="2319.76,-101.508 2328.96,-96.249 2318.49,-94.6249 2319.76,-101.508"/>
</g>
<!-- Node29 -->
<g id="node29" class="node"><title>Node29</title>
<polygon fill="none" stroke="#bfbfbf" points="2466,-56.5 2466,-97.5 2585,-97.5 2585,-56.5 2466,-56.5"/>
<text text-anchor="start" x="2474" y="-85.5" font-family="Helvetica,sans-Serif" font-size="10.00">/home/mathias/Bureau</text>
<text text-anchor="start" x="2474" y="-74.5" font-family="Helvetica,sans-Serif" font-size="10.00">/Algo/QTTests/Widgets</text>
<text text-anchor="middle" x="2525.5" y="-63.5" font-family="Helvetica,sans-Serif" font-size="10.00">/C++/convert.hpp</text>
</g>
<!-- Node15&#45;&gt;Node29 -->
<g id="edge36" class="edge"><title>Node15&#45;&gt;Node29</title>
<path fill="none" stroke="midnightblue" d="M1886.28,-135.693C1889.37,-135.043 1892.49,-134.458 1895.5,-134 2139.67,-96.7754 2209.21,-140.4 2455.99,-98.0632"/>
<polygon fill="midnightblue" stroke="midnightblue" points="2456.73,-101.488 2465.97,-96.32 2455.52,-94.5918 2456.73,-101.488"/>
</g>
<!-- Node30 -->
<g id="node30" class="node"><title>Node30</title>
<polygon fill="none" stroke="#bfbfbf" points="2603.5,-67.5 2603.5,-86.5 2655.5,-86.5 2655.5,-67.5 2603.5,-67.5"/>
<text text-anchor="middle" x="2629.5" y="-74.5" font-family="Helvetica,sans-Serif" font-size="10.00">sstream</text>
</g>
<!-- Node15&#45;&gt;Node30 -->
<g id="edge37" class="edge"><title>Node15&#45;&gt;Node30</title>
<path fill="none" stroke="midnightblue" d="M1886.27,-135.655C1889.37,-135.012 1892.49,-134.44 1895.5,-134 2049.41,-111.521 2445.25,-141.776 2594.5,-98 2599.44,-96.5498 2604.44,-94.2795 2609.05,-91.7808"/>
<polygon fill="midnightblue" stroke="midnightblue" points="2611.04,-94.6643 2617.82,-86.5205 2607.45,-88.6606 2611.04,-94.6643"/>
</g>
<!-- Node31 -->
<g id="node31" class="node"><title>Node31</title>
<polygon fill="none" stroke="#bfbfbf" points="2674,-67.5 2674,-86.5 2715,-86.5 2715,-67.5 2674,-67.5"/>
<text text-anchor="middle" x="2694.5" y="-74.5" font-family="Helvetica,sans-Serif" font-size="10.00">string</text>
</g>
<!-- Node15&#45;&gt;Node31 -->
<g id="edge38" class="edge"><title>Node15&#45;&gt;Node31</title>
<path fill="none" stroke="midnightblue" d="M1886.27,-135.64C1889.37,-135 1892.49,-134.432 1895.5,-134 2064.84,-109.671 2501.97,-151.391 2664.5,-98 2668.53,-96.6752 2672.53,-94.649 2676.24,-92.3858"/>
<polygon fill="midnightblue" stroke="midnightblue" points="2678.45,-95.109 2684.68,-86.5365 2674.47,-89.3553 2678.45,-95.109"/>
</g>
<!-- Node32 -->
<g id="node32" class="node"><title>Node32</title>
<polygon fill="none" stroke="#bfbfbf" points="2733.5,-67.5 2733.5,-86.5 2789.5,-86.5 2789.5,-67.5 2733.5,-67.5"/>
<text text-anchor="middle" x="2761.5" y="-74.5" font-family="Helvetica,sans-Serif" font-size="10.00">algorithm</text>
</g>
<!-- Node15&#45;&gt;Node32 -->
<g id="edge39" class="edge"><title>Node15&#45;&gt;Node32</title>
<path fill="none" stroke="midnightblue" d="M1886.27,-135.63C1889.37,-134.992 1892.49,-134.427 1895.5,-134 2078.07,-108.086 2546.76,-147.091 2724.5,-98 2729.82,-96.5311 2735.22,-94.1869 2740.19,-91.612"/>
<polygon fill="midnightblue" stroke="midnightblue" points="2742.14,-94.5346 2749.09,-86.5459 2738.67,-88.4511 2742.14,-94.5346"/>
</g>
<!-- Node33 -->
<g id="node33" class="node"><title>Node33</title>
<polygon fill="none" stroke="#bfbfbf" points="2808,-67.5 2808,-86.5 2859,-86.5 2859,-67.5 2808,-67.5"/>
<text text-anchor="middle" x="2833.5" y="-74.5" font-family="Helvetica,sans-Serif" font-size="10.00">numeric</text>
</g>
<!-- Node15&#45;&gt;Node33 -->
<g id="edge40" class="edge"><title>Node15&#45;&gt;Node33</title>
<path fill="none" stroke="midnightblue" d="M1886.27,-135.619C1889.36,-134.983 1892.49,-134.422 1895.5,-134 2094.38,-106.13 2605.47,-153.402 2798.5,-98 2803.45,-96.5785 2808.45,-94.3204 2813.06,-91.8245"/>
<polygon fill="midnightblue" stroke="midnightblue" points="2815.06,-94.7063 2821.83,-86.5591 2811.46,-88.7044 2815.06,-94.7063"/>
</g>
<!-- Node34 -->
<g id="node34" class="node"><title>Node34</title>
<polygon fill="none" stroke="#bfbfbf" points="2877.5,-67.5 2877.5,-86.5 2939.5,-86.5 2939.5,-67.5 2877.5,-67.5"/>
<text text-anchor="middle" x="2908.5" y="-74.5" font-family="Helvetica,sans-Serif" font-size="10.00">type_traits</text>
</g>
<!-- Node15&#45;&gt;Node34 -->
<g id="edge41" class="edge"><title>Node15&#45;&gt;Node34</title>
<path fill="none" stroke="midnightblue" d="M1886.26,-135.611C1889.36,-134.976 1892.49,-134.418 1895.5,-134 2109.82,-104.279 2658.87,-151.597 2868.5,-98 2874.33,-96.5095 2880.3,-94.0885 2885.78,-91.4369"/>
<polygon fill="midnightblue" stroke="midnightblue" points="2887.79,-94.3316 2895,-86.5664 2884.53,-88.1419 2887.79,-94.3316"/>
</g>
<!-- Node35 -->
<g id="node35" class="node"><title>Node35</title>
<polygon fill="none" stroke="#bfbfbf" points="2958,-56.5 2958,-97.5 3077,-97.5 3077,-56.5 2958,-56.5"/>
<text text-anchor="start" x="2966" y="-85.5" font-family="Helvetica,sans-Serif" font-size="10.00">/home/mathias/Bureau</text>
<text text-anchor="start" x="2966" y="-74.5" font-family="Helvetica,sans-Serif" font-size="10.00">/Algo/QTTests/Widgets</text>
<text text-anchor="middle" x="3017.5" y="-63.5" font-family="Helvetica,sans-Serif" font-size="10.00">/C++/types.hpp</text>
</g>
<!-- Node15&#45;&gt;Node35 -->
<g id="edge42" class="edge"><title>Node15&#45;&gt;Node35</title>
<path fill="none" stroke="midnightblue" d="M1886.26,-135.602C1889.36,-134.969 1892.49,-134.413 1895.5,-134 2356.14,-70.7799 2484.26,-170.321 2947.9,-97.8423"/>
<polygon fill="midnightblue" stroke="midnightblue" points="2948.54,-101.285 2957.87,-96.2655 2947.44,-94.3708 2948.54,-101.285"/>
</g>
<!-- Node36 -->
<g id="node36" class="node"><title>Node36</title>
<polygon fill="none" stroke="#bfbfbf" points="3095,-67.5 3095,-86.5 3146,-86.5 3146,-67.5 3095,-67.5"/>
<text text-anchor="middle" x="3120.5" y="-74.5" font-family="Helvetica,sans-Serif" font-size="10.00">typeinfo</text>
</g>
<!-- Node15&#45;&gt;Node36 -->
<g id="edge44" class="edge"><title>Node15&#45;&gt;Node36</title>
<path fill="none" stroke="midnightblue" d="M1886.26,-135.59C1889.36,-134.959 1892.49,-134.408 1895.5,-134 2157.9,-98.5161 2832.1,-171.423 3086.5,-98 3091.34,-96.6019 3096.21,-94.3537 3100.69,-91.8601"/>
<polygon fill="midnightblue" stroke="midnightblue" points="3102.55,-94.8287 3109.21,-86.5905 3098.87,-88.8761 3102.55,-94.8287"/>
</g>
<!-- Node37 -->
<g id="node37" class="node"><title>Node37</title>
<polygon fill="none" stroke="#bfbfbf" points="3164,-56.5 3164,-97.5 3283,-97.5 3283,-56.5 3164,-56.5"/>
<text text-anchor="start" x="3172" y="-85.5" font-family="Helvetica,sans-Serif" font-size="10.00">/home/mathias/Bureau</text>
<text text-anchor="start" x="3172" y="-74.5" font-family="Helvetica,sans-Serif" font-size="10.00">/Algo/QTTests/Widgets</text>
<text text-anchor="middle" x="3223.5" y="-63.5" font-family="Helvetica,sans-Serif" font-size="10.00">/C++/files.hpp</text>
</g>
<!-- Node15&#45;&gt;Node37 -->
<g id="edge45" class="edge"><title>Node15&#45;&gt;Node37</title>
<path fill="none" stroke="midnightblue" d="M1886.26,-135.585C1889.36,-134.955 1892.49,-134.405 1895.5,-134 2447.35,-59.8389 2600.32,-184.23 3153.75,-98.0543"/>
<polygon fill="midnightblue" stroke="midnightblue" points="3154.66,-101.455 3163.99,-96.4428 3153.57,-94.5399 3154.66,-101.455"/>
</g>
<!-- Node38 -->
<g id="node38" class="node"><title>Node38</title>
<polygon fill="none" stroke="#bfbfbf" points="3301.5,-67.5 3301.5,-86.5 3351.5,-86.5 3351.5,-67.5 3301.5,-67.5"/>
<text text-anchor="middle" x="3326.5" y="-74.5" font-family="Helvetica,sans-Serif" font-size="10.00">fstream</text>
</g>
<!-- Node15&#45;&gt;Node38 -->
<g id="edge46" class="edge"><title>Node15&#45;&gt;Node38</title>
<path fill="none" stroke="midnightblue" d="M1886.26,-135.576C1889.36,-134.948 1892.49,-134.401 1895.5,-134 2049.42,-113.535 3143.22,-140.723 3292.5,-98 3297.35,-96.6127 3302.22,-94.3691 3306.7,-91.8765"/>
<polygon fill="midnightblue" stroke="midnightblue" points="3308.55,-94.8445 3315.22,-86.605 3304.87,-88.8926 3308.55,-94.8445"/>
</g>
<!-- Node39 -->
<g id="node39" class="node"><title>Node39</title>
<polygon fill="none" stroke="#bfbfbf" points="3370,-56.5 3370,-97.5 3489,-97.5 3489,-56.5 3370,-56.5"/>
<text text-anchor="start" x="3378" y="-85.5" font-family="Helvetica,sans-Serif" font-size="10.00">/home/mathias/Bureau</text>
<text text-anchor="start" x="3378" y="-74.5" font-family="Helvetica,sans-Serif" font-size="10.00">/Algo/QTTests/Widgets</text>
<text text-anchor="middle" x="3429.5" y="-63.5" font-family="Helvetica,sans-Serif" font-size="10.00">/C++/time.hpp</text>
</g>
<!-- Node15&#45;&gt;Node39 -->
<g id="edge48" class="edge"><title>Node15&#45;&gt;Node39</title>
<path fill="none" stroke="midnightblue" d="M1886.26,-135.573C1889.36,-134.945 1892.49,-134.399 1895.5,-134 2537.87,-48.9804 2715.02,-195.963 3359.87,-97.8383"/>
<polygon fill="midnightblue" stroke="midnightblue" points="3360.52,-101.279 3369.87,-96.3017 3359.46,-94.3601 3360.52,-101.279"/>
</g>
<!-- Node40 -->
<g id="node40" class="node"><title>Node40</title>
<polygon fill="none" stroke="#bfbfbf" points="3507,-67.5 3507,-86.5 3548,-86.5 3548,-67.5 3507,-67.5"/>
<text text-anchor="middle" x="3527.5" y="-74.5" font-family="Helvetica,sans-Serif" font-size="10.00">ctime</text>
</g>
<!-- Node15&#45;&gt;Node40 -->
<g id="edge49" class="edge"><title>Node15&#45;&gt;Node40</title>
<path fill="none" stroke="midnightblue" d="M1886.26,-135.566C1889.36,-134.94 1892.48,-134.396 1895.5,-134 2072.14,-110.811 3329.01,-152.874 3498.5,-98 3502.45,-96.7226 3506.34,-94.7185 3509.92,-92.4625"/>
<polygon fill="midnightblue" stroke="midnightblue" points="3512,-95.2828 3518.08,-86.6055 3507.91,-89.5979 3512,-95.2828"/>
</g>
<!-- Node41 -->
<g id="node41" class="node"><title>Node41</title>
<polygon fill="none" stroke="#bfbfbf" points="3566.5,-67.5 3566.5,-86.5 3610.5,-86.5 3610.5,-67.5 3566.5,-67.5"/>
<text text-anchor="middle" x="3588.5" y="-74.5" font-family="Helvetica,sans-Serif" font-size="10.00">thread</text>
</g>
<!-- Node15&#45;&gt;Node41 -->
<g id="edge50" class="edge"><title>Node15&#45;&gt;Node41</title>
<path fill="none" stroke="midnightblue" d="M1886.26,-135.564C1889.36,-134.938 1892.48,-134.395 1895.5,-134 2078.65,-110.031 3380.89,-152.111 3557.5,-98 3561.77,-96.6913 3566.02,-94.611 3569.93,-92.2768"/>
<polygon fill="midnightblue" stroke="midnightblue" points="3572,-95.1062 3578.33,-86.6129 3568.08,-89.3028 3572,-95.1062"/>
</g>
<!-- Node42 -->
<g id="node42" class="node"><title>Node42</title>
<polygon fill="none" stroke="#bfbfbf" points="3628.5,-67.5 3628.5,-86.5 3672.5,-86.5 3672.5,-67.5 3628.5,-67.5"/>
<text text-anchor="middle" x="3650.5" y="-74.5" font-family="Helvetica,sans-Serif" font-size="10.00">mutex</text>
</g>
<!-- Node15&#45;&gt;Node42 -->
<g id="edge51" class="edge"><title>Node15&#45;&gt;Node42</title>
<path fill="none" stroke="midnightblue" d="M1886.26,-135.562C1889.36,-134.936 1892.48,-134.393 1895.5,-134 2085.49,-109.211 3436.29,-154.057 3619.5,-98 3623.77,-96.6929 3628.02,-94.6134 3631.93,-92.2794"/>
<polygon fill="midnightblue" stroke="midnightblue" points="3634,-95.1088 3640.33,-86.6152 3630.08,-89.3054 3634,-95.1088"/>
</g>
<!-- Node43 -->
<g id="node43" class="node"><title>Node43</title>
<polygon fill="none" stroke="#bfbfbf" points="3691,-56.5 3691,-97.5 3810,-97.5 3810,-56.5 3691,-56.5"/>
<text text-anchor="start" x="3699" y="-85.5" font-family="Helvetica,sans-Serif" font-size="10.00">/home/mathias/Bureau</text>
<text text-anchor="start" x="3699" y="-74.5" font-family="Helvetica,sans-Serif" font-size="10.00">/Algo/QTTests/Widgets</text>
<text text-anchor="middle" x="3750.5" y="-63.5" font-family="Helvetica,sans-Serif" font-size="10.00">/C++/pointers.hpp</text>
</g>
<!-- Node15&#45;&gt;Node43 -->
<g id="edge52" class="edge"><title>Node15&#45;&gt;Node43</title>
<path fill="none" stroke="midnightblue" d="M1886.26,-135.559C1889.36,-134.934 1892.48,-134.392 1895.5,-134 2285.88,-83.2077 3272.5,-156.533 3680.75,-97.8205"/>
<polygon fill="midnightblue" stroke="midnightblue" points="3681.5,-101.248 3690.88,-96.3183 3680.47,-94.3233 3681.5,-101.248"/>
</g>
<!-- Node44 -->
<g id="node44" class="node"><title>Node44</title>
<polygon fill="none" stroke="#bfbfbf" points="3828,-56.5 3828,-97.5 3947,-97.5 3947,-56.5 3828,-56.5"/>
<text text-anchor="start" x="3836" y="-85.5" font-family="Helvetica,sans-Serif" font-size="10.00">/home/mathias/Bureau</text>
<text text-anchor="start" x="3836" y="-74.5" font-family="Helvetica,sans-Serif" font-size="10.00">/Algo/QTTests/Widgets</text>
<text text-anchor="middle" x="3887.5" y="-63.5" font-family="Helvetica,sans-Serif" font-size="10.00">/C++/string.hpp</text>
</g>
<!-- Node15&#45;&gt;Node44 -->
<g id="edge53" class="edge"><title>Node15&#45;&gt;Node44</title>
<path fill="none" stroke="midnightblue" d="M1886.26,-135.555C1889.36,-134.931 1892.48,-134.39 1895.5,-134 2316.39,-79.5484 3380.56,-161.65 3817.74,-98.0332"/>
<polygon fill="midnightblue" stroke="midnightblue" points="3818.26,-101.494 3827.63,-96.5523 3817.22,-94.5716 3818.26,-101.494"/>
</g>
<!-- Node45 -->
<g id="node45" class="node"><title>Node45</title>
<polygon fill="none" stroke="#bfbfbf" points="625.5,-67.5 625.5,-86.5 667.5,-86.5 667.5,-67.5 625.5,-67.5"/>
<text text-anchor="middle" x="646.5" y="-74.5" font-family="Helvetica,sans-Serif" font-size="10.00">locale</text>
</g>
<!-- Node15&#45;&gt;Node45 -->
<g id="edge54" class="edge"><title>Node15&#45;&gt;Node45</title>
<path fill="none" stroke="midnightblue" d="M1830.96,-142.822C1664,-141.627 790.689,-133.7 677.5,-98 673.24,-96.6562 668.999,-94.56 665.085,-92.2211"/>
<polygon fill="midnightblue" stroke="midnightblue" points="666.934,-89.2471 656.685,-86.5632 663.024,-95.0528 666.934,-89.2471"/>
</g>
<!-- Node46 -->
<g id="node46" class="node"><title>Node46</title>
<polygon fill="none" stroke="#bfbfbf" points="686,-56.5 686,-97.5 805,-97.5 805,-56.5 686,-56.5"/>
<text text-anchor="start" x="694" y="-85.5" font-family="Helvetica,sans-Serif" font-size="10.00">/home/mathias/Bureau</text>
<text text-anchor="start" x="694" y="-74.5" font-family="Helvetica,sans-Serif" font-size="10.00">/Algo/QTTests/Widgets</text>
<text text-anchor="middle" x="745.5" y="-63.5" font-family="Helvetica,sans-Serif" font-size="10.00">/C++/macro.hpp</text>
</g>
<!-- Node15&#45;&gt;Node46 -->
<g id="edge55" class="edge"><title>Node15&#45;&gt;Node46</title>
<path fill="none" stroke="midnightblue" d="M1830.61,-142.699C1687.98,-141.023 1038.45,-131.731 815.13,-97.8135"/>
<polygon fill="midnightblue" stroke="midnightblue" points="815.563,-94.3385 805.138,-96.2321 814.468,-101.252 815.563,-94.3385"/>
</g>
<!-- Node47 -->
<g id="node47" class="node"><title>Node47</title>
<polygon fill="none" stroke="#bfbfbf" points="823,-56.5 823,-97.5 942,-97.5 942,-56.5 823,-56.5"/>
<text text-anchor="start" x="831" y="-85.5" font-family="Helvetica,sans-Serif" font-size="10.00">/home/mathias/Bureau</text>
<text text-anchor="start" x="831" y="-74.5" font-family="Helvetica,sans-Serif" font-size="10.00">/Algo/QTTests/Widgets</text>
<text text-anchor="middle" x="882.5" y="-63.5" font-family="Helvetica,sans-Serif" font-size="10.00">/C++/array.hpp</text>
</g>
<!-- Node15&#45;&gt;Node47 -->
<g id="edge56" class="edge"><title>Node15&#45;&gt;Node47</title>
<path fill="none" stroke="midnightblue" d="M1830.85,-142.494C1700.62,-139.982 1146.96,-127.817 952.245,-97.8342"/>
<polygon fill="midnightblue" stroke="midnightblue" points="952.572,-94.3418 942.143,-96.2077 951.459,-101.253 952.572,-94.3418"/>
</g>
<!-- Node48 -->
<g id="node48" class="node"><title>Node48</title>
<polygon fill="none" stroke="#bfbfbf" points="960,-56.5 960,-97.5 1079,-97.5 1079,-56.5 960,-56.5"/>
<text text-anchor="start" x="968" y="-85.5" font-family="Helvetica,sans-Serif" font-size="10.00">/home/mathias/Bureau</text>
<text text-anchor="start" x="968" y="-74.5" font-family="Helvetica,sans-Serif" font-size="10.00">/Algo/QTTests/Widgets</text>
<text text-anchor="middle" x="1019.5" y="-63.5" font-family="Helvetica,sans-Serif" font-size="10.00">/C++/RNG.hpp</text>
</g>
<!-- Node15&#45;&gt;Node48 -->
<g id="edge57" class="edge"><title>Node15&#45;&gt;Node48</title>
<path fill="none" stroke="midnightblue" d="M1830.75,-142.211C1713.18,-138.741 1254.99,-123.922 1089.17,-97.8285"/>
<polygon fill="midnightblue" stroke="midnightblue" points="1089.58,-94.3491 1079.15,-96.1746 1088.45,-101.256 1089.58,-94.3491"/>
</g>
<!-- Node49 -->
<g id="node49" class="node"><title>Node49</title>
<polygon fill="none" stroke="#bfbfbf" points="1097,-67.5 1097,-86.5 1146,-86.5 1146,-67.5 1097,-67.5"/>
<text text-anchor="middle" x="1121.5" y="-74.5" font-family="Helvetica,sans-Serif" font-size="10.00">random</text>
</g>
<!-- Node15&#45;&gt;Node49 -->
<g id="edge58" class="edge"><title>Node15&#45;&gt;Node49</title>
<path fill="none" stroke="midnightblue" d="M1830.95,-142.717C1717.99,-141.326 1290.15,-133.757 1160.5,-98 1154.91,-96.4574 1149.19,-94.0594 1143.91,-91.4524"/>
<polygon fill="midnightblue" stroke="midnightblue" points="1145.48,-88.3234 1135.01,-86.6738 1142.17,-94.4898 1145.48,-88.3234"/>
</g>
</g>
</svg>
