<?xml version="1.0" encoding="UTF-8" standalone="no"?>
<!DOCTYPE svg PUBLIC "-//W3C//DTD SVG 1.1//EN"
 "http://www.w3.org/Graphics/SVG/1.1/DTD/svg11.dtd">
<!-- Generated by graphviz version 2.38.0 (20140413.2041)
 -->
<!-- Title: WindowButton.hpp Pages: 1 -->
<svg width="112pt" height="252pt"
 viewBox="0.00 0.00 112.00 252.00" xmlns="http://www.w3.org/2000/svg" xmlns:xlink="http://www.w3.org/1999/xlink">
<g id="graph0" class="graph" transform="scale(1 1) rotate(0) translate(4 248)">
<title>WindowButton.hpp</title>
<!-- Node1 -->
<g id="node1" class="node"><title>Node1</title>
<polygon fill="#bfbfbf" stroke="black" points="2.5,-224.5 2.5,-243.5 101.5,-243.5 101.5,-224.5 2.5,-224.5"/>
<text text-anchor="middle" x="52" y="-231.5" font-family="Helvetica,sans-Serif" font-size="10.00">WindowButton.hpp</text>
</g>
<!-- Node2 -->
<g id="node2" class="node"><title>Node2</title>
<g id="a_node2"><a xlink:href="../../d6/d5b/a00026.php" target="_top" xlink:title="WindowTitleBar.hpp">
<polygon fill="none" stroke="black" points="0,-168.5 0,-187.5 104,-187.5 104,-168.5 0,-168.5"/>
<text text-anchor="middle" x="52" y="-175.5" font-family="Helvetica,sans-Serif" font-size="10.00">WindowTitleBar.hpp</text>
</a>
</g>
</g>
<!-- Node1&#45;&gt;Node2 -->
<g id="edge1" class="edge"><title>Node1&#45;&gt;Node2</title>
<path fill="none" stroke="midnightblue" d="M52,-213.805C52,-204.91 52,-194.78 52,-187.751"/>
<polygon fill="midnightblue" stroke="midnightblue" points="48.5001,-214.083 52,-224.083 55.5001,-214.083 48.5001,-214.083"/>
</g>
<!-- Node3 -->
<g id="node3" class="node"><title>Node3</title>
<g id="a_node3"><a xlink:href="../../dc/de2/a00024.php" target="_top" xlink:title="Window.hpp">
<polygon fill="none" stroke="black" points="16.5,-112.5 16.5,-131.5 87.5,-131.5 87.5,-112.5 16.5,-112.5"/>
<text text-anchor="middle" x="52" y="-119.5" font-family="Helvetica,sans-Serif" font-size="10.00">Window.hpp</text>
</a>
</g>
</g>
<!-- Node2&#45;&gt;Node3 -->
<g id="edge2" class="edge"><title>Node2&#45;&gt;Node3</title>
<path fill="none" stroke="midnightblue" d="M52,-157.805C52,-148.91 52,-138.78 52,-131.751"/>
<polygon fill="midnightblue" stroke="midnightblue" points="48.5001,-158.083 52,-168.083 55.5001,-158.083 48.5001,-158.083"/>
</g>
<!-- Node4 -->
<g id="node4" class="node"><title>Node4</title>
<g id="a_node4"><a xlink:href="../../d4/d51/a00017.php" target="_top" xlink:title="Qt.hpp">
<polygon fill="none" stroke="black" points="29,-56.5 29,-75.5 75,-75.5 75,-56.5 29,-56.5"/>
<text text-anchor="middle" x="52" y="-63.5" font-family="Helvetica,sans-Serif" font-size="10.00">Qt.hpp</text>
</a>
</g>
</g>
<!-- Node3&#45;&gt;Node4 -->
<g id="edge3" class="edge"><title>Node3&#45;&gt;Node4</title>
<path fill="none" stroke="midnightblue" d="M52,-101.805C52,-92.9102 52,-82.7798 52,-75.7511"/>
<polygon fill="midnightblue" stroke="midnightblue" points="48.5001,-102.083 52,-112.083 55.5001,-102.083 48.5001,-102.083"/>
</g>
<!-- Node5 -->
<g id="node5" class="node"><title>Node5</title>
<g id="a_node5"><a xlink:href="../../d7/de0/a00022.php" target="_top" xlink:title="TableWidget.hpp">
<polygon fill="none" stroke="black" points="7,-0.5 7,-19.5 97,-19.5 97,-0.5 7,-0.5"/>
<text text-anchor="middle" x="52" y="-7.5" font-family="Helvetica,sans-Serif" font-size="10.00">TableWidget.hpp</text>
</a>
</g>
</g>
<!-- Node4&#45;&gt;Node5 -->
<g id="edge4" class="edge"><title>Node4&#45;&gt;Node5</title>
<path fill="none" stroke="midnightblue" d="M45.5276,-46.1005C44.8956,-37.1357 45.3427,-26.8579 46.869,-19.7511"/>
<polygon fill="midnightblue" stroke="midnightblue" points="42.0658,-46.6216 46.8337,-56.083 49.0067,-45.7134 42.0658,-46.6216"/>
</g>
<!-- Node5&#45;&gt;Node4 -->
<g id="edge5" class="edge"><title>Node5&#45;&gt;Node4</title>
<path fill="none" stroke="midnightblue" d="M58.4575,-29.6911C59.1062,-38.6353 58.6758,-48.9272 57.1663,-56.083"/>
<polygon fill="midnightblue" stroke="midnightblue" points="61.9231,-29.2002 57.131,-19.7511 54.9846,-30.1262 61.9231,-29.2002"/>
</g>
</g>
</svg>
