<?xml version="1.0" encoding="UTF-8" standalone="no"?>
<!DOCTYPE svg PUBLIC "-//W3C//DTD SVG 1.1//EN"
 "http://www.w3.org/Graphics/SVG/1.1/DTD/svg11.dtd">
<!-- Generated by graphviz version 2.38.0 (20140413.2041)
 -->
<!-- Title: Window.hpp Pages: 1 -->
<svg width="3670pt" height="386pt"
 viewBox="0.00 0.00 3669.50 386.00" xmlns="http://www.w3.org/2000/svg" xmlns:xlink="http://www.w3.org/1999/xlink">
<g id="graph0" class="graph" transform="scale(1 1) rotate(0) translate(4 382)">
<title>Window.hpp</title>
<!-- Node1 -->
<g id="node1" class="node"><title>Node1</title>
<polygon fill="#bfbfbf" stroke="black" points="417.5,-358.5 417.5,-377.5 488.5,-377.5 488.5,-358.5 417.5,-358.5"/>
<text text-anchor="middle" x="453" y="-365.5" font-family="Helvetica,sans-Serif" font-size="10.00">Window.hpp</text>
</g>
<!-- Node2 -->
<g id="node2" class="node"><title>Node2</title>
<polygon fill="none" stroke="#bfbfbf" points="101.5,-0.5 101.5,-19.5 164.5,-19.5 164.5,-0.5 101.5,-0.5"/>
<text text-anchor="middle" x="133" y="-7.5" font-family="Helvetica,sans-Serif" font-size="10.00">QtWidgets</text>
</g>
<!-- Node1&#45;&gt;Node2 -->
<g id="edge1" class="edge"><title>Node1&#45;&gt;Node2</title>
<path fill="none" stroke="midnightblue" d="M417.454,-365.971C310.663,-361.926 0,-342.787 0,-257 0,-257 0,-257 0,-143 0,-99.2612 14.9327,-86.7881 46,-56 60.4385,-41.6912 80.3626,-30.9335 97.501,-23.5304"/>
<polygon fill="midnightblue" stroke="midnightblue" points="99.2783,-26.5849 107.207,-19.5578 96.6268,-20.1065 99.2783,-26.5849"/>
</g>
<!-- Node3 -->
<g id="node3" class="node"><title>Node3</title>
<g id="a_node3"><a xlink:href="../../d6/d5b/a00026.php" target="_top" xlink:title="WindowTitleBar.hpp">
<polygon fill="none" stroke="black" points="401,-302.5 401,-321.5 505,-321.5 505,-302.5 401,-302.5"/>
<text text-anchor="middle" x="453" y="-309.5" font-family="Helvetica,sans-Serif" font-size="10.00">WindowTitleBar.hpp</text>
</a>
</g>
</g>
<!-- Node1&#45;&gt;Node3 -->
<g id="edge2" class="edge"><title>Node1&#45;&gt;Node3</title>
<path fill="none" stroke="midnightblue" d="M453,-358.083C453,-351.006 453,-340.861 453,-331.986"/>
<polygon fill="midnightblue" stroke="midnightblue" points="456.5,-331.751 453,-321.751 449.5,-331.751 456.5,-331.751"/>
</g>
<!-- Node5 -->
<g id="node5" class="node"><title>Node5</title>
<polygon fill="none" stroke="#bfbfbf" points="1655.5,-134.5 1655.5,-153.5 1732.5,-153.5 1732.5,-134.5 1655.5,-134.5"/>
<text text-anchor="middle" x="1694" y="-141.5" font-family="Helvetica,sans-Serif" font-size="10.00">C++/C++.hpp</text>
</g>
<!-- Node1&#45;&gt;Node5 -->
<g id="edge67" class="edge"><title>Node1&#45;&gt;Node5</title>
<path fill="none" stroke="midnightblue" d="M488.682,-360.805C632.281,-335.836 1182.07,-239.899 1645.38,-154.285"/>
<polygon fill="midnightblue" stroke="midnightblue" points="1646.08,-157.715 1655.28,-152.455 1644.81,-150.831 1646.08,-157.715"/>
</g>
<!-- Node3&#45;&gt;Node2 -->
<g id="edge3" class="edge"><title>Node3&#45;&gt;Node2</title>
<path fill="none" stroke="midnightblue" d="M400.86,-308.127C289.4,-300.559 38,-275.257 38,-201 38,-201 38,-201 38,-143 38,-92.3365 84.6735,-47.8443 112.591,-25.7632"/>
<polygon fill="midnightblue" stroke="midnightblue" points="114.767,-28.5053 120.58,-19.6479 110.512,-22.9467 114.767,-28.5053"/>
</g>
<!-- Node4 -->
<g id="node4" class="node"><title>Node4</title>
<g id="a_node4"><a xlink:href="../../d3/dfe/a00025.php" target="_top" xlink:title="WindowButton.hpp">
<polygon fill="none" stroke="black" points="403.5,-246.5 403.5,-265.5 502.5,-265.5 502.5,-246.5 403.5,-246.5"/>
<text text-anchor="middle" x="453" y="-253.5" font-family="Helvetica,sans-Serif" font-size="10.00">WindowButton.hpp</text>
</a>
</g>
</g>
<!-- Node3&#45;&gt;Node4 -->
<g id="edge4" class="edge"><title>Node3&#45;&gt;Node4</title>
<path fill="none" stroke="midnightblue" d="M453,-302.083C453,-295.006 453,-284.861 453,-275.986"/>
<polygon fill="midnightblue" stroke="midnightblue" points="456.5,-275.751 453,-265.751 449.5,-275.751 456.5,-275.751"/>
</g>
<!-- Node3&#45;&gt;Node5 -->
<g id="edge66" class="edge"><title>Node3&#45;&gt;Node5</title>
<path fill="none" stroke="midnightblue" d="M505.387,-304.656C633.107,-289.127 970.685,-247.719 1252,-210 1424.48,-186.874 1470.41,-183.256 1645.24,-154.238"/>
<polygon fill="midnightblue" stroke="midnightblue" points="1646.01,-157.659 1655.3,-152.565 1644.86,-150.754 1646.01,-157.659"/>
</g>
<!-- Node4&#45;&gt;Node2 -->
<g id="edge5" class="edge"><title>Node4&#45;&gt;Node2</title>
<path fill="none" stroke="midnightblue" d="M403.393,-255.744C328.935,-253.928 189.419,-238.592 118,-154 89.8304,-120.635 101.157,-98.5428 111,-56 113.23,-46.3627 117.821,-36.4052 122.236,-28.3149"/>
<polygon fill="midnightblue" stroke="midnightblue" points="125.351,-29.9216 127.362,-19.5194 119.303,-26.3968 125.351,-29.9216"/>
</g>
<!-- Node4&#45;&gt;Node5 -->
<g id="edge6" class="edge"><title>Node4&#45;&gt;Node5</title>
<path fill="none" stroke="midnightblue" d="M502.681,-252.667C665.432,-244.629 1197.32,-215.23 1645.1,-154.142"/>
<polygon fill="midnightblue" stroke="midnightblue" points="1645.89,-157.565 1655.32,-152.739 1644.94,-150.63 1645.89,-157.565"/>
</g>
<!-- Node6 -->
<g id="node6" class="node"><title>Node6</title>
<g id="a_node6"><a xlink:href="../../d1/d2b/a00018.php" target="_top" xlink:title="QtDefines.hpp">
<polygon fill="none" stroke="black" points="413,-190.5 413,-209.5 493,-209.5 493,-190.5 413,-190.5"/>
<text text-anchor="middle" x="453" y="-197.5" font-family="Helvetica,sans-Serif" font-size="10.00">QtDefines.hpp</text>
</a>
</g>
</g>
<!-- Node4&#45;&gt;Node6 -->
<g id="edge7" class="edge"><title>Node4&#45;&gt;Node6</title>
<path fill="none" stroke="midnightblue" d="M453,-246.083C453,-239.006 453,-228.861 453,-219.986"/>
<polygon fill="midnightblue" stroke="midnightblue" points="456.5,-219.751 453,-209.751 449.5,-219.751 456.5,-219.751"/>
</g>
<!-- Node6&#45;&gt;Node2 -->
<g id="edge8" class="edge"><title>Node6&#45;&gt;Node2</title>
<path fill="none" stroke="midnightblue" d="M412.966,-199.585C335.342,-199.772 168.838,-195.231 133,-154 102.684,-119.122 116.454,-59.3616 126.227,-29.343"/>
<polygon fill="midnightblue" stroke="midnightblue" points="129.591,-30.3251 129.558,-19.7303 122.977,-28.0333 129.591,-30.3251"/>
</g>
<!-- Node6&#45;&gt;Node5 -->
<g id="edge65" class="edge"><title>Node6&#45;&gt;Node5</title>
<path fill="none" stroke="midnightblue" d="M493.181,-198.305C671.831,-195.089 1395.86,-180.713 1645.25,-154.001"/>
<polygon fill="midnightblue" stroke="midnightblue" points="1645.79,-157.463 1655.34,-152.883 1645.02,-150.506 1645.79,-157.463"/>
</g>
<!-- Node7 -->
<g id="node7" class="node"><title>Node7</title>
<g id="a_node7"><a xlink:href="../../d3/d52/a00023.php" target="_top" xlink:title="Widget.hpp">
<polygon fill="none" stroke="black" points="142,-134.5 142,-153.5 208,-153.5 208,-134.5 142,-134.5"/>
<text text-anchor="middle" x="175" y="-141.5" font-family="Helvetica,sans-Serif" font-size="10.00">Widget.hpp</text>
</a>
</g>
</g>
<!-- Node6&#45;&gt;Node7 -->
<g id="edge9" class="edge"><title>Node6&#45;&gt;Node7</title>
<path fill="none" stroke="midnightblue" d="M412.873,-191.206C361.138,-181.156 271.516,-163.748 218.289,-153.409"/>
<polygon fill="midnightblue" stroke="midnightblue" points="218.635,-149.911 208.151,-151.439 217.3,-156.782 218.635,-149.911"/>
</g>
<!-- Node8 -->
<g id="node8" class="node"><title>Node8</title>
<g id="a_node8"><a xlink:href="../../d2/de7/a00014.php" target="_top" xlink:title="DrawScene.hpp">
<polygon fill="none" stroke="black" points="264,-134.5 264,-153.5 350,-153.5 350,-134.5 264,-134.5"/>
<text text-anchor="middle" x="307" y="-141.5" font-family="Helvetica,sans-Serif" font-size="10.00">DrawScene.hpp</text>
</a>
</g>
</g>
<!-- Node6&#45;&gt;Node8 -->
<g id="edge11" class="edge"><title>Node6&#45;&gt;Node8</title>
<path fill="none" stroke="midnightblue" d="M429.866,-190.444C405.518,-181.438 366.993,-167.189 339.577,-157.049"/>
<polygon fill="midnightblue" stroke="midnightblue" points="340.619,-153.703 330.026,-153.516 338.191,-160.268 340.619,-153.703"/>
</g>
<!-- Node9 -->
<g id="node9" class="node"><title>Node9</title>
<g id="a_node9"><a xlink:href="../../db/db2/a00020.php" target="_top" xlink:title="Scene.hpp">
<polygon fill="none" stroke="black" points="180.5,-67.5 180.5,-86.5 243.5,-86.5 243.5,-67.5 180.5,-67.5"/>
<text text-anchor="middle" x="212" y="-74.5" font-family="Helvetica,sans-Serif" font-size="10.00">Scene.hpp</text>
</a>
</g>
</g>
<!-- Node6&#45;&gt;Node9 -->
<g id="edge21" class="edge"><title>Node6&#45;&gt;Node9</title>
<path fill="none" stroke="midnightblue" d="M412.635,-199.113C369.596,-197.273 301.382,-188.511 255,-154 235.662,-139.611 223.758,-113.778 217.513,-96.2677"/>
<polygon fill="midnightblue" stroke="midnightblue" points="220.788,-95.0238 214.34,-86.6171 214.138,-97.21 220.788,-95.0238"/>
</g>
<!-- Node11 -->
<g id="node11" class="node"><title>Node11</title>
<g id="a_node11"><a xlink:href="../../d7/d7a/a00016.php" target="_top" xlink:title="GraphScene.hpp">
<polygon fill="none" stroke="black" points="457.5,-134.5 457.5,-153.5 546.5,-153.5 546.5,-134.5 457.5,-134.5"/>
<text text-anchor="middle" x="502" y="-141.5" font-family="Helvetica,sans-Serif" font-size="10.00">GraphScene.hpp</text>
</a>
</g>
</g>
<!-- Node6&#45;&gt;Node11 -->
<g id="edge15" class="edge"><title>Node6&#45;&gt;Node11</title>
<path fill="none" stroke="midnightblue" d="M461.091,-190.083C468.155,-182.298 478.588,-170.801 487.149,-161.367"/>
<polygon fill="midnightblue" stroke="midnightblue" points="489.931,-163.509 494.059,-153.751 484.747,-158.805 489.931,-163.509"/>
</g>
<!-- Node16 -->
<g id="node16" class="node"><title>Node16</title>
<g id="a_node16"><a xlink:href="../../de/d11/a00021.php" target="_top" xlink:title="Spacers.hpp">
<polygon fill="none" stroke="black" points="368.5,-134.5 368.5,-153.5 439.5,-153.5 439.5,-134.5 368.5,-134.5"/>
<text text-anchor="middle" x="404" y="-141.5" font-family="Helvetica,sans-Serif" font-size="10.00">Spacers.hpp</text>
</a>
</g>
</g>
<!-- Node6&#45;&gt;Node16 -->
<g id="edge22" class="edge"><title>Node6&#45;&gt;Node16</title>
<path fill="none" stroke="midnightblue" d="M444.909,-190.083C437.845,-182.298 427.412,-170.801 418.851,-161.367"/>
<polygon fill="midnightblue" stroke="midnightblue" points="421.253,-158.805 411.941,-153.751 416.069,-163.509 421.253,-158.805"/>
</g>
<!-- Node17 -->
<g id="node17" class="node"><title>Node17</title>
<g id="a_node17"><a xlink:href="../../dd/da2/a00019.php" target="_top" xlink:title="QtFunctions.hpp">
<polygon fill="none" stroke="black" points="564.5,-134.5 564.5,-153.5 653.5,-153.5 653.5,-134.5 564.5,-134.5"/>
<text text-anchor="middle" x="609" y="-141.5" font-family="Helvetica,sans-Serif" font-size="10.00">QtFunctions.hpp</text>
</a>
</g>
</g>
<!-- Node6&#45;&gt;Node17 -->
<g id="edge24" class="edge"><title>Node6&#45;&gt;Node17</title>
<path fill="none" stroke="midnightblue" d="M477.719,-190.444C503.848,-181.399 545.259,-167.064 574.576,-156.916"/>
<polygon fill="midnightblue" stroke="midnightblue" points="576.092,-160.095 584.397,-153.516 573.802,-153.48 576.092,-160.095"/>
</g>
<!-- Node19 -->
<g id="node19" class="node"><title>Node19</title>
<g id="a_node19"><a xlink:href="../../dd/d1b/a00015.php" target="_top" xlink:title="Font.hpp">
<polygon fill="none" stroke="red" points="1582.5,-134.5 1582.5,-153.5 1637.5,-153.5 1637.5,-134.5 1582.5,-134.5"/>
<text text-anchor="middle" x="1610" y="-141.5" font-family="Helvetica,sans-Serif" font-size="10.00">Font.hpp</text>
</a>
</g>
</g>
<!-- Node6&#45;&gt;Node19 -->
<g id="edge27" class="edge"><title>Node6&#45;&gt;Node19</title>
<path fill="none" stroke="midnightblue" d="M493.134,-196.998C672.407,-188.379 1397.97,-154.519 1572.27,-146.643"/>
<polygon fill="midnightblue" stroke="midnightblue" points="1572.65,-150.13 1582.48,-146.183 1572.34,-143.137 1572.65,-150.13"/>
</g>
<!-- Node7&#45;&gt;Node2 -->
<g id="edge10" class="edge"><title>Node7&#45;&gt;Node2</title>
<path fill="none" stroke="midnightblue" d="M172.244,-134.339C165.48,-113.08 147.943,-57.9632 138.775,-29.1506"/>
<polygon fill="midnightblue" stroke="midnightblue" points="142.079,-27.9892 135.711,-19.5212 135.408,-30.1117 142.079,-27.9892"/>
</g>
<!-- Node8&#45;&gt;Node9 -->
<g id="edge12" class="edge"><title>Node8&#45;&gt;Node9</title>
<path fill="none" stroke="midnightblue" d="M294.188,-134.234C278.519,-123.513 251.778,-105.216 233.066,-92.4137"/>
<polygon fill="midnightblue" stroke="midnightblue" points="234.839,-89.3856 224.609,-86.6273 230.886,-95.1628 234.839,-89.3856"/>
</g>
<!-- Node9&#45;&gt;Node2 -->
<g id="edge13" class="edge"><title>Node9&#45;&gt;Node2</title>
<path fill="none" stroke="midnightblue" d="M201.346,-67.2338C188.553,-56.708 166.884,-38.8793 151.373,-26.1174"/>
<polygon fill="midnightblue" stroke="midnightblue" points="153.431,-23.2782 143.485,-19.6273 148.984,-28.6837 153.431,-23.2782"/>
</g>
<!-- Node10 -->
<g id="node10" class="node"><title>Node10</title>
<polygon fill="none" stroke="#bfbfbf" points="424,-0.5 424,-19.5 478,-19.5 478,-0.5 424,-0.5"/>
<text text-anchor="middle" x="451" y="-7.5" font-family="Helvetica,sans-Serif" font-size="10.00">iostream</text>
</g>
<!-- Node9&#45;&gt;Node10 -->
<g id="edge14" class="edge"><title>Node9&#45;&gt;Node10</title>
<path fill="none" stroke="midnightblue" d="M243.737,-67.3685C287.862,-55.368 367.567,-33.6909 414.228,-21.0007"/>
<polygon fill="midnightblue" stroke="midnightblue" points="415.208,-24.3615 423.939,-18.3598 413.371,-17.6068 415.208,-24.3615"/>
</g>
<!-- Node11&#45;&gt;Node9 -->
<g id="edge20" class="edge"><title>Node11&#45;&gt;Node9</title>
<path fill="none" stroke="midnightblue" d="M461.688,-134.427C420.124,-125.532 353.46,-111.115 296,-98 282.257,-94.8632 267.277,-91.3324 253.823,-88.1203"/>
<polygon fill="midnightblue" stroke="midnightblue" points="254.418,-84.6639 243.878,-85.7379 252.787,-91.4713 254.418,-84.6639"/>
</g>
<!-- Node12 -->
<g id="node12" class="node"><title>Node12</title>
<polygon fill="none" stroke="#bfbfbf" points="338.5,-67.5 338.5,-86.5 373.5,-86.5 373.5,-67.5 338.5,-67.5"/>
<text text-anchor="middle" x="356" y="-74.5" font-family="Helvetica,sans-Serif" font-size="10.00">map</text>
</g>
<!-- Node11&#45;&gt;Node12 -->
<g id="edge16" class="edge"><title>Node11&#45;&gt;Node12</title>
<path fill="none" stroke="midnightblue" d="M472.647,-134.407C447.94,-126.592 412.083,-113.871 383,-98 380.172,-96.457 377.309,-94.6491 374.555,-92.7624"/>
<polygon fill="midnightblue" stroke="midnightblue" points="376.445,-89.8072 366.318,-86.6937 372.293,-95.4429 376.445,-89.8072"/>
</g>
<!-- Node13 -->
<g id="node13" class="node"><title>Node13</title>
<polygon fill="none" stroke="#bfbfbf" points="392,-67.5 392,-86.5 436,-86.5 436,-67.5 392,-67.5"/>
<text text-anchor="middle" x="414" y="-74.5" font-family="Helvetica,sans-Serif" font-size="10.00">vector</text>
</g>
<!-- Node11&#45;&gt;Node13 -->
<g id="edge17" class="edge"><title>Node11&#45;&gt;Node13</title>
<path fill="none" stroke="midnightblue" d="M490.132,-134.234C475.75,-123.611 451.296,-105.549 433.988,-92.7642"/>
<polygon fill="midnightblue" stroke="midnightblue" points="435.803,-89.7534 425.68,-86.6273 431.644,-95.384 435.803,-89.7534"/>
</g>
<!-- Node14 -->
<g id="node14" class="node"><title>Node14</title>
<polygon fill="none" stroke="#bfbfbf" points="454,-67.5 454,-86.5 494,-86.5 494,-67.5 454,-67.5"/>
<text text-anchor="middle" x="474" y="-74.5" font-family="Helvetica,sans-Serif" font-size="10.00">utility</text>
</g>
<!-- Node11&#45;&gt;Node14 -->
<g id="edge18" class="edge"><title>Node11&#45;&gt;Node14</title>
<path fill="none" stroke="midnightblue" d="M498.224,-134.234C494.025,-124.488 487.13,-108.481 481.768,-96.0318"/>
<polygon fill="midnightblue" stroke="midnightblue" points="484.887,-94.4267 477.716,-86.6273 478.458,-97.1961 484.887,-94.4267"/>
</g>
<!-- Node15 -->
<g id="node15" class="node"><title>Node15</title>
<polygon fill="none" stroke="#bfbfbf" points="512,-67.5 512,-86.5 556,-86.5 556,-67.5 512,-67.5"/>
<text text-anchor="middle" x="534" y="-74.5" font-family="Helvetica,sans-Serif" font-size="10.00">cmath</text>
</g>
<!-- Node11&#45;&gt;Node15 -->
<g id="edge19" class="edge"><title>Node11&#45;&gt;Node15</title>
<path fill="none" stroke="midnightblue" d="M506.316,-134.234C511.162,-124.39 519.152,-108.16 525.306,-95.6594"/>
<polygon fill="midnightblue" stroke="midnightblue" points="528.476,-97.1449 529.753,-86.6273 522.196,-94.0531 528.476,-97.1449"/>
</g>
<!-- Node16&#45;&gt;Node2 -->
<g id="edge23" class="edge"><title>Node16&#45;&gt;Node2</title>
<path fill="none" stroke="midnightblue" d="M375.533,-134.352C352.901,-126.74 321.001,-114.325 296,-98 273.364,-83.2191 274.879,-70.4024 252,-56 228.039,-40.9162 198.237,-29.6553 174.451,-22.1708"/>
<polygon fill="midnightblue" stroke="midnightblue" points="175.246,-18.7543 164.66,-19.1943 173.21,-25.4517 175.246,-18.7543"/>
</g>
<!-- Node17&#45;&gt;Node2 -->
<g id="edge25" class="edge"><title>Node17&#45;&gt;Node2</title>
<path fill="none" stroke="midnightblue" d="M564.215,-135.51C561.097,-134.997 558.002,-134.489 555,-134 454.614,-117.639 419.324,-144.761 329,-98 305.834,-86.007 310.374,-69.4119 288,-56 252.868,-34.9406 207.318,-23.259 174.704,-17.1121"/>
<polygon fill="midnightblue" stroke="midnightblue" points="175.059,-13.6202 164.599,-15.306 173.827,-20.511 175.059,-13.6202"/>
</g>
<!-- Node18 -->
<g id="node18" class="node"><title>Node18</title>
<polygon fill="none" stroke="#bfbfbf" points="573.5,-67.5 573.5,-86.5 662.5,-86.5 662.5,-67.5 573.5,-67.5"/>
<text text-anchor="middle" x="618" y="-74.5" font-family="Helvetica,sans-Serif" font-size="10.00">C++/defines.hpp</text>
</g>
<!-- Node17&#45;&gt;Node18 -->
<g id="edge26" class="edge"><title>Node17&#45;&gt;Node18</title>
<path fill="none" stroke="midnightblue" d="M610.214,-134.234C611.536,-124.683 613.691,-109.118 615.399,-96.7829"/>
<polygon fill="midnightblue" stroke="midnightblue" points="618.901,-97.0129 616.805,-86.6273 611.967,-96.0527 618.901,-97.0129"/>
</g>
<!-- Node19&#45;&gt;Node6 -->
<g id="edge28" class="edge"><title>Node19&#45;&gt;Node6</title>
<path fill="none" stroke="midnightblue" d="M1582.25,-146.405C1430.53,-153.751 702.25,-187.75 503.276,-196.788"/>
<polygon fill="midnightblue" stroke="midnightblue" points="502.941,-193.3 493.11,-197.249 503.258,-200.293 502.941,-193.3"/>
</g>
<!-- Node19&#45;&gt;Node10 -->
<g id="edge50" class="edge"><title>Node19&#45;&gt;Node10</title>
<path fill="none" stroke="midnightblue" d="M1582.49,-142.852C1440.15,-141.922 790.736,-135.634 710,-98 686.912,-87.2378 693.206,-68.4819 671,-56 612.83,-23.3023 534.096,-14.2119 488.301,-11.7778"/>
<polygon fill="midnightblue" stroke="midnightblue" points="488.373,-8.27753 478.225,-11.3221 488.056,-15.2704 488.373,-8.27753"/>
</g>
<!-- Node19&#45;&gt;Node12 -->
<g id="edge63" class="edge"><title>Node19&#45;&gt;Node12</title>
<path fill="none" stroke="midnightblue" d="M1582.47,-142.965C1411.62,-142.621 499.614,-138.871 383,-98 379.48,-96.7664 376.034,-94.9014 372.845,-92.7974"/>
<polygon fill="midnightblue" stroke="midnightblue" points="374.758,-89.854 364.688,-86.5603 370.506,-95.4148 374.758,-89.854"/>
</g>
<!-- Node19&#45;&gt;Node13 -->
<g id="edge54" class="edge"><title>Node19&#45;&gt;Node13</title>
<path fill="none" stroke="midnightblue" d="M1582.3,-142.805C1416.27,-141.522 556.528,-133.208 445,-98 440.74,-96.6551 436.5,-94.5584 432.585,-92.2194"/>
<polygon fill="midnightblue" stroke="midnightblue" points="434.435,-89.2453 424.186,-86.5616 430.524,-95.0511 434.435,-89.2453"/>
</g>
<!-- Node19&#45;&gt;Node14 -->
<g id="edge30" class="edge"><title>Node19&#45;&gt;Node14</title>
<path fill="none" stroke="midnightblue" d="M1582.37,-142.794C1421.39,-141.474 608.136,-133.097 503,-98 499.066,-96.6868 495.181,-94.6659 491.596,-92.4044"/>
<polygon fill="midnightblue" stroke="midnightblue" points="493.607,-89.5398 483.442,-86.5533 489.526,-95.227 493.607,-89.5398"/>
</g>
<!-- Node19&#45;&gt;Node15 -->
<g id="edge64" class="edge"><title>Node19&#45;&gt;Node15</title>
<path fill="none" stroke="midnightblue" d="M1582.39,-142.699C1426.84,-140.888 663.248,-130.395 564,-98 559.965,-96.6829 555.962,-94.6602 552.258,-92.3981"/>
<polygon fill="midnightblue" stroke="midnightblue" points="554.03,-89.3677 543.817,-86.5476 550.042,-95.1209 554.03,-89.3677"/>
</g>
<!-- Node20 -->
<g id="node20" class="node"><title>Node20</title>
<polygon fill="none" stroke="#bfbfbf" points="719,-67.5 719,-86.5 759,-86.5 759,-67.5 719,-67.5"/>
<text text-anchor="middle" x="739" y="-74.5" font-family="Helvetica,sans-Serif" font-size="10.00">limits</text>
</g>
<!-- Node19&#45;&gt;Node20 -->
<g id="edge29" class="edge"><title>Node19&#45;&gt;Node20</title>
<path fill="none" stroke="midnightblue" d="M1582.16,-142.411C1445.21,-139.391 846.458,-124.749 768,-98 764.074,-96.6617 760.194,-94.629 756.61,-92.3638"/>
<polygon fill="midnightblue" stroke="midnightblue" points="758.621,-89.499 748.454,-86.5167 754.542,-95.188 758.621,-89.499"/>
</g>
<!-- Node21 -->
<g id="node21" class="node"><title>Node21</title>
<polygon fill="none" stroke="#bfbfbf" points="777,-67.5 777,-86.5 829,-86.5 829,-67.5 777,-67.5"/>
<text text-anchor="middle" x="803" y="-74.5" font-family="Helvetica,sans-Serif" font-size="10.00">memory</text>
</g>
<!-- Node19&#45;&gt;Node21 -->
<g id="edge31" class="edge"><title>Node19&#45;&gt;Node21</title>
<path fill="none" stroke="midnightblue" d="M1582.43,-143.029C1462.12,-142.905 982.728,-139.75 839,-98 834.026,-96.5553 828.985,-94.3269 824.313,-91.8739"/>
<polygon fill="midnightblue" stroke="midnightblue" points="825.788,-88.6836 815.38,-86.7026 822.281,-94.7417 825.788,-88.6836"/>
</g>
<!-- Node22 -->
<g id="node22" class="node"><title>Node22</title>
<polygon fill="none" stroke="#bfbfbf" points="847.5,-67.5 847.5,-86.5 894.5,-86.5 894.5,-67.5 847.5,-67.5"/>
<text text-anchor="middle" x="871" y="-74.5" font-family="Helvetica,sans-Serif" font-size="10.00">iterator</text>
</g>
<!-- Node19&#45;&gt;Node22 -->
<g id="edge32" class="edge"><title>Node19&#45;&gt;Node22</title>
<path fill="none" stroke="midnightblue" d="M1582.45,-142.99C1468.49,-142.681 1033.92,-138.796 904,-98 899.492,-96.5844 894.963,-94.4307 890.767,-92.0531"/>
<polygon fill="midnightblue" stroke="midnightblue" points="892.577,-89.0568 882.25,-86.69 888.847,-94.9803 892.577,-89.0568"/>
</g>
<!-- Node23 -->
<g id="node23" class="node"><title>Node23</title>
<polygon fill="none" stroke="#bfbfbf" points="913,-67.5 913,-86.5 951,-86.5 951,-67.5 913,-67.5"/>
<text text-anchor="middle" x="932" y="-74.5" font-family="Helvetica,sans-Serif" font-size="10.00">tuple</text>
</g>
<!-- Node19&#45;&gt;Node23 -->
<g id="edge33" class="edge"><title>Node19&#45;&gt;Node23</title>
<path fill="none" stroke="midnightblue" d="M1582.43,-143.015C1474.18,-142.779 1078.4,-139.067 961,-98 957.258,-96.6912 953.553,-94.7632 950.104,-92.6134"/>
<polygon fill="midnightblue" stroke="midnightblue" points="951.912,-89.6049 941.73,-86.6776 947.864,-95.3158 951.912,-89.6049"/>
</g>
<!-- Node24 -->
<g id="node24" class="node"><title>Node24</title>
<polygon fill="none" stroke="#bfbfbf" points="969.5,-67.5 969.5,-86.5 998.5,-86.5 998.5,-67.5 969.5,-67.5"/>
<text text-anchor="middle" x="984" y="-74.5" font-family="Helvetica,sans-Serif" font-size="10.00">ios</text>
</g>
<!-- Node19&#45;&gt;Node24 -->
<g id="edge34" class="edge"><title>Node19&#45;&gt;Node24</title>
<path fill="none" stroke="midnightblue" d="M1582.22,-143.151C1478.48,-143.375 1114.25,-141.016 1008,-98 1005.17,-96.8551 1002.43,-95.2478 999.868,-93.4365"/>
<polygon fill="midnightblue" stroke="midnightblue" points="1001.93,-90.5997 992.016,-86.8684 997.44,-95.969 1001.93,-90.5997"/>
</g>
<!-- Node25 -->
<g id="node25" class="node"><title>Node25</title>
<polygon fill="none" stroke="#bfbfbf" points="1016.5,-56.5 1016.5,-97.5 1135.5,-97.5 1135.5,-56.5 1016.5,-56.5"/>
<text text-anchor="start" x="1024.5" y="-85.5" font-family="Helvetica,sans-Serif" font-size="10.00">/home/mathias/Bureau</text>
<text text-anchor="start" x="1024.5" y="-74.5" font-family="Helvetica,sans-Serif" font-size="10.00">/Algo/QTTests/Widgets</text>
<text text-anchor="middle" x="1076" y="-63.5" font-family="Helvetica,sans-Serif" font-size="10.00">/C++/bdd.hpp</text>
</g>
<!-- Node19&#45;&gt;Node25 -->
<g id="edge35" class="edge"><title>Node19&#45;&gt;Node25</title>
<path fill="none" stroke="midnightblue" d="M1582.49,-142.119C1511.57,-139.471 1316.71,-129.817 1145.61,-97.915"/>
<polygon fill="midnightblue" stroke="midnightblue" points="1146.15,-94.4552 1135.67,-96.0319 1144.85,-101.333 1146.15,-94.4552"/>
</g>
<!-- Node26 -->
<g id="node26" class="node"><title>Node26</title>
<polygon fill="none" stroke="#bfbfbf" points="1153.5,-67.5 1153.5,-86.5 1242.5,-86.5 1242.5,-67.5 1153.5,-67.5"/>
<text text-anchor="middle" x="1198" y="-74.5" font-family="Helvetica,sans-Serif" font-size="10.00">cppconn/driver.h</text>
</g>
<!-- Node19&#45;&gt;Node26 -->
<g id="edge36" class="edge"><title>Node19&#45;&gt;Node26</title>
<path fill="none" stroke="midnightblue" d="M1582.21,-141.68C1521.5,-138.326 1372.78,-127.542 1252,-98 1243.81,-95.9959 1235.15,-93.1403 1227.22,-90.2122"/>
<polygon fill="midnightblue" stroke="midnightblue" points="1228.25,-86.8582 1217.66,-86.5231 1225.73,-93.3888 1228.25,-86.8582"/>
</g>
<!-- Node27 -->
<g id="node27" class="node"><title>Node27</title>
<polygon fill="none" stroke="#bfbfbf" points="1260.5,-67.5 1260.5,-86.5 1367.5,-86.5 1367.5,-67.5 1260.5,-67.5"/>
<text text-anchor="middle" x="1314" y="-74.5" font-family="Helvetica,sans-Serif" font-size="10.00">cppconn/exception.h</text>
</g>
<!-- Node19&#45;&gt;Node27 -->
<g id="edge37" class="edge"><title>Node19&#45;&gt;Node27</title>
<path fill="none" stroke="midnightblue" d="M1582.38,-138.81C1538.36,-131.882 1449.73,-116.907 1376,-98 1366.75,-95.6275 1356.85,-92.6437 1347.75,-89.7102"/>
<polygon fill="midnightblue" stroke="midnightblue" points="1348.83,-86.3837 1338.24,-86.578 1346.64,-93.032 1348.83,-86.3837"/>
</g>
<!-- Node28 -->
<g id="node28" class="node"><title>Node28</title>
<polygon fill="none" stroke="#bfbfbf" points="1385,-67.5 1385,-86.5 1487,-86.5 1487,-67.5 1385,-67.5"/>
<text text-anchor="middle" x="1436" y="-74.5" font-family="Helvetica,sans-Serif" font-size="10.00">cppconn/resultset.h</text>
</g>
<!-- Node19&#45;&gt;Node28 -->
<g id="edge38" class="edge"><title>Node19&#45;&gt;Node28</title>
<path fill="none" stroke="midnightblue" d="M1586.89,-134.369C1556.52,-123.022 1502.99,-103.025 1468.53,-90.1522"/>
<polygon fill="midnightblue" stroke="midnightblue" points="1469.52,-86.7845 1458.92,-86.5637 1467.07,-93.3419 1469.52,-86.7845"/>
</g>
<!-- Node29 -->
<g id="node29" class="node"><title>Node29</title>
<polygon fill="none" stroke="#bfbfbf" points="1505,-67.5 1505,-86.5 1613,-86.5 1613,-67.5 1505,-67.5"/>
<text text-anchor="middle" x="1559" y="-74.5" font-family="Helvetica,sans-Serif" font-size="10.00">cppconn/statement.h</text>
</g>
<!-- Node19&#45;&gt;Node29 -->
<g id="edge39" class="edge"><title>Node19&#45;&gt;Node29</title>
<path fill="none" stroke="midnightblue" d="M1603.12,-134.234C1595.17,-124.098 1581.9,-107.19 1571.99,-94.5556"/>
<polygon fill="midnightblue" stroke="midnightblue" points="1574.7,-92.3342 1565.77,-86.6273 1569.19,-96.6552 1574.7,-92.3342"/>
</g>
<!-- Node30 -->
<g id="node30" class="node"><title>Node30</title>
<polygon fill="none" stroke="#bfbfbf" points="1631.5,-67.5 1631.5,-86.5 1690.5,-86.5 1690.5,-67.5 1631.5,-67.5"/>
<text text-anchor="middle" x="1661" y="-74.5" font-family="Helvetica,sans-Serif" font-size="10.00">functional</text>
</g>
<!-- Node19&#45;&gt;Node30 -->
<g id="edge40" class="edge"><title>Node19&#45;&gt;Node30</title>
<path fill="none" stroke="midnightblue" d="M1616.88,-134.234C1624.83,-124.098 1638.1,-107.19 1648.01,-94.5556"/>
<polygon fill="midnightblue" stroke="midnightblue" points="1650.81,-96.6552 1654.23,-86.6273 1645.3,-92.3342 1650.81,-96.6552"/>
</g>
<!-- Node31 -->
<g id="node31" class="node"><title>Node31</title>
<polygon fill="none" stroke="#bfbfbf" points="1708.5,-56.5 1708.5,-97.5 1827.5,-97.5 1827.5,-56.5 1708.5,-56.5"/>
<text text-anchor="start" x="1716.5" y="-85.5" font-family="Helvetica,sans-Serif" font-size="10.00">/home/mathias/Bureau</text>
<text text-anchor="start" x="1716.5" y="-74.5" font-family="Helvetica,sans-Serif" font-size="10.00">/Algo/QTTests/Widgets</text>
<text text-anchor="middle" x="1768" y="-63.5" font-family="Helvetica,sans-Serif" font-size="10.00">/C++/errors.hpp</text>
</g>
<!-- Node19&#45;&gt;Node31 -->
<g id="edge41" class="edge"><title>Node19&#45;&gt;Node31</title>
<path fill="none" stroke="midnightblue" d="M1630.98,-134.369C1651.34,-125.991 1683.17,-112.899 1711.02,-101.44"/>
<polygon fill="midnightblue" stroke="midnightblue" points="1712.38,-104.667 1720.3,-97.6254 1709.72,-98.1933 1712.38,-104.667"/>
</g>
<!-- Node32 -->
<g id="node32" class="node"><title>Node32</title>
<polygon fill="none" stroke="#bfbfbf" points="1845.5,-56.5 1845.5,-97.5 1964.5,-97.5 1964.5,-56.5 1845.5,-56.5"/>
<text text-anchor="start" x="1853.5" y="-85.5" font-family="Helvetica,sans-Serif" font-size="10.00">/home/mathias/Bureau</text>
<text text-anchor="start" x="1853.5" y="-74.5" font-family="Helvetica,sans-Serif" font-size="10.00">/Algo/QTTests/Widgets</text>
<text text-anchor="middle" x="1905" y="-63.5" font-family="Helvetica,sans-Serif" font-size="10.00">/C++/console.hpp</text>
</g>
<!-- Node19&#45;&gt;Node32 -->
<g id="edge42" class="edge"><title>Node19&#45;&gt;Node32</title>
<path fill="none" stroke="midnightblue" d="M1637.85,-136.065C1640.93,-135.345 1644.03,-134.643 1647,-134 1727.89,-116.511 1751.7,-118.007 1835.43,-98.274"/>
<polygon fill="midnightblue" stroke="midnightblue" points="1836.47,-101.624 1845.39,-95.8956 1834.85,-94.8153 1836.47,-101.624"/>
</g>
<!-- Node33 -->
<g id="node33" class="node"><title>Node33</title>
<polygon fill="none" stroke="#bfbfbf" points="1982.5,-56.5 1982.5,-97.5 2101.5,-97.5 2101.5,-56.5 1982.5,-56.5"/>
<text text-anchor="start" x="1990.5" y="-85.5" font-family="Helvetica,sans-Serif" font-size="10.00">/home/mathias/Bureau</text>
<text text-anchor="start" x="1990.5" y="-74.5" font-family="Helvetica,sans-Serif" font-size="10.00">/Algo/QTTests/Widgets</text>
<text text-anchor="middle" x="2042" y="-63.5" font-family="Helvetica,sans-Serif" font-size="10.00">/C++/convert.hpp</text>
</g>
<!-- Node19&#45;&gt;Node33 -->
<g id="edge43" class="edge"><title>Node19&#45;&gt;Node33</title>
<path fill="none" stroke="midnightblue" d="M1637.8,-135.831C1640.89,-135.155 1644,-134.527 1647,-134 1787.77,-109.238 1828.81,-125.95 1972.38,-98.1499"/>
<polygon fill="midnightblue" stroke="midnightblue" points="1973.31,-101.534 1982.44,-96.1621 1971.96,-94.6668 1973.31,-101.534"/>
</g>
<!-- Node34 -->
<g id="node34" class="node"><title>Node34</title>
<polygon fill="none" stroke="#bfbfbf" points="2120,-67.5 2120,-86.5 2172,-86.5 2172,-67.5 2120,-67.5"/>
<text text-anchor="middle" x="2146" y="-74.5" font-family="Helvetica,sans-Serif" font-size="10.00">sstream</text>
</g>
<!-- Node19&#45;&gt;Node34 -->
<g id="edge44" class="edge"><title>Node19&#45;&gt;Node34</title>
<path fill="none" stroke="midnightblue" d="M1637.78,-135.733C1640.88,-135.076 1644,-134.479 1647,-134 1851.26,-101.451 1913.29,-158.788 2111,-98 2115.85,-96.5101 2120.75,-94.2621 2125.3,-91.8042"/>
<polygon fill="midnightblue" stroke="midnightblue" points="2127.17,-94.7599 2133.98,-86.6401 2123.59,-88.7435 2127.17,-94.7599"/>
</g>
<!-- Node35 -->
<g id="node35" class="node"><title>Node35</title>
<polygon fill="none" stroke="#bfbfbf" points="2190.5,-67.5 2190.5,-86.5 2231.5,-86.5 2231.5,-67.5 2190.5,-67.5"/>
<text text-anchor="middle" x="2211" y="-74.5" font-family="Helvetica,sans-Serif" font-size="10.00">string</text>
</g>
<!-- Node19&#45;&gt;Node35 -->
<g id="edge45" class="edge"><title>Node19&#45;&gt;Node35</title>
<path fill="none" stroke="midnightblue" d="M1637.78,-135.703C1640.87,-135.051 1643.99,-134.463 1647,-134 1882.09,-97.7564 1955.78,-174.554 2181,-98 2184.95,-96.6559 2188.88,-94.654 2192.54,-92.4284"/>
<polygon fill="midnightblue" stroke="midnightblue" points="2194.63,-95.2335 2200.89,-86.6825 2190.67,-89.4662 2194.63,-95.2335"/>
</g>
<!-- Node36 -->
<g id="node36" class="node"><title>Node36</title>
<polygon fill="none" stroke="#bfbfbf" points="2250,-67.5 2250,-86.5 2306,-86.5 2306,-67.5 2250,-67.5"/>
<text text-anchor="middle" x="2278" y="-74.5" font-family="Helvetica,sans-Serif" font-size="10.00">algorithm</text>
</g>
<!-- Node19&#45;&gt;Node36 -->
<g id="edge46" class="edge"><title>Node19&#45;&gt;Node36</title>
<path fill="none" stroke="midnightblue" d="M1637.77,-135.682C1640.87,-135.034 1643.99,-134.453 1647,-134 1908.53,-94.5882 1986.67,-170.594 2241,-98 2246.22,-96.51 2251.53,-94.1987 2256.43,-91.6688"/>
<polygon fill="midnightblue" stroke="midnightblue" points="2258.26,-94.6592 2265.24,-86.6928 2254.81,-88.5647 2258.26,-94.6592"/>
</g>
<!-- Node37 -->
<g id="node37" class="node"><title>Node37</title>
<polygon fill="none" stroke="#bfbfbf" points="2324.5,-67.5 2324.5,-86.5 2375.5,-86.5 2375.5,-67.5 2324.5,-67.5"/>
<text text-anchor="middle" x="2350" y="-74.5" font-family="Helvetica,sans-Serif" font-size="10.00">numeric</text>
</g>
<!-- Node19&#45;&gt;Node37 -->
<g id="edge47" class="edge"><title>Node19&#45;&gt;Node37</title>
<path fill="none" stroke="midnightblue" d="M1637.77,-135.662C1640.87,-135.018 1643.99,-134.443 1647,-134 1794.07,-112.34 2172.4,-140.01 2315,-98 2319.94,-96.5439 2324.94,-94.2711 2329.55,-91.7718"/>
<polygon fill="midnightblue" stroke="midnightblue" points="2331.54,-94.6557 2338.32,-86.5126 2327.94,-88.6516 2331.54,-94.6557"/>
</g>
<!-- Node38 -->
<g id="node38" class="node"><title>Node38</title>
<polygon fill="none" stroke="#bfbfbf" points="2394,-67.5 2394,-86.5 2456,-86.5 2456,-67.5 2394,-67.5"/>
<text text-anchor="middle" x="2425" y="-74.5" font-family="Helvetica,sans-Serif" font-size="10.00">type_traits</text>
</g>
<!-- Node19&#45;&gt;Node38 -->
<g id="edge48" class="edge"><title>Node19&#45;&gt;Node38</title>
<path fill="none" stroke="midnightblue" d="M1637.77,-135.646C1640.87,-135.005 1643.99,-134.435 1647,-134 1972.01,-86.9805 2067.33,-181.214 2385,-98 2390.82,-96.4752 2396.78,-94.0407 2402.27,-91.387"/>
<polygon fill="midnightblue" stroke="midnightblue" points="2404.28,-94.2836 2411.49,-86.5227 2401.01,-88.0919 2404.28,-94.2836"/>
</g>
<!-- Node39 -->
<g id="node39" class="node"><title>Node39</title>
<polygon fill="none" stroke="#bfbfbf" points="2474.5,-56.5 2474.5,-97.5 2593.5,-97.5 2593.5,-56.5 2474.5,-56.5"/>
<text text-anchor="start" x="2482.5" y="-85.5" font-family="Helvetica,sans-Serif" font-size="10.00">/home/mathias/Bureau</text>
<text text-anchor="start" x="2482.5" y="-74.5" font-family="Helvetica,sans-Serif" font-size="10.00">/Algo/QTTests/Widgets</text>
<text text-anchor="middle" x="2534" y="-63.5" font-family="Helvetica,sans-Serif" font-size="10.00">/C++/types.hpp</text>
</g>
<!-- Node19&#45;&gt;Node39 -->
<g id="edge49" class="edge"><title>Node19&#45;&gt;Node39</title>
<path fill="none" stroke="midnightblue" d="M1637.77,-135.632C1640.87,-134.993 1643.99,-134.428 1647,-134 2004.03,-83.2154 2104.12,-155.741 2464.44,-97.8446"/>
<polygon fill="midnightblue" stroke="midnightblue" points="2465.05,-101.291 2474.36,-96.2287 2463.93,-94.3823 2465.05,-101.291"/>
</g>
<!-- Node40 -->
<g id="node40" class="node"><title>Node40</title>
<polygon fill="none" stroke="#bfbfbf" points="2611.5,-67.5 2611.5,-86.5 2662.5,-86.5 2662.5,-67.5 2611.5,-67.5"/>
<text text-anchor="middle" x="2637" y="-74.5" font-family="Helvetica,sans-Serif" font-size="10.00">typeinfo</text>
</g>
<!-- Node19&#45;&gt;Node40 -->
<g id="edge51" class="edge"><title>Node19&#45;&gt;Node40</title>
<path fill="none" stroke="midnightblue" d="M1637.76,-135.613C1640.86,-134.978 1643.99,-134.419 1647,-134 1857.57,-104.729 2398.96,-157.708 2603,-98 2607.84,-96.5839 2612.71,-94.3281 2617.19,-91.8327"/>
<polygon fill="midnightblue" stroke="midnightblue" points="2619.04,-94.8024 2625.7,-86.5663 2615.36,-88.8487 2619.04,-94.8024"/>
</g>
<!-- Node41 -->
<g id="node41" class="node"><title>Node41</title>
<polygon fill="none" stroke="#bfbfbf" points="2680.5,-56.5 2680.5,-97.5 2799.5,-97.5 2799.5,-56.5 2680.5,-56.5"/>
<text text-anchor="start" x="2688.5" y="-85.5" font-family="Helvetica,sans-Serif" font-size="10.00">/home/mathias/Bureau</text>
<text text-anchor="start" x="2688.5" y="-74.5" font-family="Helvetica,sans-Serif" font-size="10.00">/Algo/QTTests/Widgets</text>
<text text-anchor="middle" x="2740" y="-63.5" font-family="Helvetica,sans-Serif" font-size="10.00">/C++/files.hpp</text>
</g>
<!-- Node19&#45;&gt;Node41 -->
<g id="edge52" class="edge"><title>Node19&#45;&gt;Node41</title>
<path fill="none" stroke="midnightblue" d="M1637.76,-135.605C1640.86,-134.971 1643.99,-134.415 1647,-134 2095.27,-72.265 2220.2,-169.441 2670.47,-98.0284"/>
<polygon fill="midnightblue" stroke="midnightblue" points="2671.17,-101.461 2680.49,-96.4201 2670.06,-94.5493 2671.17,-101.461"/>
</g>
<!-- Node42 -->
<g id="node42" class="node"><title>Node42</title>
<polygon fill="none" stroke="#bfbfbf" points="2818,-67.5 2818,-86.5 2868,-86.5 2868,-67.5 2818,-67.5"/>
<text text-anchor="middle" x="2843" y="-74.5" font-family="Helvetica,sans-Serif" font-size="10.00">fstream</text>
</g>
<!-- Node19&#45;&gt;Node42 -->
<g id="edge53" class="edge"><title>Node19&#45;&gt;Node42</title>
<path fill="none" stroke="midnightblue" d="M1637.76,-135.592C1640.86,-134.961 1643.99,-134.409 1647,-134 1903,-99.2828 2560.81,-169.73 2809,-98 2813.84,-96.6001 2818.71,-94.3511 2823.19,-91.8573"/>
<polygon fill="midnightblue" stroke="midnightblue" points="2825.05,-94.826 2831.71,-86.588 2821.36,-88.8733 2825.05,-94.826"/>
</g>
<!-- Node43 -->
<g id="node43" class="node"><title>Node43</title>
<polygon fill="none" stroke="#bfbfbf" points="2886.5,-56.5 2886.5,-97.5 3005.5,-97.5 3005.5,-56.5 2886.5,-56.5"/>
<text text-anchor="start" x="2894.5" y="-85.5" font-family="Helvetica,sans-Serif" font-size="10.00">/home/mathias/Bureau</text>
<text text-anchor="start" x="2894.5" y="-74.5" font-family="Helvetica,sans-Serif" font-size="10.00">/Algo/QTTests/Widgets</text>
<text text-anchor="middle" x="2946" y="-63.5" font-family="Helvetica,sans-Serif" font-size="10.00">/C++/time.hpp</text>
</g>
<!-- Node19&#45;&gt;Node43 -->
<g id="edge55" class="edge"><title>Node19&#45;&gt;Node43</title>
<path fill="none" stroke="midnightblue" d="M1637.76,-135.587C1640.86,-134.957 1643.99,-134.406 1647,-134 2185.69,-61.4156 2334.9,-181.324 2876.35,-97.8451"/>
<polygon fill="midnightblue" stroke="midnightblue" points="2877.03,-101.282 2886.37,-96.284 2875.95,-94.3652 2877.03,-101.282"/>
</g>
<!-- Node44 -->
<g id="node44" class="node"><title>Node44</title>
<polygon fill="none" stroke="#bfbfbf" points="3023.5,-67.5 3023.5,-86.5 3064.5,-86.5 3064.5,-67.5 3023.5,-67.5"/>
<text text-anchor="middle" x="3044" y="-74.5" font-family="Helvetica,sans-Serif" font-size="10.00">ctime</text>
</g>
<!-- Node19&#45;&gt;Node44 -->
<g id="edge56" class="edge"><title>Node19&#45;&gt;Node44</title>
<path fill="none" stroke="midnightblue" d="M1637.76,-135.578C1640.86,-134.95 1643.99,-134.402 1647,-134 1797.72,-113.918 2870.43,-145.113 3015,-98 3018.94,-96.715 3022.83,-94.7074 3026.42,-92.4502"/>
<polygon fill="midnightblue" stroke="midnightblue" points="3028.49,-95.271 3034.57,-86.5944 3024.41,-89.5856 3028.49,-95.271"/>
</g>
<!-- Node45 -->
<g id="node45" class="node"><title>Node45</title>
<polygon fill="none" stroke="#bfbfbf" points="3083,-67.5 3083,-86.5 3127,-86.5 3127,-67.5 3083,-67.5"/>
<text text-anchor="middle" x="3105" y="-74.5" font-family="Helvetica,sans-Serif" font-size="10.00">thread</text>
</g>
<!-- Node19&#45;&gt;Node45 -->
<g id="edge57" class="edge"><title>Node19&#45;&gt;Node45</title>
<path fill="none" stroke="midnightblue" d="M1637.76,-135.575C1640.86,-134.947 1643.99,-134.4 1647,-134 1804.23,-113.138 2922.44,-144.734 3074,-98 3078.27,-96.6837 3082.51,-94.5999 3086.43,-92.2647"/>
<polygon fill="midnightblue" stroke="midnightblue" points="3088.49,-95.0946 3094.83,-86.6021 3084.58,-89.2907 3088.49,-95.0946"/>
</g>
<!-- Node46 -->
<g id="node46" class="node"><title>Node46</title>
<polygon fill="none" stroke="#bfbfbf" points="3145,-67.5 3145,-86.5 3189,-86.5 3189,-67.5 3145,-67.5"/>
<text text-anchor="middle" x="3167" y="-74.5" font-family="Helvetica,sans-Serif" font-size="10.00">mutex</text>
</g>
<!-- Node19&#45;&gt;Node46 -->
<g id="edge58" class="edge"><title>Node19&#45;&gt;Node46</title>
<path fill="none" stroke="midnightblue" d="M1637.76,-135.572C1640.86,-134.944 1643.99,-134.398 1647,-134 1811.07,-112.318 2977.83,-146.68 3136,-98 3140.27,-96.6859 3144.51,-94.6032 3148.43,-92.2683"/>
<polygon fill="midnightblue" stroke="midnightblue" points="3150.49,-95.098 3156.83,-86.6053 3146.58,-89.2942 3150.49,-95.098"/>
</g>
<!-- Node47 -->
<g id="node47" class="node"><title>Node47</title>
<polygon fill="none" stroke="#bfbfbf" points="3207.5,-56.5 3207.5,-97.5 3326.5,-97.5 3326.5,-56.5 3207.5,-56.5"/>
<text text-anchor="start" x="3215.5" y="-85.5" font-family="Helvetica,sans-Serif" font-size="10.00">/home/mathias/Bureau</text>
<text text-anchor="start" x="3215.5" y="-74.5" font-family="Helvetica,sans-Serif" font-size="10.00">/Algo/QTTests/Widgets</text>
<text text-anchor="middle" x="3267" y="-63.5" font-family="Helvetica,sans-Serif" font-size="10.00">/C++/pointers.hpp</text>
</g>
<!-- Node19&#45;&gt;Node47 -->
<g id="edge59" class="edge"><title>Node19&#45;&gt;Node47</title>
<path fill="none" stroke="midnightblue" d="M1637.76,-135.569C1640.86,-134.942 1643.98,-134.397 1647,-134 1985.56,-89.4255 2840.76,-149.268 3197.23,-97.8215"/>
<polygon fill="midnightblue" stroke="midnightblue" points="3198,-101.246 3207.37,-96.3068 3196.97,-94.3225 3198,-101.246"/>
</g>
<!-- Node48 -->
<g id="node48" class="node"><title>Node48</title>
<polygon fill="none" stroke="#bfbfbf" points="3344.5,-56.5 3344.5,-97.5 3463.5,-97.5 3463.5,-56.5 3344.5,-56.5"/>
<text text-anchor="start" x="3352.5" y="-85.5" font-family="Helvetica,sans-Serif" font-size="10.00">/home/mathias/Bureau</text>
<text text-anchor="start" x="3352.5" y="-74.5" font-family="Helvetica,sans-Serif" font-size="10.00">/Algo/QTTests/Widgets</text>
<text text-anchor="middle" x="3404" y="-63.5" font-family="Helvetica,sans-Serif" font-size="10.00">/C++/string.hpp</text>
</g>
<!-- Node19&#45;&gt;Node48 -->
<g id="edge60" class="edge"><title>Node19&#45;&gt;Node48</title>
<path fill="none" stroke="midnightblue" d="M1637.76,-135.563C1640.86,-134.937 1643.98,-134.394 1647,-134 2015.98,-85.7753 2948.43,-154.245 3334.36,-97.9939"/>
<polygon fill="midnightblue" stroke="midnightblue" points="3335.13,-101.418 3344.5,-96.468 3334.09,-94.4956 3335.13,-101.418"/>
</g>
<!-- Node49 -->
<g id="node49" class="node"><title>Node49</title>
<polygon fill="none" stroke="#bfbfbf" points="3482,-67.5 3482,-86.5 3524,-86.5 3524,-67.5 3482,-67.5"/>
<text text-anchor="middle" x="3503" y="-74.5" font-family="Helvetica,sans-Serif" font-size="10.00">locale</text>
</g>
<!-- Node19&#45;&gt;Node49 -->
<g id="edge61" class="edge"><title>Node19&#45;&gt;Node49</title>
<path fill="none" stroke="midnightblue" d="M1637.76,-135.558C1640.86,-134.933 1643.98,-134.392 1647,-134 1848.24,-107.862 3279.37,-158.717 3473,-98 3477.05,-96.7299 3481.06,-94.7294 3484.77,-92.4744"/>
<polygon fill="midnightblue" stroke="midnightblue" points="3486.99,-95.1942 3493.2,-86.6162 3482.99,-89.444 3486.99,-95.1942"/>
</g>
<!-- Node50 -->
<g id="node50" class="node"><title>Node50</title>
<polygon fill="none" stroke="#bfbfbf" points="3542.5,-56.5 3542.5,-97.5 3661.5,-97.5 3661.5,-56.5 3542.5,-56.5"/>
<text text-anchor="start" x="3550.5" y="-85.5" font-family="Helvetica,sans-Serif" font-size="10.00">/home/mathias/Bureau</text>
<text text-anchor="start" x="3550.5" y="-74.5" font-family="Helvetica,sans-Serif" font-size="10.00">/Algo/QTTests/Widgets</text>
<text text-anchor="middle" x="3602" y="-63.5" font-family="Helvetica,sans-Serif" font-size="10.00">/C++/macro.hpp</text>
</g>
<!-- Node19&#45;&gt;Node50 -->
<g id="edge62" class="edge"><title>Node19&#45;&gt;Node50</title>
<path fill="none" stroke="midnightblue" d="M1637.76,-135.556C1640.86,-134.932 1643.98,-134.391 1647,-134 2059.46,-80.5589 3102.1,-159.64 3532.33,-97.8092"/>
<polygon fill="midnightblue" stroke="midnightblue" points="3533,-101.249 3542.38,-96.3223 3531.97,-94.3239 3533,-101.249"/>
</g>
</g>
</svg>
