<?xml version="1.0" encoding="UTF-8" standalone="no"?>
<!DOCTYPE svg PUBLIC "-//W3C//DTD SVG 1.1//EN"
 "http://www.w3.org/Graphics/SVG/1.1/DTD/svg11.dtd">
<!-- Generated by graphviz version 2.38.0 (20140413.2041)
 -->
<!-- Title: Scene.hpp Pages: 1 -->
<svg width="282pt" height="420pt"
 viewBox="0.00 0.00 282.00 420.00" xmlns="http://www.w3.org/2000/svg" xmlns:xlink="http://www.w3.org/1999/xlink">
<g id="graph0" class="graph" transform="scale(1 1) rotate(0) translate(4 416)">
<title>Scene.hpp</title>
<!-- Node1 -->
<g id="node1" class="node"><title>Node1</title>
<polygon fill="#bfbfbf" stroke="black" points="82.5,-392.5 82.5,-411.5 145.5,-411.5 145.5,-392.5 82.5,-392.5"/>
<text text-anchor="middle" x="114" y="-399.5" font-family="Helvetica,sans-Serif" font-size="10.00">Scene.hpp</text>
</g>
<!-- Node2 -->
<g id="node2" class="node"><title>Node2</title>
<g id="a_node2"><a xlink:href="../../d2/de7/a00014.php" target="_top" xlink:title="DrawScene.hpp">
<polygon fill="none" stroke="black" points="0,-336.5 0,-355.5 86,-355.5 86,-336.5 0,-336.5"/>
<text text-anchor="middle" x="43" y="-343.5" font-family="Helvetica,sans-Serif" font-size="10.00">DrawScene.hpp</text>
</a>
</g>
</g>
<!-- Node1&#45;&gt;Node2 -->
<g id="edge1" class="edge"><title>Node1&#45;&gt;Node2</title>
<path fill="none" stroke="midnightblue" d="M94.4103,-386.101C81.6324,-376.382 65.3873,-364.027 54.6149,-355.834"/>
<polygon fill="midnightblue" stroke="midnightblue" points="92.5143,-389.056 102.593,-392.324 96.7519,-383.484 92.5143,-389.056"/>
</g>
<!-- Node3 -->
<g id="node3" class="node"><title>Node3</title>
<g id="a_node3"><a xlink:href="../../d1/d2b/a00018.php" target="_top" xlink:title="QtDefines.hpp">
<polygon fill="none" stroke="black" points="74,-280.5 74,-299.5 154,-299.5 154,-280.5 74,-280.5"/>
<text text-anchor="middle" x="114" y="-287.5" font-family="Helvetica,sans-Serif" font-size="10.00">QtDefines.hpp</text>
</a>
</g>
</g>
<!-- Node1&#45;&gt;Node3 -->
<g id="edge14" class="edge"><title>Node1&#45;&gt;Node3</title>
<path fill="none" stroke="midnightblue" d="M114,-382.348C114,-358.254 114,-317.308 114,-299.591"/>
<polygon fill="midnightblue" stroke="midnightblue" points="110.5,-382.368 114,-392.368 117.5,-382.369 110.5,-382.368"/>
</g>
<!-- Node10 -->
<g id="node10" class="node"><title>Node10</title>
<g id="a_node10"><a xlink:href="../../d7/d7a/a00016.php" target="_top" xlink:title="GraphScene.hpp">
<polygon fill="none" stroke="black" points="142.5,-336.5 142.5,-355.5 231.5,-355.5 231.5,-336.5 142.5,-336.5"/>
<text text-anchor="middle" x="187" y="-343.5" font-family="Helvetica,sans-Serif" font-size="10.00">GraphScene.hpp</text>
</a>
</g>
</g>
<!-- Node1&#45;&gt;Node10 -->
<g id="edge12" class="edge"><title>Node1&#45;&gt;Node10</title>
<path fill="none" stroke="midnightblue" d="M134.142,-386.101C147.279,-376.382 163.982,-364.027 175.058,-355.834"/>
<polygon fill="midnightblue" stroke="midnightblue" points="131.687,-383.563 125.729,-392.324 135.85,-389.191 131.687,-383.563"/>
</g>
<!-- Node2&#45;&gt;Node3 -->
<g id="edge2" class="edge"><title>Node2&#45;&gt;Node3</title>
<path fill="none" stroke="midnightblue" d="M62.5897,-330.101C75.3676,-320.382 91.6127,-308.027 102.385,-299.834"/>
<polygon fill="midnightblue" stroke="midnightblue" points="60.2481,-327.484 54.4074,-336.324 64.4857,-333.056 60.2481,-327.484"/>
</g>
<!-- Node4 -->
<g id="node4" class="node"><title>Node4</title>
<g id="a_node4"><a xlink:href="../../dd/d1b/a00015.php" target="_top" xlink:title="Font.hpp">
<polygon fill="none" stroke="black" points="58.5,-224.5 58.5,-243.5 113.5,-243.5 113.5,-224.5 58.5,-224.5"/>
<text text-anchor="middle" x="86" y="-231.5" font-family="Helvetica,sans-Serif" font-size="10.00">Font.hpp</text>
</a>
</g>
</g>
<!-- Node3&#45;&gt;Node4 -->
<g id="edge3" class="edge"><title>Node3&#45;&gt;Node4</title>
<path fill="none" stroke="midnightblue" d="M98.6015,-271.566C92.9922,-262.275 87.684,-251.248 85.4066,-243.751"/>
<polygon fill="midnightblue" stroke="midnightblue" points="95.7872,-273.656 104.21,-280.083 101.634,-269.806 95.7872,-273.656"/>
</g>
<!-- Node5 -->
<g id="node5" class="node"><title>Node5</title>
<g id="a_node5"><a xlink:href="../../d4/d51/a00017.php" target="_top" xlink:title="Qt.hpp">
<polygon fill="none" stroke="black" points="155,-56.5 155,-75.5 201,-75.5 201,-56.5 155,-56.5"/>
<text text-anchor="middle" x="178" y="-63.5" font-family="Helvetica,sans-Serif" font-size="10.00">Qt.hpp</text>
</a>
</g>
</g>
<!-- Node3&#45;&gt;Node5 -->
<g id="edge5" class="edge"><title>Node3&#45;&gt;Node5</title>
<path fill="none" stroke="midnightblue" d="M119.309,-270.585C132.412,-225.135 165.914,-108.924 175.439,-75.8837"/>
<polygon fill="midnightblue" stroke="midnightblue" points="115.916,-269.719 116.509,-280.297 122.642,-271.658 115.916,-269.719"/>
</g>
<!-- Node7 -->
<g id="node7" class="node"><title>Node7</title>
<g id="a_node7"><a xlink:href="../../d3/dfe/a00025.php" target="_top" xlink:title="WindowButton.hpp">
<polygon fill="none" stroke="black" points="171.5,-224.5 171.5,-243.5 270.5,-243.5 270.5,-224.5 171.5,-224.5"/>
<text text-anchor="middle" x="221" y="-231.5" font-family="Helvetica,sans-Serif" font-size="10.00">WindowButton.hpp</text>
</a>
</g>
</g>
<!-- Node3&#45;&gt;Node7 -->
<g id="edge8" class="edge"><title>Node3&#45;&gt;Node7</title>
<path fill="none" stroke="midnightblue" d="M140.302,-275.726C160.115,-265.727 186.707,-252.307 203.851,-243.655"/>
<polygon fill="midnightblue" stroke="midnightblue" points="138.542,-272.694 131.191,-280.324 141.696,-278.943 138.542,-272.694"/>
</g>
<!-- Node4&#45;&gt;Node3 -->
<g id="edge4" class="edge"><title>Node4&#45;&gt;Node3</title>
<path fill="none" stroke="midnightblue" d="M101.275,-252.23C106.888,-261.495 112.221,-272.534 114.543,-280.083"/>
<polygon fill="midnightblue" stroke="midnightblue" points="104.104,-250.162 95.6686,-243.751 98.2645,-254.023 104.104,-250.162"/>
</g>
<!-- Node6 -->
<g id="node6" class="node"><title>Node6</title>
<g id="a_node6"><a xlink:href="../../d7/de0/a00022.php" target="_top" xlink:title="TableWidget.hpp">
<polygon fill="none" stroke="black" points="133,-0.5 133,-19.5 223,-19.5 223,-0.5 133,-0.5"/>
<text text-anchor="middle" x="178" y="-7.5" font-family="Helvetica,sans-Serif" font-size="10.00">TableWidget.hpp</text>
</a>
</g>
</g>
<!-- Node5&#45;&gt;Node6 -->
<g id="edge6" class="edge"><title>Node5&#45;&gt;Node6</title>
<path fill="none" stroke="midnightblue" d="M171.528,-46.1005C170.896,-37.1357 171.343,-26.8579 172.869,-19.7511"/>
<polygon fill="midnightblue" stroke="midnightblue" points="168.066,-46.6216 172.834,-56.083 175.007,-45.7134 168.066,-46.6216"/>
</g>
<!-- Node6&#45;&gt;Node5 -->
<g id="edge7" class="edge"><title>Node6&#45;&gt;Node5</title>
<path fill="none" stroke="midnightblue" d="M184.458,-29.6911C185.106,-38.6353 184.676,-48.9272 183.166,-56.083"/>
<polygon fill="midnightblue" stroke="midnightblue" points="187.923,-29.2002 183.131,-19.7511 180.985,-30.1262 187.923,-29.2002"/>
</g>
<!-- Node8 -->
<g id="node8" class="node"><title>Node8</title>
<g id="a_node8"><a xlink:href="../../d6/d5b/a00026.php" target="_top" xlink:title="WindowTitleBar.hpp">
<polygon fill="none" stroke="black" points="170,-168.5 170,-187.5 274,-187.5 274,-168.5 170,-168.5"/>
<text text-anchor="middle" x="222" y="-175.5" font-family="Helvetica,sans-Serif" font-size="10.00">WindowTitleBar.hpp</text>
</a>
</g>
</g>
<!-- Node7&#45;&gt;Node8 -->
<g id="edge9" class="edge"><title>Node7&#45;&gt;Node8</title>
<path fill="none" stroke="midnightblue" d="M221.355,-213.805C221.52,-204.91 221.708,-194.78 221.838,-187.751"/>
<polygon fill="midnightblue" stroke="midnightblue" points="217.851,-214.02 221.165,-224.083 224.85,-214.15 217.851,-214.02"/>
</g>
<!-- Node9 -->
<g id="node9" class="node"><title>Node9</title>
<g id="a_node9"><a xlink:href="../../dc/de2/a00024.php" target="_top" xlink:title="Window.hpp">
<polygon fill="none" stroke="black" points="178.5,-112.5 178.5,-131.5 249.5,-131.5 249.5,-112.5 178.5,-112.5"/>
<text text-anchor="middle" x="214" y="-119.5" font-family="Helvetica,sans-Serif" font-size="10.00">Window.hpp</text>
</a>
</g>
</g>
<!-- Node8&#45;&gt;Node9 -->
<g id="edge10" class="edge"><title>Node8&#45;&gt;Node9</title>
<path fill="none" stroke="midnightblue" d="M219.2,-158.101C217.872,-149.136 216.349,-138.858 215.296,-131.751"/>
<polygon fill="midnightblue" stroke="midnightblue" points="215.751,-158.704 220.679,-168.083 222.676,-157.678 215.751,-158.704"/>
</g>
<!-- Node9&#45;&gt;Node5 -->
<g id="edge11" class="edge"><title>Node9&#45;&gt;Node5</title>
<path fill="none" stroke="midnightblue" d="M202.377,-103.566C196.183,-94.2747 188.832,-83.2484 183.834,-75.7511"/>
<polygon fill="midnightblue" stroke="midnightblue" points="199.596,-105.704 208.055,-112.083 205.42,-101.821 199.596,-105.704"/>
</g>
<!-- Node10&#45;&gt;Node3 -->
<g id="edge13" class="edge"><title>Node10&#45;&gt;Node3</title>
<path fill="none" stroke="midnightblue" d="M166.858,-330.101C153.721,-320.382 137.018,-308.027 125.942,-299.834"/>
<polygon fill="midnightblue" stroke="midnightblue" points="165.15,-333.191 175.271,-336.324 169.313,-327.563 165.15,-333.191"/>
</g>
</g>
</svg>
