<?xml version="1.0" encoding="UTF-8" standalone="no"?>
<!DOCTYPE svg PUBLIC "-//W3C//DTD SVG 1.1//EN"
 "http://www.w3.org/Graphics/SVG/1.1/DTD/svg11.dtd">
<!-- Generated by graphviz version 2.38.0 (20140413.2041)
 -->
<!-- Title: Font.hpp Pages: 1 -->
<svg width="149pt" height="364pt"
 viewBox="0.00 0.00 149.00 364.00" xmlns="http://www.w3.org/2000/svg" xmlns:xlink="http://www.w3.org/1999/xlink">
<g id="graph0" class="graph" transform="scale(1 1) rotate(0) translate(4 360)">
<title>Font.hpp</title>
<!-- Node1 -->
<g id="node1" class="node"><title>Node1</title>
<polygon fill="#bfbfbf" stroke="black" points="20.5,-336.5 20.5,-355.5 75.5,-355.5 75.5,-336.5 20.5,-336.5"/>
<text text-anchor="middle" x="48" y="-343.5" font-family="Helvetica,sans-Serif" font-size="10.00">Font.hpp</text>
</g>
<!-- Node2 -->
<g id="node2" class="node"><title>Node2</title>
<g id="a_node2"><a xlink:href="../../d1/d2b/a00018.php" target="_top" xlink:title="QtDefines.hpp">
<polygon fill="none" stroke="black" points="8,-280.5 8,-299.5 88,-299.5 88,-280.5 8,-280.5"/>
<text text-anchor="middle" x="48" y="-287.5" font-family="Helvetica,sans-Serif" font-size="10.00">QtDefines.hpp</text>
</a>
</g>
</g>
<!-- Node1&#45;&gt;Node2 -->
<g id="edge1" class="edge"><title>Node1&#45;&gt;Node2</title>
<path fill="none" stroke="midnightblue" d="M41.5276,-326.101C40.8956,-317.136 41.3427,-306.858 42.869,-299.751"/>
<polygon fill="midnightblue" stroke="midnightblue" points="38.0658,-326.622 42.8337,-336.083 45.0067,-325.713 38.0658,-326.622"/>
</g>
<!-- Node2&#45;&gt;Node1 -->
<g id="edge2" class="edge"><title>Node2&#45;&gt;Node1</title>
<path fill="none" stroke="midnightblue" d="M54.4575,-309.691C55.1062,-318.635 54.6758,-328.927 53.1663,-336.083"/>
<polygon fill="midnightblue" stroke="midnightblue" points="57.9231,-309.2 53.131,-299.751 50.9846,-310.126 57.9231,-309.2"/>
</g>
<!-- Node3 -->
<g id="node3" class="node"><title>Node3</title>
<g id="a_node3"><a xlink:href="../../d4/d51/a00017.php" target="_top" xlink:title="Qt.hpp">
<polygon fill="none" stroke="black" points="22,-56.5 22,-75.5 68,-75.5 68,-56.5 22,-56.5"/>
<text text-anchor="middle" x="45" y="-63.5" font-family="Helvetica,sans-Serif" font-size="10.00">Qt.hpp</text>
</a>
</g>
</g>
<!-- Node2&#45;&gt;Node3 -->
<g id="edge3" class="edge"><title>Node2&#45;&gt;Node3</title>
<path fill="none" stroke="midnightblue" d="M38.646,-271.231C34.8851,-263.154 30.9765,-253.333 29,-244 15.5124,-180.31 35.1276,-101.366 42.4404,-75.5807"/>
<polygon fill="midnightblue" stroke="midnightblue" points="35.5956,-272.958 43.1742,-280.362 41.8668,-269.848 35.5956,-272.958"/>
</g>
<!-- Node5 -->
<g id="node5" class="node"><title>Node5</title>
<g id="a_node5"><a xlink:href="../../d3/dfe/a00025.php" target="_top" xlink:title="WindowButton.hpp">
<polygon fill="none" stroke="black" points="38.5,-224.5 38.5,-243.5 137.5,-243.5 137.5,-224.5 38.5,-224.5"/>
<text text-anchor="middle" x="88" y="-231.5" font-family="Helvetica,sans-Serif" font-size="10.00">WindowButton.hpp</text>
</a>
</g>
</g>
<!-- Node2&#45;&gt;Node5 -->
<g id="edge6" class="edge"><title>Node2&#45;&gt;Node5</title>
<path fill="none" stroke="midnightblue" d="M60.6997,-271.855C67.626,-262.505 75.9063,-251.327 81.5177,-243.751"/>
<polygon fill="midnightblue" stroke="midnightblue" points="57.745,-269.964 54.6052,-280.083 63.37,-274.131 57.745,-269.964"/>
</g>
<!-- Node4 -->
<g id="node4" class="node"><title>Node4</title>
<g id="a_node4"><a xlink:href="../../d7/de0/a00022.php" target="_top" xlink:title="TableWidget.hpp">
<polygon fill="none" stroke="black" points="0,-0.5 0,-19.5 90,-19.5 90,-0.5 0,-0.5"/>
<text text-anchor="middle" x="45" y="-7.5" font-family="Helvetica,sans-Serif" font-size="10.00">TableWidget.hpp</text>
</a>
</g>
</g>
<!-- Node3&#45;&gt;Node4 -->
<g id="edge4" class="edge"><title>Node3&#45;&gt;Node4</title>
<path fill="none" stroke="midnightblue" d="M38.5276,-46.1005C37.8956,-37.1357 38.3427,-26.8579 39.869,-19.7511"/>
<polygon fill="midnightblue" stroke="midnightblue" points="35.0658,-46.6216 39.8337,-56.083 42.0067,-45.7134 35.0658,-46.6216"/>
</g>
<!-- Node4&#45;&gt;Node3 -->
<g id="edge5" class="edge"><title>Node4&#45;&gt;Node3</title>
<path fill="none" stroke="midnightblue" d="M51.4575,-29.6911C52.1062,-38.6353 51.6758,-48.9272 50.1663,-56.083"/>
<polygon fill="midnightblue" stroke="midnightblue" points="54.9231,-29.2002 50.131,-19.7511 47.9846,-30.1262 54.9231,-29.2002"/>
</g>
<!-- Node6 -->
<g id="node6" class="node"><title>Node6</title>
<g id="a_node6"><a xlink:href="../../d6/d5b/a00026.php" target="_top" xlink:title="WindowTitleBar.hpp">
<polygon fill="none" stroke="black" points="37,-168.5 37,-187.5 141,-187.5 141,-168.5 37,-168.5"/>
<text text-anchor="middle" x="89" y="-175.5" font-family="Helvetica,sans-Serif" font-size="10.00">WindowTitleBar.hpp</text>
</a>
</g>
</g>
<!-- Node5&#45;&gt;Node6 -->
<g id="edge7" class="edge"><title>Node5&#45;&gt;Node6</title>
<path fill="none" stroke="midnightblue" d="M88.3555,-213.805C88.5202,-204.91 88.7078,-194.78 88.8379,-187.751"/>
<polygon fill="midnightblue" stroke="midnightblue" points="84.851,-214.02 88.1651,-224.083 91.8498,-214.15 84.851,-214.02"/>
</g>
<!-- Node7 -->
<g id="node7" class="node"><title>Node7</title>
<g id="a_node7"><a xlink:href="../../dc/de2/a00024.php" target="_top" xlink:title="Window.hpp">
<polygon fill="none" stroke="black" points="45.5,-112.5 45.5,-131.5 116.5,-131.5 116.5,-112.5 45.5,-112.5"/>
<text text-anchor="middle" x="81" y="-119.5" font-family="Helvetica,sans-Serif" font-size="10.00">Window.hpp</text>
</a>
</g>
</g>
<!-- Node6&#45;&gt;Node7 -->
<g id="edge8" class="edge"><title>Node6&#45;&gt;Node7</title>
<path fill="none" stroke="midnightblue" d="M86.2001,-158.101C84.872,-149.136 83.3493,-138.858 82.2965,-131.751"/>
<polygon fill="midnightblue" stroke="midnightblue" points="82.7512,-158.704 87.679,-168.083 89.6756,-157.678 82.7512,-158.704"/>
</g>
<!-- Node7&#45;&gt;Node3 -->
<g id="edge9" class="edge"><title>Node7&#45;&gt;Node3</title>
<path fill="none" stroke="midnightblue" d="M69.3771,-103.566C63.1832,-94.2747 55.8323,-83.2484 50.8341,-75.7511"/>
<polygon fill="midnightblue" stroke="midnightblue" points="66.5961,-105.704 75.0553,-112.083 72.4205,-101.821 66.5961,-105.704"/>
</g>
</g>
</svg>
