<?xml version="1.0" encoding="UTF-8" standalone="no"?>
<!DOCTYPE svg PUBLIC "-//W3C//DTD SVG 1.1//EN"
 "http://www.w3.org/Graphics/SVG/1.1/DTD/svg11.dtd">
<!-- Generated by graphviz version 2.38.0 (20140413.2041)
 -->
<!-- Title: WindowButton.hpp Pages: 1 -->
<svg width="3962pt" height="274pt"
 viewBox="0.00 0.00 3961.67 274.00" xmlns="http://www.w3.org/2000/svg" xmlns:xlink="http://www.w3.org/1999/xlink">
<g id="graph0" class="graph" transform="scale(1 1) rotate(0) translate(4 270)">
<title>WindowButton.hpp</title>
<!-- Node1 -->
<g id="node1" class="node"><title>Node1</title>
<polygon fill="#bfbfbf" stroke="black" points="1896.67,-246.5 1896.67,-265.5 1995.67,-265.5 1995.67,-246.5 1896.67,-246.5"/>
<text text-anchor="middle" x="1946.17" y="-253.5" font-family="Helvetica,sans-Serif" font-size="10.00">WindowButton.hpp</text>
</g>
<!-- Node2 -->
<g id="node2" class="node"><title>Node2</title>
<polygon fill="none" stroke="#bfbfbf" points="2842.67,-0.5 2842.67,-19.5 2905.67,-19.5 2905.67,-0.5 2842.67,-0.5"/>
<text text-anchor="middle" x="2874.17" y="-7.5" font-family="Helvetica,sans-Serif" font-size="10.00">QtWidgets</text>
</g>
<!-- Node1&#45;&gt;Node2 -->
<g id="edge1" class="edge"><title>Node1&#45;&gt;Node2</title>
<path fill="none" stroke="midnightblue" d="M1896.53,-254.093C1602.79,-248.515 102.776,-217.007 30.1723,-154 -2.92991,-125.273 -11.5744,-87.2351 19.1723,-56 44.9864,-29.7757 2480.98,-13.4739 2832.18,-11.2592"/>
<polygon fill="midnightblue" stroke="midnightblue" points="2832.44,-14.7577 2842.41,-11.1949 2832.39,-7.75783 2832.44,-14.7577"/>
</g>
<!-- Node3 -->
<g id="node3" class="node"><title>Node3</title>
<polygon fill="none" stroke="#bfbfbf" points="3876.67,-134.5 3876.67,-153.5 3953.67,-153.5 3953.67,-134.5 3876.67,-134.5"/>
<text text-anchor="middle" x="3915.17" y="-141.5" font-family="Helvetica,sans-Serif" font-size="10.00">C++/C++.hpp</text>
</g>
<!-- Node1&#45;&gt;Node3 -->
<g id="edge2" class="edge"><title>Node1&#45;&gt;Node3</title>
<path fill="none" stroke="midnightblue" d="M1995.76,-254.881C2214.99,-253.837 3119.01,-244.07 3866.35,-154.068"/>
<polygon fill="midnightblue" stroke="midnightblue" points="3867,-157.514 3876.51,-152.838 3866.16,-150.565 3867,-157.514"/>
</g>
<!-- Node4 -->
<g id="node4" class="node"><title>Node4</title>
<g id="a_node4"><a xlink:href="../../d1/d2b/a00018.php" target="_top" xlink:title="QtDefines.hpp">
<polygon fill="none" stroke="black" points="1906.17,-190.5 1906.17,-209.5 1986.17,-209.5 1986.17,-190.5 1906.17,-190.5"/>
<text text-anchor="middle" x="1946.17" y="-197.5" font-family="Helvetica,sans-Serif" font-size="10.00">QtDefines.hpp</text>
</a>
</g>
</g>
<!-- Node1&#45;&gt;Node4 -->
<g id="edge3" class="edge"><title>Node1&#45;&gt;Node4</title>
<path fill="none" stroke="midnightblue" d="M1946.17,-246.083C1946.17,-239.006 1946.17,-228.861 1946.17,-219.986"/>
<polygon fill="midnightblue" stroke="midnightblue" points="1949.67,-219.751 1946.17,-209.751 1942.67,-219.751 1949.67,-219.751"/>
</g>
<!-- Node4&#45;&gt;Node2 -->
<g id="edge4" class="edge"><title>Node4&#45;&gt;Node2</title>
<path fill="none" stroke="midnightblue" d="M1986.48,-198.266C2245.44,-193.358 3666.29,-163.492 3728.17,-98 3740.99,-84.4324 3741.02,-69.5422 3728.17,-56 3699.94,-26.2436 3083.95,-14.3263 2916.09,-11.6245"/>
<polygon fill="midnightblue" stroke="midnightblue" points="2915.97,-8.12231 2905.92,-11.4633 2915.86,-15.1214 2915.97,-8.12231"/>
</g>
<!-- Node4&#45;&gt;Node3 -->
<g id="edge63" class="edge"><title>Node4&#45;&gt;Node3</title>
<path fill="none" stroke="midnightblue" d="M1986.49,-198.458C2241.96,-194.972 3632.16,-175.207 3866.54,-153.911"/>
<polygon fill="midnightblue" stroke="midnightblue" points="3866.91,-157.391 3876.52,-152.928 3866.22,-150.425 3866.91,-157.391"/>
</g>
<!-- Node5 -->
<g id="node5" class="node"><title>Node5</title>
<g id="a_node5"><a xlink:href="../../d3/d52/a00023.php" target="_top" xlink:title="Widget.hpp">
<polygon fill="none" stroke="black" points="3703.17,-134.5 3703.17,-153.5 3769.17,-153.5 3769.17,-134.5 3703.17,-134.5"/>
<text text-anchor="middle" x="3736.17" y="-141.5" font-family="Helvetica,sans-Serif" font-size="10.00">Widget.hpp</text>
</a>
</g>
</g>
<!-- Node4&#45;&gt;Node5 -->
<g id="edge5" class="edge"><title>Node4&#45;&gt;Node5</title>
<path fill="none" stroke="midnightblue" d="M1986.49,-198.855C2214.4,-197.896 3343.45,-191.311 3689.17,-154 3690.45,-153.862 3691.74,-153.708 3693.05,-153.54"/>
<polygon fill="midnightblue" stroke="midnightblue" points="3693.78,-156.97 3703.15,-152.025 3692.74,-150.047 3693.78,-156.97"/>
</g>
<!-- Node6 -->
<g id="node6" class="node"><title>Node6</title>
<g id="a_node6"><a xlink:href="../../d2/de7/a00014.php" target="_top" xlink:title="DrawScene.hpp">
<polygon fill="none" stroke="black" points="210.172,-134.5 210.172,-153.5 296.172,-153.5 296.172,-134.5 210.172,-134.5"/>
<text text-anchor="middle" x="253.172" y="-141.5" font-family="Helvetica,sans-Serif" font-size="10.00">DrawScene.hpp</text>
</a>
</g>
</g>
<!-- Node4&#45;&gt;Node6 -->
<g id="edge7" class="edge"><title>Node4&#45;&gt;Node6</title>
<path fill="none" stroke="midnightblue" d="M1905.84,-198.614C1686.29,-196.401 633.109,-184.35 309.172,-154 308.25,-153.914 307.32,-153.821 306.384,-153.724"/>
<polygon fill="midnightblue" stroke="midnightblue" points="306.554,-150.219 296.208,-152.503 305.72,-157.169 306.554,-150.219"/>
</g>
<!-- Node7 -->
<g id="node7" class="node"><title>Node7</title>
<g id="a_node7"><a xlink:href="../../db/db2/a00020.php" target="_top" xlink:title="Scene.hpp">
<polygon fill="none" stroke="black" points="146.672,-67.5 146.672,-86.5 209.672,-86.5 209.672,-67.5 146.672,-67.5"/>
<text text-anchor="middle" x="178.172" y="-74.5" font-family="Helvetica,sans-Serif" font-size="10.00">Scene.hpp</text>
</a>
</g>
</g>
<!-- Node4&#45;&gt;Node7 -->
<g id="edge17" class="edge"><title>Node4&#45;&gt;Node7</title>
<path fill="none" stroke="midnightblue" d="M1906.06,-198.611C1648.45,-196.036 236.212,-180.713 201.172,-154 183.823,-140.774 179.134,-114.858 178.083,-96.9951"/>
<polygon fill="midnightblue" stroke="midnightblue" points="181.579,-96.7717 177.819,-86.8663 174.581,-96.954 181.579,-96.7717"/>
</g>
<!-- Node9 -->
<g id="node9" class="node"><title>Node9</title>
<g id="a_node9"><a xlink:href="../../d7/d7a/a00016.php" target="_top" xlink:title="GraphScene.hpp">
<polygon fill="none" stroke="black" points="318.672,-134.5 318.672,-153.5 407.672,-153.5 407.672,-134.5 318.672,-134.5"/>
<text text-anchor="middle" x="363.172" y="-141.5" font-family="Helvetica,sans-Serif" font-size="10.00">GraphScene.hpp</text>
</a>
</g>
</g>
<!-- Node4&#45;&gt;Node9 -->
<g id="edge11" class="edge"><title>Node4&#45;&gt;Node9</title>
<path fill="none" stroke="midnightblue" d="M1905.85,-197.625C1689.53,-190.245 667.096,-155.368 417.992,-146.87"/>
<polygon fill="midnightblue" stroke="midnightblue" points="417.855,-143.363 407.741,-146.52 417.616,-150.359 417.855,-143.363"/>
</g>
<!-- Node14 -->
<g id="node14" class="node"><title>Node14</title>
<g id="a_node14"><a xlink:href="../../de/d11/a00021.php" target="_top" xlink:title="Spacers.hpp">
<polygon fill="none" stroke="black" points="3787.67,-134.5 3787.67,-153.5 3858.67,-153.5 3858.67,-134.5 3787.67,-134.5"/>
<text text-anchor="middle" x="3823.17" y="-141.5" font-family="Helvetica,sans-Serif" font-size="10.00">Spacers.hpp</text>
</a>
</g>
</g>
<!-- Node4&#45;&gt;Node14 -->
<g id="edge18" class="edge"><title>Node4&#45;&gt;Node14</title>
<path fill="none" stroke="midnightblue" d="M1986.24,-198.958C2218.31,-198.575 3392.85,-194.678 3777.36,-153.83"/>
<polygon fill="midnightblue" stroke="midnightblue" points="3777.84,-157.298 3787.4,-152.735 3777.08,-150.34 3777.84,-157.298"/>
</g>
<!-- Node15 -->
<g id="node15" class="node"><title>Node15</title>
<g id="a_node15"><a xlink:href="../../dd/da2/a00019.php" target="_top" xlink:title="QtFunctions.hpp">
<polygon fill="none" stroke="black" points="39.6723,-134.5 39.6723,-153.5 128.672,-153.5 128.672,-134.5 39.6723,-134.5"/>
<text text-anchor="middle" x="84.1723" y="-141.5" font-family="Helvetica,sans-Serif" font-size="10.00">QtFunctions.hpp</text>
</a>
</g>
</g>
<!-- Node4&#45;&gt;Node15 -->
<g id="edge20" class="edge"><title>Node4&#45;&gt;Node15</title>
<path fill="none" stroke="midnightblue" d="M1906.01,-199.232C1713.02,-200.086 861.675,-200.876 166.172,-154 157.348,-153.405 148.008,-152.574 138.917,-151.654"/>
<polygon fill="midnightblue" stroke="midnightblue" points="139.11,-148.155 128.798,-150.587 138.375,-155.116 139.11,-148.155"/>
</g>
<!-- Node17 -->
<g id="node17" class="node"><title>Node17</title>
<g id="a_node17"><a xlink:href="../../dd/d1b/a00015.php" target="_top" xlink:title="Font.hpp">
<polygon fill="none" stroke="red" points="1918.67,-134.5 1918.67,-153.5 1973.67,-153.5 1973.67,-134.5 1918.67,-134.5"/>
<text text-anchor="middle" x="1946.17" y="-141.5" font-family="Helvetica,sans-Serif" font-size="10.00">Font.hpp</text>
</a>
</g>
</g>
<!-- Node4&#45;&gt;Node17 -->
<g id="edge23" class="edge"><title>Node4&#45;&gt;Node17</title>
<path fill="none" stroke="midnightblue" d="M1941.01,-190.083C1939.5,-182.927 1939.07,-172.635 1939.71,-163.691"/>
<polygon fill="midnightblue" stroke="midnightblue" points="1943.19,-164.126 1941.04,-153.751 1936.25,-163.2 1943.19,-164.126"/>
</g>
<!-- Node5&#45;&gt;Node2 -->
<g id="edge6" class="edge"><title>Node5&#45;&gt;Node2</title>
<path fill="none" stroke="midnightblue" d="M3743.35,-134.318C3756.73,-117.064 3782.29,-78.2115 3761.17,-56 3731.73,-25.0246 3087.86,-13.9483 2916.01,-11.538"/>
<polygon fill="midnightblue" stroke="midnightblue" points="2915.9,-8.03618 2905.85,-11.3979 2915.8,-15.0355 2915.9,-8.03618"/>
</g>
<!-- Node6&#45;&gt;Node7 -->
<g id="edge8" class="edge"><title>Node6&#45;&gt;Node7</title>
<path fill="none" stroke="midnightblue" d="M243.057,-134.234C231.025,-123.805 210.721,-106.209 196.026,-93.4732"/>
<polygon fill="midnightblue" stroke="midnightblue" points="197.976,-90.5317 188.127,-86.6273 193.391,-95.8216 197.976,-90.5317"/>
</g>
<!-- Node7&#45;&gt;Node2 -->
<g id="edge9" class="edge"><title>Node7&#45;&gt;Node2</title>
<path fill="none" stroke="midnightblue" d="M192.016,-67.3583C199.705,-63.0544 209.623,-58.2904 219.172,-56 351.66,-24.2238 2504.07,-12.7586 2832.33,-11.1916"/>
<polygon fill="midnightblue" stroke="midnightblue" points="2832.39,-14.6914 2842.38,-11.144 2832.36,-7.69151 2832.39,-14.6914"/>
</g>
<!-- Node8 -->
<g id="node8" class="node"><title>Node8</title>
<polygon fill="none" stroke="#bfbfbf" points="1024.17,-0.5 1024.17,-19.5 1078.17,-19.5 1078.17,-0.5 1024.17,-0.5"/>
<text text-anchor="middle" x="1051.17" y="-7.5" font-family="Helvetica,sans-Serif" font-size="10.00">iostream</text>
</g>
<!-- Node7&#45;&gt;Node8 -->
<g id="edge10" class="edge"><title>Node7&#45;&gt;Node8</title>
<path fill="none" stroke="midnightblue" d="M192.051,-67.4992C199.75,-63.2366 209.667,-58.4671 219.172,-56 372.521,-16.1996 872.569,-11.5634 1013.75,-11.0543"/>
<polygon fill="midnightblue" stroke="midnightblue" points="1014.05,-14.5535 1024.04,-11.0224 1014.03,-7.55353 1014.05,-14.5535"/>
</g>
<!-- Node9&#45;&gt;Node7 -->
<g id="edge16" class="edge"><title>Node9&#45;&gt;Node7</title>
<path fill="none" stroke="midnightblue" d="M330.947,-134.437C301.441,-126.244 256.777,-112.949 219.172,-98 214.06,-95.9676 208.703,-93.5655 203.61,-91.144"/>
<polygon fill="midnightblue" stroke="midnightblue" points="204.796,-87.827 194.278,-86.5556 201.708,-94.1088 204.796,-87.827"/>
</g>
<!-- Node10 -->
<g id="node10" class="node"><title>Node10</title>
<polygon fill="none" stroke="#bfbfbf" points="410.672,-67.5 410.672,-86.5 445.672,-86.5 445.672,-67.5 410.672,-67.5"/>
<text text-anchor="middle" x="428.172" y="-74.5" font-family="Helvetica,sans-Serif" font-size="10.00">map</text>
</g>
<!-- Node9&#45;&gt;Node10 -->
<g id="edge12" class="edge"><title>Node9&#45;&gt;Node10</title>
<path fill="none" stroke="midnightblue" d="M371.938,-134.234C382.269,-123.903 399.635,-106.537 412.341,-93.8315"/>
<polygon fill="midnightblue" stroke="midnightblue" points="414.949,-96.1733 419.545,-86.6273 409.999,-91.2235 414.949,-96.1733"/>
</g>
<!-- Node11 -->
<g id="node11" class="node"><title>Node11</title>
<polygon fill="none" stroke="#bfbfbf" points="228.172,-67.5 228.172,-86.5 272.172,-86.5 272.172,-67.5 228.172,-67.5"/>
<text text-anchor="middle" x="250.172" y="-74.5" font-family="Helvetica,sans-Serif" font-size="10.00">vector</text>
</g>
<!-- Node9&#45;&gt;Node11 -->
<g id="edge13" class="edge"><title>Node9&#45;&gt;Node11</title>
<path fill="none" stroke="midnightblue" d="M346.643,-134.373C329.943,-125.554 303.492,-111.301 281.172,-98 278.052,-96.1403 274.792,-94.1229 271.608,-92.1089"/>
<polygon fill="midnightblue" stroke="midnightblue" points="273.318,-89.0467 263.015,-86.5761 269.528,-94.9324 273.318,-89.0467"/>
</g>
<!-- Node12 -->
<g id="node12" class="node"><title>Node12</title>
<polygon fill="none" stroke="#bfbfbf" points="290.172,-67.5 290.172,-86.5 330.172,-86.5 330.172,-67.5 290.172,-67.5"/>
<text text-anchor="middle" x="310.172" y="-74.5" font-family="Helvetica,sans-Serif" font-size="10.00">utility</text>
</g>
<!-- Node9&#45;&gt;Node12 -->
<g id="edge14" class="edge"><title>Node9&#45;&gt;Node12</title>
<path fill="none" stroke="midnightblue" d="M356.024,-134.234C347.76,-124.098 333.973,-107.19 323.671,-94.5556"/>
<polygon fill="midnightblue" stroke="midnightblue" points="326.239,-92.1657 317.207,-86.6273 320.814,-96.5893 326.239,-92.1657"/>
</g>
<!-- Node13 -->
<g id="node13" class="node"><title>Node13</title>
<polygon fill="none" stroke="#bfbfbf" points="348.172,-67.5 348.172,-86.5 392.172,-86.5 392.172,-67.5 348.172,-67.5"/>
<text text-anchor="middle" x="370.172" y="-74.5" font-family="Helvetica,sans-Serif" font-size="10.00">cmath</text>
</g>
<!-- Node9&#45;&gt;Node13 -->
<g id="edge15" class="edge"><title>Node9&#45;&gt;Node13</title>
<path fill="none" stroke="midnightblue" d="M364.116,-134.234C365.145,-124.683 366.821,-109.118 368.15,-96.7829"/>
<polygon fill="midnightblue" stroke="midnightblue" points="371.652,-96.9446 369.243,-86.6273 364.692,-96.195 371.652,-96.9446"/>
</g>
<!-- Node14&#45;&gt;Node2 -->
<g id="edge19" class="edge"><title>Node14&#45;&gt;Node2</title>
<path fill="none" stroke="midnightblue" d="M3821.75,-134.438C3818.23,-116.317 3807.28,-74.2573 3779.17,-56 3706.24,-8.6224 3084.04,-9.51755 2915.91,-10.6403"/>
<polygon fill="midnightblue" stroke="midnightblue" points="2915.7,-7.14156 2905.72,-10.7124 2915.75,-14.1414 2915.7,-7.14156"/>
</g>
<!-- Node15&#45;&gt;Node2 -->
<g id="edge21" class="edge"><title>Node15&#45;&gt;Node2</title>
<path fill="none" stroke="midnightblue" d="M67.5393,-134.464C54.6844,-126.841 37.833,-114.356 30.1723,-98 22.2547,-81.0957 17.0778,-69.3033 30.1723,-56 55.8862,-29.876 2482.49,-13.4884 2832.34,-11.2607"/>
<polygon fill="midnightblue" stroke="midnightblue" points="2832.56,-14.7595 2842.54,-11.1961 2832.52,-7.75963 2832.56,-14.7595"/>
</g>
<!-- Node16 -->
<g id="node16" class="node"><title>Node16</title>
<polygon fill="none" stroke="#bfbfbf" points="39.6723,-67.5 39.6723,-86.5 128.672,-86.5 128.672,-67.5 39.6723,-67.5"/>
<text text-anchor="middle" x="84.1723" y="-74.5" font-family="Helvetica,sans-Serif" font-size="10.00">C++/defines.hpp</text>
</g>
<!-- Node15&#45;&gt;Node16 -->
<g id="edge22" class="edge"><title>Node15&#45;&gt;Node16</title>
<path fill="none" stroke="midnightblue" d="M84.1723,-134.234C84.1723,-124.683 84.1723,-109.118 84.1723,-96.7829"/>
<polygon fill="midnightblue" stroke="midnightblue" points="87.6724,-96.6273 84.1723,-86.6273 80.6724,-96.6273 87.6724,-96.6273"/>
</g>
<!-- Node17&#45;&gt;Node4 -->
<g id="edge24" class="edge"><title>Node17&#45;&gt;Node4</title>
<path fill="none" stroke="midnightblue" d="M1951.3,-153.751C1952.83,-160.858 1953.28,-171.136 1952.64,-180.101"/>
<polygon fill="midnightblue" stroke="midnightblue" points="1949.17,-179.713 1951.34,-190.083 1956.11,-180.622 1949.17,-179.713"/>
</g>
<!-- Node17&#45;&gt;Node8 -->
<g id="edge46" class="edge"><title>Node17&#45;&gt;Node8</title>
<path fill="none" stroke="midnightblue" d="M1973.77,-142.509C2112.04,-139.92 2723.88,-126.858 2751.17,-98 2764,-84.4373 2764.2,-69.3728 2751.17,-56 2721.15,-25.1776 1335.64,-13.1717 1088.64,-11.2747"/>
<polygon fill="midnightblue" stroke="midnightblue" points="1088.41,-7.77294 1078.39,-11.1967 1088.36,-14.7727 1088.41,-7.77294"/>
</g>
<!-- Node17&#45;&gt;Node10 -->
<g id="edge61" class="edge"><title>Node17&#45;&gt;Node10</title>
<path fill="none" stroke="midnightblue" d="M1918.48,-143.188C1726.5,-144.354 597.022,-149.002 454.172,-98 450.743,-96.7757 447.405,-94.9154 444.326,-92.8131"/>
<polygon fill="midnightblue" stroke="midnightblue" points="446.483,-90.0566 436.477,-86.5747 442.128,-95.5367 446.483,-90.0566"/>
</g>
<!-- Node17&#45;&gt;Node11 -->
<g id="edge50" class="edge"><title>Node17&#45;&gt;Node11</title>
<path fill="none" stroke="midnightblue" d="M1918.66,-143.15C1714.89,-144.143 443.73,-148.284 281.172,-98 276.904,-96.6798 272.661,-94.5944 268.745,-92.2586"/>
<polygon fill="midnightblue" stroke="midnightblue" points="270.595,-89.2846 260.347,-86.5966 266.682,-95.0888 270.595,-89.2846"/>
</g>
<!-- Node17&#45;&gt;Node12 -->
<g id="edge26" class="edge"><title>Node17&#45;&gt;Node12</title>
<path fill="none" stroke="midnightblue" d="M1918.65,-143.17C1718.91,-144.277 495.033,-148.937 339.172,-98 335.23,-96.7116 331.342,-94.7025 327.755,-92.4448"/>
<polygon fill="midnightblue" stroke="midnightblue" points="329.766,-89.5802 319.602,-86.5895 325.683,-95.2658 329.766,-89.5802"/>
</g>
<!-- Node17&#45;&gt;Node13 -->
<g id="edge62" class="edge"><title>Node17&#45;&gt;Node13</title>
<path fill="none" stroke="midnightblue" d="M1918.49,-143.088C1722.79,-143.594 551.413,-144.647 401.172,-98 396.906,-96.6754 392.663,-94.5878 388.748,-92.2515"/>
<polygon fill="midnightblue" stroke="midnightblue" points="390.597,-89.2775 380.349,-86.5903 386.685,-95.0819 390.597,-89.2775"/>
</g>
<!-- Node18 -->
<g id="node18" class="node"><title>Node18</title>
<polygon fill="none" stroke="#bfbfbf" points="2093.17,-67.5 2093.17,-86.5 2133.17,-86.5 2133.17,-67.5 2093.17,-67.5"/>
<text text-anchor="middle" x="2113.17" y="-74.5" font-family="Helvetica,sans-Serif" font-size="10.00">limits</text>
</g>
<!-- Node17&#45;&gt;Node18 -->
<g id="edge25" class="edge"><title>Node17&#45;&gt;Node18</title>
<path fill="none" stroke="midnightblue" d="M1973.79,-136.51C2002.32,-129.234 2047.7,-116.049 2084.17,-98 2087.45,-96.3777 2090.78,-94.4217 2093.96,-92.3765"/>
<polygon fill="midnightblue" stroke="midnightblue" points="2096.11,-95.1449 2102.34,-86.5792 2092.13,-89.3869 2096.11,-95.1449"/>
</g>
<!-- Node19 -->
<g id="node19" class="node"><title>Node19</title>
<polygon fill="none" stroke="#bfbfbf" points="2151.17,-67.5 2151.17,-86.5 2203.17,-86.5 2203.17,-67.5 2151.17,-67.5"/>
<text text-anchor="middle" x="2177.17" y="-74.5" font-family="Helvetica,sans-Serif" font-size="10.00">memory</text>
</g>
<!-- Node17&#45;&gt;Node19 -->
<g id="edge27" class="edge"><title>Node17&#45;&gt;Node19</title>
<path fill="none" stroke="midnightblue" d="M1973.88,-139.262C2012.55,-133.462 2084.45,-120.549 2142.17,-98 2146.62,-96.2628 2151.18,-94.0312 2155.48,-91.6921"/>
<polygon fill="midnightblue" stroke="midnightblue" points="2157.44,-94.6004 2164.33,-86.5499 2153.93,-88.548 2157.44,-94.6004"/>
</g>
<!-- Node20 -->
<g id="node20" class="node"><title>Node20</title>
<polygon fill="none" stroke="#bfbfbf" points="2221.67,-67.5 2221.67,-86.5 2268.67,-86.5 2268.67,-67.5 2221.67,-67.5"/>
<text text-anchor="middle" x="2245.17" y="-74.5" font-family="Helvetica,sans-Serif" font-size="10.00">iterator</text>
</g>
<!-- Node17&#45;&gt;Node20 -->
<g id="edge28" class="edge"><title>Node17&#45;&gt;Node20</title>
<path fill="none" stroke="midnightblue" d="M1973.86,-141.734C2023.2,-138.738 2128.99,-128.953 2212.17,-98 2216.41,-96.423 2220.71,-94.2872 2224.74,-91.9968"/>
<polygon fill="midnightblue" stroke="midnightblue" points="2226.85,-94.8056 2233.51,-86.5626 2223.16,-88.8557 2226.85,-94.8056"/>
</g>
<!-- Node21 -->
<g id="node21" class="node"><title>Node21</title>
<polygon fill="none" stroke="#bfbfbf" points="2287.17,-67.5 2287.17,-86.5 2325.17,-86.5 2325.17,-67.5 2287.17,-67.5"/>
<text text-anchor="middle" x="2306.17" y="-74.5" font-family="Helvetica,sans-Serif" font-size="10.00">tuple</text>
</g>
<!-- Node17&#45;&gt;Node21 -->
<g id="edge29" class="edge"><title>Node17&#45;&gt;Node21</title>
<path fill="none" stroke="midnightblue" d="M1973.97,-143.661C2032.47,-144.116 2171.65,-140.235 2278.17,-98 2281.61,-96.6376 2285.02,-94.7654 2288.22,-92.7095"/>
<polygon fill="midnightblue" stroke="midnightblue" points="2290.46,-95.4034 2296.5,-86.6992 2286.35,-89.7367 2290.46,-95.4034"/>
</g>
<!-- Node22 -->
<g id="node22" class="node"><title>Node22</title>
<polygon fill="none" stroke="#bfbfbf" points="2343.67,-67.5 2343.67,-86.5 2372.67,-86.5 2372.67,-67.5 2343.67,-67.5"/>
<text text-anchor="middle" x="2358.17" y="-74.5" font-family="Helvetica,sans-Serif" font-size="10.00">ios</text>
</g>
<!-- Node17&#45;&gt;Node22 -->
<g id="edge30" class="edge"><title>Node17&#45;&gt;Node22</title>
<path fill="none" stroke="midnightblue" d="M1973.74,-141.843C2051.13,-138.278 2268.97,-125.962 2334.17,-98 2336.98,-96.7976 2339.71,-95.158 2342.26,-93.3314"/>
<polygon fill="midnightblue" stroke="midnightblue" points="2344.69,-95.8645 2350.11,-86.7645 2340.2,-90.4946 2344.69,-95.8645"/>
</g>
<!-- Node23 -->
<g id="node23" class="node"><title>Node23</title>
<polygon fill="none" stroke="#bfbfbf" points="2390.67,-56.5 2390.67,-97.5 2509.67,-97.5 2509.67,-56.5 2390.67,-56.5"/>
<text text-anchor="start" x="2398.67" y="-85.5" font-family="Helvetica,sans-Serif" font-size="10.00">/home/mathias/Bureau</text>
<text text-anchor="start" x="2398.67" y="-74.5" font-family="Helvetica,sans-Serif" font-size="10.00">/Algo/QTTests/Widgets</text>
<text text-anchor="middle" x="2450.17" y="-63.5" font-family="Helvetica,sans-Serif" font-size="10.00">/C++/bdd.hpp</text>
</g>
<!-- Node17&#45;&gt;Node23 -->
<g id="edge31" class="edge"><title>Node17&#45;&gt;Node23</title>
<path fill="none" stroke="midnightblue" d="M1973.72,-141.909C2041.55,-138.852 2222.07,-128.471 2380.69,-98.1184"/>
<polygon fill="midnightblue" stroke="midnightblue" points="2381.47,-101.531 2390.62,-96.1856 2380.14,-94.6601 2381.47,-101.531"/>
</g>
<!-- Node24 -->
<g id="node24" class="node"><title>Node24</title>
<polygon fill="none" stroke="#bfbfbf" points="2527.67,-67.5 2527.67,-86.5 2616.67,-86.5 2616.67,-67.5 2527.67,-67.5"/>
<text text-anchor="middle" x="2572.17" y="-74.5" font-family="Helvetica,sans-Serif" font-size="10.00">cppconn/driver.h</text>
</g>
<!-- Node17&#45;&gt;Node24 -->
<g id="edge32" class="edge"><title>Node17&#45;&gt;Node24</title>
<path fill="none" stroke="midnightblue" d="M1973.72,-143.565C2057.06,-144.697 2313.44,-143.921 2519.17,-98 2527.41,-96.1622 2536.07,-93.3104 2543.96,-90.3305"/>
<polygon fill="midnightblue" stroke="midnightblue" points="2545.44,-93.507 2553.44,-86.5542 2542.85,-87.0041 2545.44,-93.507"/>
</g>
<!-- Node25 -->
<g id="node25" class="node"><title>Node25</title>
<polygon fill="none" stroke="#bfbfbf" points="2634.67,-67.5 2634.67,-86.5 2741.67,-86.5 2741.67,-67.5 2634.67,-67.5"/>
<text text-anchor="middle" x="2688.17" y="-74.5" font-family="Helvetica,sans-Serif" font-size="10.00">cppconn/exception.h</text>
</g>
<!-- Node17&#45;&gt;Node25 -->
<g id="edge33" class="edge"><title>Node17&#45;&gt;Node25</title>
<path fill="none" stroke="midnightblue" d="M1974,-142.071C2085.22,-138.219 2497.91,-122.542 2626.17,-98 2636.23,-96.0754 2646.93,-93.0101 2656.56,-89.852"/>
<polygon fill="midnightblue" stroke="midnightblue" points="2657.81,-93.1237 2666.13,-86.5711 2655.54,-86.5017 2657.81,-93.1237"/>
</g>
<!-- Node26 -->
<g id="node26" class="node"><title>Node26</title>
<polygon fill="none" stroke="#bfbfbf" points="2798.17,-67.5 2798.17,-86.5 2900.17,-86.5 2900.17,-67.5 2798.17,-67.5"/>
<text text-anchor="middle" x="2849.17" y="-74.5" font-family="Helvetica,sans-Serif" font-size="10.00">cppconn/resultset.h</text>
</g>
<!-- Node17&#45;&gt;Node26 -->
<g id="edge34" class="edge"><title>Node17&#45;&gt;Node26</title>
<path fill="none" stroke="midnightblue" d="M1973.8,-142.425C2100.09,-139.657 2623.16,-126.647 2784.17,-98 2794.9,-96.0921 2806.33,-92.9622 2816.57,-89.7387"/>
<polygon fill="midnightblue" stroke="midnightblue" points="2817.94,-92.9738 2826.35,-86.5258 2815.75,-86.3239 2817.94,-92.9738"/>
</g>
<!-- Node27 -->
<g id="node27" class="node"><title>Node27</title>
<polygon fill="none" stroke="#bfbfbf" points="2918.17,-67.5 2918.17,-86.5 3026.17,-86.5 3026.17,-67.5 2918.17,-67.5"/>
<text text-anchor="middle" x="2972.17" y="-74.5" font-family="Helvetica,sans-Serif" font-size="10.00">cppconn/statement.h</text>
</g>
<!-- Node17&#45;&gt;Node27 -->
<g id="edge35" class="edge"><title>Node17&#45;&gt;Node27</title>
<path fill="none" stroke="midnightblue" d="M1973.7,-142.681C2110.98,-140.941 2722.38,-131.42 2909.17,-98 2919.59,-96.1356 2930.68,-93.0178 2940.61,-89.792"/>
<polygon fill="midnightblue" stroke="midnightblue" points="2941.74,-93.1055 2950.08,-86.5727 2939.48,-86.478 2941.74,-93.1055"/>
</g>
<!-- Node28 -->
<g id="node28" class="node"><title>Node28</title>
<polygon fill="none" stroke="#bfbfbf" points="3044.67,-67.5 3044.67,-86.5 3103.67,-86.5 3103.67,-67.5 3044.67,-67.5"/>
<text text-anchor="middle" x="3074.17" y="-74.5" font-family="Helvetica,sans-Serif" font-size="10.00">functional</text>
</g>
<!-- Node17&#45;&gt;Node28 -->
<g id="edge36" class="edge"><title>Node17&#45;&gt;Node28</title>
<path fill="none" stroke="midnightblue" d="M1973.81,-142.568C2133.04,-139.984 2929.84,-125.746 3035.17,-98 3040.87,-96.4978 3046.7,-94.0721 3052.05,-91.4199"/>
<polygon fill="midnightblue" stroke="midnightblue" points="3053.91,-94.392 3061.04,-86.5515 3050.58,-88.237 3053.91,-94.392"/>
</g>
<!-- Node29 -->
<g id="node29" class="node"><title>Node29</title>
<polygon fill="none" stroke="#bfbfbf" points="3121.67,-56.5 3121.67,-97.5 3240.67,-97.5 3240.67,-56.5 3121.67,-56.5"/>
<text text-anchor="start" x="3129.67" y="-85.5" font-family="Helvetica,sans-Serif" font-size="10.00">/home/mathias/Bureau</text>
<text text-anchor="start" x="3129.67" y="-74.5" font-family="Helvetica,sans-Serif" font-size="10.00">/Algo/QTTests/Widgets</text>
<text text-anchor="middle" x="3181.17" y="-63.5" font-family="Helvetica,sans-Serif" font-size="10.00">/C++/errors.hpp</text>
</g>
<!-- Node17&#45;&gt;Node29 -->
<g id="edge37" class="edge"><title>Node17&#45;&gt;Node29</title>
<path fill="none" stroke="midnightblue" d="M1973.72,-142.862C2125.63,-141.962 2863.01,-135.767 3111.61,-97.9971"/>
<polygon fill="midnightblue" stroke="midnightblue" points="3112.33,-101.426 3121.66,-96.4082 3111.24,-94.5123 3112.33,-101.426"/>
</g>
<!-- Node30 -->
<g id="node30" class="node"><title>Node30</title>
<polygon fill="none" stroke="#bfbfbf" points="3258.67,-56.5 3258.67,-97.5 3377.67,-97.5 3377.67,-56.5 3258.67,-56.5"/>
<text text-anchor="start" x="3266.67" y="-85.5" font-family="Helvetica,sans-Serif" font-size="10.00">/home/mathias/Bureau</text>
<text text-anchor="start" x="3266.67" y="-74.5" font-family="Helvetica,sans-Serif" font-size="10.00">/Algo/QTTests/Widgets</text>
<text text-anchor="middle" x="3318.17" y="-63.5" font-family="Helvetica,sans-Serif" font-size="10.00">/C++/console.hpp</text>
</g>
<!-- Node17&#45;&gt;Node30 -->
<g id="edge38" class="edge"><title>Node17&#45;&gt;Node30</title>
<path fill="none" stroke="midnightblue" d="M1973.93,-142.991C2136.89,-142.794 2971.3,-139.806 3248.64,-97.9903"/>
<polygon fill="midnightblue" stroke="midnightblue" points="3249.32,-101.426 3258.66,-96.4222 3248.24,-94.5098 3249.32,-101.426"/>
</g>
<!-- Node31 -->
<g id="node31" class="node"><title>Node31</title>
<polygon fill="none" stroke="#bfbfbf" points="3395.67,-56.5 3395.67,-97.5 3514.67,-97.5 3514.67,-56.5 3395.67,-56.5"/>
<text text-anchor="start" x="3403.67" y="-85.5" font-family="Helvetica,sans-Serif" font-size="10.00">/home/mathias/Bureau</text>
<text text-anchor="start" x="3403.67" y="-74.5" font-family="Helvetica,sans-Serif" font-size="10.00">/Algo/QTTests/Widgets</text>
<text text-anchor="middle" x="3455.17" y="-63.5" font-family="Helvetica,sans-Serif" font-size="10.00">/C++/convert.hpp</text>
</g>
<!-- Node17&#45;&gt;Node31 -->
<g id="edge39" class="edge"><title>Node17&#45;&gt;Node31</title>
<path fill="none" stroke="midnightblue" d="M1973.95,-143.096C2146.95,-143.552 3079.05,-143.883 3385.47,-98.0144"/>
<polygon fill="midnightblue" stroke="midnightblue" points="3386.32,-101.424 3395.67,-96.4336 3385.25,-94.507 3386.32,-101.424"/>
</g>
<!-- Node32 -->
<g id="node32" class="node"><title>Node32</title>
<polygon fill="none" stroke="#bfbfbf" points="3533.17,-67.5 3533.17,-86.5 3585.17,-86.5 3585.17,-67.5 3533.17,-67.5"/>
<text text-anchor="middle" x="3559.17" y="-74.5" font-family="Helvetica,sans-Serif" font-size="10.00">sstream</text>
</g>
<!-- Node17&#45;&gt;Node32 -->
<g id="edge40" class="edge"><title>Node17&#45;&gt;Node32</title>
<path fill="none" stroke="midnightblue" d="M1973.78,-143.02C2171.56,-143.06 3369.32,-141.495 3524.17,-98 3529.13,-96.6066 3534.14,-94.3605 3538.74,-91.8673"/>
<polygon fill="midnightblue" stroke="midnightblue" points="3540.75,-94.7474 3547.52,-86.5968 3537.14,-88.7473 3540.75,-94.7474"/>
</g>
<!-- Node33 -->
<g id="node33" class="node"><title>Node33</title>
<polygon fill="none" stroke="#bfbfbf" points="3603.67,-67.5 3603.67,-86.5 3644.67,-86.5 3644.67,-67.5 3603.67,-67.5"/>
<text text-anchor="middle" x="3624.17" y="-74.5" font-family="Helvetica,sans-Serif" font-size="10.00">string</text>
</g>
<!-- Node17&#45;&gt;Node33 -->
<g id="edge41" class="edge"><title>Node17&#45;&gt;Node33</title>
<path fill="none" stroke="midnightblue" d="M1973.74,-143.166C2176.49,-144.264 3433.74,-148.974 3594.17,-98 3598.22,-96.7146 3602.23,-94.7068 3605.93,-92.4495"/>
<polygon fill="midnightblue" stroke="midnightblue" points="3608.15,-95.1703 3614.37,-86.5938 3604.16,-89.4191 3608.15,-95.1703"/>
</g>
<!-- Node34 -->
<g id="node34" class="node"><title>Node34</title>
<polygon fill="none" stroke="#bfbfbf" points="3663.17,-67.5 3663.17,-86.5 3719.17,-86.5 3719.17,-67.5 3663.17,-67.5"/>
<text text-anchor="middle" x="3691.17" y="-74.5" font-family="Helvetica,sans-Serif" font-size="10.00">algorithm</text>
</g>
<!-- Node17&#45;&gt;Node34 -->
<g id="edge42" class="edge"><title>Node17&#45;&gt;Node34</title>
<path fill="none" stroke="midnightblue" d="M1973.7,-143.047C2180.36,-143.298 3485.35,-143.08 3654.17,-98 3659.5,-96.5765 3664.91,-94.2509 3669.88,-91.6797"/>
<polygon fill="midnightblue" stroke="midnightblue" points="3671.83,-94.5996 3678.78,-86.6054 3668.36,-88.5189 3671.83,-94.5996"/>
</g>
<!-- Node35 -->
<g id="node35" class="node"><title>Node35</title>
<polygon fill="none" stroke="#bfbfbf" points="463.672,-67.5 463.672,-86.5 514.672,-86.5 514.672,-67.5 463.672,-67.5"/>
<text text-anchor="middle" x="489.172" y="-74.5" font-family="Helvetica,sans-Serif" font-size="10.00">numeric</text>
</g>
<!-- Node17&#45;&gt;Node35 -->
<g id="edge43" class="edge"><title>Node17&#45;&gt;Node35</title>
<path fill="none" stroke="midnightblue" d="M1918.66,-142.928C1732.73,-142.335 662.999,-137.228 524.172,-98 519.214,-96.5989 514.212,-94.3494 509.603,-91.8555"/>
<polygon fill="midnightblue" stroke="midnightblue" points="511.206,-88.7355 500.831,-86.5864 507.601,-94.7361 511.206,-88.7355"/>
</g>
<!-- Node36 -->
<g id="node36" class="node"><title>Node36</title>
<polygon fill="none" stroke="#bfbfbf" points="533.172,-67.5 533.172,-86.5 595.172,-86.5 595.172,-67.5 533.172,-67.5"/>
<text text-anchor="middle" x="564.172" y="-74.5" font-family="Helvetica,sans-Serif" font-size="10.00">type_traits</text>
</g>
<!-- Node17&#45;&gt;Node36 -->
<g id="edge44" class="edge"><title>Node17&#45;&gt;Node36</title>
<path fill="none" stroke="midnightblue" d="M1918.52,-142.782C1738.44,-141.27 735.718,-131.391 604.172,-98 598.34,-96.5196 592.373,-94.1025 586.888,-91.4517"/>
<polygon fill="midnightblue" stroke="midnightblue" points="588.143,-88.1567 577.667,-86.5793 584.873,-94.3458 588.143,-88.1567"/>
</g>
<!-- Node37 -->
<g id="node37" class="node"><title>Node37</title>
<polygon fill="none" stroke="#bfbfbf" points="613.672,-56.5 613.672,-97.5 732.672,-97.5 732.672,-56.5 613.672,-56.5"/>
<text text-anchor="start" x="621.672" y="-85.5" font-family="Helvetica,sans-Serif" font-size="10.00">/home/mathias/Bureau</text>
<text text-anchor="start" x="621.672" y="-74.5" font-family="Helvetica,sans-Serif" font-size="10.00">/Algo/QTTests/Widgets</text>
<text text-anchor="middle" x="673.172" y="-63.5" font-family="Helvetica,sans-Serif" font-size="10.00">/C++/types.hpp</text>
</g>
<!-- Node17&#45;&gt;Node37 -->
<g id="edge45" class="edge"><title>Node17&#45;&gt;Node37</title>
<path fill="none" stroke="midnightblue" d="M1918.53,-142.884C1763.49,-142.1 1000.04,-136.395 742.842,-97.8174"/>
<polygon fill="midnightblue" stroke="midnightblue" points="743.227,-94.3353 732.807,-96.2536 742.149,-101.252 743.227,-94.3353"/>
</g>
<!-- Node38 -->
<g id="node38" class="node"><title>Node38</title>
<polygon fill="none" stroke="#bfbfbf" points="750.672,-67.5 750.672,-86.5 801.672,-86.5 801.672,-67.5 750.672,-67.5"/>
<text text-anchor="middle" x="776.172" y="-74.5" font-family="Helvetica,sans-Serif" font-size="10.00">typeinfo</text>
</g>
<!-- Node17&#45;&gt;Node38 -->
<g id="edge47" class="edge"><title>Node17&#45;&gt;Node38</title>
<path fill="none" stroke="midnightblue" d="M1918.42,-142.689C1754.89,-140.749 920.523,-129.372 811.172,-98 806.219,-96.5791 801.221,-94.3212 796.612,-91.8253"/>
<polygon fill="midnightblue" stroke="midnightblue" points="798.214,-88.7053 787.839,-86.5598 794.612,-94.7071 798.214,-88.7053"/>
</g>
<!-- Node39 -->
<g id="node39" class="node"><title>Node39</title>
<polygon fill="none" stroke="#bfbfbf" points="819.672,-56.5 819.672,-97.5 938.672,-97.5 938.672,-56.5 819.672,-56.5"/>
<text text-anchor="start" x="827.672" y="-85.5" font-family="Helvetica,sans-Serif" font-size="10.00">/home/mathias/Bureau</text>
<text text-anchor="start" x="827.672" y="-74.5" font-family="Helvetica,sans-Serif" font-size="10.00">/Algo/QTTests/Widgets</text>
<text text-anchor="middle" x="879.172" y="-63.5" font-family="Helvetica,sans-Serif" font-size="10.00">/C++/files.hpp</text>
</g>
<!-- Node17&#45;&gt;Node39 -->
<g id="edge48" class="edge"><title>Node17&#45;&gt;Node39</title>
<path fill="none" stroke="midnightblue" d="M1918.6,-142.639C1780.53,-140.701 1162.97,-130.434 948.996,-97.8439"/>
<polygon fill="midnightblue" stroke="midnightblue" points="949.238,-94.3383 938.812,-96.2246 948.138,-101.252 949.238,-94.3383"/>
</g>
<!-- Node40 -->
<g id="node40" class="node"><title>Node40</title>
<polygon fill="none" stroke="#bfbfbf" points="957.172,-67.5 957.172,-86.5 1007.17,-86.5 1007.17,-67.5 957.172,-67.5"/>
<text text-anchor="middle" x="982.172" y="-74.5" font-family="Helvetica,sans-Serif" font-size="10.00">fstream</text>
</g>
<!-- Node17&#45;&gt;Node40 -->
<g id="edge49" class="edge"><title>Node17&#45;&gt;Node40</title>
<path fill="none" stroke="midnightblue" d="M1918.43,-142.428C1773.4,-139.332 1105.53,-123.769 1017.17,-98 1012.23,-96.5574 1007.23,-94.2903 1002.62,-91.7923"/>
<polygon fill="midnightblue" stroke="midnightblue" points="1004.22,-88.6721 993.847,-86.5306 1000.62,-94.6754 1004.22,-88.6721"/>
</g>
<!-- Node41 -->
<g id="node41" class="node"><title>Node41</title>
<polygon fill="none" stroke="#bfbfbf" points="1025.67,-56.5 1025.67,-97.5 1144.67,-97.5 1144.67,-56.5 1025.67,-56.5"/>
<text text-anchor="start" x="1033.67" y="-85.5" font-family="Helvetica,sans-Serif" font-size="10.00">/home/mathias/Bureau</text>
<text text-anchor="start" x="1033.67" y="-74.5" font-family="Helvetica,sans-Serif" font-size="10.00">/Algo/QTTests/Widgets</text>
<text text-anchor="middle" x="1085.17" y="-63.5" font-family="Helvetica,sans-Serif" font-size="10.00">/C++/time.hpp</text>
</g>
<!-- Node17&#45;&gt;Node41 -->
<g id="edge51" class="edge"><title>Node17&#45;&gt;Node41</title>
<path fill="none" stroke="midnightblue" d="M1918.45,-142.263C1798.81,-138.957 1325.36,-124.546 1154.88,-97.8332"/>
<polygon fill="midnightblue" stroke="midnightblue" points="1155.25,-94.3475 1144.82,-96.1807 1154.12,-101.255 1155.25,-94.3475"/>
</g>
<!-- Node42 -->
<g id="node42" class="node"><title>Node42</title>
<polygon fill="none" stroke="#bfbfbf" points="1162.67,-67.5 1162.67,-86.5 1203.67,-86.5 1203.67,-67.5 1162.67,-67.5"/>
<text text-anchor="middle" x="1183.17" y="-74.5" font-family="Helvetica,sans-Serif" font-size="10.00">ctime</text>
</g>
<!-- Node17&#45;&gt;Node42 -->
<g id="edge52" class="edge"><title>Node17&#45;&gt;Node42</title>
<path fill="none" stroke="midnightblue" d="M1918.31,-143.216C1801.05,-143.833 1347.45,-143.194 1213.17,-98 1209.21,-96.6678 1205.28,-94.6715 1201.63,-92.4478"/>
<polygon fill="midnightblue" stroke="midnightblue" points="1203.5,-89.4857 1193.28,-86.7003 1199.53,-95.2523 1203.5,-89.4857"/>
</g>
<!-- Node43 -->
<g id="node43" class="node"><title>Node43</title>
<polygon fill="none" stroke="#bfbfbf" points="1222.17,-67.5 1222.17,-86.5 1266.17,-86.5 1266.17,-67.5 1222.17,-67.5"/>
<text text-anchor="middle" x="1244.17" y="-74.5" font-family="Helvetica,sans-Serif" font-size="10.00">thread</text>
</g>
<!-- Node17&#45;&gt;Node43 -->
<g id="edge53" class="edge"><title>Node17&#45;&gt;Node43</title>
<path fill="none" stroke="midnightblue" d="M1918.47,-142.981C1807.8,-142.623 1397.5,-138.533 1275.17,-98 1271.12,-96.6559 1267.07,-94.654 1263.3,-92.4284"/>
<polygon fill="midnightblue" stroke="midnightblue" points="1264.93,-89.308 1254.66,-86.6825 1261.05,-95.1359 1264.93,-89.308"/>
</g>
<!-- Node44 -->
<g id="node44" class="node"><title>Node44</title>
<polygon fill="none" stroke="#bfbfbf" points="1284.17,-67.5 1284.17,-86.5 1328.17,-86.5 1328.17,-67.5 1284.17,-67.5"/>
<text text-anchor="middle" x="1306.17" y="-74.5" font-family="Helvetica,sans-Serif" font-size="10.00">mutex</text>
</g>
<!-- Node17&#45;&gt;Node44 -->
<g id="edge54" class="edge"><title>Node17&#45;&gt;Node44</title>
<path fill="none" stroke="midnightblue" d="M1918.64,-142.71C1814.96,-141.351 1448.32,-134.044 1338.17,-98 1333.9,-96.6018 1329.62,-94.516 1325.64,-92.2118"/>
<polygon fill="midnightblue" stroke="midnightblue" points="1327.35,-89.1504 1317.05,-86.6595 1323.55,-95.0285 1327.35,-89.1504"/>
</g>
<!-- Node45 -->
<g id="node45" class="node"><title>Node45</title>
<polygon fill="none" stroke="#bfbfbf" points="1346.67,-56.5 1346.67,-97.5 1465.67,-97.5 1465.67,-56.5 1346.67,-56.5"/>
<text text-anchor="start" x="1354.67" y="-85.5" font-family="Helvetica,sans-Serif" font-size="10.00">/home/mathias/Bureau</text>
<text text-anchor="start" x="1354.67" y="-74.5" font-family="Helvetica,sans-Serif" font-size="10.00">/Algo/QTTests/Widgets</text>
<text text-anchor="middle" x="1406.17" y="-63.5" font-family="Helvetica,sans-Serif" font-size="10.00">/C++/pointers.hpp</text>
</g>
<!-- Node17&#45;&gt;Node45 -->
<g id="edge55" class="edge"><title>Node17&#45;&gt;Node45</title>
<path fill="none" stroke="midnightblue" d="M1918.58,-142.163C1846.97,-139.61 1649.31,-130.148 1475.91,-97.9381"/>
<polygon fill="midnightblue" stroke="midnightblue" points="1476.32,-94.4531 1465.85,-96.0364 1475.02,-101.331 1476.32,-94.4531"/>
</g>
<!-- Node46 -->
<g id="node46" class="node"><title>Node46</title>
<polygon fill="none" stroke="#bfbfbf" points="1483.67,-56.5 1483.67,-97.5 1602.67,-97.5 1602.67,-56.5 1483.67,-56.5"/>
<text text-anchor="start" x="1491.67" y="-85.5" font-family="Helvetica,sans-Serif" font-size="10.00">/home/mathias/Bureau</text>
<text text-anchor="start" x="1491.67" y="-74.5" font-family="Helvetica,sans-Serif" font-size="10.00">/Algo/QTTests/Widgets</text>
<text text-anchor="middle" x="1543.17" y="-63.5" font-family="Helvetica,sans-Serif" font-size="10.00">/C++/string.hpp</text>
</g>
<!-- Node17&#45;&gt;Node46 -->
<g id="edge56" class="edge"><title>Node17&#45;&gt;Node46</title>
<path fill="none" stroke="midnightblue" d="M1918.66,-140.685C1862.82,-135.691 1732.08,-122.493 1612.9,-97.9858"/>
<polygon fill="midnightblue" stroke="midnightblue" points="1613.38,-94.5111 1602.87,-95.8921 1611.95,-101.363 1613.38,-94.5111"/>
</g>
<!-- Node47 -->
<g id="node47" class="node"><title>Node47</title>
<polygon fill="none" stroke="#bfbfbf" points="1621.17,-67.5 1621.17,-86.5 1663.17,-86.5 1663.17,-67.5 1621.17,-67.5"/>
<text text-anchor="middle" x="1642.17" y="-74.5" font-family="Helvetica,sans-Serif" font-size="10.00">locale</text>
</g>
<!-- Node17&#45;&gt;Node47 -->
<g id="edge57" class="edge"><title>Node17&#45;&gt;Node47</title>
<path fill="none" stroke="midnightblue" d="M1918.47,-142.138C1868.03,-139.771 1758.55,-130.934 1673.17,-98 1669.25,-96.4873 1665.3,-94.4358 1661.6,-92.2213"/>
<polygon fill="midnightblue" stroke="midnightblue" points="1663.33,-89.1698 1653.05,-86.5942 1659.48,-95.0165 1663.33,-89.1698"/>
</g>
<!-- Node48 -->
<g id="node48" class="node"><title>Node48</title>
<polygon fill="none" stroke="#bfbfbf" points="1681.67,-56.5 1681.67,-97.5 1800.67,-97.5 1800.67,-56.5 1681.67,-56.5"/>
<text text-anchor="start" x="1689.67" y="-85.5" font-family="Helvetica,sans-Serif" font-size="10.00">/home/mathias/Bureau</text>
<text text-anchor="start" x="1689.67" y="-74.5" font-family="Helvetica,sans-Serif" font-size="10.00">/Algo/QTTests/Widgets</text>
<text text-anchor="middle" x="1741.17" y="-63.5" font-family="Helvetica,sans-Serif" font-size="10.00">/C++/macro.hpp</text>
</g>
<!-- Node17&#45;&gt;Node48 -->
<g id="edge58" class="edge"><title>Node17&#45;&gt;Node48</title>
<path fill="none" stroke="midnightblue" d="M1918.95,-134.369C1891.46,-125.651 1847.86,-111.827 1810.72,-100.051"/>
<polygon fill="midnightblue" stroke="midnightblue" points="1811.52,-96.634 1800.93,-96.9478 1809.41,-103.307 1811.52,-96.634"/>
</g>
<!-- Node49 -->
<g id="node49" class="node"><title>Node49</title>
<polygon fill="none" stroke="#bfbfbf" points="1818.67,-56.5 1818.67,-97.5 1937.67,-97.5 1937.67,-56.5 1818.67,-56.5"/>
<text text-anchor="start" x="1826.67" y="-85.5" font-family="Helvetica,sans-Serif" font-size="10.00">/home/mathias/Bureau</text>
<text text-anchor="start" x="1826.67" y="-74.5" font-family="Helvetica,sans-Serif" font-size="10.00">/Algo/QTTests/Widgets</text>
<text text-anchor="middle" x="1878.17" y="-63.5" font-family="Helvetica,sans-Serif" font-size="10.00">/C++/array.hpp</text>
</g>
<!-- Node17&#45;&gt;Node49 -->
<g id="edge59" class="edge"><title>Node17&#45;&gt;Node49</title>
<path fill="none" stroke="midnightblue" d="M1937,-134.234C1929.05,-126.632 1917.11,-115.221 1906.06,-104.66"/>
<polygon fill="midnightblue" stroke="midnightblue" points="1908.26,-101.922 1898.62,-97.5421 1903.43,-106.982 1908.26,-101.922"/>
</g>
<!-- Node50 -->
<g id="node50" class="node"><title>Node50</title>
<polygon fill="none" stroke="#bfbfbf" points="1955.67,-56.5 1955.67,-97.5 2074.67,-97.5 2074.67,-56.5 1955.67,-56.5"/>
<text text-anchor="start" x="1963.67" y="-85.5" font-family="Helvetica,sans-Serif" font-size="10.00">/home/mathias/Bureau</text>
<text text-anchor="start" x="1963.67" y="-74.5" font-family="Helvetica,sans-Serif" font-size="10.00">/Algo/QTTests/Widgets</text>
<text text-anchor="middle" x="2015.17" y="-63.5" font-family="Helvetica,sans-Serif" font-size="10.00">/C++/RNG.hpp</text>
</g>
<!-- Node17&#45;&gt;Node50 -->
<g id="edge60" class="edge"><title>Node17&#45;&gt;Node50</title>
<path fill="none" stroke="midnightblue" d="M1955.48,-134.234C1963.55,-126.632 1975.66,-115.221 1986.87,-104.66"/>
<polygon fill="midnightblue" stroke="midnightblue" points="1989.55,-106.947 1994.43,-97.5421 1984.75,-101.851 1989.55,-106.947"/>
</g>
</g>
</svg>
