<?xml version="1.0" encoding="UTF-8" standalone="no"?>
<!DOCTYPE svg PUBLIC "-//W3C//DTD SVG 1.1//EN"
 "http://www.w3.org/Graphics/SVG/1.1/DTD/svg11.dtd">
<!-- Generated by graphviz version 2.38.0 (20140413.2041)
 -->
<!-- Title: Qt.hpp Pages: 1 -->
<!--zoomable 274 -->
<svg id="main" version="1.1" xmlns="http://www.w3.org/2000/svg" xmlns:xlink="http://www.w3.org/1999/xlink" xml:space="preserve" onload="init(evt)">
<style type="text/css"><![CDATA[
.edge:hover path { stroke: red; }
.edge:hover polygon { stroke: red; fill: red; }
]]></style>
<script type="text/javascript"><![CDATA[
var edges = document.getElementsByTagName('g');
if (edges && edges.length) {
  for (var i=0;i<edges.length;i++) {
    if (edges[i].id.substr(0,4)=='edge') {
      edges[i].setAttribute('class','edge');
    }
  }
}
]]></script>
        <defs>
                <circle id="rim" cx="0" cy="0" r="7"/>
                <circle id="rim2" cx="0" cy="0" r="3.5"/>
                <g id="zoomPlus">
                        <use xlink:href="#rim" fill="#404040">
                                <set attributeName="fill" to="#808080" begin="zoomplus.mouseover" end="zoomplus.mouseout"/>
                        </use>
                        <path d="M-4,0h8M0,-4v8" fill="none" stroke="white" stroke-width="1.5" pointer-events="none"/>
                </g>
                <g id="zoomMin">
                        <use xlink:href="#rim" fill="#404040">
                                <set attributeName="fill" to="#808080" begin="zoomminus.mouseover" end="zoomminus.mouseout"/>
                        </use>
                        <path d="M-4,0h8" fill="none" stroke="white" stroke-width="1.5" pointer-events="none"/>
                </g>
                <g id="dirArrow">
                        <path fill="none" stroke="white" stroke-width="1.5" d="M0,-3.0v7 M-2.5,-0.5L0,-3.0L2.5,-0.5"/>
                </g>
               <g id="resetDef">
                       <use xlink:href="#rim2" fill="#404040">
                               <set attributeName="fill" to="#808080" begin="reset.mouseover" end="reset.mouseout"/>
                       </use>
               </g>
        </defs>

<script type="text/javascript">
var viewWidth = 3728;
var viewHeight = 274;
var sectionId = 'dynsection-0';
</script>
<script xlink:href="../../svgpan.js"/>
<svg id="graph" class="graph">
<g id="viewport">
<title>Qt.hpp</title>
<!-- Node1 -->
<g id="node1" class="node"><title>Node1</title>
<polygon fill="#bfbfbf" stroke="black" points="3601.76,-246.5 3601.76,-265.5 3647.76,-265.5 3647.76,-246.5 3601.76,-246.5"/>
<text text-anchor="middle" x="3624.76" y="-253.5" font-family="Helvetica,sans-Serif" font-size="10.00">Qt.hpp</text>
</g>
<!-- Node2 -->
<g id="node2" class="node"><title>Node2</title>
<g id="a_node2"><a xlink:href="../../d1/d2b/a00018.php" target="_top" xlink:title="QtDefines.hpp">
<polygon fill="none" stroke="black" points="3121.76,-190.5 3121.76,-209.5 3201.76,-209.5 3201.76,-190.5 3121.76,-190.5"/>
<text text-anchor="middle" x="3161.76" y="-197.5" font-family="Helvetica,sans-Serif" font-size="10.00">QtDefines.hpp</text>
</a>
</g>
</g>
<!-- Node1&#45;&gt;Node2 -->
<g id="edge1" class="edge"><title>Node1&#45;&gt;Node2</title>
<path fill="none" stroke="midnightblue" d="M3601.48,-252.285C3529.84,-243.93 3311.51,-218.466 3212.06,-206.867"/>
<polygon fill="midnightblue" stroke="midnightblue" points="3212.3,-203.371 3201.96,-205.689 3211.49,-210.324 3212.3,-203.371"/>
</g>
<!-- Node48 -->
<g id="node48" class="node"><title>Node48</title>
<g id="a_node48"><a xlink:href="../../dc/de2/a00024.php" target="_top" xlink:title="Window.hpp">
<polygon fill="none" stroke="black" points="3540.26,-190.5 3540.26,-209.5 3611.26,-209.5 3611.26,-190.5 3540.26,-190.5"/>
<text text-anchor="middle" x="3575.76" y="-197.5" font-family="Helvetica,sans-Serif" font-size="10.00">Window.hpp</text>
</a>
</g>
</g>
<!-- Node1&#45;&gt;Node48 -->
<g id="edge59" class="edge"><title>Node1&#45;&gt;Node48</title>
<path fill="none" stroke="midnightblue" d="M3616.67,-246.083C3609.6,-238.298 3599.17,-226.801 3590.61,-217.367"/>
<polygon fill="midnightblue" stroke="midnightblue" points="3593.01,-214.805 3583.7,-209.751 3587.83,-219.509 3593.01,-214.805"/>
</g>
<!-- Node50 -->
<g id="node50" class="node"><title>Node50</title>
<g id="a_node50"><a xlink:href="../../d7/de0/a00022.php" target="_top" xlink:title="TableWidget.hpp">
<polygon fill="none" stroke="black" points="3629.76,-190.5 3629.76,-209.5 3719.76,-209.5 3719.76,-190.5 3629.76,-190.5"/>
<text text-anchor="middle" x="3674.76" y="-197.5" font-family="Helvetica,sans-Serif" font-size="10.00">TableWidget.hpp</text>
</a>
</g>
</g>
<!-- Node1&#45;&gt;Node50 -->
<g id="edge65" class="edge"><title>Node1&#45;&gt;Node50</title>
<path fill="none" stroke="midnightblue" d="M3627.85,-246.083C3633.53,-238.141 3644.11,-226.335 3653.93,-216.797"/>
<polygon fill="midnightblue" stroke="midnightblue" points="3656.57,-219.117 3661.52,-209.751 3651.81,-213.985 3656.57,-219.117"/>
</g>
<!-- Node3 -->
<g id="node3" class="node"><title>Node3</title>
<polygon fill="none" stroke="#bfbfbf" points="3369.26,-0.5 3369.26,-19.5 3432.26,-19.5 3432.26,-0.5 3369.26,-0.5"/>
<text text-anchor="middle" x="3400.76" y="-7.5" font-family="Helvetica,sans-Serif" font-size="10.00">QtWidgets</text>
</g>
<!-- Node2&#45;&gt;Node3 -->
<g id="edge2" class="edge"><title>Node2&#45;&gt;Node3</title>
<path fill="none" stroke="midnightblue" d="M3201.76,-197.372C3262.86,-193.955 3374.97,-183.703 3399.76,-154 3429.37,-118.519 3416.45,-59.0327 3407.19,-29.2083"/>
<polygon fill="midnightblue" stroke="midnightblue" points="3410.5,-28.056 3404.03,-19.6619 3403.85,-30.2552 3410.5,-28.056"/>
</g>
<!-- Node4 -->
<g id="node4" class="node"><title>Node4</title>
<g id="a_node4"><a xlink:href="../../d3/d52/a00023.php" target="_top" xlink:title="Widget.hpp">
<polygon fill="none" stroke="black" points="3128.76,-134.5 3128.76,-153.5 3194.76,-153.5 3194.76,-134.5 3128.76,-134.5"/>
<text text-anchor="middle" x="3161.76" y="-141.5" font-family="Helvetica,sans-Serif" font-size="10.00">Widget.hpp</text>
</a>
</g>
</g>
<!-- Node2&#45;&gt;Node4 -->
<g id="edge3" class="edge"><title>Node2&#45;&gt;Node4</title>
<path fill="none" stroke="midnightblue" d="M3161.76,-190.083C3161.76,-183.006 3161.76,-172.861 3161.76,-163.986"/>
<polygon fill="midnightblue" stroke="midnightblue" points="3165.26,-163.751 3161.76,-153.751 3158.26,-163.751 3165.26,-163.751"/>
</g>
<!-- Node5 -->
<g id="node5" class="node"><title>Node5</title>
<g id="a_node5"><a xlink:href="../../d2/de7/a00014.php" target="_top" xlink:title="DrawScene.hpp">
<polygon fill="none" stroke="black" points="2986.76,-134.5 2986.76,-153.5 3072.76,-153.5 3072.76,-134.5 2986.76,-134.5"/>
<text text-anchor="middle" x="3029.76" y="-141.5" font-family="Helvetica,sans-Serif" font-size="10.00">DrawScene.hpp</text>
</a>
</g>
</g>
<!-- Node2&#45;&gt;Node5 -->
<g id="edge5" class="edge"><title>Node2&#45;&gt;Node5</title>
<path fill="none" stroke="midnightblue" d="M3140.84,-190.444C3119.02,-181.517 3084.61,-167.439 3059.87,-157.317"/>
<polygon fill="midnightblue" stroke="midnightblue" points="3061.16,-154.063 3050.58,-153.516 3058.51,-160.542 3061.16,-154.063"/>
</g>
<!-- Node6 -->
<g id="node6" class="node"><title>Node6</title>
<g id="a_node6"><a xlink:href="../../db/db2/a00020.php" target="_top" xlink:title="Scene.hpp">
<polygon fill="none" stroke="black" points="3077.26,-67.5 3077.26,-86.5 3140.26,-86.5 3140.26,-67.5 3077.26,-67.5"/>
<text text-anchor="middle" x="3108.76" y="-74.5" font-family="Helvetica,sans-Serif" font-size="10.00">Scene.hpp</text>
</a>
</g>
</g>
<!-- Node2&#45;&gt;Node6 -->
<g id="edge15" class="edge"><title>Node2&#45;&gt;Node6</title>
<path fill="none" stroke="midnightblue" d="M3150.46,-190.328C3140.63,-182.109 3126.88,-168.838 3119.76,-154 3111.13,-136.009 3108.83,-113.077 3108.41,-97.1307"/>
<polygon fill="midnightblue" stroke="midnightblue" points="3111.91,-96.9116 3108.37,-86.9247 3104.91,-96.9377 3111.91,-96.9116"/>
</g>
<!-- Node8 -->
<g id="node8" class="node"><title>Node8</title>
<g id="a_node8"><a xlink:href="../../d7/d7a/a00016.php" target="_top" xlink:title="GraphScene.hpp">
<polygon fill="none" stroke="black" points="2879.26,-134.5 2879.26,-153.5 2968.26,-153.5 2968.26,-134.5 2879.26,-134.5"/>
<text text-anchor="middle" x="2923.76" y="-141.5" font-family="Helvetica,sans-Serif" font-size="10.00">GraphScene.hpp</text>
</a>
</g>
</g>
<!-- Node2&#45;&gt;Node8 -->
<g id="edge9" class="edge"><title>Node2&#45;&gt;Node8</title>
<path fill="none" stroke="midnightblue" d="M3124.05,-190.444C3082.62,-181.043 3016,-165.929 2971.09,-155.739"/>
<polygon fill="midnightblue" stroke="midnightblue" points="2971.82,-152.316 2961.29,-153.516 2970.27,-159.142 2971.82,-152.316"/>
</g>
<!-- Node13 -->
<g id="node13" class="node"><title>Node13</title>
<g id="a_node13"><a xlink:href="../../de/d11/a00021.php" target="_top" xlink:title="Spacers.hpp">
<polygon fill="none" stroke="black" points="3320.26,-134.5 3320.26,-153.5 3391.26,-153.5 3391.26,-134.5 3320.26,-134.5"/>
<text text-anchor="middle" x="3355.76" y="-141.5" font-family="Helvetica,sans-Serif" font-size="10.00">Spacers.hpp</text>
</a>
</g>
</g>
<!-- Node2&#45;&gt;Node13 -->
<g id="edge16" class="edge"><title>Node2&#45;&gt;Node13</title>
<path fill="none" stroke="midnightblue" d="M3192.5,-190.444C3225.7,-181.201 3278.75,-166.436 3315.32,-156.257"/>
<polygon fill="midnightblue" stroke="midnightblue" points="3316.47,-159.57 3325.16,-153.516 3314.59,-152.826 3316.47,-159.57"/>
</g>
<!-- Node14 -->
<g id="node14" class="node"><title>Node14</title>
<g id="a_node14"><a xlink:href="../../dd/da2/a00019.php" target="_top" xlink:title="QtFunctions.hpp">
<polygon fill="none" stroke="black" points="3213.26,-134.5 3213.26,-153.5 3302.26,-153.5 3302.26,-134.5 3213.26,-134.5"/>
<text text-anchor="middle" x="3257.76" y="-141.5" font-family="Helvetica,sans-Serif" font-size="10.00">QtFunctions.hpp</text>
</a>
</g>
</g>
<!-- Node2&#45;&gt;Node14 -->
<g id="edge18" class="edge"><title>Node2&#45;&gt;Node14</title>
<path fill="none" stroke="midnightblue" d="M3177.18,-190.324C3192.3,-181.822 3215.57,-168.729 3233.23,-158.797"/>
<polygon fill="midnightblue" stroke="midnightblue" points="3235.37,-161.608 3242.37,-153.655 3231.94,-155.507 3235.37,-161.608"/>
</g>
<!-- Node16 -->
<g id="node16" class="node"><title>Node16</title>
<g id="a_node16"><a xlink:href="../../dd/d1b/a00015.php" target="_top" xlink:title="Font.hpp">
<polygon fill="none" stroke="red" points="1610.26,-134.5 1610.26,-153.5 1665.26,-153.5 1665.26,-134.5 1610.26,-134.5"/>
<text text-anchor="middle" x="1637.76" y="-141.5" font-family="Helvetica,sans-Serif" font-size="10.00">Font.hpp</text>
</a>
</g>
</g>
<!-- Node2&#45;&gt;Node16 -->
<g id="edge21" class="edge"><title>Node2&#45;&gt;Node16</title>
<path fill="none" stroke="midnightblue" d="M3121.4,-197.652C2905.13,-190.198 1886.2,-154.095 1675.79,-146.431"/>
<polygon fill="midnightblue" stroke="midnightblue" points="1675.68,-142.925 1665.56,-146.058 1675.42,-149.92 1675.68,-142.925"/>
</g>
<!-- Node47 -->
<g id="node47" class="node"><title>Node47</title>
<polygon fill="none" stroke="#bfbfbf" points="3457.26,-67.5 3457.26,-86.5 3534.26,-86.5 3534.26,-67.5 3457.26,-67.5"/>
<text text-anchor="middle" x="3495.76" y="-74.5" font-family="Helvetica,sans-Serif" font-size="10.00">C++/C++.hpp</text>
</g>
<!-- Node2&#45;&gt;Node47 -->
<g id="edge58" class="edge"><title>Node2&#45;&gt;Node47</title>
<path fill="none" stroke="midnightblue" d="M3201.95,-195.845C3267.75,-190.108 3395.04,-176.44 3433.76,-154 3457.63,-140.168 3476.11,-113.408 3486.47,-95.6208"/>
<polygon fill="midnightblue" stroke="midnightblue" points="3489.58,-97.2424 3491.37,-86.8013 3483.46,-93.8419 3489.58,-97.2424"/>
</g>
<!-- Node4&#45;&gt;Node3 -->
<g id="edge4" class="edge"><title>Node4&#45;&gt;Node3</title>
<path fill="none" stroke="midnightblue" d="M3167.24,-134.376C3178.81,-116.876 3207.5,-77.0743 3241.76,-56 3277.96,-33.7255 3325.52,-22.1605 3359.17,-16.3699"/>
<polygon fill="midnightblue" stroke="midnightblue" points="3359.82,-19.8094 3369.13,-14.7528 3358.7,-12.8998 3359.82,-19.8094"/>
</g>
<!-- Node5&#45;&gt;Node6 -->
<g id="edge6" class="edge"><title>Node5&#45;&gt;Node6</title>
<path fill="none" stroke="midnightblue" d="M3040.41,-134.234C3053.21,-123.708 3074.87,-105.879 3090.38,-93.1174"/>
<polygon fill="midnightblue" stroke="midnightblue" points="3092.77,-95.6837 3098.27,-86.6273 3088.33,-90.2782 3092.77,-95.6837"/>
</g>
<!-- Node6&#45;&gt;Node3 -->
<g id="edge7" class="edge"><title>Node6&#45;&gt;Node3</title>
<path fill="none" stroke="midnightblue" d="M3132.6,-67.4196C3143.79,-63.5919 3157.35,-59.2281 3169.76,-56 3235.19,-38.9703 3312.56,-25.1535 3359.08,-17.512"/>
<polygon fill="midnightblue" stroke="midnightblue" points="3359.78,-20.9442 3369.09,-15.8854 3358.66,-14.0348 3359.78,-20.9442"/>
</g>
<!-- Node7 -->
<g id="node7" class="node"><title>Node7</title>
<polygon fill="none" stroke="#bfbfbf" points="1522.76,-0.5 1522.76,-19.5 1576.76,-19.5 1576.76,-0.5 1522.76,-0.5"/>
<text text-anchor="middle" x="1549.76" y="-7.5" font-family="Helvetica,sans-Serif" font-size="10.00">iostream</text>
</g>
<!-- Node6&#45;&gt;Node7 -->
<g id="edge8" class="edge"><title>Node6&#45;&gt;Node7</title>
<path fill="none" stroke="midnightblue" d="M3094.9,-67.4065C3087.21,-63.1168 3077.29,-58.351 3067.76,-56 2920.1,-19.5936 1805.58,-12.2584 1586.92,-11.1647"/>
<polygon fill="midnightblue" stroke="midnightblue" points="1586.92,-7.66479 1576.91,-11.1159 1586.89,-14.6647 1586.92,-7.66479"/>
</g>
<!-- Node8&#45;&gt;Node6 -->
<g id="edge14" class="edge"><title>Node8&#45;&gt;Node6</title>
<path fill="none" stroke="midnightblue" d="M2955.98,-134.437C2985.49,-126.244 3030.15,-112.949 3067.76,-98 3072.87,-95.9676 3078.23,-93.5655 3083.32,-91.144"/>
<polygon fill="midnightblue" stroke="midnightblue" points="3085.22,-94.1088 3092.65,-86.5556 3082.13,-87.827 3085.22,-94.1088"/>
</g>
<!-- Node9 -->
<g id="node9" class="node"><title>Node9</title>
<polygon fill="none" stroke="#bfbfbf" points="2841.26,-67.5 2841.26,-86.5 2876.26,-86.5 2876.26,-67.5 2841.26,-67.5"/>
<text text-anchor="middle" x="2858.76" y="-74.5" font-family="Helvetica,sans-Serif" font-size="10.00">map</text>
</g>
<!-- Node8&#45;&gt;Node9 -->
<g id="edge10" class="edge"><title>Node8&#45;&gt;Node9</title>
<path fill="none" stroke="midnightblue" d="M2914.99,-134.234C2904.66,-123.903 2887.3,-106.537 2874.59,-93.8315"/>
<polygon fill="midnightblue" stroke="midnightblue" points="2876.93,-91.2235 2867.39,-86.6273 2871.98,-96.1733 2876.93,-91.2235"/>
</g>
<!-- Node10 -->
<g id="node10" class="node"><title>Node10</title>
<polygon fill="none" stroke="#bfbfbf" points="2894.76,-67.5 2894.76,-86.5 2938.76,-86.5 2938.76,-67.5 2894.76,-67.5"/>
<text text-anchor="middle" x="2916.76" y="-74.5" font-family="Helvetica,sans-Serif" font-size="10.00">vector</text>
</g>
<!-- Node8&#45;&gt;Node10 -->
<g id="edge11" class="edge"><title>Node8&#45;&gt;Node10</title>
<path fill="none" stroke="midnightblue" d="M2922.81,-134.234C2921.79,-124.683 2920.11,-109.118 2918.78,-96.7829"/>
<polygon fill="midnightblue" stroke="midnightblue" points="2922.24,-96.195 2917.69,-86.6273 2915.28,-96.9446 2922.24,-96.195"/>
</g>
<!-- Node11 -->
<g id="node11" class="node"><title>Node11</title>
<polygon fill="none" stroke="#bfbfbf" points="2956.76,-67.5 2956.76,-86.5 2996.76,-86.5 2996.76,-67.5 2956.76,-67.5"/>
<text text-anchor="middle" x="2976.76" y="-74.5" font-family="Helvetica,sans-Serif" font-size="10.00">utility</text>
</g>
<!-- Node8&#45;&gt;Node11 -->
<g id="edge12" class="edge"><title>Node8&#45;&gt;Node11</title>
<path fill="none" stroke="midnightblue" d="M2930.91,-134.234C2939.17,-124.098 2952.96,-107.19 2963.26,-94.5556"/>
<polygon fill="midnightblue" stroke="midnightblue" points="2966.12,-96.5893 2969.72,-86.6273 2960.69,-92.1657 2966.12,-96.5893"/>
</g>
<!-- Node12 -->
<g id="node12" class="node"><title>Node12</title>
<polygon fill="none" stroke="#bfbfbf" points="3014.76,-67.5 3014.76,-86.5 3058.76,-86.5 3058.76,-67.5 3014.76,-67.5"/>
<text text-anchor="middle" x="3036.76" y="-74.5" font-family="Helvetica,sans-Serif" font-size="10.00">cmath</text>
</g>
<!-- Node8&#45;&gt;Node12 -->
<g id="edge13" class="edge"><title>Node8&#45;&gt;Node12</title>
<path fill="none" stroke="midnightblue" d="M2940.29,-134.373C2956.99,-125.554 2983.44,-111.301 3005.76,-98 3008.88,-96.1403 3012.14,-94.1229 3015.32,-92.1089"/>
<polygon fill="midnightblue" stroke="midnightblue" points="3017.4,-94.9324 3023.92,-86.5761 3013.61,-89.0467 3017.4,-94.9324"/>
</g>
<!-- Node13&#45;&gt;Node3 -->
<g id="edge17" class="edge"><title>Node13&#45;&gt;Node3</title>
<path fill="none" stroke="midnightblue" d="M3358.71,-134.339C3365.96,-113.08 3384.75,-57.9632 3394.57,-29.1506"/>
<polygon fill="midnightblue" stroke="midnightblue" points="3397.94,-30.1157 3397.85,-19.5212 3391.31,-27.8569 3397.94,-30.1157"/>
</g>
<!-- Node14&#45;&gt;Node3 -->
<g id="edge19" class="edge"><title>Node14&#45;&gt;Node3</title>
<path fill="none" stroke="midnightblue" d="M3254.25,-134.314C3248.05,-117.388 3237.35,-79.5885 3254.76,-56 3278.46,-23.8976 3324.72,-13.9852 3358.84,-11.2688"/>
<polygon fill="midnightblue" stroke="midnightblue" points="3359.24,-14.751 3369.01,-10.6403 3358.81,-7.76439 3359.24,-14.751"/>
</g>
<!-- Node15 -->
<g id="node15" class="node"><title>Node15</title>
<polygon fill="none" stroke="#bfbfbf" points="3264.26,-67.5 3264.26,-86.5 3353.26,-86.5 3353.26,-67.5 3264.26,-67.5"/>
<text text-anchor="middle" x="3308.76" y="-74.5" font-family="Helvetica,sans-Serif" font-size="10.00">C++/defines.hpp</text>
</g>
<!-- Node14&#45;&gt;Node15 -->
<g id="edge20" class="edge"><title>Node14&#45;&gt;Node15</title>
<path fill="none" stroke="midnightblue" d="M3264.64,-134.234C3272.59,-124.098 3285.86,-107.19 3295.77,-94.5556"/>
<polygon fill="midnightblue" stroke="midnightblue" points="3298.57,-96.6552 3301.99,-86.6273 3293.06,-92.3342 3298.57,-96.6552"/>
</g>
<!-- Node16&#45;&gt;Node2 -->
<g id="edge22" class="edge"><title>Node16&#45;&gt;Node2</title>
<path fill="none" stroke="midnightblue" d="M1665.32,-145.909C1846.95,-152.126 2870.77,-188.394 3111.24,-197.115"/>
<polygon fill="midnightblue" stroke="midnightblue" points="3111.32,-200.62 3121.44,-197.485 3111.57,-193.624 3111.32,-200.62"/>
</g>
<!-- Node16&#45;&gt;Node7 -->
<g id="edge44" class="edge"><title>Node16&#45;&gt;Node7</title>
<path fill="none" stroke="midnightblue" d="M1610.03,-142.766C1397.86,-140.914 38.8382,-127.895 9.75847,-98 -3.25722,-84.6196 -3.24666,-69.3907 9.75847,-56 36.7728,-28.1848 1279,-13.8324 1512.23,-11.3806"/>
<polygon fill="midnightblue" stroke="midnightblue" points="1512.6,-14.877 1522.57,-11.2728 1512.53,-7.87736 1512.6,-14.877"/>
</g>
<!-- Node16&#45;&gt;Node9 -->
<g id="edge56" class="edge"><title>Node16&#45;&gt;Node9</title>
<path fill="none" stroke="midnightblue" d="M1665.36,-142.935C1833.68,-142.41 2718.48,-137.766 2831.76,-98 2835.28,-96.7646 2838.72,-94.8987 2841.91,-92.7944"/>
<polygon fill="midnightblue" stroke="midnightblue" points="2844.25,-95.4119 2850.07,-86.5576 2840,-89.851 2844.25,-95.4119"/>
</g>
<!-- Node16&#45;&gt;Node10 -->
<g id="edge48" class="edge"><title>Node16&#45;&gt;Node10</title>
<path fill="none" stroke="midnightblue" d="M1665.42,-142.858C1838.09,-141.86 2764.62,-134.811 2884.76,-98 2889.13,-96.6612 2893.49,-94.5673 2897.53,-92.2291"/>
<polygon fill="midnightblue" stroke="midnightblue" points="2899.74,-94.9651 2906.2,-86.5703 2895.92,-89.102 2899.74,-94.9651"/>
</g>
<!-- Node16&#45;&gt;Node11 -->
<g id="edge24" class="edge"><title>Node16&#45;&gt;Node11</title>
<path fill="none" stroke="midnightblue" d="M1665.39,-142.981C1843.12,-142.738 2822.09,-139.511 2947.76,-98 2951.7,-96.6991 2955.58,-94.6841 2959.17,-92.4245"/>
<polygon fill="midnightblue" stroke="midnightblue" points="2961.24,-95.2463 2967.32,-86.5713 2957.16,-89.5599 2961.24,-95.2463"/>
</g>
<!-- Node16&#45;&gt;Node12 -->
<g id="edge57" class="edge"><title>Node16&#45;&gt;Node12</title>
<path fill="none" stroke="midnightblue" d="M1665.41,-142.976C1847.69,-142.701 2873.57,-139.314 3005.76,-98 3010.02,-96.6673 3014.26,-94.5762 3018.18,-92.2387"/>
<polygon fill="midnightblue" stroke="midnightblue" points="3020.24,-95.0697 3026.58,-86.5789 3016.33,-89.2647 3020.24,-95.0697"/>
</g>
<!-- Node17 -->
<g id="node17" class="node"><title>Node17</title>
<polygon fill="none" stroke="#bfbfbf" points="78.7585,-67.5 78.7585,-86.5 118.758,-86.5 118.758,-67.5 78.7585,-67.5"/>
<text text-anchor="middle" x="98.7585" y="-74.5" font-family="Helvetica,sans-Serif" font-size="10.00">limits</text>
</g>
<!-- Node16&#45;&gt;Node17 -->
<g id="edge23" class="edge"><title>Node16&#45;&gt;Node17</title>
<path fill="none" stroke="midnightblue" d="M1610.07,-143.117C1416.88,-143.808 273.708,-145.844 127.758,-98 123.817,-96.7081 119.929,-94.6973 116.343,-92.439"/>
<polygon fill="midnightblue" stroke="midnightblue" points="118.354,-89.5744 108.19,-86.5844 114.271,-95.2603 118.354,-89.5744"/>
</g>
<!-- Node18 -->
<g id="node18" class="node"><title>Node18</title>
<polygon fill="none" stroke="#bfbfbf" points="136.758,-67.5 136.758,-86.5 188.758,-86.5 188.758,-67.5 136.758,-67.5"/>
<text text-anchor="middle" x="162.758" y="-74.5" font-family="Helvetica,sans-Serif" font-size="10.00">memory</text>
</g>
<!-- Node16&#45;&gt;Node18 -->
<g id="edge25" class="edge"><title>Node16&#45;&gt;Node18</title>
<path fill="none" stroke="midnightblue" d="M1610.2,-142.939C1422.78,-142.422 338.424,-137.718 197.758,-98 192.8,-96.5999 187.798,-94.3508 183.189,-91.857"/>
<polygon fill="midnightblue" stroke="midnightblue" points="184.792,-88.737 174.417,-86.5877 181.187,-94.7375 184.792,-88.737"/>
</g>
<!-- Node19 -->
<g id="node19" class="node"><title>Node19</title>
<polygon fill="none" stroke="#bfbfbf" points="207.258,-67.5 207.258,-86.5 254.258,-86.5 254.258,-67.5 207.258,-67.5"/>
<text text-anchor="middle" x="230.758" y="-74.5" font-family="Helvetica,sans-Serif" font-size="10.00">iterator</text>
</g>
<!-- Node16&#45;&gt;Node19 -->
<g id="edge26" class="edge"><title>Node16&#45;&gt;Node19</title>
<path fill="none" stroke="midnightblue" d="M1610,-142.935C1427.01,-142.397 397.097,-137.616 263.758,-98 259.155,-96.6322 254.542,-94.4622 250.286,-92.0464"/>
<polygon fill="midnightblue" stroke="midnightblue" points="251.998,-88.9879 241.68,-86.5816 248.246,-94.8971 251.998,-88.9879"/>
</g>
<!-- Node20 -->
<g id="node20" class="node"><title>Node20</title>
<polygon fill="none" stroke="#bfbfbf" points="272.758,-67.5 272.758,-86.5 310.758,-86.5 310.758,-67.5 272.758,-67.5"/>
<text text-anchor="middle" x="291.758" y="-74.5" font-family="Helvetica,sans-Serif" font-size="10.00">tuple</text>
</g>
<!-- Node16&#45;&gt;Node20 -->
<g id="edge27" class="edge"><title>Node16&#45;&gt;Node20</title>
<path fill="none" stroke="midnightblue" d="M1610.24,-143.013C1432.14,-142.974 445.913,-140.815 319.758,-98 316.032,-96.7353 312.369,-94.7971 308.984,-92.6159"/>
<polygon fill="midnightblue" stroke="midnightblue" points="310.939,-89.7082 300.82,-86.5698 306.773,-95.3337 310.939,-89.7082"/>
</g>
<!-- Node21 -->
<g id="node21" class="node"><title>Node21</title>
<polygon fill="none" stroke="#bfbfbf" points="329.258,-67.5 329.258,-86.5 358.258,-86.5 358.258,-67.5 329.258,-67.5"/>
<text text-anchor="middle" x="343.758" y="-74.5" font-family="Helvetica,sans-Serif" font-size="10.00">ios</text>
</g>
<!-- Node16&#45;&gt;Node21 -->
<g id="edge28" class="edge"><title>Node16&#45;&gt;Node21</title>
<path fill="none" stroke="midnightblue" d="M1610.05,-143.124C1435,-143.763 486.024,-145.024 366.758,-98 363.897,-96.8718 361.149,-95.2249 358.611,-93.353"/>
<polygon fill="midnightblue" stroke="midnightblue" points="360.735,-90.5588 350.929,-86.5489 356.094,-95.7992 360.735,-90.5588"/>
</g>
<!-- Node22 -->
<g id="node22" class="node"><title>Node22</title>
<polygon fill="none" stroke="#bfbfbf" points="376.258,-56.5 376.258,-97.5 495.258,-97.5 495.258,-56.5 376.258,-56.5"/>
<text text-anchor="start" x="384.258" y="-85.5" font-family="Helvetica,sans-Serif" font-size="10.00">/home/mathias/Bureau</text>
<text text-anchor="start" x="384.258" y="-74.5" font-family="Helvetica,sans-Serif" font-size="10.00">/Algo/QTTests/Widgets</text>
<text text-anchor="middle" x="435.758" y="-63.5" font-family="Helvetica,sans-Serif" font-size="10.00">/C++/bdd.hpp</text>
</g>
<!-- Node16&#45;&gt;Node22 -->
<g id="edge29" class="edge"><title>Node16&#45;&gt;Node22</title>
<path fill="none" stroke="midnightblue" d="M1610.01,-142.825C1460.28,-141.74 746.98,-134.779 505.385,-98.0073"/>
<polygon fill="midnightblue" stroke="midnightblue" points="505.694,-94.5127 495.27,-96.4043 504.599,-101.426 505.694,-94.5127"/>
</g>
<!-- Node23 -->
<g id="node23" class="node"><title>Node23</title>
<polygon fill="none" stroke="#bfbfbf" points="513.258,-67.5 513.258,-86.5 602.258,-86.5 602.258,-67.5 513.258,-67.5"/>
<text text-anchor="middle" x="557.758" y="-74.5" font-family="Helvetica,sans-Serif" font-size="10.00">cppconn/driver.h</text>
</g>
<!-- Node16&#45;&gt;Node23 -->
<g id="edge30" class="edge"><title>Node16&#45;&gt;Node23</title>
<path fill="none" stroke="midnightblue" d="M1609.8,-142.968C1466.1,-142.621 809.627,-138.792 610.758,-98 602.265,-96.2579 593.337,-93.3439 585.28,-90.2718"/>
<polygon fill="midnightblue" stroke="midnightblue" points="586.555,-87.0122 575.972,-86.5141 583.934,-93.5032 586.555,-87.0122"/>
</g>
<!-- Node24 -->
<g id="node24" class="node"><title>Node24</title>
<polygon fill="none" stroke="#bfbfbf" points="620.258,-67.5 620.258,-86.5 727.258,-86.5 727.258,-67.5 620.258,-67.5"/>
<text text-anchor="middle" x="673.758" y="-74.5" font-family="Helvetica,sans-Serif" font-size="10.00">cppconn/exception.h</text>
</g>
<!-- Node16&#45;&gt;Node24 -->
<g id="edge31" class="edge"><title>Node16&#45;&gt;Node24</title>
<path fill="none" stroke="midnightblue" d="M1610.24,-142.598C1478.33,-140.52 909.848,-129.849 735.758,-98 725.602,-96.1419 714.805,-93.0658 705.116,-89.8766"/>
<polygon fill="midnightblue" stroke="midnightblue" points="706.088,-86.5095 695.493,-86.5585 703.806,-93.1272 706.088,-86.5095"/>
</g>
<!-- Node25 -->
<g id="node25" class="node"><title>Node25</title>
<polygon fill="none" stroke="#bfbfbf" points="744.758,-67.5 744.758,-86.5 846.758,-86.5 846.758,-67.5 744.758,-67.5"/>
<text text-anchor="middle" x="795.758" y="-74.5" font-family="Helvetica,sans-Serif" font-size="10.00">cppconn/resultset.h</text>
</g>
<!-- Node16&#45;&gt;Node25 -->
<g id="edge32" class="edge"><title>Node16&#45;&gt;Node25</title>
<path fill="none" stroke="midnightblue" d="M1609.96,-142.384C1488.62,-139.543 1004.83,-126.611 855.758,-98 846.018,-96.1306 835.681,-93.0904 826.382,-89.9384"/>
<polygon fill="midnightblue" stroke="midnightblue" points="827.37,-86.5752 816.775,-86.5244 825.026,-93.1711 827.37,-86.5752"/>
</g>
<!-- Node26 -->
<g id="node26" class="node"><title>Node26</title>
<polygon fill="none" stroke="#bfbfbf" points="864.758,-67.5 864.758,-86.5 972.758,-86.5 972.758,-67.5 864.758,-67.5"/>
<text text-anchor="middle" x="918.758" y="-74.5" font-family="Helvetica,sans-Serif" font-size="10.00">cppconn/statement.h</text>
</g>
<!-- Node16&#45;&gt;Node26 -->
<g id="edge33" class="edge"><title>Node16&#45;&gt;Node26</title>
<path fill="none" stroke="midnightblue" d="M1609.96,-143.449C1518.91,-144.423 1221.75,-143.644 981.758,-98 971.551,-96.0586 960.683,-92.9885 950.898,-89.831"/>
<polygon fill="midnightblue" stroke="midnightblue" points="951.761,-86.4285 941.167,-86.5526 949.526,-93.0622 951.761,-86.4285"/>
</g>
<!-- Node27 -->
<g id="node27" class="node"><title>Node27</title>
<polygon fill="none" stroke="#bfbfbf" points="991.258,-67.5 991.258,-86.5 1050.26,-86.5 1050.26,-67.5 991.258,-67.5"/>
<text text-anchor="middle" x="1020.76" y="-74.5" font-family="Helvetica,sans-Serif" font-size="10.00">functional</text>
</g>
<!-- Node16&#45;&gt;Node27 -->
<g id="edge34" class="edge"><title>Node16&#45;&gt;Node27</title>
<path fill="none" stroke="midnightblue" d="M1610.25,-142.334C1509.97,-139.681 1164.35,-128.479 1058.76,-98 1053.43,-96.4629 1048,-94.1318 1042.96,-91.5976"/>
<polygon fill="midnightblue" stroke="midnightblue" points="1044.36,-88.3731 1033.91,-86.6292 1040.99,-94.5094 1044.36,-88.3731"/>
</g>
<!-- Node28 -->
<g id="node28" class="node"><title>Node28</title>
<polygon fill="none" stroke="#bfbfbf" points="1068.26,-56.5 1068.26,-97.5 1187.26,-97.5 1187.26,-56.5 1068.26,-56.5"/>
<text text-anchor="start" x="1076.26" y="-85.5" font-family="Helvetica,sans-Serif" font-size="10.00">/home/mathias/Bureau</text>
<text text-anchor="start" x="1076.26" y="-74.5" font-family="Helvetica,sans-Serif" font-size="10.00">/Algo/QTTests/Widgets</text>
<text text-anchor="middle" x="1127.76" y="-63.5" font-family="Helvetica,sans-Serif" font-size="10.00">/C++/errors.hpp</text>
</g>
<!-- Node16&#45;&gt;Node28 -->
<g id="edge35" class="edge"><title>Node16&#45;&gt;Node28</title>
<path fill="none" stroke="midnightblue" d="M1610.08,-141.957C1541.52,-138.997 1358.27,-128.802 1197.38,-98.1431"/>
<polygon fill="midnightblue" stroke="midnightblue" points="1197.79,-94.6573 1187.31,-96.1904 1196.46,-101.529 1197.79,-94.6573"/>
</g>
<!-- Node29 -->
<g id="node29" class="node"><title>Node29</title>
<polygon fill="none" stroke="#bfbfbf" points="1205.26,-56.5 1205.26,-97.5 1324.26,-97.5 1324.26,-56.5 1205.26,-56.5"/>
<text text-anchor="start" x="1213.26" y="-85.5" font-family="Helvetica,sans-Serif" font-size="10.00">/home/mathias/Bureau</text>
<text text-anchor="start" x="1213.26" y="-74.5" font-family="Helvetica,sans-Serif" font-size="10.00">/Algo/QTTests/Widgets</text>
<text text-anchor="middle" x="1264.76" y="-63.5" font-family="Helvetica,sans-Serif" font-size="10.00">/C++/console.hpp</text>
</g>
<!-- Node16&#45;&gt;Node29 -->
<g id="edge36" class="edge"><title>Node16&#45;&gt;Node29</title>
<path fill="none" stroke="midnightblue" d="M1610.19,-140.237C1558.03,-134.733 1441.27,-121.085 1334.33,-98.2052"/>
<polygon fill="midnightblue" stroke="midnightblue" points="1334.86,-94.7388 1324.34,-96.0354 1333.37,-101.579 1334.86,-94.7388"/>
</g>
<!-- Node30 -->
<g id="node30" class="node"><title>Node30</title>
<polygon fill="none" stroke="#bfbfbf" points="1342.26,-56.5 1342.26,-97.5 1461.26,-97.5 1461.26,-56.5 1342.26,-56.5"/>
<text text-anchor="start" x="1350.26" y="-85.5" font-family="Helvetica,sans-Serif" font-size="10.00">/home/mathias/Bureau</text>
<text text-anchor="start" x="1350.26" y="-74.5" font-family="Helvetica,sans-Serif" font-size="10.00">/Algo/QTTests/Widgets</text>
<text text-anchor="middle" x="1401.76" y="-63.5" font-family="Helvetica,sans-Serif" font-size="10.00">/C++/convert.hpp</text>
</g>
<!-- Node16&#45;&gt;Node30 -->
<g id="edge37" class="edge"><title>Node16&#45;&gt;Node30</title>
<path fill="none" stroke="midnightblue" d="M1610.23,-135.754C1578.97,-127.486 1526.19,-113.417 1471.45,-98.1717"/>
<polygon fill="midnightblue" stroke="midnightblue" points="1472.15,-94.7324 1461.58,-95.4139 1470.27,-101.474 1472.15,-94.7324"/>
</g>
<!-- Node31 -->
<g id="node31" class="node"><title>Node31</title>
<polygon fill="none" stroke="#bfbfbf" points="1479.76,-67.5 1479.76,-86.5 1531.76,-86.5 1531.76,-67.5 1479.76,-67.5"/>
<text text-anchor="middle" x="1505.76" y="-74.5" font-family="Helvetica,sans-Serif" font-size="10.00">sstream</text>
</g>
<!-- Node16&#45;&gt;Node31 -->
<g id="edge38" class="edge"><title>Node16&#45;&gt;Node31</title>
<path fill="none" stroke="midnightblue" d="M1617.83,-134.348C1598.05,-125.624 1566.98,-111.545 1540.76,-98 1536.91,-96.0128 1532.88,-93.8179 1528.98,-91.6317"/>
<polygon fill="midnightblue" stroke="midnightblue" points="1530.67,-88.5691 1520.25,-86.6483 1527.2,-94.6474 1530.67,-88.5691"/>
</g>
<!-- Node32 -->
<g id="node32" class="node"><title>Node32</title>
<polygon fill="none" stroke="#bfbfbf" points="1550.26,-67.5 1550.26,-86.5 1591.26,-86.5 1591.26,-67.5 1550.26,-67.5"/>
<text text-anchor="middle" x="1570.76" y="-74.5" font-family="Helvetica,sans-Serif" font-size="10.00">string</text>
</g>
<!-- Node16&#45;&gt;Node32 -->
<g id="edge39" class="edge"><title>Node16&#45;&gt;Node32</title>
<path fill="none" stroke="midnightblue" d="M1628.72,-134.234C1618.07,-123.903 1600.17,-106.537 1587.08,-93.8315"/>
<polygon fill="midnightblue" stroke="midnightblue" points="1589.27,-91.0784 1579.65,-86.6273 1584.39,-96.1026 1589.27,-91.0784"/>
</g>
<!-- Node33 -->
<g id="node33" class="node"><title>Node33</title>
<polygon fill="none" stroke="#bfbfbf" points="1609.76,-67.5 1609.76,-86.5 1665.76,-86.5 1665.76,-67.5 1609.76,-67.5"/>
<text text-anchor="middle" x="1637.76" y="-74.5" font-family="Helvetica,sans-Serif" font-size="10.00">algorithm</text>
</g>
<!-- Node16&#45;&gt;Node33 -->
<g id="edge40" class="edge"><title>Node16&#45;&gt;Node33</title>
<path fill="none" stroke="midnightblue" d="M1637.76,-134.234C1637.76,-124.683 1637.76,-109.118 1637.76,-96.7829"/>
<polygon fill="midnightblue" stroke="midnightblue" points="1641.26,-96.6273 1637.76,-86.6273 1634.26,-96.6273 1641.26,-96.6273"/>
</g>
<!-- Node34 -->
<g id="node34" class="node"><title>Node34</title>
<polygon fill="none" stroke="#bfbfbf" points="1684.26,-67.5 1684.26,-86.5 1735.26,-86.5 1735.26,-67.5 1684.26,-67.5"/>
<text text-anchor="middle" x="1709.76" y="-74.5" font-family="Helvetica,sans-Serif" font-size="10.00">numeric</text>
</g>
<!-- Node16&#45;&gt;Node34 -->
<g id="edge41" class="edge"><title>Node16&#45;&gt;Node34</title>
<path fill="none" stroke="midnightblue" d="M1647.47,-134.234C1659.02,-123.805 1678.51,-106.209 1692.62,-93.4732"/>
<polygon fill="midnightblue" stroke="midnightblue" points="1695.12,-95.9263 1700.2,-86.6273 1690.43,-90.7304 1695.12,-95.9263"/>
</g>
<!-- Node35 -->
<g id="node35" class="node"><title>Node35</title>
<polygon fill="none" stroke="#bfbfbf" points="1753.76,-67.5 1753.76,-86.5 1815.76,-86.5 1815.76,-67.5 1753.76,-67.5"/>
<text text-anchor="middle" x="1784.76" y="-74.5" font-family="Helvetica,sans-Serif" font-size="10.00">type_traits</text>
</g>
<!-- Node16&#45;&gt;Node35 -->
<g id="edge42" class="edge"><title>Node16&#45;&gt;Node35</title>
<path fill="none" stroke="midnightblue" d="M1659.02,-134.359C1680.52,-125.528 1714.65,-111.267 1743.76,-98 1748.59,-95.7983 1753.7,-93.3783 1758.62,-91.0054"/>
<polygon fill="midnightblue" stroke="midnightblue" points="1760.25,-94.1033 1767.7,-86.5699 1757.18,-87.8133 1760.25,-94.1033"/>
</g>
<!-- Node36 -->
<g id="node36" class="node"><title>Node36</title>
<polygon fill="none" stroke="#bfbfbf" points="1834.26,-56.5 1834.26,-97.5 1953.26,-97.5 1953.26,-56.5 1834.26,-56.5"/>
<text text-anchor="start" x="1842.26" y="-85.5" font-family="Helvetica,sans-Serif" font-size="10.00">/home/mathias/Bureau</text>
<text text-anchor="start" x="1842.26" y="-74.5" font-family="Helvetica,sans-Serif" font-size="10.00">/Algo/QTTests/Widgets</text>
<text text-anchor="middle" x="1893.76" y="-63.5" font-family="Helvetica,sans-Serif" font-size="10.00">/C++/types.hpp</text>
</g>
<!-- Node16&#45;&gt;Node36 -->
<g id="edge43" class="edge"><title>Node16&#45;&gt;Node36</title>
<path fill="none" stroke="midnightblue" d="M1665.42,-136.761C1700.15,-128.839 1761.77,-114.486 1823.98,-98.1512"/>
<polygon fill="midnightblue" stroke="midnightblue" points="1825.19,-101.451 1833.97,-95.5134 1823.4,-94.6834 1825.19,-101.451"/>
</g>
<!-- Node37 -->
<g id="node37" class="node"><title>Node37</title>
<polygon fill="none" stroke="#bfbfbf" points="1971.26,-67.5 1971.26,-86.5 2022.26,-86.5 2022.26,-67.5 1971.26,-67.5"/>
<text text-anchor="middle" x="1996.76" y="-74.5" font-family="Helvetica,sans-Serif" font-size="10.00">typeinfo</text>
</g>
<!-- Node16&#45;&gt;Node37 -->
<g id="edge45" class="edge"><title>Node16&#45;&gt;Node37</title>
<path fill="none" stroke="midnightblue" d="M1665.45,-142.662C1722.45,-141.215 1856.4,-133.919 1961.76,-98 1966.35,-96.4332 1971.03,-94.2469 1975.4,-91.8918"/>
<polygon fill="midnightblue" stroke="midnightblue" points="1977.5,-94.7214 1984.35,-86.6417 1973.95,-88.6841 1977.5,-94.7214"/>
</g>
<!-- Node38 -->
<g id="node38" class="node"><title>Node38</title>
<polygon fill="none" stroke="#bfbfbf" points="2040.26,-56.5 2040.26,-97.5 2159.26,-97.5 2159.26,-56.5 2040.26,-56.5"/>
<text text-anchor="start" x="2048.26" y="-85.5" font-family="Helvetica,sans-Serif" font-size="10.00">/home/mathias/Bureau</text>
<text text-anchor="start" x="2048.26" y="-74.5" font-family="Helvetica,sans-Serif" font-size="10.00">/Algo/QTTests/Widgets</text>
<text text-anchor="middle" x="2099.76" y="-63.5" font-family="Helvetica,sans-Serif" font-size="10.00">/C++/files.hpp</text>
</g>
<!-- Node16&#45;&gt;Node38 -->
<g id="edge46" class="edge"><title>Node16&#45;&gt;Node38</title>
<path fill="none" stroke="midnightblue" d="M1665.64,-141.422C1728.82,-137.506 1887.74,-125.732 2029.87,-97.9913"/>
<polygon fill="midnightblue" stroke="midnightblue" points="2030.94,-101.346 2040.07,-95.9663 2029.58,-94.4801 2030.94,-101.346"/>
</g>
<!-- Node39 -->
<g id="node39" class="node"><title>Node39</title>
<polygon fill="none" stroke="#bfbfbf" points="2177.76,-67.5 2177.76,-86.5 2227.76,-86.5 2227.76,-67.5 2177.76,-67.5"/>
<text text-anchor="middle" x="2202.76" y="-74.5" font-family="Helvetica,sans-Serif" font-size="10.00">fstream</text>
</g>
<!-- Node16&#45;&gt;Node39 -->
<g id="edge47" class="edge"><title>Node16&#45;&gt;Node39</title>
<path fill="none" stroke="midnightblue" d="M1665.56,-142.22C1760.69,-139.304 2072.54,-127.656 2167.76,-98 2172.6,-96.4925 2177.5,-94.2369 2182.05,-91.7771"/>
<polygon fill="midnightblue" stroke="midnightblue" points="2183.92,-94.7336 2190.73,-86.6157 2180.34,-88.7162 2183.92,-94.7336"/>
</g>
<!-- Node40 -->
<g id="node40" class="node"><title>Node40</title>
<polygon fill="none" stroke="#bfbfbf" points="2246.26,-56.5 2246.26,-97.5 2365.26,-97.5 2365.26,-56.5 2246.26,-56.5"/>
<text text-anchor="start" x="2254.26" y="-85.5" font-family="Helvetica,sans-Serif" font-size="10.00">/home/mathias/Bureau</text>
<text text-anchor="start" x="2254.26" y="-74.5" font-family="Helvetica,sans-Serif" font-size="10.00">/Algo/QTTests/Widgets</text>
<text text-anchor="middle" x="2305.76" y="-63.5" font-family="Helvetica,sans-Serif" font-size="10.00">/C++/time.hpp</text>
</g>
<!-- Node16&#45;&gt;Node40 -->
<g id="edge49" class="edge"><title>Node16&#45;&gt;Node40</title>
<path fill="none" stroke="midnightblue" d="M1665.48,-142.949C1749.92,-142.367 2011.37,-137.415 2236.1,-97.8977"/>
<polygon fill="midnightblue" stroke="midnightblue" points="2236.87,-101.316 2246.1,-96.1123 2235.64,-94.425 2236.87,-101.316"/>
</g>
<!-- Node41 -->
<g id="node41" class="node"><title>Node41</title>
<polygon fill="none" stroke="#bfbfbf" points="2383.26,-67.5 2383.26,-86.5 2424.26,-86.5 2424.26,-67.5 2383.26,-67.5"/>
<text text-anchor="middle" x="2403.76" y="-74.5" font-family="Helvetica,sans-Serif" font-size="10.00">ctime</text>
</g>
<!-- Node16&#45;&gt;Node41 -->
<g id="edge50" class="edge"><title>Node16&#45;&gt;Node41</title>
<path fill="none" stroke="midnightblue" d="M1665.34,-143.223C1782.45,-143.879 2238.77,-143.412 2373.76,-98 2377.72,-96.6683 2381.65,-94.6723 2385.3,-92.4487"/>
<polygon fill="midnightblue" stroke="midnightblue" points="2387.4,-95.2531 2393.65,-86.701 2383.43,-89.4865 2387.4,-95.2531"/>
</g>
<!-- Node42 -->
<g id="node42" class="node"><title>Node42</title>
<polygon fill="none" stroke="#bfbfbf" points="2442.76,-67.5 2442.76,-86.5 2486.76,-86.5 2486.76,-67.5 2442.76,-67.5"/>
<text text-anchor="middle" x="2464.76" y="-74.5" font-family="Helvetica,sans-Serif" font-size="10.00">thread</text>
</g>
<!-- Node16&#45;&gt;Node42 -->
<g id="edge51" class="edge"><title>Node16&#45;&gt;Node42</title>
<path fill="none" stroke="midnightblue" d="M1665.41,-143.267C1788.31,-144.173 2285.36,-144.822 2432.76,-98 2437.11,-96.6166 2441.47,-94.5023 2445.51,-92.1582"/>
<polygon fill="midnightblue" stroke="midnightblue" points="2447.71,-94.897 2454.18,-86.507 2443.89,-89.0311 2447.71,-94.897"/>
</g>
<!-- Node43 -->
<g id="node43" class="node"><title>Node43</title>
<polygon fill="none" stroke="#bfbfbf" points="2504.76,-67.5 2504.76,-86.5 2548.76,-86.5 2548.76,-67.5 2504.76,-67.5"/>
<text text-anchor="middle" x="2526.76" y="-74.5" font-family="Helvetica,sans-Serif" font-size="10.00">mutex</text>
</g>
<!-- Node16&#45;&gt;Node43 -->
<g id="edge52" class="edge"><title>Node16&#45;&gt;Node43</title>
<path fill="none" stroke="midnightblue" d="M1665.65,-142.391C1804.24,-139.248 2415.3,-124.011 2495.76,-98 2500.01,-96.6258 2504.24,-94.5157 2508.16,-92.1728"/>
<polygon fill="midnightblue" stroke="midnightblue" points="2510.22,-95.0063 2516.56,-86.52 2506.31,-89.1986 2510.22,-95.0063"/>
</g>
<!-- Node44 -->
<g id="node44" class="node"><title>Node44</title>
<polygon fill="none" stroke="#bfbfbf" points="2567.26,-56.5 2567.26,-97.5 2686.26,-97.5 2686.26,-56.5 2567.26,-56.5"/>
<text text-anchor="start" x="2575.26" y="-85.5" font-family="Helvetica,sans-Serif" font-size="10.00">/home/mathias/Bureau</text>
<text text-anchor="start" x="2575.26" y="-74.5" font-family="Helvetica,sans-Serif" font-size="10.00">/Algo/QTTests/Widgets</text>
<text text-anchor="middle" x="2626.76" y="-63.5" font-family="Helvetica,sans-Serif" font-size="10.00">/C++/pointers.hpp</text>
</g>
<!-- Node16&#45;&gt;Node44 -->
<g id="edge53" class="edge"><title>Node16&#45;&gt;Node44</title>
<path fill="none" stroke="midnightblue" d="M1665.36,-142.517C1796.69,-140.091 2359.81,-128.186 2557.16,-97.8115"/>
<polygon fill="midnightblue" stroke="midnightblue" points="2557.8,-101.254 2567.12,-96.2103 2556.69,-94.3423 2557.8,-101.254"/>
</g>
<!-- Node45 -->
<g id="node45" class="node"><title>Node45</title>
<polygon fill="none" stroke="#bfbfbf" points="2704.26,-56.5 2704.26,-97.5 2823.26,-97.5 2823.26,-56.5 2704.26,-56.5"/>
<text text-anchor="start" x="2712.26" y="-85.5" font-family="Helvetica,sans-Serif" font-size="10.00">/home/mathias/Bureau</text>
<text text-anchor="start" x="2712.26" y="-74.5" font-family="Helvetica,sans-Serif" font-size="10.00">/Algo/QTTests/Widgets</text>
<text text-anchor="middle" x="2763.76" y="-63.5" font-family="Helvetica,sans-Serif" font-size="10.00">/C++/string.hpp</text>
</g>
<!-- Node16&#45;&gt;Node45 -->
<g id="edge54" class="edge"><title>Node16&#45;&gt;Node45</title>
<path fill="none" stroke="midnightblue" d="M1665.51,-142.717C1808.93,-141.122 2467.75,-132.12 2694,-97.833"/>
<polygon fill="midnightblue" stroke="midnightblue" points="2694.79,-101.252 2704.12,-96.2341 2693.7,-94.3373 2694.79,-101.252"/>
</g>
<!-- Node46 -->
<g id="node46" class="node"><title>Node46</title>
<polygon fill="none" stroke="#bfbfbf" points="18.7585,-67.5 18.7585,-86.5 60.7585,-86.5 60.7585,-67.5 18.7585,-67.5"/>
<text text-anchor="middle" x="39.7585" y="-74.5" font-family="Helvetica,sans-Serif" font-size="10.00">locale</text>
</g>
<!-- Node16&#45;&gt;Node46 -->
<g id="edge55" class="edge"><title>Node16&#45;&gt;Node46</title>
<path fill="none" stroke="midnightblue" d="M1609.97,-143.125C1412.26,-143.895 221.966,-146.479 69.7585,-98 65.7139,-96.7118 61.707,-94.7027 58.0016,-92.445"/>
<polygon fill="midnightblue" stroke="midnightblue" points="59.7737,-89.4146 49.5624,-86.5897 55.7834,-95.1659 59.7737,-89.4146"/>
</g>
<!-- Node48&#45;&gt;Node3 -->
<g id="edge60" class="edge"><title>Node48&#45;&gt;Node3</title>
<path fill="none" stroke="midnightblue" d="M3595.66,-190.41C3609.98,-183.04 3628.22,-170.916 3636.76,-154 3660.91,-106.169 3597.22,-73.7519 3568.76,-56 3529.94,-31.7815 3478.21,-20.4671 3442.45,-15.2658"/>
<polygon fill="midnightblue" stroke="midnightblue" points="3442.74,-11.7728 3432.36,-13.8977 3441.8,-18.7094 3442.74,-11.7728"/>
</g>
<!-- Node48&#45;&gt;Node47 -->
<g id="edge64" class="edge"><title>Node48&#45;&gt;Node47</title>
<path fill="none" stroke="midnightblue" d="M3558.14,-190.371C3544.29,-182.695 3525.6,-170.183 3514.76,-154 3503.31,-136.904 3498.76,-113.474 3496.95,-97.1652"/>
<polygon fill="midnightblue" stroke="midnightblue" points="3500.4,-96.4066 3496.06,-86.7413 3493.42,-97.0032 3500.4,-96.4066"/>
</g>
<!-- Node49 -->
<g id="node49" class="node"><title>Node49</title>
<g id="a_node49"><a xlink:href="../../d6/d5b/a00026.php" target="_top" xlink:title="WindowTitleBar.hpp">
<polygon fill="none" stroke="red" points="3523.76,-134.5 3523.76,-153.5 3627.76,-153.5 3627.76,-134.5 3523.76,-134.5"/>
<text text-anchor="middle" x="3575.76" y="-141.5" font-family="Helvetica,sans-Serif" font-size="10.00">WindowTitleBar.hpp</text>
</a>
</g>
</g>
<!-- Node48&#45;&gt;Node49 -->
<g id="edge61" class="edge"><title>Node48&#45;&gt;Node49</title>
<path fill="none" stroke="midnightblue" d="M3575.76,-190.083C3575.76,-183.006 3575.76,-172.861 3575.76,-163.986"/>
<polygon fill="midnightblue" stroke="midnightblue" points="3579.26,-163.751 3575.76,-153.751 3572.26,-163.751 3579.26,-163.751"/>
</g>
<!-- Node49&#45;&gt;Node3 -->
<g id="edge62" class="edge"><title>Node49&#45;&gt;Node3</title>
<path fill="none" stroke="midnightblue" d="M3574.96,-134.488C3572.89,-117.196 3565.76,-77.757 3542.76,-56 3515.58,-30.295 3473.78,-19.2716 3442.56,-14.5452"/>
<polygon fill="midnightblue" stroke="midnightblue" points="3442.79,-11.0448 3432.41,-13.1716 3441.85,-17.9816 3442.79,-11.0448"/>
</g>
<!-- Node49&#45;&gt;Node47 -->
<g id="edge63" class="edge"><title>Node49&#45;&gt;Node47</title>
<path fill="none" stroke="midnightblue" d="M3564.97,-134.234C3552.01,-123.708 3530.07,-105.879 3514.36,-93.1174"/>
<polygon fill="midnightblue" stroke="midnightblue" points="3516.34,-90.2169 3506.38,-86.6273 3511.93,-95.6497 3516.34,-90.2169"/>
</g>
<!-- Node50&#45;&gt;Node1 -->
<g id="edge67" class="edge"><title>Node50&#45;&gt;Node1</title>
<path fill="none" stroke="midnightblue" d="M3671.73,-209.834C3666.05,-217.791 3655.4,-229.673 3645.54,-239.253"/>
<polygon fill="midnightblue" stroke="midnightblue" points="3642.86,-236.96 3637.91,-246.324 3647.62,-242.095 3642.86,-236.96"/>
</g>
<!-- Node50&#45;&gt;Node3 -->
<g id="edge66" class="edge"><title>Node50&#45;&gt;Node3</title>
<path fill="none" stroke="midnightblue" d="M3673.85,-190.481C3670.66,-165.219 3657.55,-90.3446 3611.76,-56 3585.49,-36.3009 3496.25,-22.4786 3442.6,-15.7223"/>
<polygon fill="midnightblue" stroke="midnightblue" points="3442.73,-12.2116 3432.37,-14.4656 3441.87,-19.1594 3442.73,-12.2116"/>
</g>
</g>
</svg>
        <g id="navigator" transform="translate(0 0)" fill="#404254">
                <rect fill="#f2f5e9" fill-opacity="0.5" stroke="#606060" stroke-width=".5" x="0" y="0" width="60" height="60"/>
                <use id="zoomplus" xlink:href="#zoomPlus" x="17" y="9" onmousedown="handleZoom(evt,'in')"/>
                <use id="zoomminus" xlink:href="#zoomMin" x="42" y="9" onmousedown="handleZoom(evt,'out')"/>
                <use id="reset" xlink:href="#resetDef" x="30" y="36" onmousedown="handleReset()"/>
                <g id="arrowUp" xlink:href="#dirArrow" transform="translate(30 24)" onmousedown="handlePan(0,-1)">
                  <use xlink:href="#rim" fill="#404040">
                        <set attributeName="fill" to="#808080" begin="arrowUp.mouseover" end="arrowUp.mouseout"/>
                  </use>
                  <path fill="none" stroke="white" stroke-width="1.5" d="M0,-3.0v7 M-2.5,-0.5L0,-3.0L2.5,-0.5"/>
                </g>
                <g id="arrowRight" xlink:href="#dirArrow" transform="rotate(90) translate(36 -43)" onmousedown="handlePan(1,0)">
                  <use xlink:href="#rim" fill="#404040">
                        <set attributeName="fill" to="#808080" begin="arrowRight.mouseover" end="arrowRight.mouseout"/>
                  </use>
                  <path fill="none" stroke="white" stroke-width="1.5" d="M0,-3.0v7 M-2.5,-0.5L0,-3.0L2.5,-0.5"/>
                </g>
                <g id="arrowDown" xlink:href="#dirArrow" transform="rotate(180) translate(-30 -48)" onmousedown="handlePan(0,1)">
                  <use xlink:href="#rim" fill="#404040">
                        <set attributeName="fill" to="#808080" begin="arrowDown.mouseover" end="arrowDown.mouseout"/>
                  </use>
                  <path fill="none" stroke="white" stroke-width="1.5" d="M0,-3.0v7 M-2.5,-0.5L0,-3.0L2.5,-0.5"/>
                </g>
                <g id="arrowLeft" xlink:href="#dirArrow" transform="rotate(270) translate(-36 17)" onmousedown="handlePan(-1,0)">
                  <use xlink:href="#rim" fill="#404040">
                        <set attributeName="fill" to="#808080" begin="arrowLeft.mouseover" end="arrowLeft.mouseout"/>
                  </use>
                  <path fill="none" stroke="white" stroke-width="1.5" d="M0,-3.0v7 M-2.5,-0.5L0,-3.0L2.5,-0.5"/>
                </g>
        </g>
        <svg viewBox="0 0 15 15" width="100%" height="30px" preserveAspectRatio="xMaxYMin meet">
         <g id="arrow_out" transform="scale(0.3 0.3)">
          <a xlink:href="a00033_org.svg" target="_base">
           <rect id="button" ry="5" rx="5" y="6" x="6" height="38" width="38"
                fill="#f2f5e9" fill-opacity="0.5" stroke="#606060" stroke-width="1.0"/>
           <path id="arrow"
             d="M 11.500037,31.436501 C 11.940474,20.09759 22.043105,11.32322 32.158766,21.979434 L 37.068811,17.246167 C 37.068811,17.246167 37.088388,32 37.088388,32 L 22.160133,31.978069 C 22.160133,31.978069 26.997745,27.140456 26.997745,27.140456 C 18.528582,18.264221 13.291696,25.230495 11.500037,31.436501 z"
             style="fill:#404040;"/>
          </a>
         </g>
        </svg>
</svg>
