<?xml version="1.0" encoding="UTF-8" standalone="no"?>
<!DOCTYPE svg PUBLIC "-//W3C//DTD SVG 1.1//EN"
 "http://www.w3.org/Graphics/SVG/1.1/DTD/svg11.dtd">
<!-- Generated by graphviz version 2.38.0 (20140413.2041)
 -->
<!-- Title: DrawScene Pages: 1 -->
<svg width="99pt" height="140pt"
 viewBox="0.00 0.00 99.00 140.00" xmlns="http://www.w3.org/2000/svg" xmlns:xlink="http://www.w3.org/1999/xlink">
<g id="graph0" class="graph" transform="scale(1 1) rotate(0) translate(4 136)">
<title>DrawScene</title>
<!-- Node1 -->
<g id="node1" class="node"><title>Node1</title>
<polygon fill="#bfbfbf" stroke="black" points="11.5,-0.5 11.5,-19.5 79.5,-19.5 79.5,-0.5 11.5,-0.5"/>
<text text-anchor="middle" x="45.5" y="-7.5" font-family="Helvetica,sans-Serif" font-size="10.00">DrawScene</text>
</g>
<!-- Node2 -->
<g id="node2" class="node"><title>Node2</title>
<g id="a_node2"><a xlink:href="../../d4/dee/a00008.php" target="_top" xlink:title="An implementation of QGraphcsScene with an updator. ">
<polygon fill="none" stroke="black" points="23.5,-56.5 23.5,-75.5 67.5,-75.5 67.5,-56.5 23.5,-56.5"/>
<text text-anchor="middle" x="45.5" y="-63.5" font-family="Helvetica,sans-Serif" font-size="10.00">Scene</text>
</a>
</g>
</g>
<!-- Node2&#45;&gt;Node1 -->
<g id="edge1" class="edge"><title>Node2&#45;&gt;Node1</title>
<path fill="none" stroke="midnightblue" d="M45.5,-45.8045C45.5,-36.9102 45.5,-26.7798 45.5,-19.7511"/>
<polygon fill="midnightblue" stroke="midnightblue" points="42.0001,-46.083 45.5,-56.083 49.0001,-46.083 42.0001,-46.083"/>
</g>
<!-- Node3 -->
<g id="node3" class="node"><title>Node3</title>
<polygon fill="none" stroke="#bfbfbf" points="0,-112.5 0,-131.5 91,-131.5 91,-112.5 0,-112.5"/>
<text text-anchor="middle" x="45.5" y="-119.5" font-family="Helvetica,sans-Serif" font-size="10.00">QGraphicsScene</text>
</g>
<!-- Node3&#45;&gt;Node2 -->
<g id="edge2" class="edge"><title>Node3&#45;&gt;Node2</title>
<path fill="none" stroke="midnightblue" d="M45.5,-101.805C45.5,-92.9102 45.5,-82.7798 45.5,-75.7511"/>
<polygon fill="midnightblue" stroke="midnightblue" points="42.0001,-102.083 45.5,-112.083 49.0001,-102.083 42.0001,-102.083"/>
</g>
</g>
</svg>
