<?xml version="1.0" encoding="UTF-8" standalone="no"?>
<!DOCTYPE svg PUBLIC "-//W3C//DTD SVG 1.1//EN"
 "http://www.w3.org/Graphics/SVG/1.1/DTD/svg11.dtd">
<!-- Generated by graphviz version 2.38.0 (20140413.2041)
 -->
<!-- Title: Graphical Class Hierarchy Pages: 1 -->
<svg width="286pt" height="66pt"
 viewBox="0.00 0.00 286.00 66.00" xmlns="http://www.w3.org/2000/svg" xmlns:xlink="http://www.w3.org/1999/xlink">
<g id="graph0" class="graph" transform="scale(1 1) rotate(0) translate(4 62)">
<title>Graphical Class Hierarchy</title>
<!-- Node1 -->
<g id="node1" class="node"><title>Node1</title>
<polygon fill="none" stroke="#bfbfbf" points="0,-19.5 0,-38.5 91,-38.5 91,-19.5 0,-19.5"/>
<text text-anchor="middle" x="45.5" y="-26.5" font-family="Helvetica,sans-Serif" font-size="10.00">QGraphicsScene</text>
</g>
<!-- Node2 -->
<g id="node2" class="node"><title>Node2</title>
<g id="a_node2"><a xlink:href="d4/dee/a00008.php" target="_top" xlink:title="An implementation of QGraphcsScene with an updator. ">
<polygon fill="none" stroke="black" points="127,-19.5 127,-38.5 171,-38.5 171,-19.5 127,-19.5"/>
<text text-anchor="middle" x="149" y="-26.5" font-family="Helvetica,sans-Serif" font-size="10.00">Scene</text>
</a>
</g>
</g>
<!-- Node1&#45;&gt;Node2 -->
<g id="edge1" class="edge"><title>Node1&#45;&gt;Node2</title>
<path fill="none" stroke="midnightblue" d="M101.295,-29C110.387,-29 119.304,-29 126.87,-29"/>
<polygon fill="midnightblue" stroke="midnightblue" points="101.019,-25.5001 91.0194,-29 101.019,-32.5001 101.019,-25.5001"/>
</g>
<!-- Node3 -->
<g id="node3" class="node"><title>Node3</title>
<g id="a_node3"><a xlink:href="d1/d7c/a00003.php" target="_top" xlink:title="A Scene implementation to draw with tiles system. ">
<polygon fill="none" stroke="black" points="208.5,-38.5 208.5,-57.5 276.5,-57.5 276.5,-38.5 208.5,-38.5"/>
<text text-anchor="middle" x="242.5" y="-45.5" font-family="Helvetica,sans-Serif" font-size="10.00">DrawScene</text>
</a>
</g>
</g>
<!-- Node2&#45;&gt;Node3 -->
<g id="edge2" class="edge"><title>Node2&#45;&gt;Node3</title>
<path fill="none" stroke="midnightblue" d="M181.034,-35.4441C189.782,-37.2607 199.333,-39.244 208.208,-41.0868"/>
<polygon fill="midnightblue" stroke="midnightblue" points="181.725,-32.0131 171.222,-33.4067 180.301,-38.8668 181.725,-32.0131"/>
</g>
<!-- Node4 -->
<g id="node4" class="node"><title>Node4</title>
<g id="a_node4"><a xlink:href="dd/dad/a00005.php" target="_top" xlink:title="A Scene implementation to draw graphs. ">
<polygon fill="none" stroke="black" points="207,-0.5 207,-19.5 278,-19.5 278,-0.5 207,-0.5"/>
<text text-anchor="middle" x="242.5" y="-7.5" font-family="Helvetica,sans-Serif" font-size="10.00">GraphScene</text>
</a>
</g>
</g>
<!-- Node2&#45;&gt;Node4 -->
<g id="edge3" class="edge"><title>Node2&#45;&gt;Node4</title>
<path fill="none" stroke="midnightblue" d="M181.187,-22.524C189.425,-20.8134 198.365,-18.9569 206.777,-17.2102"/>
<polygon fill="midnightblue" stroke="midnightblue" points="180.301,-19.1332 171.222,-24.5933 181.725,-25.9869 180.301,-19.1332"/>
</g>
</g>
</svg>
