<?xml version="1.0" encoding="UTF-8" standalone="no"?>
<!DOCTYPE svg PUBLIC "-//W3C//DTD SVG 1.1//EN"
 "http://www.w3.org/Graphics/SVG/1.1/DTD/svg11.dtd">
<!-- Generated by graphviz version 2.38.0 (20140413.2041)
 -->
<!-- Title: Graphical Class Hierarchy Pages: 1 -->
<svg width="200pt" height="66pt"
 viewBox="0.00 0.00 200.00 66.00" xmlns="http://www.w3.org/2000/svg" xmlns:xlink="http://www.w3.org/1999/xlink">
<g id="graph0" class="graph" transform="scale(1 1) rotate(0) translate(4 62)">
<title>Graphical Class Hierarchy</title>
<!-- Node1 -->
<g id="node1" class="node"><title>Node1</title>
<polygon fill="none" stroke="#bfbfbf" points="0,-19.5 0,-38.5 74,-38.5 74,-19.5 0,-19.5"/>
<text text-anchor="middle" x="37" y="-26.5" font-family="Helvetica,sans-Serif" font-size="10.00">QSpacerItem</text>
</g>
<!-- Node2 -->
<g id="node2" class="node"><title>Node2</title>
<g id="a_node2"><a xlink:href="de/d21/a00006.php" target="_top" xlink:title="An implementation of QSpacerItem. ">
<polygon fill="none" stroke="black" points="110,-38.5 110,-57.5 192,-57.5 192,-38.5 110,-38.5"/>
<text text-anchor="middle" x="151" y="-45.5" font-family="Helvetica,sans-Serif" font-size="10.00">QHSpacerItem</text>
</a>
</g>
</g>
<!-- Node1&#45;&gt;Node2 -->
<g id="edge1" class="edge"><title>Node1&#45;&gt;Node2</title>
<path fill="none" stroke="midnightblue" d="M84.1875,-36.8354C92.6657,-38.2736 101.454,-39.7645 109.741,-41.1703"/>
<polygon fill="midnightblue" stroke="midnightblue" points="84.4986,-33.3382 74.054,-35.1163 83.3277,-40.2396 84.4986,-33.3382"/>
</g>
<!-- Node3 -->
<g id="node3" class="node"><title>Node3</title>
<g id="a_node3"><a xlink:href="de/d5e/a00007.php" target="_top" xlink:title="An implementation of QSpacerItem. ">
<polygon fill="none" stroke="black" points="110.5,-0.5 110.5,-19.5 191.5,-19.5 191.5,-0.5 110.5,-0.5"/>
<text text-anchor="middle" x="151" y="-7.5" font-family="Helvetica,sans-Serif" font-size="10.00">QVSpacerItem</text>
</a>
</g>
</g>
<!-- Node1&#45;&gt;Node3 -->
<g id="edge2" class="edge"><title>Node1&#45;&gt;Node3</title>
<path fill="none" stroke="midnightblue" d="M84.0211,-21.1929C92.6846,-19.7232 101.677,-18.1976 110.134,-16.7631"/>
<polygon fill="midnightblue" stroke="midnightblue" points="83.3277,-17.7604 74.054,-22.8837 84.4986,-24.6618 83.3277,-17.7604"/>
</g>
</g>
</svg>
