<?xml version="1.0" encoding="UTF-8" standalone="no"?>
<!DOCTYPE svg PUBLIC "-//W3C//DTD SVG 1.1//EN"
 "http://www.w3.org/Graphics/SVG/1.1/DTD/svg11.dtd">
<!-- Generated by graphviz version 2.38.0 (20140413.2041)
 -->
<!-- Title: Graphical Class Hierarchy Pages: 1 -->
<svg width="268pt" height="104pt"
 viewBox="0.00 0.00 268.00 104.00" xmlns="http://www.w3.org/2000/svg" xmlns:xlink="http://www.w3.org/1999/xlink">
<g id="graph0" class="graph" transform="scale(1 1) rotate(0) translate(4 100)">
<title>Graphical Class Hierarchy</title>
<!-- Node1 -->
<g id="node1" class="node"><title>Node1</title>
<polygon fill="none" stroke="#bfbfbf" points="0,-38.5 0,-57.5 55,-57.5 55,-38.5 0,-38.5"/>
<text text-anchor="middle" x="27.5" y="-45.5" font-family="Helvetica,sans-Serif" font-size="10.00">QWidget</text>
</g>
<!-- Node2 -->
<g id="node2" class="node"><title>Node2</title>
<g id="a_node2"><a xlink:href="d7/dec/a00010.php" target="_top" xlink:title="Create a personnalized Widget. ">
<polygon fill="none" stroke="black" points="91,-38.5 91,-57.5 138,-57.5 138,-38.5 91,-38.5"/>
<text text-anchor="middle" x="114.5" y="-45.5" font-family="Helvetica,sans-Serif" font-size="10.00">Widget</text>
</a>
</g>
</g>
<!-- Node1&#45;&gt;Node2 -->
<g id="edge1" class="edge"><title>Node1&#45;&gt;Node2</title>
<path fill="none" stroke="midnightblue" d="M65.603,-48C74.1716,-48 83.0376,-48 90.7774,-48"/>
<polygon fill="midnightblue" stroke="midnightblue" points="65.3946,-44.5001 55.3945,-48 65.3945,-51.5001 65.3946,-44.5001"/>
</g>
<!-- Node3 -->
<g id="node3" class="node"><title>Node3</title>
<g id="a_node3"><a xlink:href="da/da0/a00009.php" target="_top" xlink:title="Create a personnalized TableWidget. ">
<polygon fill="none" stroke="black" points="181.5,-76.5 181.5,-95.5 252.5,-95.5 252.5,-76.5 181.5,-76.5"/>
<text text-anchor="middle" x="217" y="-83.5" font-family="Helvetica,sans-Serif" font-size="10.00">TableWidget</text>
</a>
</g>
</g>
<!-- Node2&#45;&gt;Node3 -->
<g id="edge2" class="edge"><title>Node2&#45;&gt;Node3</title>
<path fill="none" stroke="midnightblue" d="M147.731,-60.1869C161.637,-65.4447 177.664,-71.5047 190.693,-76.4313"/>
<polygon fill="midnightblue" stroke="midnightblue" points="148.646,-56.7909 138.054,-56.5279 146.17,-63.3385 148.646,-56.7909"/>
</g>
<!-- Node4 -->
<g id="node4" class="node"><title>Node4</title>
<g id="a_node4"><a xlink:href="da/d45/a00011.php" target="_top" xlink:title="A custom window. ">
<polygon fill="none" stroke="black" points="191,-38.5 191,-57.5 243,-57.5 243,-38.5 191,-38.5"/>
<text text-anchor="middle" x="217" y="-45.5" font-family="Helvetica,sans-Serif" font-size="10.00">Window</text>
</a>
</g>
</g>
<!-- Node2&#45;&gt;Node4 -->
<g id="edge3" class="edge"><title>Node2&#45;&gt;Node4</title>
<path fill="none" stroke="midnightblue" d="M148.137,-48C161.947,-48 177.79,-48 190.693,-48"/>
<polygon fill="midnightblue" stroke="midnightblue" points="148.054,-44.5001 138.054,-48 148.054,-51.5001 148.054,-44.5001"/>
</g>
<!-- Node5 -->
<g id="node5" class="node"><title>Node5</title>
<g id="a_node5"><a xlink:href="d7/dd4/a00013.php" target="_top" xlink:title="The titlebar of the Window class. ">
<polygon fill="none" stroke="black" points="174,-0.5 174,-19.5 260,-19.5 260,-0.5 174,-0.5"/>
<text text-anchor="middle" x="217" y="-7.5" font-family="Helvetica,sans-Serif" font-size="10.00">WindowTitleBar</text>
</a>
</g>
</g>
<!-- Node2&#45;&gt;Node5 -->
<g id="edge4" class="edge"><title>Node2&#45;&gt;Node5</title>
<path fill="none" stroke="midnightblue" d="M147.731,-35.8131C161.637,-30.5553 177.664,-24.4953 190.693,-19.5687"/>
<polygon fill="midnightblue" stroke="midnightblue" points="146.17,-32.6615 138.054,-39.4721 148.646,-39.2091 146.17,-32.6615"/>
</g>
</g>
</svg>
