<?xml version="1.0" encoding="UTF-8" standalone="no"?>
<!DOCTYPE svg PUBLIC "-//W3C//DTD SVG 1.1//EN"
 "http://www.w3.org/Graphics/SVG/1.1/DTD/svg11.dtd">
<!-- Generated by graphviz version 2.38.0 (20140413.2041)
 -->
<!-- Title: TableWidget.hpp Pages: 1 -->
<!--zoomable 330 -->
<svg id="main" version="1.1" xmlns="http://www.w3.org/2000/svg" xmlns:xlink="http://www.w3.org/1999/xlink" xml:space="preserve" onload="init(evt)">
<style type="text/css"><![CDATA[
.edge:hover path { stroke: red; }
.edge:hover polygon { stroke: red; fill: red; }
]]></style>
<script type="text/javascript"><![CDATA[
var edges = document.getElementsByTagName('g');
if (edges && edges.length) {
  for (var i=0;i<edges.length;i++) {
    if (edges[i].id.substr(0,4)=='edge') {
      edges[i].setAttribute('class','edge');
    }
  }
}
]]></script>
        <defs>
                <circle id="rim" cx="0" cy="0" r="7"/>
                <circle id="rim2" cx="0" cy="0" r="3.5"/>
                <g id="zoomPlus">
                        <use xlink:href="#rim" fill="#404040">
                                <set attributeName="fill" to="#808080" begin="zoomplus.mouseover" end="zoomplus.mouseout"/>
                        </use>
                        <path d="M-4,0h8M0,-4v8" fill="none" stroke="white" stroke-width="1.5" pointer-events="none"/>
                </g>
                <g id="zoomMin">
                        <use xlink:href="#rim" fill="#404040">
                                <set attributeName="fill" to="#808080" begin="zoomminus.mouseover" end="zoomminus.mouseout"/>
                        </use>
                        <path d="M-4,0h8" fill="none" stroke="white" stroke-width="1.5" pointer-events="none"/>
                </g>
                <g id="dirArrow">
                        <path fill="none" stroke="white" stroke-width="1.5" d="M0,-3.0v7 M-2.5,-0.5L0,-3.0L2.5,-0.5"/>
                </g>
               <g id="resetDef">
                       <use xlink:href="#rim2" fill="#404040">
                               <set attributeName="fill" to="#808080" begin="reset.mouseover" end="reset.mouseout"/>
                       </use>
               </g>
        </defs>

<script type="text/javascript">
var viewWidth = 3649;
var viewHeight = 330;
var sectionId = 'dynsection-0';
</script>
<script xlink:href="../../svgpan.js"/>
<svg id="graph" class="graph">
<g id="viewport">
<title>TableWidget.hpp</title>
<!-- Node1 -->
<g id="node1" class="node"><title>Node1</title>
<polygon fill="#bfbfbf" stroke="black" points="3477.5,-302.5 3477.5,-321.5 3567.5,-321.5 3567.5,-302.5 3477.5,-302.5"/>
<text text-anchor="middle" x="3522.5" y="-309.5" font-family="Helvetica,sans-Serif" font-size="10.00">TableWidget.hpp</text>
</g>
<!-- Node2 -->
<g id="node2" class="node"><title>Node2</title>
<polygon fill="none" stroke="#bfbfbf" points="3252,-0.5 3252,-19.5 3315,-19.5 3315,-0.5 3252,-0.5"/>
<text text-anchor="middle" x="3283.5" y="-7.5" font-family="Helvetica,sans-Serif" font-size="10.00">QtWidgets</text>
</g>
<!-- Node1&#45;&gt;Node2 -->
<g id="edge1" class="edge"><title>Node1&#45;&gt;Node2</title>
<path fill="none" stroke="midnightblue" d="M3544.42,-302.388C3578.54,-287.371 3640.5,-252.953 3640.5,-201 3640.5,-201 3640.5,-201 3640.5,-143 3640.5,-94.7333 3616.87,-80.858 3575.5,-56 3534.15,-31.1561 3395.93,-18.5268 3325.51,-13.5749"/>
<polygon fill="midnightblue" stroke="midnightblue" points="3325.44,-10.0619 3315.22,-12.8723 3324.96,-17.0457 3325.44,-10.0619"/>
</g>
<!-- Node3 -->
<g id="node3" class="node"><title>Node3</title>
<g id="a_node3"><a xlink:href="../../d4/d51/a00017.php" target="_top" xlink:title="Qt.hpp">
<polygon fill="none" stroke="black" points="3499.5,-246.5 3499.5,-265.5 3545.5,-265.5 3545.5,-246.5 3499.5,-246.5"/>
<text text-anchor="middle" x="3522.5" y="-253.5" font-family="Helvetica,sans-Serif" font-size="10.00">Qt.hpp</text>
</a>
</g>
</g>
<!-- Node1&#45;&gt;Node3 -->
<g id="edge2" class="edge"><title>Node1&#45;&gt;Node3</title>
<path fill="none" stroke="midnightblue" d="M3517.33,-302.083C3515.82,-294.927 3515.39,-284.635 3516.04,-275.691"/>
<polygon fill="midnightblue" stroke="midnightblue" points="3519.52,-276.126 3517.37,-265.751 3512.58,-275.2 3519.52,-276.126"/>
</g>
<!-- Node3&#45;&gt;Node1 -->
<g id="edge67" class="edge"><title>Node3&#45;&gt;Node1</title>
<path fill="none" stroke="midnightblue" d="M3527.63,-265.751C3529.16,-272.858 3529.6,-283.136 3528.97,-292.101"/>
<polygon fill="midnightblue" stroke="midnightblue" points="3525.49,-291.713 3527.67,-302.083 3532.43,-292.622 3525.49,-291.713"/>
</g>
<!-- Node4 -->
<g id="node4" class="node"><title>Node4</title>
<g id="a_node4"><a xlink:href="../../d1/d2b/a00018.php" target="_top" xlink:title="QtDefines.hpp">
<polygon fill="none" stroke="black" points="1539.5,-190.5 1539.5,-209.5 1619.5,-209.5 1619.5,-190.5 1539.5,-190.5"/>
<text text-anchor="middle" x="1579.5" y="-197.5" font-family="Helvetica,sans-Serif" font-size="10.00">QtDefines.hpp</text>
</a>
</g>
</g>
<!-- Node3&#45;&gt;Node4 -->
<g id="edge3" class="edge"><title>Node3&#45;&gt;Node4</title>
<path fill="none" stroke="midnightblue" d="M3499.33,-254.356C3302.65,-248.89 1913.63,-210.286 1630,-202.404"/>
<polygon fill="midnightblue" stroke="midnightblue" points="1629.71,-198.894 1619.61,-202.115 1629.51,-205.891 1629.71,-198.894"/>
</g>
<!-- Node49 -->
<g id="node49" class="node"><title>Node49</title>
<g id="a_node49"><a xlink:href="../../dc/de2/a00024.php" target="_top" xlink:title="Window.hpp">
<polygon fill="none" stroke="black" points="3487,-190.5 3487,-209.5 3558,-209.5 3558,-190.5 3487,-190.5"/>
<text text-anchor="middle" x="3522.5" y="-197.5" font-family="Helvetica,sans-Serif" font-size="10.00">Window.hpp</text>
</a>
</g>
</g>
<!-- Node3&#45;&gt;Node49 -->
<g id="edge61" class="edge"><title>Node3&#45;&gt;Node49</title>
<path fill="none" stroke="midnightblue" d="M3522.5,-246.083C3522.5,-239.006 3522.5,-228.861 3522.5,-219.986"/>
<polygon fill="midnightblue" stroke="midnightblue" points="3526,-219.751 3522.5,-209.751 3519,-219.751 3526,-219.751"/>
</g>
<!-- Node4&#45;&gt;Node2 -->
<g id="edge4" class="edge"><title>Node4&#45;&gt;Node2</title>
<path fill="none" stroke="midnightblue" d="M1619.61,-198.351C1855.9,-194.289 3060.93,-170.139 3207.5,-98 3215.67,-93.9773 3250.53,-51.8428 3270.07,-27.7199"/>
<polygon fill="midnightblue" stroke="midnightblue" points="3272.95,-29.7315 3276.5,-19.7514 3267.5,-25.3354 3272.95,-29.7315"/>
</g>
<!-- Node5 -->
<g id="node5" class="node"><title>Node5</title>
<g id="a_node5"><a xlink:href="../../d3/d52/a00023.php" target="_top" xlink:title="Widget.hpp">
<polygon fill="none" stroke="black" points="3202.5,-134.5 3202.5,-153.5 3268.5,-153.5 3268.5,-134.5 3202.5,-134.5"/>
<text text-anchor="middle" x="3235.5" y="-141.5" font-family="Helvetica,sans-Serif" font-size="10.00">Widget.hpp</text>
</a>
</g>
</g>
<!-- Node4&#45;&gt;Node5 -->
<g id="edge5" class="edge"><title>Node4&#45;&gt;Node5</title>
<path fill="none" stroke="midnightblue" d="M1619.51,-198.756C1836.17,-197.304 2870.76,-188.636 3188.5,-154 3189.78,-153.861 3191.07,-153.705 3192.38,-153.537"/>
<polygon fill="midnightblue" stroke="midnightblue" points="3193.11,-156.966 3202.48,-152.016 3192.07,-150.044 3193.11,-156.966"/>
</g>
<!-- Node6 -->
<g id="node6" class="node"><title>Node6</title>
<g id="a_node6"><a xlink:href="../../d2/de7/a00014.php" target="_top" xlink:title="DrawScene.hpp">
<polygon fill="none" stroke="black" points="41.5,-134.5 41.5,-153.5 127.5,-153.5 127.5,-134.5 41.5,-134.5"/>
<text text-anchor="middle" x="84.5" y="-141.5" font-family="Helvetica,sans-Serif" font-size="10.00">DrawScene.hpp</text>
</a>
</g>
</g>
<!-- Node4&#45;&gt;Node6 -->
<g id="edge7" class="edge"><title>Node4&#45;&gt;Node6</title>
<path fill="none" stroke="midnightblue" d="M1539.37,-198.51C1338.5,-195.942 440.174,-183.072 137.642,-153.932"/>
<polygon fill="midnightblue" stroke="midnightblue" points="137.863,-150.436 127.566,-152.932 137.172,-157.402 137.863,-150.436"/>
</g>
<!-- Node7 -->
<g id="node7" class="node"><title>Node7</title>
<g id="a_node7"><a xlink:href="../../db/db2/a00020.php" target="_top" xlink:title="Scene.hpp">
<polygon fill="none" stroke="black" points="0,-67.5 0,-86.5 63,-86.5 63,-67.5 0,-67.5"/>
<text text-anchor="middle" x="31.5" y="-74.5" font-family="Helvetica,sans-Serif" font-size="10.00">Scene.hpp</text>
</a>
</g>
</g>
<!-- Node4&#45;&gt;Node7 -->
<g id="edge17" class="edge"><title>Node4&#45;&gt;Node7</title>
<path fill="none" stroke="midnightblue" d="M1539.29,-198.591C1298.76,-196.056 59.7256,-181.663 32.5,-154 17.9976,-139.265 20.8724,-114.098 25.286,-96.7884"/>
<polygon fill="midnightblue" stroke="midnightblue" points="28.7785,-97.3178 28.2414,-86.7366 22.0627,-95.3432 28.7785,-97.3178"/>
</g>
<!-- Node9 -->
<g id="node9" class="node"><title>Node9</title>
<g id="a_node9"><a xlink:href="../../d7/d7a/a00016.php" target="_top" xlink:title="GraphScene.hpp">
<polygon fill="none" stroke="black" points="235,-134.5 235,-153.5 324,-153.5 324,-134.5 235,-134.5"/>
<text text-anchor="middle" x="279.5" y="-141.5" font-family="Helvetica,sans-Serif" font-size="10.00">GraphScene.hpp</text>
</a>
</g>
</g>
<!-- Node4&#45;&gt;Node9 -->
<g id="edge11" class="edge"><title>Node4&#45;&gt;Node9</title>
<path fill="none" stroke="midnightblue" d="M1539.17,-197.325C1350.16,-189.474 552.122,-156.324 334.508,-147.285"/>
<polygon fill="midnightblue" stroke="midnightblue" points="334.425,-143.779 324.289,-146.86 334.135,-150.773 334.425,-143.779"/>
</g>
<!-- Node14 -->
<g id="node14" class="node"><title>Node14</title>
<g id="a_node14"><a xlink:href="../../de/d11/a00021.php" target="_top" xlink:title="Spacers.hpp">
<polygon fill="none" stroke="black" points="146,-134.5 146,-153.5 217,-153.5 217,-134.5 146,-134.5"/>
<text text-anchor="middle" x="181.5" y="-141.5" font-family="Helvetica,sans-Serif" font-size="10.00">Spacers.hpp</text>
</a>
</g>
</g>
<!-- Node4&#45;&gt;Node14 -->
<g id="edge18" class="edge"><title>Node4&#45;&gt;Node14</title>
<path fill="none" stroke="midnightblue" d="M1539.27,-198.578C1345.95,-196.412 510.34,-185.444 227.663,-154.039"/>
<polygon fill="midnightblue" stroke="midnightblue" points="227.772,-150.528 217.438,-152.865 226.974,-157.483 227.772,-150.528"/>
</g>
<!-- Node15 -->
<g id="node15" class="node"><title>Node15</title>
<g id="a_node15"><a xlink:href="../../dd/da2/a00019.php" target="_top" xlink:title="QtFunctions.hpp">
<polygon fill="none" stroke="black" points="3287,-134.5 3287,-153.5 3376,-153.5 3376,-134.5 3287,-134.5"/>
<text text-anchor="middle" x="3331.5" y="-141.5" font-family="Helvetica,sans-Serif" font-size="10.00">QtFunctions.hpp</text>
</a>
</g>
</g>
<!-- Node4&#45;&gt;Node15 -->
<g id="edge20" class="edge"><title>Node4&#45;&gt;Node15</title>
<path fill="none" stroke="midnightblue" d="M1619.86,-198.691C1842.17,-196.875 2920.04,-186.557 3276.69,-153.893"/>
<polygon fill="midnightblue" stroke="midnightblue" points="3277.15,-157.366 3286.77,-152.945 3276.49,-150.397 3277.15,-157.366"/>
</g>
<!-- Node17 -->
<g id="node17" class="node"><title>Node17</title>
<g id="a_node17"><a xlink:href="../../dd/d1b/a00015.php" target="_top" xlink:title="Font.hpp">
<polygon fill="none" stroke="red" points="1552,-134.5 1552,-153.5 1607,-153.5 1607,-134.5 1552,-134.5"/>
<text text-anchor="middle" x="1579.5" y="-141.5" font-family="Helvetica,sans-Serif" font-size="10.00">Font.hpp</text>
</a>
</g>
</g>
<!-- Node4&#45;&gt;Node17 -->
<g id="edge23" class="edge"><title>Node4&#45;&gt;Node17</title>
<path fill="none" stroke="midnightblue" d="M1574.33,-190.083C1572.82,-182.927 1572.39,-172.635 1573.04,-163.691"/>
<polygon fill="midnightblue" stroke="midnightblue" points="1576.52,-164.126 1574.37,-153.751 1569.58,-163.2 1576.52,-164.126"/>
</g>
<!-- Node48 -->
<g id="node48" class="node"><title>Node48</title>
<polygon fill="none" stroke="#bfbfbf" points="3438,-67.5 3438,-86.5 3515,-86.5 3515,-67.5 3438,-67.5"/>
<text text-anchor="middle" x="3476.5" y="-74.5" font-family="Helvetica,sans-Serif" font-size="10.00">C++/C++.hpp</text>
</g>
<!-- Node4&#45;&gt;Node48 -->
<g id="edge60" class="edge"><title>Node4&#45;&gt;Node48</title>
<path fill="none" stroke="midnightblue" d="M1619.76,-198.741C1878.48,-196.985 3299.12,-185.912 3384.5,-154 3417.15,-141.797 3446.62,-112.811 3462.99,-94.3705"/>
<polygon fill="midnightblue" stroke="midnightblue" points="3465.68,-96.6022 3469.55,-86.738 3460.38,-92.0381 3465.68,-96.6022"/>
</g>
<!-- Node5&#45;&gt;Node2 -->
<g id="edge6" class="edge"><title>Node5&#45;&gt;Node2</title>
<path fill="none" stroke="midnightblue" d="M3238.65,-134.339C3246.38,-113.08 3266.42,-57.9632 3276.9,-29.1506"/>
<polygon fill="midnightblue" stroke="midnightblue" points="3280.27,-30.1152 3280.4,-19.5212 3273.69,-27.723 3280.27,-30.1152"/>
</g>
<!-- Node6&#45;&gt;Node7 -->
<g id="edge8" class="edge"><title>Node6&#45;&gt;Node7</title>
<path fill="none" stroke="midnightblue" d="M77.3522,-134.234C69.0875,-124.098 55.301,-107.19 44.9992,-94.5556"/>
<polygon fill="midnightblue" stroke="midnightblue" points="47.5666,-92.1657 38.5346,-86.6273 42.1414,-96.5893 47.5666,-92.1657"/>
</g>
<!-- Node7&#45;&gt;Node2 -->
<g id="edge9" class="edge"><title>Node7&#45;&gt;Node2</title>
<path fill="none" stroke="midnightblue" d="M47.158,-67.3444C55.8213,-63.0364 66.9437,-58.273 77.5,-56 239.581,-21.1009 2877.36,-12.183 3241.85,-11.1154"/>
<polygon fill="midnightblue" stroke="midnightblue" points="3241.98,-14.6151 3251.97,-11.0861 3241.96,-7.61517 3241.98,-14.6151"/>
</g>
<!-- Node8 -->
<g id="node8" class="node"><title>Node8</title>
<polygon fill="none" stroke="#bfbfbf" points="171.5,-0.5 171.5,-19.5 225.5,-19.5 225.5,-0.5 171.5,-0.5"/>
<text text-anchor="middle" x="198.5" y="-7.5" font-family="Helvetica,sans-Serif" font-size="10.00">iostream</text>
</g>
<!-- Node7&#45;&gt;Node8 -->
<g id="edge10" class="edge"><title>Node7&#45;&gt;Node8</title>
<path fill="none" stroke="midnightblue" d="M50.6501,-67.3983C58.8728,-63.7767 68.6152,-59.5806 77.5,-56 106.733,-44.219 140.361,-31.8024 164.735,-23.0032"/>
<polygon fill="midnightblue" stroke="midnightblue" points="166.021,-26.2604 174.247,-19.5834 163.652,-19.6732 166.021,-26.2604"/>
</g>
<!-- Node9&#45;&gt;Node7 -->
<g id="edge16" class="edge"><title>Node9&#45;&gt;Node7</title>
<path fill="none" stroke="midnightblue" d="M246.823,-134.436C202.126,-122.721 121.905,-101.695 73.0074,-88.879"/>
<polygon fill="midnightblue" stroke="midnightblue" points="73.6333,-85.4248 63.0726,-86.2751 71.8585,-92.1961 73.6333,-85.4248"/>
</g>
<!-- Node10 -->
<g id="node10" class="node"><title>Node10</title>
<polygon fill="none" stroke="#bfbfbf" points="302,-67.5 302,-86.5 337,-86.5 337,-67.5 302,-67.5"/>
<text text-anchor="middle" x="319.5" y="-74.5" font-family="Helvetica,sans-Serif" font-size="10.00">map</text>
</g>
<!-- Node9&#45;&gt;Node10 -->
<g id="edge12" class="edge"><title>Node9&#45;&gt;Node10</title>
<path fill="none" stroke="midnightblue" d="M284.895,-134.234C291.012,-124.293 301.138,-107.838 308.86,-95.2892"/>
<polygon fill="midnightblue" stroke="midnightblue" points="311.931,-96.9783 314.191,-86.6273 305.969,-93.3095 311.931,-96.9783"/>
</g>
<!-- Node11 -->
<g id="node11" class="node"><title>Node11</title>
<polygon fill="none" stroke="#bfbfbf" points="119.5,-67.5 119.5,-86.5 163.5,-86.5 163.5,-67.5 119.5,-67.5"/>
<text text-anchor="middle" x="141.5" y="-74.5" font-family="Helvetica,sans-Serif" font-size="10.00">vector</text>
</g>
<!-- Node9&#45;&gt;Node11 -->
<g id="edge13" class="edge"><title>Node9&#45;&gt;Node11</title>
<path fill="none" stroke="midnightblue" d="M256.002,-134.481C233.955,-126.172 200.304,-112.671 172.5,-98 169.13,-96.2215 165.651,-94.1894 162.297,-92.1175"/>
<polygon fill="midnightblue" stroke="midnightblue" points="164.171,-89.1612 153.869,-86.6875 160.38,-95.0457 164.171,-89.1612"/>
</g>
<!-- Node12 -->
<g id="node12" class="node"><title>Node12</title>
<polygon fill="none" stroke="#bfbfbf" points="181.5,-67.5 181.5,-86.5 221.5,-86.5 221.5,-67.5 181.5,-67.5"/>
<text text-anchor="middle" x="201.5" y="-74.5" font-family="Helvetica,sans-Serif" font-size="10.00">utility</text>
</g>
<!-- Node9&#45;&gt;Node12 -->
<g id="edge14" class="edge"><title>Node9&#45;&gt;Node12</title>
<path fill="none" stroke="midnightblue" d="M268.981,-134.234C256.35,-123.708 234.955,-105.879 219.641,-93.1174"/>
<polygon fill="midnightblue" stroke="midnightblue" points="221.776,-90.3404 211.853,-86.6273 217.294,-95.718 221.776,-90.3404"/>
</g>
<!-- Node13 -->
<g id="node13" class="node"><title>Node13</title>
<polygon fill="none" stroke="#bfbfbf" points="239.5,-67.5 239.5,-86.5 283.5,-86.5 283.5,-67.5 239.5,-67.5"/>
<text text-anchor="middle" x="261.5" y="-74.5" font-family="Helvetica,sans-Serif" font-size="10.00">cmath</text>
</g>
<!-- Node9&#45;&gt;Node13 -->
<g id="edge15" class="edge"><title>Node9&#45;&gt;Node13</title>
<path fill="none" stroke="midnightblue" d="M277.072,-134.234C274.401,-124.585 270.029,-108.8 266.597,-96.4063"/>
<polygon fill="midnightblue" stroke="midnightblue" points="269.931,-95.3305 263.889,-86.6273 263.185,-97.1987 269.931,-95.3305"/>
</g>
<!-- Node14&#45;&gt;Node2 -->
<g id="edge19" class="edge"><title>Node14&#45;&gt;Node2</title>
<path fill="none" stroke="midnightblue" d="M156.339,-134.378C140.081,-127.343 120.207,-115.645 110.5,-98 101.503,-81.6449 97.3946,-69.2926 110.5,-56 139.338,-26.7503 2870.33,-12.935 3241.83,-11.1904"/>
<polygon fill="midnightblue" stroke="midnightblue" points="3241.9,-14.6902 3251.89,-11.1434 3241.87,-7.69028 3241.9,-14.6902"/>
</g>
<!-- Node15&#45;&gt;Node2 -->
<g id="edge21" class="edge"><title>Node15&#45;&gt;Node2</title>
<path fill="none" stroke="midnightblue" d="M3328.35,-134.339C3320.62,-113.08 3300.58,-57.9632 3290.1,-29.1506"/>
<polygon fill="midnightblue" stroke="midnightblue" points="3293.31,-27.723 3286.6,-19.5212 3286.73,-30.1152 3293.31,-27.723"/>
</g>
<!-- Node16 -->
<g id="node16" class="node"><title>Node16</title>
<polygon fill="none" stroke="#bfbfbf" points="3331,-67.5 3331,-86.5 3420,-86.5 3420,-67.5 3331,-67.5"/>
<text text-anchor="middle" x="3375.5" y="-74.5" font-family="Helvetica,sans-Serif" font-size="10.00">C++/defines.hpp</text>
</g>
<!-- Node15&#45;&gt;Node16 -->
<g id="edge22" class="edge"><title>Node15&#45;&gt;Node16</title>
<path fill="none" stroke="midnightblue" d="M3337.43,-134.234C3344.23,-124.195 3355.52,-107.514 3364.05,-94.9213"/>
<polygon fill="midnightblue" stroke="midnightblue" points="3366.95,-96.8704 3369.66,-86.6273 3361.16,-92.9464 3366.95,-96.8704"/>
</g>
<!-- Node17&#45;&gt;Node4 -->
<g id="edge24" class="edge"><title>Node17&#45;&gt;Node4</title>
<path fill="none" stroke="midnightblue" d="M1584.63,-153.751C1586.16,-160.858 1586.6,-171.136 1585.97,-180.101"/>
<polygon fill="midnightblue" stroke="midnightblue" points="1582.49,-179.713 1584.67,-190.083 1589.43,-180.622 1582.49,-179.713"/>
</g>
<!-- Node17&#45;&gt;Node8 -->
<g id="edge46" class="edge"><title>Node17&#45;&gt;Node8</title>
<path fill="none" stroke="midnightblue" d="M1551.76,-143.219C1382.62,-144.387 493.716,-148.093 384.5,-98 361.346,-87.3803 367.086,-69.5255 345.5,-56 311.566,-34.7373 266.914,-22.9408 235.764,-16.8181"/>
<polygon fill="midnightblue" stroke="midnightblue" points="236.224,-13.3437 225.752,-14.9537 234.943,-20.2254 236.224,-13.3437"/>
</g>
<!-- Node17&#45;&gt;Node10 -->
<g id="edge58" class="edge"><title>Node17&#45;&gt;Node10</title>
<path fill="none" stroke="midnightblue" d="M1551.99,-142.843C1381.24,-141.753 469.732,-134.265 351.5,-98 347.131,-96.66 342.768,-94.5655 338.731,-92.2271"/>
<polygon fill="midnightblue" stroke="midnightblue" points="340.343,-89.1001 330.055,-86.5685 336.519,-94.9632 340.343,-89.1001"/>
</g>
<!-- Node17&#45;&gt;Node11 -->
<g id="edge50" class="edge"><title>Node17&#45;&gt;Node11</title>
<path fill="none" stroke="midnightblue" d="M1551.96,-143.003C1366.98,-142.908 308.69,-140.497 172.5,-98 168.235,-96.6693 163.993,-94.579 160.078,-92.2418"/>
<polygon fill="midnightblue" stroke="midnightblue" points="161.928,-89.2678 151.679,-86.5817 158.016,-95.0727 161.928,-89.2678"/>
</g>
<!-- Node17&#45;&gt;Node12 -->
<g id="edge26" class="edge"><title>Node17&#45;&gt;Node12</title>
<path fill="none" stroke="midnightblue" d="M1551.93,-143.011C1371.28,-142.959 360.131,-140.75 230.5,-98 226.561,-96.7011 222.674,-94.687 219.088,-92.4277"/>
<polygon fill="midnightblue" stroke="midnightblue" points="221.099,-89.563 210.935,-86.5742 217.017,-95.2494 221.099,-89.563"/>
</g>
<!-- Node17&#45;&gt;Node13 -->
<g id="edge59" class="edge"><title>Node17&#45;&gt;Node13</title>
<path fill="none" stroke="midnightblue" d="M1551.81,-142.914C1375.79,-142.253 416.429,-136.874 292.5,-98 288.237,-96.6629 283.996,-94.5697 280.081,-92.2317"/>
<polygon fill="midnightblue" stroke="midnightblue" points="281.931,-89.2577 271.682,-86.5727 278.02,-95.063 281.931,-89.2577"/>
</g>
<!-- Node18 -->
<g id="node18" class="node"><title>Node18</title>
<polygon fill="none" stroke="#bfbfbf" points="1461.5,-67.5 1461.5,-86.5 1501.5,-86.5 1501.5,-67.5 1461.5,-67.5"/>
<text text-anchor="middle" x="1481.5" y="-74.5" font-family="Helvetica,sans-Serif" font-size="10.00">limits</text>
</g>
<!-- Node17&#45;&gt;Node18 -->
<g id="edge25" class="edge"><title>Node17&#45;&gt;Node18</title>
<path fill="none" stroke="midnightblue" d="M1566.21,-134.474C1552.26,-125.498 1529.74,-110.906 1510.5,-98 1507.84,-96.2178 1505.06,-94.3288 1502.32,-92.4511"/>
<polygon fill="midnightblue" stroke="midnightblue" points="1504.09,-89.4245 1493.87,-86.6354 1500.12,-95.1897 1504.09,-89.4245"/>
</g>
<!-- Node19 -->
<g id="node19" class="node"><title>Node19</title>
<polygon fill="none" stroke="#bfbfbf" points="1519.5,-67.5 1519.5,-86.5 1571.5,-86.5 1571.5,-67.5 1519.5,-67.5"/>
<text text-anchor="middle" x="1545.5" y="-74.5" font-family="Helvetica,sans-Serif" font-size="10.00">memory</text>
</g>
<!-- Node17&#45;&gt;Node19 -->
<g id="edge27" class="edge"><title>Node17&#45;&gt;Node19</title>
<path fill="none" stroke="midnightblue" d="M1574.91,-134.234C1569.77,-124.39 1561.28,-108.16 1554.74,-95.6594"/>
<polygon fill="midnightblue" stroke="midnightblue" points="1557.75,-93.866 1550.01,-86.6273 1551.55,-97.1106 1557.75,-93.866"/>
</g>
<!-- Node20 -->
<g id="node20" class="node"><title>Node20</title>
<polygon fill="none" stroke="#bfbfbf" points="1590,-67.5 1590,-86.5 1637,-86.5 1637,-67.5 1590,-67.5"/>
<text text-anchor="middle" x="1613.5" y="-74.5" font-family="Helvetica,sans-Serif" font-size="10.00">iterator</text>
</g>
<!-- Node17&#45;&gt;Node20 -->
<g id="edge28" class="edge"><title>Node17&#45;&gt;Node20</title>
<path fill="none" stroke="midnightblue" d="M1584.09,-134.234C1589.23,-124.39 1597.72,-108.16 1604.26,-95.6594"/>
<polygon fill="midnightblue" stroke="midnightblue" points="1607.45,-97.1106 1608.99,-86.6273 1601.25,-93.866 1607.45,-97.1106"/>
</g>
<!-- Node21 -->
<g id="node21" class="node"><title>Node21</title>
<polygon fill="none" stroke="#bfbfbf" points="1655.5,-67.5 1655.5,-86.5 1693.5,-86.5 1693.5,-67.5 1655.5,-67.5"/>
<text text-anchor="middle" x="1674.5" y="-74.5" font-family="Helvetica,sans-Serif" font-size="10.00">tuple</text>
</g>
<!-- Node17&#45;&gt;Node21 -->
<g id="edge29" class="edge"><title>Node17&#45;&gt;Node21</title>
<path fill="none" stroke="midnightblue" d="M1592.17,-134.393C1605.46,-125.351 1626.97,-110.706 1645.5,-98 1648.14,-96.1906 1650.91,-94.2856 1653.65,-92.3995"/>
<polygon fill="midnightblue" stroke="midnightblue" points="1655.85,-95.1369 1662.09,-86.5792 1651.87,-89.3738 1655.85,-95.1369"/>
</g>
<!-- Node22 -->
<g id="node22" class="node"><title>Node22</title>
<polygon fill="none" stroke="#bfbfbf" points="1712,-67.5 1712,-86.5 1741,-86.5 1741,-67.5 1712,-67.5"/>
<text text-anchor="middle" x="1726.5" y="-74.5" font-family="Helvetica,sans-Serif" font-size="10.00">ios</text>
</g>
<!-- Node17&#45;&gt;Node22 -->
<g id="edge30" class="edge"><title>Node17&#45;&gt;Node22</title>
<path fill="none" stroke="midnightblue" d="M1607.07,-135.872C1632.81,-128.546 1671.77,-115.709 1702.5,-98 1704.88,-96.6258 1707.27,-95.0104 1709.55,-93.3035"/>
<polygon fill="midnightblue" stroke="midnightblue" points="1712.22,-95.6447 1717.71,-86.5839 1707.77,-90.2428 1712.22,-95.6447"/>
</g>
<!-- Node23 -->
<g id="node23" class="node"><title>Node23</title>
<polygon fill="none" stroke="#bfbfbf" points="1759,-56.5 1759,-97.5 1878,-97.5 1878,-56.5 1759,-56.5"/>
<text text-anchor="start" x="1767" y="-85.5" font-family="Helvetica,sans-Serif" font-size="10.00">/home/mathias/Bureau</text>
<text text-anchor="start" x="1767" y="-74.5" font-family="Helvetica,sans-Serif" font-size="10.00">/Algo/QTTests/Widgets</text>
<text text-anchor="middle" x="1818.5" y="-63.5" font-family="Helvetica,sans-Serif" font-size="10.00">/C++/bdd.hpp</text>
</g>
<!-- Node17&#45;&gt;Node23 -->
<g id="edge31" class="edge"><title>Node17&#45;&gt;Node23</title>
<path fill="none" stroke="midnightblue" d="M1607.23,-135.871C1639.09,-127.637 1693.15,-113.519 1748.98,-98.1156"/>
<polygon fill="midnightblue" stroke="midnightblue" points="1749.98,-101.471 1758.69,-95.4302 1748.11,-94.7245 1749.98,-101.471"/>
</g>
<!-- Node24 -->
<g id="node24" class="node"><title>Node24</title>
<polygon fill="none" stroke="#bfbfbf" points="1896,-67.5 1896,-86.5 1985,-86.5 1985,-67.5 1896,-67.5"/>
<text text-anchor="middle" x="1940.5" y="-74.5" font-family="Helvetica,sans-Serif" font-size="10.00">cppconn/driver.h</text>
</g>
<!-- Node17&#45;&gt;Node24 -->
<g id="edge32" class="edge"><title>Node17&#45;&gt;Node24</title>
<path fill="none" stroke="midnightblue" d="M1607.4,-140.877C1661.79,-136.308 1785.51,-123.801 1886.5,-98 1894.6,-95.9295 1903.18,-93.0759 1911.05,-90.1723"/>
<polygon fill="midnightblue" stroke="midnightblue" points="1912.48,-93.374 1920.56,-86.5229 1909.97,-86.8388 1912.48,-93.374"/>
</g>
<!-- Node25 -->
<g id="node25" class="node"><title>Node25</title>
<polygon fill="none" stroke="#bfbfbf" points="2003,-67.5 2003,-86.5 2110,-86.5 2110,-67.5 2003,-67.5"/>
<text text-anchor="middle" x="2056.5" y="-74.5" font-family="Helvetica,sans-Serif" font-size="10.00">cppconn/exception.h</text>
</g>
<!-- Node17&#45;&gt;Node25 -->
<g id="edge33" class="edge"><title>Node17&#45;&gt;Node25</title>
<path fill="none" stroke="midnightblue" d="M1607.42,-141.884C1674.58,-138.783 1850.25,-128.209 1993.5,-98 2003.5,-95.8911 2014.17,-92.8289 2023.83,-89.732"/>
<polygon fill="midnightblue" stroke="midnightblue" points="2025.07,-93.0061 2033.46,-86.5305 2022.87,-86.3635 2025.07,-93.0061"/>
</g>
<!-- Node26 -->
<g id="node26" class="node"><title>Node26</title>
<polygon fill="none" stroke="#bfbfbf" points="2127.5,-67.5 2127.5,-86.5 2229.5,-86.5 2229.5,-67.5 2127.5,-67.5"/>
<text text-anchor="middle" x="2178.5" y="-74.5" font-family="Helvetica,sans-Serif" font-size="10.00">cppconn/resultset.h</text>
</g>
<!-- Node17&#45;&gt;Node26 -->
<g id="edge34" class="edge"><title>Node17&#45;&gt;Node26</title>
<path fill="none" stroke="midnightblue" d="M1607.03,-143.004C1686.95,-142.524 1925.57,-137.617 2118.5,-98 2128.06,-96.0375 2138.21,-93.0277 2147.39,-89.9342"/>
<polygon fill="midnightblue" stroke="midnightblue" points="2148.63,-93.2096 2156.9,-86.59 2146.3,-86.6061 2148.63,-93.2096"/>
</g>
<!-- Node27 -->
<g id="node27" class="node"><title>Node27</title>
<polygon fill="none" stroke="#bfbfbf" points="2247.5,-67.5 2247.5,-86.5 2355.5,-86.5 2355.5,-67.5 2247.5,-67.5"/>
<text text-anchor="middle" x="2301.5" y="-74.5" font-family="Helvetica,sans-Serif" font-size="10.00">cppconn/statement.h</text>
</g>
<!-- Node17&#45;&gt;Node27 -->
<g id="edge35" class="edge"><title>Node17&#45;&gt;Node27</title>
<path fill="none" stroke="midnightblue" d="M1607.11,-143.46C1698.19,-144.48 1997.13,-143.868 2238.5,-98 2248.71,-96.0602 2259.58,-92.9906 2269.36,-89.833"/>
<polygon fill="midnightblue" stroke="midnightblue" points="2270.73,-93.0641 2279.09,-86.5543 2268.5,-86.4305 2270.73,-93.0641"/>
</g>
<!-- Node28 -->
<g id="node28" class="node"><title>Node28</title>
<polygon fill="none" stroke="#bfbfbf" points="2374,-67.5 2374,-86.5 2433,-86.5 2433,-67.5 2374,-67.5"/>
<text text-anchor="middle" x="2403.5" y="-74.5" font-family="Helvetica,sans-Serif" font-size="10.00">functional</text>
</g>
<!-- Node17&#45;&gt;Node28 -->
<g id="edge36" class="edge"><title>Node17&#45;&gt;Node28</title>
<path fill="none" stroke="midnightblue" d="M1607.13,-142.944C1728.79,-142.465 2217.3,-138.036 2364.5,-98 2370.1,-96.4773 2375.82,-94.0873 2381.1,-91.4819"/>
<polygon fill="midnightblue" stroke="midnightblue" points="2382.84,-94.5183 2389.99,-86.7 2379.53,-88.353 2382.84,-94.5183"/>
</g>
<!-- Node29 -->
<g id="node29" class="node"><title>Node29</title>
<polygon fill="none" stroke="#bfbfbf" points="2451,-56.5 2451,-97.5 2570,-97.5 2570,-56.5 2451,-56.5"/>
<text text-anchor="start" x="2459" y="-85.5" font-family="Helvetica,sans-Serif" font-size="10.00">/home/mathias/Bureau</text>
<text text-anchor="start" x="2459" y="-74.5" font-family="Helvetica,sans-Serif" font-size="10.00">/Algo/QTTests/Widgets</text>
<text text-anchor="middle" x="2510.5" y="-63.5" font-family="Helvetica,sans-Serif" font-size="10.00">/C++/errors.hpp</text>
</g>
<!-- Node17&#45;&gt;Node29 -->
<g id="edge37" class="edge"><title>Node17&#45;&gt;Node29</title>
<path fill="none" stroke="midnightblue" d="M1607.05,-142.414C1732.98,-139.607 2255.37,-126.545 2440.71,-97.8426"/>
<polygon fill="midnightblue" stroke="midnightblue" points="2441.54,-101.253 2450.86,-96.198 2440.42,-94.3433 2441.54,-101.253"/>
</g>
<!-- Node30 -->
<g id="node30" class="node"><title>Node30</title>
<polygon fill="none" stroke="#bfbfbf" points="2588,-56.5 2588,-97.5 2707,-97.5 2707,-56.5 2588,-56.5"/>
<text text-anchor="start" x="2596" y="-85.5" font-family="Helvetica,sans-Serif" font-size="10.00">/home/mathias/Bureau</text>
<text text-anchor="start" x="2596" y="-74.5" font-family="Helvetica,sans-Serif" font-size="10.00">/Algo/QTTests/Widgets</text>
<text text-anchor="middle" x="2647.5" y="-63.5" font-family="Helvetica,sans-Serif" font-size="10.00">/C++/console.hpp</text>
</g>
<!-- Node17&#45;&gt;Node30 -->
<g id="edge38" class="edge"><title>Node17&#45;&gt;Node30</title>
<path fill="none" stroke="midnightblue" d="M1607.1,-142.64C1745.3,-140.707 2363.49,-130.461 2577.67,-97.8453"/>
<polygon fill="midnightblue" stroke="midnightblue" points="2578.53,-101.251 2587.86,-96.2248 2577.43,-94.3383 2578.53,-101.251"/>
</g>
<!-- Node31 -->
<g id="node31" class="node"><title>Node31</title>
<polygon fill="none" stroke="#bfbfbf" points="2725,-56.5 2725,-97.5 2844,-97.5 2844,-56.5 2725,-56.5"/>
<text text-anchor="start" x="2733" y="-85.5" font-family="Helvetica,sans-Serif" font-size="10.00">/home/mathias/Bureau</text>
<text text-anchor="start" x="2733" y="-74.5" font-family="Helvetica,sans-Serif" font-size="10.00">/Algo/QTTests/Widgets</text>
<text text-anchor="middle" x="2784.5" y="-63.5" font-family="Helvetica,sans-Serif" font-size="10.00">/C++/convert.hpp</text>
</g>
<!-- Node17&#45;&gt;Node31 -->
<g id="edge39" class="edge"><title>Node17&#45;&gt;Node31</title>
<path fill="none" stroke="midnightblue" d="M1607.3,-142.812C1757.28,-141.66 2471.78,-134.406 2714.69,-97.8391"/>
<polygon fill="midnightblue" stroke="midnightblue" points="2715.53,-101.251 2724.86,-96.2452 2714.44,-94.3355 2715.53,-101.251"/>
</g>
<!-- Node32 -->
<g id="node32" class="node"><title>Node32</title>
<polygon fill="none" stroke="#bfbfbf" points="2862.5,-67.5 2862.5,-86.5 2914.5,-86.5 2914.5,-67.5 2862.5,-67.5"/>
<text text-anchor="middle" x="2888.5" y="-74.5" font-family="Helvetica,sans-Serif" font-size="10.00">sstream</text>
</g>
<!-- Node17&#45;&gt;Node32 -->
<g id="edge40" class="edge"><title>Node17&#45;&gt;Node32</title>
<path fill="none" stroke="midnightblue" d="M1607.14,-142.798C1781.79,-141.42 2728.79,-132.399 2852.5,-98 2857.71,-96.5526 2862.97,-94.2172 2867.82,-91.6441"/>
<polygon fill="midnightblue" stroke="midnightblue" points="2869.61,-94.649 2876.47,-86.5742 2866.07,-88.6091 2869.61,-94.649"/>
</g>
<!-- Node33 -->
<g id="node33" class="node"><title>Node33</title>
<polygon fill="none" stroke="#bfbfbf" points="2933,-67.5 2933,-86.5 2974,-86.5 2974,-67.5 2933,-67.5"/>
<text text-anchor="middle" x="2953.5" y="-74.5" font-family="Helvetica,sans-Serif" font-size="10.00">string</text>
</g>
<!-- Node17&#45;&gt;Node33 -->
<g id="edge41" class="edge"><title>Node17&#45;&gt;Node33</title>
<path fill="none" stroke="midnightblue" d="M1607.25,-142.982C1787.97,-142.745 2794.09,-139.559 2923.5,-98 2927.54,-96.7021 2931.55,-94.6885 2935.25,-92.4293"/>
<polygon fill="midnightblue" stroke="midnightblue" points="2937.47,-95.1508 2943.69,-86.5756 2933.48,-89.3989 2937.47,-95.1508"/>
</g>
<!-- Node34 -->
<g id="node34" class="node"><title>Node34</title>
<polygon fill="none" stroke="#bfbfbf" points="2992.5,-67.5 2992.5,-86.5 3048.5,-86.5 3048.5,-67.5 2992.5,-67.5"/>
<text text-anchor="middle" x="3020.5" y="-74.5" font-family="Helvetica,sans-Serif" font-size="10.00">algorithm</text>
</g>
<!-- Node17&#45;&gt;Node34 -->
<g id="edge42" class="edge"><title>Node17&#45;&gt;Node34</title>
<path fill="none" stroke="midnightblue" d="M1607.22,-142.859C1792.23,-141.816 2845.03,-134.315 2982.5,-98 2988.09,-96.5243 2993.77,-94.1091 2998.99,-91.4586"/>
<polygon fill="midnightblue" stroke="midnightblue" points="3000.7,-94.5082 3007.74,-86.5854 2997.3,-88.3925 3000.7,-94.5082"/>
</g>
<!-- Node35 -->
<g id="node35" class="node"><title>Node35</title>
<polygon fill="none" stroke="#bfbfbf" points="3067,-67.5 3067,-86.5 3118,-86.5 3118,-67.5 3067,-67.5"/>
<text text-anchor="middle" x="3092.5" y="-74.5" font-family="Helvetica,sans-Serif" font-size="10.00">numeric</text>
</g>
<!-- Node17&#45;&gt;Node35 -->
<g id="edge43" class="edge"><title>Node17&#45;&gt;Node35</title>
<path fill="none" stroke="midnightblue" d="M1607.17,-142.963C1797.77,-142.602 2912.96,-138.751 3057.5,-98 3062.46,-96.6019 3067.46,-94.3537 3072.07,-91.86"/>
<polygon fill="midnightblue" stroke="midnightblue" points="3074.07,-94.7404 3080.84,-86.5904 3070.47,-88.74 3074.07,-94.7404"/>
</g>
<!-- Node36 -->
<g id="node36" class="node"><title>Node36</title>
<polygon fill="none" stroke="#bfbfbf" points="3136.5,-67.5 3136.5,-86.5 3198.5,-86.5 3198.5,-67.5 3136.5,-67.5"/>
<text text-anchor="middle" x="3167.5" y="-74.5" font-family="Helvetica,sans-Serif" font-size="10.00">type_traits</text>
</g>
<!-- Node17&#45;&gt;Node36 -->
<g id="edge44" class="edge"><title>Node17&#45;&gt;Node36</title>
<path fill="none" stroke="midnightblue" d="M1607.17,-142.898C1802.75,-142.086 2973.55,-135.666 3126.5,-98 3132.61,-96.4956 3138.87,-93.9991 3144.61,-91.271"/>
<polygon fill="midnightblue" stroke="midnightblue" points="3146.37,-94.3003 3153.65,-86.5956 3143.16,-88.0835 3146.37,-94.3003"/>
</g>
<!-- Node37 -->
<g id="node37" class="node"><title>Node37</title>
<polygon fill="none" stroke="#bfbfbf" points="394,-56.5 394,-97.5 513,-97.5 513,-56.5 394,-56.5"/>
<text text-anchor="start" x="402" y="-85.5" font-family="Helvetica,sans-Serif" font-size="10.00">/home/mathias/Bureau</text>
<text text-anchor="start" x="402" y="-74.5" font-family="Helvetica,sans-Serif" font-size="10.00">/Algo/QTTests/Widgets</text>
<text text-anchor="middle" x="453.5" y="-63.5" font-family="Helvetica,sans-Serif" font-size="10.00">/C++/types.hpp</text>
</g>
<!-- Node17&#45;&gt;Node37 -->
<g id="edge45" class="edge"><title>Node17&#45;&gt;Node37</title>
<path fill="none" stroke="midnightblue" d="M1551.72,-142.733C1408.16,-141.216 748.657,-132.544 523.102,-98.0053"/>
<polygon fill="midnightblue" stroke="midnightblue" points="523.44,-94.515 513.013,-96.3944 522.336,-101.427 523.44,-94.515"/>
</g>
<!-- Node38 -->
<g id="node38" class="node"><title>Node38</title>
<polygon fill="none" stroke="#bfbfbf" points="531,-67.5 531,-86.5 582,-86.5 582,-67.5 531,-67.5"/>
<text text-anchor="middle" x="556.5" y="-74.5" font-family="Helvetica,sans-Serif" font-size="10.00">typeinfo</text>
</g>
<!-- Node17&#45;&gt;Node38 -->
<g id="edge47" class="edge"><title>Node17&#45;&gt;Node38</title>
<path fill="none" stroke="midnightblue" d="M1551.96,-142.538C1401.78,-139.916 684.831,-126.006 590.5,-98 585.666,-96.565 580.801,-94.3011 576.322,-91.8039"/>
<polygon fill="midnightblue" stroke="midnightblue" points="578.15,-88.8197 567.804,-86.5409 574.471,-94.7747 578.15,-88.8197"/>
</g>
<!-- Node39 -->
<g id="node39" class="node"><title>Node39</title>
<polygon fill="none" stroke="#bfbfbf" points="600,-56.5 600,-97.5 719,-97.5 719,-56.5 600,-56.5"/>
<text text-anchor="start" x="608" y="-85.5" font-family="Helvetica,sans-Serif" font-size="10.00">/home/mathias/Bureau</text>
<text text-anchor="start" x="608" y="-74.5" font-family="Helvetica,sans-Serif" font-size="10.00">/Algo/QTTests/Widgets</text>
<text text-anchor="middle" x="659.5" y="-63.5" font-family="Helvetica,sans-Serif" font-size="10.00">/C++/files.hpp</text>
</g>
<!-- Node17&#45;&gt;Node39 -->
<g id="edge48" class="edge"><title>Node17&#45;&gt;Node39</title>
<path fill="none" stroke="midnightblue" d="M1551.88,-142.391C1426.8,-139.505 912.035,-126.22 729.156,-97.8223"/>
<polygon fill="midnightblue" stroke="midnightblue" points="729.577,-94.3448 719.145,-96.1954 728.454,-101.254 729.577,-94.3448"/>
</g>
<!-- Node40 -->
<g id="node40" class="node"><title>Node40</title>
<polygon fill="none" stroke="#bfbfbf" points="737.5,-67.5 737.5,-86.5 787.5,-86.5 787.5,-67.5 737.5,-67.5"/>
<text text-anchor="middle" x="762.5" y="-74.5" font-family="Helvetica,sans-Serif" font-size="10.00">fstream</text>
</g>
<!-- Node17&#45;&gt;Node40 -->
<g id="edge49" class="edge"><title>Node17&#45;&gt;Node40</title>
<path fill="none" stroke="midnightblue" d="M1551.89,-143.144C1430.28,-143.516 942.107,-142.176 796.5,-98 791.675,-96.5362 786.813,-94.2601 782.335,-91.76"/>
<polygon fill="midnightblue" stroke="midnightblue" points="784.163,-88.7756 773.815,-86.5022 780.487,-94.7325 784.163,-88.7756"/>
</g>
<!-- Node41 -->
<g id="node41" class="node"><title>Node41</title>
<polygon fill="none" stroke="#bfbfbf" points="806,-56.5 806,-97.5 925,-97.5 925,-56.5 806,-56.5"/>
<text text-anchor="start" x="814" y="-85.5" font-family="Helvetica,sans-Serif" font-size="10.00">/home/mathias/Bureau</text>
<text text-anchor="start" x="814" y="-74.5" font-family="Helvetica,sans-Serif" font-size="10.00">/Algo/QTTests/Widgets</text>
<text text-anchor="middle" x="865.5" y="-63.5" font-family="Helvetica,sans-Serif" font-size="10.00">/C++/time.hpp</text>
</g>
<!-- Node17&#45;&gt;Node41 -->
<g id="edge51" class="edge"><title>Node17&#45;&gt;Node41</title>
<path fill="none" stroke="midnightblue" d="M1551.85,-143.2C1463.16,-143.398 1177.96,-140.58 935.103,-98.0906"/>
<polygon fill="midnightblue" stroke="midnightblue" points="935.487,-94.604 925.029,-96.3007 934.263,-101.496 935.487,-94.604"/>
</g>
<!-- Node42 -->
<g id="node42" class="node"><title>Node42</title>
<polygon fill="none" stroke="#bfbfbf" points="943,-67.5 943,-86.5 984,-86.5 984,-67.5 943,-67.5"/>
<text text-anchor="middle" x="963.5" y="-74.5" font-family="Helvetica,sans-Serif" font-size="10.00">ctime</text>
</g>
<!-- Node17&#45;&gt;Node42 -->
<g id="edge52" class="edge"><title>Node17&#45;&gt;Node42</title>
<path fill="none" stroke="midnightblue" d="M1551.9,-142.723C1450.46,-141.42 1098.75,-134.326 993.5,-98 989.552,-96.6375 985.624,-94.6268 981.974,-92.3982"/>
<polygon fill="midnightblue" stroke="midnightblue" points="983.844,-89.4359 973.62,-86.6548 979.878,-95.2042 983.844,-89.4359"/>
</g>
<!-- Node43 -->
<g id="node43" class="node"><title>Node43</title>
<polygon fill="none" stroke="#bfbfbf" points="1002.5,-67.5 1002.5,-86.5 1046.5,-86.5 1046.5,-67.5 1002.5,-67.5"/>
<text text-anchor="middle" x="1024.5" y="-74.5" font-family="Helvetica,sans-Serif" font-size="10.00">thread</text>
</g>
<!-- Node17&#45;&gt;Node43 -->
<g id="edge53" class="edge"><title>Node17&#45;&gt;Node43</title>
<path fill="none" stroke="midnightblue" d="M1551.95,-142.383C1457.7,-140.002 1148.81,-129.891 1055.5,-98 1051.46,-96.6181 1047.41,-94.598 1043.65,-92.3663"/>
<polygon fill="midnightblue" stroke="midnightblue" points="1045.28,-89.2459 1035.01,-86.6255 1041.4,-95.0757 1045.28,-89.2459"/>
</g>
<!-- Node44 -->
<g id="node44" class="node"><title>Node44</title>
<polygon fill="none" stroke="#bfbfbf" points="1064.5,-67.5 1064.5,-86.5 1108.5,-86.5 1108.5,-67.5 1064.5,-67.5"/>
<text text-anchor="middle" x="1086.5" y="-74.5" font-family="Helvetica,sans-Serif" font-size="10.00">mutex</text>
</g>
<!-- Node17&#45;&gt;Node44 -->
<g id="edge54" class="edge"><title>Node17&#45;&gt;Node44</title>
<path fill="none" stroke="midnightblue" d="M1551.94,-142.018C1465.19,-138.662 1198.65,-126.253 1117.5,-98 1113.46,-96.595 1109.43,-94.5638 1105.66,-92.3284"/>
<polygon fill="midnightblue" stroke="midnightblue" points="1107.29,-89.208 1097.02,-86.5908 1103.42,-95.039 1107.29,-89.208"/>
</g>
<!-- Node45 -->
<g id="node45" class="node"><title>Node45</title>
<polygon fill="none" stroke="#bfbfbf" points="1127,-56.5 1127,-97.5 1246,-97.5 1246,-56.5 1127,-56.5"/>
<text text-anchor="start" x="1135" y="-85.5" font-family="Helvetica,sans-Serif" font-size="10.00">/home/mathias/Bureau</text>
<text text-anchor="start" x="1135" y="-74.5" font-family="Helvetica,sans-Serif" font-size="10.00">/Algo/QTTests/Widgets</text>
<text text-anchor="middle" x="1186.5" y="-63.5" font-family="Helvetica,sans-Serif" font-size="10.00">/C++/pointers.hpp</text>
</g>
<!-- Node17&#45;&gt;Node45 -->
<g id="edge55" class="edge"><title>Node17&#45;&gt;Node45</title>
<path fill="none" stroke="midnightblue" d="M1551.87,-140.571C1497.09,-135.459 1370.79,-122.193 1256.07,-98.1919"/>
<polygon fill="midnightblue" stroke="midnightblue" points="1256.58,-94.7222 1246.08,-96.0659 1255.13,-101.569 1256.58,-94.7222"/>
</g>
<!-- Node46 -->
<g id="node46" class="node"><title>Node46</title>
<polygon fill="none" stroke="#bfbfbf" points="1264,-56.5 1264,-97.5 1383,-97.5 1383,-56.5 1264,-56.5"/>
<text text-anchor="start" x="1272" y="-85.5" font-family="Helvetica,sans-Serif" font-size="10.00">/home/mathias/Bureau</text>
<text text-anchor="start" x="1272" y="-74.5" font-family="Helvetica,sans-Serif" font-size="10.00">/Algo/QTTests/Widgets</text>
<text text-anchor="middle" x="1323.5" y="-63.5" font-family="Helvetica,sans-Serif" font-size="10.00">/C++/string.hpp</text>
</g>
<!-- Node17&#45;&gt;Node46 -->
<g id="edge56" class="edge"><title>Node17&#45;&gt;Node46</title>
<path fill="none" stroke="midnightblue" d="M1551.83,-136.761C1517.11,-128.839 1455.49,-114.486 1393.28,-98.1512"/>
<polygon fill="midnightblue" stroke="midnightblue" points="1393.85,-94.6834 1383.29,-95.5134 1392.07,-101.451 1393.85,-94.6834"/>
</g>
<!-- Node47 -->
<g id="node47" class="node"><title>Node47</title>
<polygon fill="none" stroke="#bfbfbf" points="1401.5,-67.5 1401.5,-86.5 1443.5,-86.5 1443.5,-67.5 1401.5,-67.5"/>
<text text-anchor="middle" x="1422.5" y="-74.5" font-family="Helvetica,sans-Serif" font-size="10.00">locale</text>
</g>
<!-- Node17&#45;&gt;Node47 -->
<g id="edge57" class="edge"><title>Node17&#45;&gt;Node47</title>
<path fill="none" stroke="midnightblue" d="M1551.94,-135.393C1525.66,-127.644 1485.34,-114.444 1452.5,-98 1449.21,-96.3524 1445.85,-94.407 1442.62,-92.3874"/>
<polygon fill="midnightblue" stroke="midnightblue" points="1444.32,-89.3152 1434.06,-86.6848 1440.44,-95.1413 1444.32,-89.3152"/>
</g>
<!-- Node49&#45;&gt;Node2 -->
<g id="edge62" class="edge"><title>Node49&#45;&gt;Node2</title>
<path fill="none" stroke="midnightblue" d="M3542.41,-190.41C3556.72,-183.04 3574.96,-170.916 3583.5,-154 3601.81,-117.742 3566.36,-72.8102 3543.5,-56 3509.5,-30.9959 3389.77,-18.6741 3325.32,-13.7311"/>
<polygon fill="midnightblue" stroke="midnightblue" points="3325.32,-10.222 3315.09,-12.9732 3324.81,-17.2028 3325.32,-10.222"/>
</g>
<!-- Node49&#45;&gt;Node48 -->
<g id="edge66" class="edge"><title>Node49&#45;&gt;Node48</title>
<path fill="none" stroke="midnightblue" d="M3502.59,-190.41C3488.28,-183.04 3470.04,-170.916 3461.5,-154 3452.25,-135.683 3459.35,-112.203 3466.6,-96.2209"/>
<polygon fill="midnightblue" stroke="midnightblue" points="3469.91,-97.4439 3471.22,-86.9309 3463.64,-94.3297 3469.91,-97.4439"/>
</g>
<!-- Node50 -->
<g id="node50" class="node"><title>Node50</title>
<g id="a_node50"><a xlink:href="../../d6/d5b/a00026.php" target="_top" xlink:title="WindowTitleBar.hpp">
<polygon fill="none" stroke="red" points="3470.5,-134.5 3470.5,-153.5 3574.5,-153.5 3574.5,-134.5 3470.5,-134.5"/>
<text text-anchor="middle" x="3522.5" y="-141.5" font-family="Helvetica,sans-Serif" font-size="10.00">WindowTitleBar.hpp</text>
</a>
</g>
</g>
<!-- Node49&#45;&gt;Node50 -->
<g id="edge63" class="edge"><title>Node49&#45;&gt;Node50</title>
<path fill="none" stroke="midnightblue" d="M3522.5,-190.083C3522.5,-183.006 3522.5,-172.861 3522.5,-163.986"/>
<polygon fill="midnightblue" stroke="midnightblue" points="3526,-163.751 3522.5,-153.751 3519,-163.751 3526,-163.751"/>
</g>
<!-- Node50&#45;&gt;Node2 -->
<g id="edge64" class="edge"><title>Node50&#45;&gt;Node2</title>
<path fill="none" stroke="midnightblue" d="M3525.85,-134.396C3531.88,-117.28 3542.31,-78.6659 3523.5,-56 3498.8,-26.2417 3387.41,-16.0436 3325.44,-12.64"/>
<polygon fill="midnightblue" stroke="midnightblue" points="3325.37,-9.13209 3315.2,-12.1151 3325.01,-16.1229 3325.37,-9.13209"/>
</g>
<!-- Node50&#45;&gt;Node48 -->
<g id="edge65" class="edge"><title>Node50&#45;&gt;Node48</title>
<path fill="none" stroke="midnightblue" d="M3516.3,-134.234C3509.19,-124.195 3497.39,-107.514 3488.48,-94.9213"/>
<polygon fill="midnightblue" stroke="midnightblue" points="3491.24,-92.7682 3482.61,-86.6273 3485.53,-96.8119 3491.24,-92.7682"/>
</g>
</g>
</svg>
        <g id="navigator" transform="translate(0 0)" fill="#404254">
                <rect fill="#f2f5e9" fill-opacity="0.5" stroke="#606060" stroke-width=".5" x="0" y="0" width="60" height="60"/>
                <use id="zoomplus" xlink:href="#zoomPlus" x="17" y="9" onmousedown="handleZoom(evt,'in')"/>
                <use id="zoomminus" xlink:href="#zoomMin" x="42" y="9" onmousedown="handleZoom(evt,'out')"/>
                <use id="reset" xlink:href="#resetDef" x="30" y="36" onmousedown="handleReset()"/>
                <g id="arrowUp" xlink:href="#dirArrow" transform="translate(30 24)" onmousedown="handlePan(0,-1)">
                  <use xlink:href="#rim" fill="#404040">
                        <set attributeName="fill" to="#808080" begin="arrowUp.mouseover" end="arrowUp.mouseout"/>
                  </use>
                  <path fill="none" stroke="white" stroke-width="1.5" d="M0,-3.0v7 M-2.5,-0.5L0,-3.0L2.5,-0.5"/>
                </g>
                <g id="arrowRight" xlink:href="#dirArrow" transform="rotate(90) translate(36 -43)" onmousedown="handlePan(1,0)">
                  <use xlink:href="#rim" fill="#404040">
                        <set attributeName="fill" to="#808080" begin="arrowRight.mouseover" end="arrowRight.mouseout"/>
                  </use>
                  <path fill="none" stroke="white" stroke-width="1.5" d="M0,-3.0v7 M-2.5,-0.5L0,-3.0L2.5,-0.5"/>
                </g>
                <g id="arrowDown" xlink:href="#dirArrow" transform="rotate(180) translate(-30 -48)" onmousedown="handlePan(0,1)">
                  <use xlink:href="#rim" fill="#404040">
                        <set attributeName="fill" to="#808080" begin="arrowDown.mouseover" end="arrowDown.mouseout"/>
                  </use>
                  <path fill="none" stroke="white" stroke-width="1.5" d="M0,-3.0v7 M-2.5,-0.5L0,-3.0L2.5,-0.5"/>
                </g>
                <g id="arrowLeft" xlink:href="#dirArrow" transform="rotate(270) translate(-36 17)" onmousedown="handlePan(-1,0)">
                  <use xlink:href="#rim" fill="#404040">
                        <set attributeName="fill" to="#808080" begin="arrowLeft.mouseover" end="arrowLeft.mouseout"/>
                  </use>
                  <path fill="none" stroke="white" stroke-width="1.5" d="M0,-3.0v7 M-2.5,-0.5L0,-3.0L2.5,-0.5"/>
                </g>
        </g>
        <svg viewBox="0 0 15 15" width="100%" height="30px" preserveAspectRatio="xMaxYMin meet">
         <g id="arrow_out" transform="scale(0.3 0.3)">
          <a xlink:href="a00043_org.svg" target="_base">
           <rect id="button" ry="5" rx="5" y="6" x="6" height="38" width="38"
                fill="#f2f5e9" fill-opacity="0.5" stroke="#606060" stroke-width="1.0"/>
           <path id="arrow"
             d="M 11.500037,31.436501 C 11.940474,20.09759 22.043105,11.32322 32.158766,21.979434 L 37.068811,17.246167 C 37.068811,17.246167 37.088388,32 37.088388,32 L 22.160133,31.978069 C 22.160133,31.978069 26.997745,27.140456 26.997745,27.140456 C 18.528582,18.264221 13.291696,25.230495 11.500037,31.436501 z"
             style="fill:#404040;"/>
          </a>
         </g>
        </svg>
</svg>
