<?xml version="1.0" encoding="UTF-8" standalone="no"?>
<!DOCTYPE svg PUBLIC "-//W3C//DTD SVG 1.1//EN"
 "http://www.w3.org/Graphics/SVG/1.1/DTD/svg11.dtd">
<!-- Generated by graphviz version 2.38.0 (20140413.2041)
 -->
<!-- Title: WindowTitleBar.hpp Pages: 1 -->
<!--zoomable 330 -->
<svg id="main" version="1.1" xmlns="http://www.w3.org/2000/svg" xmlns:xlink="http://www.w3.org/1999/xlink" xml:space="preserve" onload="init(evt)">
<style type="text/css"><![CDATA[
.edge:hover path { stroke: red; }
.edge:hover polygon { stroke: red; fill: red; }
]]></style>
<script type="text/javascript"><![CDATA[
var edges = document.getElementsByTagName('g');
if (edges && edges.length) {
  for (var i=0;i<edges.length;i++) {
    if (edges[i].id.substr(0,4)=='edge') {
      edges[i].setAttribute('class','edge');
    }
  }
}
]]></script>
        <defs>
                <circle id="rim" cx="0" cy="0" r="7"/>
                <circle id="rim2" cx="0" cy="0" r="3.5"/>
                <g id="zoomPlus">
                        <use xlink:href="#rim" fill="#404040">
                                <set attributeName="fill" to="#808080" begin="zoomplus.mouseover" end="zoomplus.mouseout"/>
                        </use>
                        <path d="M-4,0h8M0,-4v8" fill="none" stroke="white" stroke-width="1.5" pointer-events="none"/>
                </g>
                <g id="zoomMin">
                        <use xlink:href="#rim" fill="#404040">
                                <set attributeName="fill" to="#808080" begin="zoomminus.mouseover" end="zoomminus.mouseout"/>
                        </use>
                        <path d="M-4,0h8" fill="none" stroke="white" stroke-width="1.5" pointer-events="none"/>
                </g>
                <g id="dirArrow">
                        <path fill="none" stroke="white" stroke-width="1.5" d="M0,-3.0v7 M-2.5,-0.5L0,-3.0L2.5,-0.5"/>
                </g>
               <g id="resetDef">
                       <use xlink:href="#rim2" fill="#404040">
                               <set attributeName="fill" to="#808080" begin="reset.mouseover" end="reset.mouseout"/>
                       </use>
               </g>
        </defs>

<script type="text/javascript">
var viewWidth = 3798;
var viewHeight = 330;
var sectionId = 'dynsection-0';
</script>
<script xlink:href="../../svgpan.js"/>
<svg id="graph" class="graph">
<g id="viewport">
<title>WindowTitleBar.hpp</title>
<!-- Node1 -->
<g id="node1" class="node"><title>Node1</title>
<polygon fill="#bfbfbf" stroke="black" points="378,-302.5 378,-321.5 482,-321.5 482,-302.5 378,-302.5"/>
<text text-anchor="middle" x="430" y="-309.5" font-family="Helvetica,sans-Serif" font-size="10.00">WindowTitleBar.hpp</text>
</g>
<!-- Node2 -->
<g id="node2" class="node"><title>Node2</title>
<polygon fill="none" stroke="#bfbfbf" points="130.5,-0.5 130.5,-19.5 193.5,-19.5 193.5,-0.5 130.5,-0.5"/>
<text text-anchor="middle" x="162" y="-7.5" font-family="Helvetica,sans-Serif" font-size="10.00">QtWidgets</text>
</g>
<!-- Node1&#45;&gt;Node2 -->
<g id="edge1" class="edge"><title>Node1&#45;&gt;Node2</title>
<path fill="none" stroke="midnightblue" d="M377.703,-308.599C263.108,-301.91 0,-278.153 0,-201 0,-201 0,-201 0,-143 0,-97.4905 19.3409,-85.4933 54,-56 73.1835,-39.6757 99.1239,-28.6074 120.774,-21.5335"/>
<polygon fill="midnightblue" stroke="midnightblue" points="121.862,-24.8606 130.379,-18.5598 119.791,-18.1737 121.862,-24.8606"/>
</g>
<!-- Node3 -->
<g id="node3" class="node"><title>Node3</title>
<g id="a_node3"><a xlink:href="../../d3/dfe/a00025.php" target="_top" xlink:title="WindowButton.hpp">
<polygon fill="none" stroke="black" points="380.5,-246.5 380.5,-265.5 479.5,-265.5 479.5,-246.5 380.5,-246.5"/>
<text text-anchor="middle" x="430" y="-253.5" font-family="Helvetica,sans-Serif" font-size="10.00">WindowButton.hpp</text>
</a>
</g>
</g>
<!-- Node1&#45;&gt;Node3 -->
<g id="edge2" class="edge"><title>Node1&#45;&gt;Node3</title>
<path fill="none" stroke="midnightblue" d="M430,-302.083C430,-295.006 430,-284.861 430,-275.986"/>
<polygon fill="midnightblue" stroke="midnightblue" points="433.5,-275.751 430,-265.751 426.5,-275.751 433.5,-275.751"/>
</g>
<!-- Node4 -->
<g id="node4" class="node"><title>Node4</title>
<polygon fill="none" stroke="#bfbfbf" points="1932.5,-134.5 1932.5,-153.5 2009.5,-153.5 2009.5,-134.5 1932.5,-134.5"/>
<text text-anchor="middle" x="1971" y="-141.5" font-family="Helvetica,sans-Serif" font-size="10.00">C++/C++.hpp</text>
</g>
<!-- Node1&#45;&gt;Node4 -->
<g id="edge65" class="edge"><title>Node1&#45;&gt;Node4</title>
<path fill="none" stroke="midnightblue" d="M482.079,-306.633C636.009,-293.597 1102.23,-253.176 1488,-210 1678.93,-188.63 1729.41,-184.95 1922.41,-154.186"/>
<polygon fill="midnightblue" stroke="midnightblue" points="1922.98,-157.639 1932.3,-152.605 1921.88,-150.727 1922.98,-157.639"/>
</g>
<!-- Node3&#45;&gt;Node2 -->
<g id="edge3" class="edge"><title>Node3&#45;&gt;Node2</title>
<path fill="none" stroke="midnightblue" d="M380.498,-249.002C288.368,-236.711 96.344,-205.414 57,-154 21.2396,-107.269 97.3346,-50.6437 138.248,-24.9192"/>
<polygon fill="midnightblue" stroke="midnightblue" points="140.172,-27.8449 146.864,-19.6305 136.51,-21.8792 140.172,-27.8449"/>
</g>
<!-- Node3&#45;&gt;Node4 -->
<g id="edge4" class="edge"><title>Node3&#45;&gt;Node4</title>
<path fill="none" stroke="midnightblue" d="M479.542,-253.839C667.117,-248.983 1351.59,-227.09 1922.25,-154.087"/>
<polygon fill="midnightblue" stroke="midnightblue" points="1922.86,-157.538 1932.33,-152.791 1921.97,-150.595 1922.86,-157.538"/>
</g>
<!-- Node5 -->
<g id="node5" class="node"><title>Node5</title>
<g id="a_node5"><a xlink:href="../../d1/d2b/a00018.php" target="_top" xlink:title="QtDefines.hpp">
<polygon fill="none" stroke="black" points="390,-190.5 390,-209.5 470,-209.5 470,-190.5 390,-190.5"/>
<text text-anchor="middle" x="430" y="-197.5" font-family="Helvetica,sans-Serif" font-size="10.00">QtDefines.hpp</text>
</a>
</g>
</g>
<!-- Node3&#45;&gt;Node5 -->
<g id="edge5" class="edge"><title>Node3&#45;&gt;Node5</title>
<path fill="none" stroke="midnightblue" d="M430,-246.083C430,-239.006 430,-228.861 430,-219.986"/>
<polygon fill="midnightblue" stroke="midnightblue" points="433.5,-219.751 430,-209.751 426.5,-219.751 433.5,-219.751"/>
</g>
<!-- Node5&#45;&gt;Node2 -->
<g id="edge6" class="edge"><title>Node5&#45;&gt;Node2</title>
<path fill="none" stroke="midnightblue" d="M424.702,-190.224C407.54,-162.056 353.018,-74.6792 326,-56 289.308,-30.6326 238.802,-19.5338 203.569,-14.6973"/>
<polygon fill="midnightblue" stroke="midnightblue" points="203.969,-11.2201 193.609,-13.4404 203.092,-18.165 203.969,-11.2201"/>
</g>
<!-- Node5&#45;&gt;Node4 -->
<g id="edge64" class="edge"><title>Node5&#45;&gt;Node4</title>
<path fill="none" stroke="midnightblue" d="M470.175,-198.655C675.528,-196.763 1610.06,-186.543 1922.39,-153.976"/>
<polygon fill="midnightblue" stroke="midnightblue" points="1922.78,-157.455 1932.35,-152.907 1922.03,-150.495 1922.78,-157.455"/>
</g>
<!-- Node6 -->
<g id="node6" class="node"><title>Node6</title>
<g id="a_node6"><a xlink:href="../../d3/d52/a00023.php" target="_top" xlink:title="Widget.hpp">
<polygon fill="none" stroke="black" points="66,-134.5 66,-153.5 132,-153.5 132,-134.5 66,-134.5"/>
<text text-anchor="middle" x="99" y="-141.5" font-family="Helvetica,sans-Serif" font-size="10.00">Widget.hpp</text>
</a>
</g>
</g>
<!-- Node5&#45;&gt;Node6 -->
<g id="edge7" class="edge"><title>Node5&#45;&gt;Node6</title>
<path fill="none" stroke="midnightblue" d="M389.671,-193.456C335.615,-185.863 236.455,-171.371 142.401,-154.179"/>
<polygon fill="midnightblue" stroke="midnightblue" points="142.905,-150.713 132.436,-152.343 141.637,-157.597 142.905,-150.713"/>
</g>
<!-- Node7 -->
<g id="node7" class="node"><title>Node7</title>
<g id="a_node7"><a xlink:href="../../d2/de7/a00014.php" target="_top" xlink:title="DrawScene.hpp">
<polygon fill="none" stroke="black" points="423,-134.5 423,-153.5 509,-153.5 509,-134.5 423,-134.5"/>
<text text-anchor="middle" x="466" y="-141.5" font-family="Helvetica,sans-Serif" font-size="10.00">DrawScene.hpp</text>
</a>
</g>
</g>
<!-- Node5&#45;&gt;Node7 -->
<g id="edge9" class="edge"><title>Node5&#45;&gt;Node7</title>
<path fill="none" stroke="midnightblue" d="M435.945,-190.083C440.977,-182.534 448.337,-171.495 454.513,-162.23"/>
<polygon fill="midnightblue" stroke="midnightblue" points="457.531,-164.013 460.166,-153.751 451.707,-160.13 457.531,-164.013"/>
</g>
<!-- Node8 -->
<g id="node8" class="node"><title>Node8</title>
<g id="a_node8"><a xlink:href="../../db/db2/a00020.php" target="_top" xlink:title="Scene.hpp">
<polygon fill="none" stroke="black" points="374.5,-67.5 374.5,-86.5 437.5,-86.5 437.5,-67.5 374.5,-67.5"/>
<text text-anchor="middle" x="406" y="-74.5" font-family="Helvetica,sans-Serif" font-size="10.00">Scene.hpp</text>
</a>
</g>
</g>
<!-- Node5&#45;&gt;Node8 -->
<g id="edge19" class="edge"><title>Node5&#45;&gt;Node8</title>
<path fill="none" stroke="midnightblue" d="M426.177,-190.22C422.453,-181.281 416.937,-166.937 414,-154 409.646,-134.823 407.652,-112.376 406.745,-96.8735"/>
<polygon fill="midnightblue" stroke="midnightblue" points="410.224,-96.3596 406.242,-86.5417 403.232,-96.7001 410.224,-96.3596"/>
</g>
<!-- Node10 -->
<g id="node10" class="node"><title>Node10</title>
<g id="a_node10"><a xlink:href="../../d7/d7a/a00016.php" target="_top" xlink:title="GraphScene.hpp">
<polygon fill="none" stroke="black" points="527.5,-134.5 527.5,-153.5 616.5,-153.5 616.5,-134.5 527.5,-134.5"/>
<text text-anchor="middle" x="572" y="-141.5" font-family="Helvetica,sans-Serif" font-size="10.00">GraphScene.hpp</text>
</a>
</g>
</g>
<!-- Node5&#45;&gt;Node10 -->
<g id="edge13" class="edge"><title>Node5&#45;&gt;Node10</title>
<path fill="none" stroke="midnightblue" d="M452.5,-190.444C476.077,-181.478 513.322,-167.314 539.964,-157.183"/>
<polygon fill="midnightblue" stroke="midnightblue" points="541.502,-160.342 549.605,-153.516 539.014,-153.8 541.502,-160.342"/>
</g>
<!-- Node15 -->
<g id="node15" class="node"><title>Node15</title>
<g id="a_node15"><a xlink:href="../../de/d11/a00021.php" target="_top" xlink:title="Spacers.hpp">
<polygon fill="none" stroke="black" points="150.5,-134.5 150.5,-153.5 221.5,-153.5 221.5,-134.5 150.5,-134.5"/>
<text text-anchor="middle" x="186" y="-141.5" font-family="Helvetica,sans-Serif" font-size="10.00">Spacers.hpp</text>
</a>
</g>
</g>
<!-- Node5&#45;&gt;Node15 -->
<g id="edge20" class="edge"><title>Node5&#45;&gt;Node15</title>
<path fill="none" stroke="midnightblue" d="M391.337,-190.444C347.987,-180.85 277.746,-165.304 231.711,-155.116"/>
<polygon fill="midnightblue" stroke="midnightblue" points="232.223,-151.645 221.703,-152.902 230.711,-158.48 232.223,-151.645"/>
</g>
<!-- Node16 -->
<g id="node16" class="node"><title>Node16</title>
<g id="a_node16"><a xlink:href="../../dd/da2/a00019.php" target="_top" xlink:title="QtFunctions.hpp">
<polygon fill="none" stroke="black" points="239.5,-134.5 239.5,-153.5 328.5,-153.5 328.5,-134.5 239.5,-134.5"/>
<text text-anchor="middle" x="284" y="-141.5" font-family="Helvetica,sans-Serif" font-size="10.00">QtFunctions.hpp</text>
</a>
</g>
</g>
<!-- Node5&#45;&gt;Node16 -->
<g id="edge22" class="edge"><title>Node5&#45;&gt;Node16</title>
<path fill="none" stroke="midnightblue" d="M406.866,-190.444C382.518,-181.438 343.993,-167.189 316.577,-157.049"/>
<polygon fill="midnightblue" stroke="midnightblue" points="317.619,-153.703 307.026,-153.516 315.191,-160.268 317.619,-153.703"/>
</g>
<!-- Node18 -->
<g id="node18" class="node"><title>Node18</title>
<g id="a_node18"><a xlink:href="../../dd/d1b/a00015.php" target="_top" xlink:title="Font.hpp">
<polygon fill="none" stroke="red" points="1859.5,-134.5 1859.5,-153.5 1914.5,-153.5 1914.5,-134.5 1859.5,-134.5"/>
<text text-anchor="middle" x="1887" y="-141.5" font-family="Helvetica,sans-Serif" font-size="10.00">Font.hpp</text>
</a>
</g>
</g>
<!-- Node5&#45;&gt;Node18 -->
<g id="edge25" class="edge"><title>Node5&#45;&gt;Node18</title>
<path fill="none" stroke="midnightblue" d="M470.332,-197.413C680.231,-189.421 1644.99,-153.667 1849.06,-146.322"/>
<polygon fill="midnightblue" stroke="midnightblue" points="1849.4,-149.811 1859.27,-145.955 1849.15,-142.816 1849.4,-149.811"/>
</g>
<!-- Node6&#45;&gt;Node2 -->
<g id="edge8" class="edge"><title>Node6&#45;&gt;Node2</title>
<path fill="none" stroke="midnightblue" d="M103.134,-134.339C113.325,-112.986 139.818,-57.477 153.518,-28.7713"/>
<polygon fill="midnightblue" stroke="midnightblue" points="156.784,-30.0536 157.933,-19.5212 150.467,-27.0384 156.784,-30.0536"/>
</g>
<!-- Node7&#45;&gt;Node8 -->
<g id="edge10" class="edge"><title>Node7&#45;&gt;Node8</title>
<path fill="none" stroke="midnightblue" d="M457.908,-134.234C448.462,-124 432.644,-106.864 420.947,-94.1924"/>
<polygon fill="midnightblue" stroke="midnightblue" points="423.318,-91.6014 413.964,-86.6273 418.175,-96.3494 423.318,-91.6014"/>
</g>
<!-- Node8&#45;&gt;Node2 -->
<g id="edge11" class="edge"><title>Node8&#45;&gt;Node2</title>
<path fill="none" stroke="midnightblue" d="M388.387,-67.4214C379.944,-63.5484 369.599,-59.1469 360,-56 307.152,-38.6742 244.243,-25.6125 203.744,-18.1395"/>
<polygon fill="midnightblue" stroke="midnightblue" points="204.163,-14.6585 193.699,-16.3159 202.913,-21.5459 204.163,-14.6585"/>
</g>
<!-- Node9 -->
<g id="node9" class="node"><title>Node9</title>
<polygon fill="none" stroke="#bfbfbf" points="2075,-0.5 2075,-19.5 2129,-19.5 2129,-0.5 2075,-0.5"/>
<text text-anchor="middle" x="2102" y="-7.5" font-family="Helvetica,sans-Serif" font-size="10.00">iostream</text>
</g>
<!-- Node8&#45;&gt;Node9 -->
<g id="edge12" class="edge"><title>Node8&#45;&gt;Node9</title>
<path fill="none" stroke="midnightblue" d="M419.853,-67.3972C427.545,-63.1048 437.462,-58.3393 447,-56 608.701,-16.341 1833.39,-11.6085 2064.46,-11.0674"/>
<polygon fill="midnightblue" stroke="midnightblue" points="2064.71,-14.567 2074.7,-11.0447 2064.69,-7.56697 2064.71,-14.567"/>
</g>
<!-- Node10&#45;&gt;Node8 -->
<g id="edge18" class="edge"><title>Node10&#45;&gt;Node8</title>
<path fill="none" stroke="midnightblue" d="M545.829,-134.5C520.317,-125.999 480.57,-112.181 447,-98 442.021,-95.8966 436.782,-93.4932 431.777,-91.0993"/>
<polygon fill="midnightblue" stroke="midnightblue" points="433.088,-87.8442 422.568,-86.5888 430.009,-94.1306 433.088,-87.8442"/>
</g>
<!-- Node11 -->
<g id="node11" class="node"><title>Node11</title>
<polygon fill="none" stroke="#bfbfbf" points="638.5,-67.5 638.5,-86.5 673.5,-86.5 673.5,-67.5 638.5,-67.5"/>
<text text-anchor="middle" x="656" y="-74.5" font-family="Helvetica,sans-Serif" font-size="10.00">map</text>
</g>
<!-- Node10&#45;&gt;Node11 -->
<g id="edge14" class="edge"><title>Node10&#45;&gt;Node11</title>
<path fill="none" stroke="midnightblue" d="M583.329,-134.234C597.057,-123.611 620.399,-105.549 636.92,-92.7642"/>
<polygon fill="midnightblue" stroke="midnightblue" points="639.084,-95.5152 644.851,-86.6273 634.8,-89.9791 639.084,-95.5152"/>
</g>
<!-- Node12 -->
<g id="node12" class="node"><title>Node12</title>
<polygon fill="none" stroke="#bfbfbf" points="456,-67.5 456,-86.5 500,-86.5 500,-67.5 456,-67.5"/>
<text text-anchor="middle" x="478" y="-74.5" font-family="Helvetica,sans-Serif" font-size="10.00">vector</text>
</g>
<!-- Node10&#45;&gt;Node12 -->
<g id="edge15" class="edge"><title>Node10&#45;&gt;Node12</title>
<path fill="none" stroke="midnightblue" d="M559.323,-134.234C543.819,-123.513 517.359,-105.216 498.844,-92.4137"/>
<polygon fill="midnightblue" stroke="midnightblue" points="500.692,-89.4361 490.476,-86.6273 496.711,-95.1937 500.692,-89.4361"/>
</g>
<!-- Node13 -->
<g id="node13" class="node"><title>Node13</title>
<polygon fill="none" stroke="#bfbfbf" points="518,-67.5 518,-86.5 558,-86.5 558,-67.5 518,-67.5"/>
<text text-anchor="middle" x="538" y="-74.5" font-family="Helvetica,sans-Serif" font-size="10.00">utility</text>
</g>
<!-- Node10&#45;&gt;Node13 -->
<g id="edge16" class="edge"><title>Node10&#45;&gt;Node13</title>
<path fill="none" stroke="midnightblue" d="M567.415,-134.234C562.266,-124.39 553.776,-108.16 547.237,-95.6594"/>
<polygon fill="midnightblue" stroke="midnightblue" points="550.249,-93.866 542.513,-86.6273 544.046,-97.1106 550.249,-93.866"/>
</g>
<!-- Node14 -->
<g id="node14" class="node"><title>Node14</title>
<polygon fill="none" stroke="#bfbfbf" points="576,-67.5 576,-86.5 620,-86.5 620,-67.5 576,-67.5"/>
<text text-anchor="middle" x="598" y="-74.5" font-family="Helvetica,sans-Serif" font-size="10.00">cmath</text>
</g>
<!-- Node10&#45;&gt;Node14 -->
<g id="edge17" class="edge"><title>Node10&#45;&gt;Node14</title>
<path fill="none" stroke="midnightblue" d="M575.506,-134.234C579.405,-124.488 585.808,-108.481 590.787,-96.0318"/>
<polygon fill="midnightblue" stroke="midnightblue" points="594.085,-97.212 594.549,-86.6273 587.585,-94.6122 594.085,-97.212"/>
</g>
<!-- Node15&#45;&gt;Node2 -->
<g id="edge21" class="edge"><title>Node15&#45;&gt;Node2</title>
<path fill="none" stroke="midnightblue" d="M184.425,-134.339C180.577,-113.174 170.627,-58.4482 165.37,-29.5329"/>
<polygon fill="midnightblue" stroke="midnightblue" points="168.782,-28.7337 163.549,-19.5212 161.895,-29.986 168.782,-28.7337"/>
</g>
<!-- Node16&#45;&gt;Node2 -->
<g id="edge23" class="edge"><title>Node16&#45;&gt;Node2</title>
<path fill="none" stroke="midnightblue" d="M268.293,-134.47C254.279,-126.346 233.754,-113.136 219,-98 198.38,-76.8462 180.836,-47.1993 170.858,-28.5535"/>
<polygon fill="midnightblue" stroke="midnightblue" points="173.96,-26.9325 166.237,-19.6793 167.751,-30.1654 173.96,-26.9325"/>
</g>
<!-- Node17 -->
<g id="node17" class="node"><title>Node17</title>
<polygon fill="none" stroke="#bfbfbf" points="228.5,-67.5 228.5,-86.5 317.5,-86.5 317.5,-67.5 228.5,-67.5"/>
<text text-anchor="middle" x="273" y="-74.5" font-family="Helvetica,sans-Serif" font-size="10.00">C++/defines.hpp</text>
</g>
<!-- Node16&#45;&gt;Node17 -->
<g id="edge24" class="edge"><title>Node16&#45;&gt;Node17</title>
<path fill="none" stroke="midnightblue" d="M282.516,-134.234C280.9,-124.683 278.266,-109.118 276.179,-96.7829"/>
<polygon fill="midnightblue" stroke="midnightblue" points="279.58,-95.9031 274.46,-86.6273 272.678,-97.0711 279.58,-95.9031"/>
</g>
<!-- Node18&#45;&gt;Node5 -->
<g id="edge26" class="edge"><title>Node18&#45;&gt;Node5</title>
<path fill="none" stroke="midnightblue" d="M1859.48,-146.097C1683.21,-152.854 713.646,-188.795 480.424,-197.228"/>
<polygon fill="midnightblue" stroke="midnightblue" points="480.065,-193.739 470.198,-197.597 480.317,-200.734 480.065,-193.739"/>
</g>
<!-- Node18&#45;&gt;Node9 -->
<g id="edge48" class="edge"><title>Node18&#45;&gt;Node9</title>
<path fill="none" stroke="midnightblue" d="M1914.76,-135.557C1917.86,-134.932 1920.98,-134.391 1924,-134 1975.14,-127.366 3743.89,-134.814 3780,-98 3793.07,-84.6733 3793.02,-69.3751 3780,-56 3750.39,-25.5871 2384.23,-13.255 2139.37,-11.2872"/>
<polygon fill="midnightblue" stroke="midnightblue" points="2139.23,-7.78604 2129.2,-11.2063 2139.17,-14.7858 2139.23,-7.78604"/>
</g>
<!-- Node18&#45;&gt;Node11 -->
<g id="edge62" class="edge"><title>Node18&#45;&gt;Node11</title>
<path fill="none" stroke="midnightblue" d="M1859.41,-142.974C1690.17,-142.679 796.02,-139.17 682,-98 678.575,-96.7634 675.239,-94.8969 672.162,-92.7924"/>
<polygon fill="midnightblue" stroke="midnightblue" points="674.319,-90.0358 664.312,-86.5557 669.964,-95.5167 674.319,-90.0358"/>
</g>
<!-- Node18&#45;&gt;Node12 -->
<g id="edge52" class="edge"><title>Node18&#45;&gt;Node12</title>
<path fill="none" stroke="midnightblue" d="M1859.44,-142.983C1676.64,-142.755 642.229,-139.622 509,-98 504.736,-96.6678 500.494,-94.5769 496.579,-92.2396"/>
<polygon fill="midnightblue" stroke="midnightblue" points="498.429,-89.2655 488.18,-86.5796 494.517,-95.0705 498.429,-89.2655"/>
</g>
<!-- Node18&#45;&gt;Node13 -->
<g id="edge28" class="edge"><title>Node18&#45;&gt;Node13</title>
<path fill="none" stroke="midnightblue" d="M1859.45,-142.989C1681.14,-142.796 693.696,-139.833 567,-98 563.062,-96.6997 559.175,-94.6848 555.589,-92.4253"/>
<polygon fill="midnightblue" stroke="midnightblue" points="557.6,-89.5607 547.436,-86.5721 553.518,-95.2471 557.6,-89.5607"/>
</g>
<!-- Node18&#45;&gt;Node14 -->
<g id="edge63" class="edge"><title>Node18&#45;&gt;Node14</title>
<path fill="none" stroke="midnightblue" d="M1859.37,-142.891C1685.86,-142.087 749.994,-136.007 629,-98 624.738,-96.6612 620.497,-94.5673 616.582,-92.229"/>
<polygon fill="midnightblue" stroke="midnightblue" points="618.432,-89.255 608.183,-86.5702 614.521,-95.0604 618.432,-89.255"/>
</g>
<!-- Node19 -->
<g id="node19" class="node"><title>Node19</title>
<polygon fill="none" stroke="#bfbfbf" points="2034,-67.5 2034,-86.5 2074,-86.5 2074,-67.5 2034,-67.5"/>
<text text-anchor="middle" x="2054" y="-74.5" font-family="Helvetica,sans-Serif" font-size="10.00">limits</text>
</g>
<!-- Node18&#45;&gt;Node19 -->
<g id="edge27" class="edge"><title>Node18&#45;&gt;Node19</title>
<path fill="none" stroke="midnightblue" d="M1914.65,-135.012C1948.98,-124.918 2005.41,-107.695 2025,-98 2028.28,-96.3777 2031.61,-94.4217 2034.79,-92.3765"/>
<polygon fill="midnightblue" stroke="midnightblue" points="2036.94,-95.1449 2043.17,-86.5792 2032.96,-89.3869 2036.94,-95.1449"/>
</g>
<!-- Node20 -->
<g id="node20" class="node"><title>Node20</title>
<polygon fill="none" stroke="#bfbfbf" points="2092,-67.5 2092,-86.5 2144,-86.5 2144,-67.5 2092,-67.5"/>
<text text-anchor="middle" x="2118" y="-74.5" font-family="Helvetica,sans-Serif" font-size="10.00">memory</text>
</g>
<!-- Node18&#45;&gt;Node20 -->
<g id="edge29" class="edge"><title>Node18&#45;&gt;Node20</title>
<path fill="none" stroke="midnightblue" d="M1914.87,-136.171C1917.95,-135.431 1921.04,-134.695 1924,-134 1994.54,-117.437 2015.47,-124.262 2083,-98 2087.45,-96.2695 2092.01,-94.0411 2096.31,-91.703"/>
<polygon fill="midnightblue" stroke="midnightblue" points="2098.28,-94.611 2105.16,-86.5601 2094.76,-88.5589 2098.28,-94.611"/>
</g>
<!-- Node21 -->
<g id="node21" class="node"><title>Node21</title>
<polygon fill="none" stroke="#bfbfbf" points="2162.5,-67.5 2162.5,-86.5 2209.5,-86.5 2209.5,-67.5 2162.5,-67.5"/>
<text text-anchor="middle" x="2186" y="-74.5" font-family="Helvetica,sans-Serif" font-size="10.00">iterator</text>
</g>
<!-- Node18&#45;&gt;Node21 -->
<g id="edge30" class="edge"><title>Node18&#45;&gt;Node21</title>
<path fill="none" stroke="midnightblue" d="M1914.83,-135.971C1917.91,-135.268 1921.02,-134.596 1924,-134 2025.03,-113.807 2056.23,-133.366 2153,-98 2157.25,-96.4477 2161.55,-94.3236 2165.58,-92.0371"/>
<polygon fill="midnightblue" stroke="midnightblue" points="2167.69,-94.8449 2174.35,-86.5998 2164.01,-88.8961 2167.69,-94.8449"/>
</g>
<!-- Node22 -->
<g id="node22" class="node"><title>Node22</title>
<polygon fill="none" stroke="#bfbfbf" points="2228,-67.5 2228,-86.5 2266,-86.5 2266,-67.5 2228,-67.5"/>
<text text-anchor="middle" x="2247" y="-74.5" font-family="Helvetica,sans-Serif" font-size="10.00">tuple</text>
</g>
<!-- Node18&#45;&gt;Node22 -->
<g id="edge31" class="edge"><title>Node18&#45;&gt;Node22</title>
<path fill="none" stroke="midnightblue" d="M1914.81,-135.867C1917.9,-135.184 1921.01,-134.544 1924,-134 2053.95,-110.35 2095.89,-145.867 2219,-98 2222.61,-96.5969 2226.18,-94.6223 2229.51,-92.4555"/>
<polygon fill="midnightblue" stroke="midnightblue" points="2231.6,-95.2649 2237.6,-86.5316 2227.46,-89.618 2231.6,-95.2649"/>
</g>
<!-- Node23 -->
<g id="node23" class="node"><title>Node23</title>
<polygon fill="none" stroke="#bfbfbf" points="2284.5,-67.5 2284.5,-86.5 2313.5,-86.5 2313.5,-67.5 2284.5,-67.5"/>
<text text-anchor="middle" x="2299" y="-74.5" font-family="Helvetica,sans-Serif" font-size="10.00">ios</text>
</g>
<!-- Node18&#45;&gt;Node23 -->
<g id="edge32" class="edge"><title>Node18&#45;&gt;Node23</title>
<path fill="none" stroke="midnightblue" d="M1914.8,-135.808C1917.89,-135.137 1921,-134.516 1924,-134 2078.55,-107.406 2130.47,-158.847 2275,-98 2277.81,-96.8162 2280.55,-95.1871 2283.1,-93.3654"/>
<polygon fill="midnightblue" stroke="midnightblue" points="2285.53,-95.8983 2290.96,-86.7981 2281.04,-90.5286 2285.53,-95.8983"/>
</g>
<!-- Node24 -->
<g id="node24" class="node"><title>Node24</title>
<polygon fill="none" stroke="#bfbfbf" points="2331.5,-56.5 2331.5,-97.5 2450.5,-97.5 2450.5,-56.5 2331.5,-56.5"/>
<text text-anchor="start" x="2339.5" y="-85.5" font-family="Helvetica,sans-Serif" font-size="10.00">/home/mathias/Bureau</text>
<text text-anchor="start" x="2339.5" y="-74.5" font-family="Helvetica,sans-Serif" font-size="10.00">/Algo/QTTests/Widgets</text>
<text text-anchor="middle" x="2391" y="-63.5" font-family="Helvetica,sans-Serif" font-size="10.00">/C++/bdd.hpp</text>
</g>
<!-- Node18&#45;&gt;Node24 -->
<g id="edge33" class="edge"><title>Node18&#45;&gt;Node24</title>
<path fill="none" stroke="midnightblue" d="M1914.79,-135.771C1917.88,-135.107 1921,-134.497 1924,-134 2096.4,-105.418 2146.24,-130.32 2321.39,-98.1183"/>
<polygon fill="midnightblue" stroke="midnightblue" points="2322.27,-101.513 2331.46,-96.23 2320.98,-94.6332 2322.27,-101.513"/>
</g>
<!-- Node25 -->
<g id="node25" class="node"><title>Node25</title>
<polygon fill="none" stroke="#bfbfbf" points="2468.5,-67.5 2468.5,-86.5 2557.5,-86.5 2557.5,-67.5 2468.5,-67.5"/>
<text text-anchor="middle" x="2513" y="-74.5" font-family="Helvetica,sans-Serif" font-size="10.00">cppconn/driver.h</text>
</g>
<!-- Node18&#45;&gt;Node25 -->
<g id="edge34" class="edge"><title>Node18&#45;&gt;Node25</title>
<path fill="none" stroke="midnightblue" d="M1914.78,-135.702C1917.87,-135.05 1920.99,-134.463 1924,-134 2159.98,-97.6508 2226.68,-148.694 2460,-98 2468.24,-96.2088 2476.91,-93.3724 2484.8,-90.3923"/>
<polygon fill="midnightblue" stroke="midnightblue" points="2486.29,-93.5673 2494.28,-86.6087 2483.69,-87.0663 2486.29,-93.5673"/>
</g>
<!-- Node26 -->
<g id="node26" class="node"><title>Node26</title>
<polygon fill="none" stroke="#bfbfbf" points="2575.5,-67.5 2575.5,-86.5 2682.5,-86.5 2682.5,-67.5 2575.5,-67.5"/>
<text text-anchor="middle" x="2629" y="-74.5" font-family="Helvetica,sans-Serif" font-size="10.00">cppconn/exception.h</text>
</g>
<!-- Node18&#45;&gt;Node26 -->
<g id="edge35" class="edge"><title>Node18&#45;&gt;Node26</title>
<path fill="none" stroke="midnightblue" d="M1914.77,-135.668C1917.87,-135.023 1920.99,-134.446 1924,-134 2207.13,-92 2285.61,-150.365 2567,-98 2577.15,-96.1111 2587.95,-93.0261 2597.64,-89.8383"/>
<polygon fill="midnightblue" stroke="midnightblue" points="2598.94,-93.0897 2607.26,-86.5248 2596.66,-86.471 2598.94,-93.0897"/>
</g>
<!-- Node27 -->
<g id="node27" class="node"><title>Node27</title>
<polygon fill="none" stroke="#bfbfbf" points="2700,-67.5 2700,-86.5 2802,-86.5 2802,-67.5 2700,-67.5"/>
<text text-anchor="middle" x="2751" y="-74.5" font-family="Helvetica,sans-Serif" font-size="10.00">cppconn/resultset.h</text>
</g>
<!-- Node18&#45;&gt;Node27 -->
<g id="edge36" class="edge"><title>Node18&#45;&gt;Node27</title>
<path fill="none" stroke="midnightblue" d="M1914.77,-135.641C1917.87,-135 1920.99,-134.433 1924,-134 2262.23,-85.3951 2356.24,-161.472 2692,-98 2701.6,-96.1853 2711.77,-93.1613 2720.91,-90.0072"/>
<polygon fill="midnightblue" stroke="midnightblue" points="2722.15,-93.2828 2730.36,-86.5847 2719.76,-86.7016 2722.15,-93.2828"/>
</g>
<!-- Node28 -->
<g id="node28" class="node"><title>Node28</title>
<polygon fill="none" stroke="#bfbfbf" points="2820,-67.5 2820,-86.5 2928,-86.5 2928,-67.5 2820,-67.5"/>
<text text-anchor="middle" x="2874" y="-74.5" font-family="Helvetica,sans-Serif" font-size="10.00">cppconn/statement.h</text>
</g>
<!-- Node18&#45;&gt;Node28 -->
<g id="edge37" class="edge"><title>Node18&#45;&gt;Node28</title>
<path fill="none" stroke="midnightblue" d="M1914.77,-135.621C1917.86,-134.985 1920.99,-134.423 1924,-134 2314.71,-79.1052 2422.41,-166.298 2811,-98 2821.51,-96.1526 2832.7,-93.008 2842.69,-89.7525"/>
<polygon fill="midnightblue" stroke="midnightblue" points="2843.87,-93.047 2852.2,-86.5039 2841.61,-86.4223 2843.87,-93.047"/>
</g>
<!-- Node29 -->
<g id="node29" class="node"><title>Node29</title>
<polygon fill="none" stroke="#bfbfbf" points="2946.5,-67.5 2946.5,-86.5 3005.5,-86.5 3005.5,-67.5 2946.5,-67.5"/>
<text text-anchor="middle" x="2976" y="-74.5" font-family="Helvetica,sans-Serif" font-size="10.00">functional</text>
</g>
<!-- Node18&#45;&gt;Node29 -->
<g id="edge38" class="edge"><title>Node18&#45;&gt;Node29</title>
<path fill="none" stroke="midnightblue" d="M1914.76,-135.606C1917.86,-134.972 1920.99,-134.416 1924,-134 2147.14,-103.222 2719.01,-154.751 2937,-98 2942.71,-96.5143 2948.53,-94.0951 2953.88,-91.4439"/>
<polygon fill="midnightblue" stroke="midnightblue" points="2955.75,-94.4151 2962.87,-86.5725 2952.41,-88.2611 2955.75,-94.4151"/>
</g>
<!-- Node30 -->
<g id="node30" class="node"><title>Node30</title>
<polygon fill="none" stroke="#bfbfbf" points="3023.5,-56.5 3023.5,-97.5 3142.5,-97.5 3142.5,-56.5 3023.5,-56.5"/>
<text text-anchor="start" x="3031.5" y="-85.5" font-family="Helvetica,sans-Serif" font-size="10.00">/home/mathias/Bureau</text>
<text text-anchor="start" x="3031.5" y="-74.5" font-family="Helvetica,sans-Serif" font-size="10.00">/Algo/QTTests/Widgets</text>
<text text-anchor="middle" x="3083" y="-63.5" font-family="Helvetica,sans-Serif" font-size="10.00">/C++/errors.hpp</text>
</g>
<!-- Node18&#45;&gt;Node30 -->
<g id="edge39" class="edge"><title>Node18&#45;&gt;Node30</title>
<path fill="none" stroke="midnightblue" d="M1914.76,-135.598C1917.86,-134.966 1920.99,-134.412 1924,-134 2401.4,-68.7688 2534.2,-173.612 3013.54,-98.0142"/>
<polygon fill="midnightblue" stroke="midnightblue" points="3014.17,-101.459 3023.49,-96.4274 3013.07,-94.5464 3014.17,-101.459"/>
</g>
<!-- Node31 -->
<g id="node31" class="node"><title>Node31</title>
<polygon fill="none" stroke="#bfbfbf" points="3160.5,-56.5 3160.5,-97.5 3279.5,-97.5 3279.5,-56.5 3160.5,-56.5"/>
<text text-anchor="start" x="3168.5" y="-85.5" font-family="Helvetica,sans-Serif" font-size="10.00">/home/mathias/Bureau</text>
<text text-anchor="start" x="3168.5" y="-74.5" font-family="Helvetica,sans-Serif" font-size="10.00">/Algo/QTTests/Widgets</text>
<text text-anchor="middle" x="3220" y="-63.5" font-family="Helvetica,sans-Serif" font-size="10.00">/C++/console.hpp</text>
</g>
<!-- Node18&#45;&gt;Node31 -->
<g id="edge40" class="edge"><title>Node18&#45;&gt;Node31</title>
<path fill="none" stroke="midnightblue" d="M1914.76,-135.587C1917.86,-134.957 1920.99,-134.406 1924,-134 2461.82,-61.5207 2610.94,-182.249 3150.51,-98.0153"/>
<polygon fill="midnightblue" stroke="midnightblue" points="3151.16,-101.456 3160.49,-96.4402 3150.07,-94.5413 3151.16,-101.456"/>
</g>
<!-- Node32 -->
<g id="node32" class="node"><title>Node32</title>
<polygon fill="none" stroke="#bfbfbf" points="3297.5,-56.5 3297.5,-97.5 3416.5,-97.5 3416.5,-56.5 3297.5,-56.5"/>
<text text-anchor="start" x="3305.5" y="-85.5" font-family="Helvetica,sans-Serif" font-size="10.00">/home/mathias/Bureau</text>
<text text-anchor="start" x="3305.5" y="-74.5" font-family="Helvetica,sans-Serif" font-size="10.00">/Algo/QTTests/Widgets</text>
<text text-anchor="middle" x="3357" y="-63.5" font-family="Helvetica,sans-Serif" font-size="10.00">/C++/convert.hpp</text>
</g>
<!-- Node18&#45;&gt;Node32 -->
<g id="edge41" class="edge"><title>Node18&#45;&gt;Node32</title>
<path fill="none" stroke="midnightblue" d="M1914.76,-135.578C1917.86,-134.95 1920.99,-134.402 1924,-134 2522.18,-54.2809 2687.66,-190.865 3287.3,-98.0449"/>
<polygon fill="midnightblue" stroke="midnightblue" points="3288.16,-101.453 3297.5,-96.4504 3287.08,-94.537 3288.16,-101.453"/>
</g>
<!-- Node33 -->
<g id="node33" class="node"><title>Node33</title>
<polygon fill="none" stroke="#bfbfbf" points="3435,-67.5 3435,-86.5 3487,-86.5 3487,-67.5 3435,-67.5"/>
<text text-anchor="middle" x="3461" y="-74.5" font-family="Helvetica,sans-Serif" font-size="10.00">sstream</text>
</g>
<!-- Node18&#45;&gt;Node33 -->
<g id="edge42" class="edge"><title>Node18&#45;&gt;Node33</title>
<path fill="none" stroke="midnightblue" d="M1914.76,-135.571C1917.86,-134.944 1920.99,-134.398 1924,-134 2089.5,-112.146 3265.18,-142.777 3426,-98 3430.96,-96.6179 3435.97,-94.3765 3440.58,-91.8845"/>
<polygon fill="midnightblue" stroke="midnightblue" points="3442.58,-94.7639 3449.35,-86.612 3438.97,-88.7645 3442.58,-94.7639"/>
</g>
<!-- Node34 -->
<g id="node34" class="node"><title>Node34</title>
<polygon fill="none" stroke="#bfbfbf" points="3505.5,-67.5 3505.5,-86.5 3546.5,-86.5 3546.5,-67.5 3505.5,-67.5"/>
<text text-anchor="middle" x="3526" y="-74.5" font-family="Helvetica,sans-Serif" font-size="10.00">string</text>
</g>
<!-- Node18&#45;&gt;Node34 -->
<g id="edge43" class="edge"><title>Node18&#45;&gt;Node34</title>
<path fill="none" stroke="midnightblue" d="M1914.76,-135.568C1917.86,-134.941 1920.98,-134.396 1924,-134 2097.22,-111.221 3329.37,-150.54 3496,-98 3500.05,-96.7235 3504.06,-94.7199 3507.76,-92.464"/>
<polygon fill="midnightblue" stroke="midnightblue" points="3509.98,-95.1841 3516.2,-86.6068 3505.99,-89.4336 3509.98,-95.1841"/>
</g>
<!-- Node35 -->
<g id="node35" class="node"><title>Node35</title>
<polygon fill="none" stroke="#bfbfbf" points="3565,-67.5 3565,-86.5 3621,-86.5 3621,-67.5 3565,-67.5"/>
<text text-anchor="middle" x="3593" y="-74.5" font-family="Helvetica,sans-Serif" font-size="10.00">algorithm</text>
</g>
<!-- Node18&#45;&gt;Node35 -->
<g id="edge44" class="edge"><title>Node18&#45;&gt;Node35</title>
<path fill="none" stroke="midnightblue" d="M1914.76,-135.565C1917.86,-134.939 1920.98,-134.395 1924,-134 2103.84,-110.428 3380.66,-144.419 3556,-98 3561.33,-96.5879 3566.74,-94.267 3571.72,-91.6967"/>
<polygon fill="midnightblue" stroke="midnightblue" points="3573.66,-94.616 3580.61,-86.6203 3570.19,-88.536 3573.66,-94.616"/>
</g>
<!-- Node36 -->
<g id="node36" class="node"><title>Node36</title>
<polygon fill="none" stroke="#bfbfbf" points="3639.5,-67.5 3639.5,-86.5 3690.5,-86.5 3690.5,-67.5 3639.5,-67.5"/>
<text text-anchor="middle" x="3665" y="-74.5" font-family="Helvetica,sans-Serif" font-size="10.00">numeric</text>
</g>
<!-- Node18&#45;&gt;Node36 -->
<g id="edge45" class="edge"><title>Node18&#45;&gt;Node36</title>
<path fill="none" stroke="midnightblue" d="M1914.76,-135.562C1917.86,-134.937 1920.98,-134.394 1924,-134 2112,-109.449 3447.28,-148.594 3630,-98 3634.97,-96.625 3639.97,-94.3867 3644.58,-91.8953"/>
<polygon fill="midnightblue" stroke="midnightblue" points="3646.58,-94.7743 3653.35,-86.6215 3642.98,-88.7753 3646.58,-94.7743"/>
</g>
<!-- Node37 -->
<g id="node37" class="node"><title>Node37</title>
<polygon fill="none" stroke="#bfbfbf" points="3709,-67.5 3709,-86.5 3771,-86.5 3771,-67.5 3709,-67.5"/>
<text text-anchor="middle" x="3740" y="-74.5" font-family="Helvetica,sans-Serif" font-size="10.00">type_traits</text>
</g>
<!-- Node18&#45;&gt;Node37 -->
<g id="edge46" class="edge"><title>Node18&#45;&gt;Node37</title>
<path fill="none" stroke="midnightblue" d="M1914.76,-135.56C1917.86,-134.935 1920.98,-134.393 1924,-134 2119.72,-108.524 3508.38,-145.291 3700,-98 3705.84,-96.5583 3711.81,-94.1565 3717.3,-91.5081"/>
<polygon fill="midnightblue" stroke="midnightblue" points="3719.32,-94.4 3726.52,-86.6287 3716.04,-88.2131 3719.32,-94.4"/>
</g>
<!-- Node38 -->
<g id="node38" class="node"><title>Node38</title>
<polygon fill="none" stroke="#bfbfbf" points="691.5,-56.5 691.5,-97.5 810.5,-97.5 810.5,-56.5 691.5,-56.5"/>
<text text-anchor="start" x="699.5" y="-85.5" font-family="Helvetica,sans-Serif" font-size="10.00">/home/mathias/Bureau</text>
<text text-anchor="start" x="699.5" y="-74.5" font-family="Helvetica,sans-Serif" font-size="10.00">/Algo/QTTests/Widgets</text>
<text text-anchor="middle" x="751" y="-63.5" font-family="Helvetica,sans-Serif" font-size="10.00">/C++/types.hpp</text>
</g>
<!-- Node18&#45;&gt;Node38 -->
<g id="edge47" class="edge"><title>Node18&#45;&gt;Node38</title>
<path fill="none" stroke="midnightblue" d="M1859.47,-142.732C1715.63,-141.201 1048.76,-132.42 820.523,-97.7969"/>
<polygon fill="midnightblue" stroke="midnightblue" points="821.062,-94.3386 810.638,-96.2356 819.969,-101.253 821.062,-94.3386"/>
</g>
<!-- Node39 -->
<g id="node39" class="node"><title>Node39</title>
<polygon fill="none" stroke="#bfbfbf" points="828.5,-67.5 828.5,-86.5 879.5,-86.5 879.5,-67.5 828.5,-67.5"/>
<text text-anchor="middle" x="854" y="-74.5" font-family="Helvetica,sans-Serif" font-size="10.00">typeinfo</text>
</g>
<!-- Node18&#45;&gt;Node39 -->
<g id="edge49" class="edge"><title>Node18&#45;&gt;Node39</title>
<path fill="none" stroke="midnightblue" d="M1859.22,-142.526C1707.7,-139.839 984.369,-125.641 889,-98 884.051,-96.5656 879.054,-94.3021 874.445,-91.8049"/>
<polygon fill="midnightblue" stroke="midnightblue" points="876.048,-88.6847 865.672,-86.5418 872.447,-94.6875 876.048,-88.6847"/>
</g>
<!-- Node40 -->
<g id="node40" class="node"><title>Node40</title>
<polygon fill="none" stroke="#bfbfbf" points="897.5,-56.5 897.5,-97.5 1016.5,-97.5 1016.5,-56.5 897.5,-56.5"/>
<text text-anchor="start" x="905.5" y="-85.5" font-family="Helvetica,sans-Serif" font-size="10.00">/home/mathias/Bureau</text>
<text text-anchor="start" x="905.5" y="-74.5" font-family="Helvetica,sans-Serif" font-size="10.00">/Algo/QTTests/Widgets</text>
<text text-anchor="middle" x="957" y="-63.5" font-family="Helvetica,sans-Serif" font-size="10.00">/C++/files.hpp</text>
</g>
<!-- Node18&#45;&gt;Node40 -->
<g id="edge50" class="edge"><title>Node18&#45;&gt;Node40</title>
<path fill="none" stroke="midnightblue" d="M1859.49,-142.413C1733.69,-139.601 1211.92,-126.518 1026.78,-97.8409"/>
<polygon fill="midnightblue" stroke="midnightblue" points="1027.08,-94.3434 1016.64,-96.1977 1025.96,-101.253 1027.08,-94.3434"/>
</g>
<!-- Node41 -->
<g id="node41" class="node"><title>Node41</title>
<polygon fill="none" stroke="#bfbfbf" points="1035,-67.5 1035,-86.5 1085,-86.5 1085,-67.5 1035,-67.5"/>
<text text-anchor="middle" x="1060" y="-74.5" font-family="Helvetica,sans-Serif" font-size="10.00">fstream</text>
</g>
<!-- Node18&#45;&gt;Node41 -->
<g id="edge51" class="edge"><title>Node18&#45;&gt;Node41</title>
<path fill="none" stroke="midnightblue" d="M1859.49,-143.121C1737.24,-143.401 1242.73,-141.756 1095,-98 1090.06,-96.5367 1085.07,-94.2608 1080.46,-91.7608"/>
<polygon fill="midnightblue" stroke="midnightblue" points="1082.06,-88.6406 1071.68,-86.5029 1078.46,-94.6452 1082.06,-88.6406"/>
</g>
<!-- Node42 -->
<g id="node42" class="node"><title>Node42</title>
<polygon fill="none" stroke="#bfbfbf" points="1103.5,-56.5 1103.5,-97.5 1222.5,-97.5 1222.5,-56.5 1103.5,-56.5"/>
<text text-anchor="start" x="1111.5" y="-85.5" font-family="Helvetica,sans-Serif" font-size="10.00">/home/mathias/Bureau</text>
<text text-anchor="start" x="1111.5" y="-74.5" font-family="Helvetica,sans-Serif" font-size="10.00">/Algo/QTTests/Widgets</text>
<text text-anchor="middle" x="1163" y="-63.5" font-family="Helvetica,sans-Serif" font-size="10.00">/C++/time.hpp</text>
</g>
<!-- Node18&#45;&gt;Node42 -->
<g id="edge53" class="edge"><title>Node18&#45;&gt;Node42</title>
<path fill="none" stroke="midnightblue" d="M1859.29,-143.2C1769.72,-143.406 1479.96,-140.63 1232.55,-97.8715"/>
<polygon fill="midnightblue" stroke="midnightblue" points="1233.11,-94.4166 1222.65,-96.1363 1231.9,-101.311 1233.11,-94.4166"/>
</g>
<!-- Node43 -->
<g id="node43" class="node"><title>Node43</title>
<polygon fill="none" stroke="#bfbfbf" points="1240.5,-67.5 1240.5,-86.5 1281.5,-86.5 1281.5,-67.5 1240.5,-67.5"/>
<text text-anchor="middle" x="1261" y="-74.5" font-family="Helvetica,sans-Serif" font-size="10.00">ctime</text>
</g>
<!-- Node18&#45;&gt;Node43 -->
<g id="edge54" class="edge"><title>Node18&#45;&gt;Node43</title>
<path fill="none" stroke="midnightblue" d="M1859.28,-142.762C1756.58,-141.597 1398.19,-134.915 1291,-98 1287.05,-96.64 1283.12,-94.6305 1279.47,-92.4023"/>
<polygon fill="midnightblue" stroke="midnightblue" points="1281.34,-89.44 1271.12,-86.6586 1277.38,-95.2082 1281.34,-89.44"/>
</g>
<!-- Node44 -->
<g id="node44" class="node"><title>Node44</title>
<polygon fill="none" stroke="#bfbfbf" points="1300,-67.5 1300,-86.5 1344,-86.5 1344,-67.5 1300,-67.5"/>
<text text-anchor="middle" x="1322" y="-74.5" font-family="Helvetica,sans-Serif" font-size="10.00">thread</text>
</g>
<!-- Node18&#45;&gt;Node44 -->
<g id="edge55" class="edge"><title>Node18&#45;&gt;Node44</title>
<path fill="none" stroke="midnightblue" d="M1859.26,-142.43C1763.61,-140.19 1448.22,-130.456 1353,-98 1348.96,-96.6213 1344.91,-94.6028 1341.15,-92.3716"/>
<polygon fill="midnightblue" stroke="midnightblue" points="1342.78,-89.2512 1332.51,-86.6304 1338.9,-95.0809 1342.78,-89.2512"/>
</g>
<!-- Node45 -->
<g id="node45" class="node"><title>Node45</title>
<polygon fill="none" stroke="#bfbfbf" points="1362,-67.5 1362,-86.5 1406,-86.5 1406,-67.5 1362,-67.5"/>
<text text-anchor="middle" x="1384" y="-74.5" font-family="Helvetica,sans-Serif" font-size="10.00">mutex</text>
</g>
<!-- Node18&#45;&gt;Node45 -->
<g id="edge56" class="edge"><title>Node18&#45;&gt;Node45</title>
<path fill="none" stroke="midnightblue" d="M1859.23,-142.019C1771.17,-138.649 1499.04,-126.159 1416,-98 1411.74,-96.5562 1407.47,-94.4493 1403.49,-92.1385"/>
<polygon fill="midnightblue" stroke="midnightblue" points="1405.2,-89.0769 1394.9,-86.5929 1401.4,-94.9576 1405.2,-89.0769"/>
</g>
<!-- Node46 -->
<g id="node46" class="node"><title>Node46</title>
<polygon fill="none" stroke="#bfbfbf" points="1424.5,-56.5 1424.5,-97.5 1543.5,-97.5 1543.5,-56.5 1424.5,-56.5"/>
<text text-anchor="start" x="1432.5" y="-85.5" font-family="Helvetica,sans-Serif" font-size="10.00">/home/mathias/Bureau</text>
<text text-anchor="start" x="1432.5" y="-74.5" font-family="Helvetica,sans-Serif" font-size="10.00">/Algo/QTTests/Widgets</text>
<text text-anchor="middle" x="1484" y="-63.5" font-family="Helvetica,sans-Serif" font-size="10.00">/C++/pointers.hpp</text>
</g>
<!-- Node18&#45;&gt;Node46 -->
<g id="edge57" class="edge"><title>Node18&#45;&gt;Node46</title>
<path fill="none" stroke="midnightblue" d="M1859.49,-140.685C1803.65,-135.691 1672.9,-122.493 1553.72,-97.9858"/>
<polygon fill="midnightblue" stroke="midnightblue" points="1554.21,-94.5111 1543.7,-95.8921 1552.78,-101.363 1554.21,-94.5111"/>
</g>
<!-- Node47 -->
<g id="node47" class="node"><title>Node47</title>
<polygon fill="none" stroke="#bfbfbf" points="1561.5,-56.5 1561.5,-97.5 1680.5,-97.5 1680.5,-56.5 1561.5,-56.5"/>
<text text-anchor="start" x="1569.5" y="-85.5" font-family="Helvetica,sans-Serif" font-size="10.00">/home/mathias/Bureau</text>
<text text-anchor="start" x="1569.5" y="-74.5" font-family="Helvetica,sans-Serif" font-size="10.00">/Algo/QTTests/Widgets</text>
<text text-anchor="middle" x="1621" y="-63.5" font-family="Helvetica,sans-Serif" font-size="10.00">/C++/string.hpp</text>
</g>
<!-- Node18&#45;&gt;Node47 -->
<g id="edge58" class="edge"><title>Node18&#45;&gt;Node47</title>
<path fill="none" stroke="midnightblue" d="M1859.47,-137.235C1823.07,-129.498 1756.71,-115.006 1690.54,-98.0717"/>
<polygon fill="midnightblue" stroke="midnightblue" points="1691.34,-94.6633 1680.78,-95.556 1689.59,-101.442 1691.34,-94.6633"/>
</g>
<!-- Node48 -->
<g id="node48" class="node"><title>Node48</title>
<polygon fill="none" stroke="#bfbfbf" points="1699,-67.5 1699,-86.5 1741,-86.5 1741,-67.5 1699,-67.5"/>
<text text-anchor="middle" x="1720" y="-74.5" font-family="Helvetica,sans-Serif" font-size="10.00">locale</text>
</g>
<!-- Node18&#45;&gt;Node48 -->
<g id="edge59" class="edge"><title>Node18&#45;&gt;Node48</title>
<path fill="none" stroke="midnightblue" d="M1859.37,-136.078C1831.32,-128.542 1787.01,-115.228 1751,-98 1747.44,-96.2965 1743.8,-94.2542 1740.32,-92.135"/>
<polygon fill="midnightblue" stroke="midnightblue" points="1741.96,-89.0257 1731.66,-86.5252 1738.15,-94.9003 1741.96,-89.0257"/>
</g>
<!-- Node49 -->
<g id="node49" class="node"><title>Node49</title>
<polygon fill="none" stroke="#bfbfbf" points="1759.5,-56.5 1759.5,-97.5 1878.5,-97.5 1878.5,-56.5 1759.5,-56.5"/>
<text text-anchor="start" x="1767.5" y="-85.5" font-family="Helvetica,sans-Serif" font-size="10.00">/home/mathias/Bureau</text>
<text text-anchor="start" x="1767.5" y="-74.5" font-family="Helvetica,sans-Serif" font-size="10.00">/Algo/QTTests/Widgets</text>
<text text-anchor="middle" x="1819" y="-63.5" font-family="Helvetica,sans-Serif" font-size="10.00">/C++/macro.hpp</text>
</g>
<!-- Node18&#45;&gt;Node49 -->
<g id="edge60" class="edge"><title>Node18&#45;&gt;Node49</title>
<path fill="none" stroke="midnightblue" d="M1877.83,-134.234C1869.88,-126.632 1857.94,-115.221 1846.89,-104.66"/>
<polygon fill="midnightblue" stroke="midnightblue" points="1849.09,-101.922 1839.44,-97.5421 1844.25,-106.982 1849.09,-101.922"/>
</g>
<!-- Node50 -->
<g id="node50" class="node"><title>Node50</title>
<polygon fill="none" stroke="#bfbfbf" points="1896.5,-56.5 1896.5,-97.5 2015.5,-97.5 2015.5,-56.5 1896.5,-56.5"/>
<text text-anchor="start" x="1904.5" y="-85.5" font-family="Helvetica,sans-Serif" font-size="10.00">/home/mathias/Bureau</text>
<text text-anchor="start" x="1904.5" y="-74.5" font-family="Helvetica,sans-Serif" font-size="10.00">/Algo/QTTests/Widgets</text>
<text text-anchor="middle" x="1956" y="-63.5" font-family="Helvetica,sans-Serif" font-size="10.00">/C++/array.hpp</text>
</g>
<!-- Node18&#45;&gt;Node50 -->
<g id="edge61" class="edge"><title>Node18&#45;&gt;Node50</title>
<path fill="none" stroke="midnightblue" d="M1896.31,-134.234C1904.38,-126.632 1916.49,-115.221 1927.7,-104.66"/>
<polygon fill="midnightblue" stroke="midnightblue" points="1930.38,-106.947 1935.26,-97.5421 1925.58,-101.851 1930.38,-106.947"/>
</g>
</g>
</svg>
        <g id="navigator" transform="translate(0 0)" fill="#404254">
                <rect fill="#f2f5e9" fill-opacity="0.5" stroke="#606060" stroke-width=".5" x="0" y="0" width="60" height="60"/>
                <use id="zoomplus" xlink:href="#zoomPlus" x="17" y="9" onmousedown="handleZoom(evt,'in')"/>
                <use id="zoomminus" xlink:href="#zoomMin" x="42" y="9" onmousedown="handleZoom(evt,'out')"/>
                <use id="reset" xlink:href="#resetDef" x="30" y="36" onmousedown="handleReset()"/>
                <g id="arrowUp" xlink:href="#dirArrow" transform="translate(30 24)" onmousedown="handlePan(0,-1)">
                  <use xlink:href="#rim" fill="#404040">
                        <set attributeName="fill" to="#808080" begin="arrowUp.mouseover" end="arrowUp.mouseout"/>
                  </use>
                  <path fill="none" stroke="white" stroke-width="1.5" d="M0,-3.0v7 M-2.5,-0.5L0,-3.0L2.5,-0.5"/>
                </g>
                <g id="arrowRight" xlink:href="#dirArrow" transform="rotate(90) translate(36 -43)" onmousedown="handlePan(1,0)">
                  <use xlink:href="#rim" fill="#404040">
                        <set attributeName="fill" to="#808080" begin="arrowRight.mouseover" end="arrowRight.mouseout"/>
                  </use>
                  <path fill="none" stroke="white" stroke-width="1.5" d="M0,-3.0v7 M-2.5,-0.5L0,-3.0L2.5,-0.5"/>
                </g>
                <g id="arrowDown" xlink:href="#dirArrow" transform="rotate(180) translate(-30 -48)" onmousedown="handlePan(0,1)">
                  <use xlink:href="#rim" fill="#404040">
                        <set attributeName="fill" to="#808080" begin="arrowDown.mouseover" end="arrowDown.mouseout"/>
                  </use>
                  <path fill="none" stroke="white" stroke-width="1.5" d="M0,-3.0v7 M-2.5,-0.5L0,-3.0L2.5,-0.5"/>
                </g>
                <g id="arrowLeft" xlink:href="#dirArrow" transform="rotate(270) translate(-36 17)" onmousedown="handlePan(-1,0)">
                  <use xlink:href="#rim" fill="#404040">
                        <set attributeName="fill" to="#808080" begin="arrowLeft.mouseover" end="arrowLeft.mouseout"/>
                  </use>
                  <path fill="none" stroke="white" stroke-width="1.5" d="M0,-3.0v7 M-2.5,-0.5L0,-3.0L2.5,-0.5"/>
                </g>
        </g>
        <svg viewBox="0 0 15 15" width="100%" height="30px" preserveAspectRatio="xMaxYMin meet">
         <g id="arrow_out" transform="scale(0.3 0.3)">
          <a xlink:href="a00051_org.svg" target="_base">
           <rect id="button" ry="5" rx="5" y="6" x="6" height="38" width="38"
                fill="#f2f5e9" fill-opacity="0.5" stroke="#606060" stroke-width="1.0"/>
           <path id="arrow"
             d="M 11.500037,31.436501 C 11.940474,20.09759 22.043105,11.32322 32.158766,21.979434 L 37.068811,17.246167 C 37.068811,17.246167 37.088388,32 37.088388,32 L 22.160133,31.978069 C 22.160133,31.978069 26.997745,27.140456 26.997745,27.140456 C 18.528582,18.264221 13.291696,25.230495 11.500037,31.436501 z"
             style="fill:#404040;"/>
          </a>
         </g>
        </svg>
</svg>
