<?xml version="1.0" encoding="UTF-8" standalone="no"?>
<!DOCTYPE svg PUBLIC "-//W3C//DTD SVG 1.1//EN"
 "http://www.w3.org/Graphics/SVG/1.1/DTD/svg11.dtd">
<!-- Generated by graphviz version 2.38.0 (20140413.2041)
 -->
<!-- Title: TableWidget.hpp Pages: 1 -->
<svg width="98pt" height="84pt"
 viewBox="0.00 0.00 98.00 84.00" xmlns="http://www.w3.org/2000/svg" xmlns:xlink="http://www.w3.org/1999/xlink">
<g id="graph0" class="graph" transform="scale(1 1) rotate(0) translate(4 80)">
<title>TableWidget.hpp</title>
<!-- Node1 -->
<g id="node1" class="node"><title>Node1</title>
<polygon fill="#bfbfbf" stroke="black" points="0,-56.5 0,-75.5 90,-75.5 90,-56.5 0,-56.5"/>
<text text-anchor="middle" x="45" y="-63.5" font-family="Helvetica,sans-Serif" font-size="10.00">TableWidget.hpp</text>
</g>
<!-- Node2 -->
<g id="node2" class="node"><title>Node2</title>
<g id="a_node2"><a xlink:href="../../d4/d51/a00017.php" target="_top" xlink:title="Qt.hpp">
<polygon fill="none" stroke="black" points="22,-0.5 22,-19.5 68,-19.5 68,-0.5 22,-0.5"/>
<text text-anchor="middle" x="45" y="-7.5" font-family="Helvetica,sans-Serif" font-size="10.00">Qt.hpp</text>
</a>
</g>
</g>
<!-- Node1&#45;&gt;Node2 -->
<g id="edge1" class="edge"><title>Node1&#45;&gt;Node2</title>
<path fill="none" stroke="midnightblue" d="M38.5276,-46.1005C37.8956,-37.1357 38.3427,-26.8579 39.869,-19.7511"/>
<polygon fill="midnightblue" stroke="midnightblue" points="35.0658,-46.6216 39.8337,-56.083 42.0067,-45.7134 35.0658,-46.6216"/>
</g>
<!-- Node2&#45;&gt;Node1 -->
<g id="edge2" class="edge"><title>Node2&#45;&gt;Node1</title>
<path fill="none" stroke="midnightblue" d="M51.4575,-29.6911C52.1062,-38.6353 51.6758,-48.9272 50.1663,-56.083"/>
<polygon fill="midnightblue" stroke="midnightblue" points="54.9231,-29.2002 50.131,-19.7511 47.9846,-30.1262 54.9231,-29.2002"/>
</g>
</g>
</svg>
