<?xml version="1.0" encoding="UTF-8" standalone="no"?>
<!DOCTYPE svg PUBLIC "-//W3C//DTD SVG 1.1//EN"
 "http://www.w3.org/Graphics/SVG/1.1/DTD/svg11.dtd">
<!-- Generated by graphviz version 2.38.0 (20140413.2041)
 -->
<!-- Title: Window::setMargin Pages: 1 -->
<svg width="307pt" height="294pt"
 viewBox="0.00 0.00 307.00 294.00" xmlns="http://www.w3.org/2000/svg" xmlns:xlink="http://www.w3.org/1999/xlink">
<g id="graph0" class="graph" transform="scale(1 1) rotate(0) translate(4 290)">
<title>Window::setMargin</title>
<!-- Node1 -->
<g id="node1" class="node"><title>Node1</title>
<polygon fill="#bfbfbf" stroke="black" points="0,-133.5 0,-152.5 101,-152.5 101,-133.5 0,-133.5"/>
<text text-anchor="middle" x="50.5" y="-140.5" font-family="Helvetica,sans-Serif" font-size="10.00">Window::setMargin</text>
</g>
<!-- Node1&#45;&gt;Node1 -->
<g id="edge1" class="edge"><title>Node1&#45;&gt;Node1</title>
<path fill="none" stroke="midnightblue" d="M24.9146,-152.757C12.4676,-161.565 20.9961,-171 50.5,-171 70.3229,-171 80.6772,-166.741 81.5629,-161.275"/>
<polygon fill="midnightblue" stroke="midnightblue" points="84.4382,-159.275 76.0854,-152.757 78.5505,-163.061 84.4382,-159.275"/>
</g>
<!-- Node2 -->
<g id="node2" class="node"><title>Node2</title>
<g id="a_node2"><a xlink:href="../../da/d45/a00011.php#a677a2c1046a84743e709515f5618b1e8" target="_top" xlink:title="The show event of the window. ">
<polygon fill="none" stroke="black" points="164.5,-266.5 164.5,-285.5 271.5,-285.5 271.5,-266.5 164.5,-266.5"/>
<text text-anchor="middle" x="218" y="-273.5" font-family="Helvetica,sans-Serif" font-size="10.00">Window::showEvent</text>
</a>
</g>
</g>
<!-- Node1&#45;&gt;Node2 -->
<g id="edge2" class="edge"><title>Node1&#45;&gt;Node2</title>
<path fill="none" stroke="midnightblue" d="M55.8849,-152.75C66.422,-175.009 95.4121,-229.739 137,-257 142.406,-260.544 148.403,-263.428 154.612,-265.776"/>
<polygon fill="midnightblue" stroke="midnightblue" points="153.896,-269.226 164.489,-269.041 156.093,-262.579 153.896,-269.226"/>
</g>
<!-- Node3 -->
<g id="node3" class="node"><title>Node3</title>
<g id="a_node3"><a xlink:href="../../da/d45/a00011.php#a1b653d42eb4810a8c0be48dc65d98b3a" target="_top" xlink:title="The paint event of the window. ">
<polygon fill="none" stroke="black" points="166,-228.5 166,-247.5 270,-247.5 270,-228.5 166,-228.5"/>
<text text-anchor="middle" x="218" y="-235.5" font-family="Helvetica,sans-Serif" font-size="10.00">Window::paintEvent</text>
</a>
</g>
</g>
<!-- Node1&#45;&gt;Node3 -->
<g id="edge3" class="edge"><title>Node1&#45;&gt;Node3</title>
<path fill="none" stroke="midnightblue" d="M59.3826,-152.589C73.2945,-168.855 103.88,-201.761 137,-219 142.955,-222.1 149.423,-224.702 156.013,-226.885"/>
<polygon fill="midnightblue" stroke="midnightblue" points="155.127,-230.273 165.711,-229.791 157.137,-223.567 155.127,-230.273"/>
</g>
<!-- Node4 -->
<g id="node4" class="node"><title>Node4</title>
<g id="a_node4"><a xlink:href="../../da/d45/a00011.php#a3d72edbec3fed3709ea3d374973c70b4" target="_top" xlink:title="The resize event of the window. ">
<polygon fill="none" stroke="black" points="163,-190.5 163,-209.5 273,-209.5 273,-190.5 163,-190.5"/>
<text text-anchor="middle" x="218" y="-197.5" font-family="Helvetica,sans-Serif" font-size="10.00">Window::resizeEvent</text>
</a>
</g>
</g>
<!-- Node1&#45;&gt;Node4 -->
<g id="edge4" class="edge"><title>Node1&#45;&gt;Node4</title>
<path fill="none" stroke="midnightblue" d="M70.4498,-152.642C87.5125,-161.028 113.454,-173.048 137,-181 144.596,-183.565 152.71,-185.92 160.748,-188.032"/>
<polygon fill="midnightblue" stroke="midnightblue" points="159.924,-191.434 170.476,-190.486 161.636,-184.646 159.924,-191.434"/>
</g>
<!-- Node5 -->
<g id="node5" class="node"><title>Node5</title>
<g id="a_node5"><a xlink:href="../../da/d45/a00011.php#a1ce5696d3fac4e90e6c9fbd0477d0f9d" target="_top" xlink:title="Draw the background of the window. ">
<polygon fill="none" stroke="black" points="152.5,-152.5 152.5,-171.5 283.5,-171.5 283.5,-152.5 152.5,-152.5"/>
<text text-anchor="middle" x="218" y="-159.5" font-family="Helvetica,sans-Serif" font-size="10.00">Window::drawBackground</text>
</a>
</g>
</g>
<!-- Node1&#45;&gt;Node5 -->
<g id="edge5" class="edge"><title>Node1&#45;&gt;Node5</title>
<path fill="none" stroke="midnightblue" d="M101.155,-148.701C114.104,-150.187 128.346,-151.822 142.282,-153.422"/>
<polygon fill="midnightblue" stroke="midnightblue" points="142.018,-156.915 152.352,-154.578 142.817,-149.96 142.018,-156.915"/>
</g>
<!-- Node6 -->
<g id="node6" class="node"><title>Node6</title>
<g id="a_node6"><a xlink:href="../../da/d45/a00011.php#acbed45e30a51c6855e5e6ea88197b161" target="_top" xlink:title="Draw the default background of the window. ">
<polygon fill="none" stroke="black" points="137,-114.5 137,-133.5 299,-133.5 299,-114.5 137,-114.5"/>
<text text-anchor="middle" x="218" y="-121.5" font-family="Helvetica,sans-Serif" font-size="10.00">Window::drawDefaultBackground</text>
</a>
</g>
</g>
<!-- Node1&#45;&gt;Node6 -->
<g id="edge6" class="edge"><title>Node1&#45;&gt;Node6</title>
<path fill="none" stroke="midnightblue" d="M101.155,-137.299C109.318,-136.362 117.996,-135.366 126.787,-134.357"/>
<polygon fill="midnightblue" stroke="midnightblue" points="127.203,-137.832 136.738,-133.214 126.404,-130.878 127.203,-137.832"/>
</g>
<!-- Node7 -->
<g id="node7" class="node"><title>Node7</title>
<g id="a_node7"><a xlink:href="../../da/d45/a00011.php#a3f710c0adafe15f27766f70a1c5b4dee" target="_top" xlink:title="Set the background window. ">
<polygon fill="none" stroke="black" points="156.5,-76.5 156.5,-95.5 279.5,-95.5 279.5,-76.5 156.5,-76.5"/>
<text text-anchor="middle" x="218" y="-83.5" font-family="Helvetica,sans-Serif" font-size="10.00">Window::setBackground</text>
</a>
</g>
</g>
<!-- Node1&#45;&gt;Node7 -->
<g id="edge7" class="edge"><title>Node1&#45;&gt;Node7</title>
<path fill="none" stroke="midnightblue" d="M70.4498,-133.358C87.5125,-124.972 113.454,-112.952 137,-105 144.596,-102.435 152.71,-100.08 160.748,-97.968"/>
<polygon fill="midnightblue" stroke="midnightblue" points="161.636,-101.354 170.476,-95.5136 159.924,-94.5664 161.636,-101.354"/>
</g>
<!-- Node8 -->
<g id="node8" class="node"><title>Node8</title>
<g id="a_node8"><a xlink:href="../../da/d45/a00011.php#a85b13ae29ce6f9aa9ffb7408b0ddd4b7" target="_top" xlink:title="Set if yes or no the window can be resized. ">
<polygon fill="none" stroke="black" points="159.5,-38.5 159.5,-57.5 276.5,-57.5 276.5,-38.5 159.5,-38.5"/>
<text text-anchor="middle" x="218" y="-45.5" font-family="Helvetica,sans-Serif" font-size="10.00">Window::enableResize</text>
</a>
</g>
</g>
<!-- Node1&#45;&gt;Node8 -->
<g id="edge8" class="edge"><title>Node1&#45;&gt;Node8</title>
<path fill="none" stroke="midnightblue" d="M59.3826,-133.411C73.2945,-117.145 103.88,-84.2386 137,-67 141.553,-64.6304 146.404,-62.5516 151.381,-60.7287"/>
<polygon fill="midnightblue" stroke="midnightblue" points="152.665,-63.9907 161.062,-57.5293 150.468,-57.3443 152.665,-63.9907"/>
</g>
<!-- Node9 -->
<g id="node9" class="node"><title>Node9</title>
<g id="a_node9"><a xlink:href="../../da/d45/a00011.php#a8ad2a767e19299b153f9bc0457f13114" target="_top" xlink:title="Set the titlebar visibility. ">
<polygon fill="none" stroke="black" points="161.5,-0.5 161.5,-19.5 274.5,-19.5 274.5,-0.5 161.5,-0.5"/>
<text text-anchor="middle" x="218" y="-7.5" font-family="Helvetica,sans-Serif" font-size="10.00">Window::showTitlebar</text>
</a>
</g>
</g>
<!-- Node1&#45;&gt;Node9 -->
<g id="edge9" class="edge"><title>Node1&#45;&gt;Node9</title>
<path fill="none" stroke="midnightblue" d="M55.8849,-133.25C66.422,-110.991 95.4121,-56.2612 137,-29 141.552,-26.0163 146.522,-23.5 151.685,-21.3779"/>
<polygon fill="midnightblue" stroke="midnightblue" points="152.919,-24.6535 161.139,-17.9682 150.544,-18.0687 152.919,-24.6535"/>
</g>
</g>
</svg>
