<?xml version="1.0" encoding="UTF-8" standalone="no"?>
<!DOCTYPE svg PUBLIC "-//W3C//DTD SVG 1.1//EN"
 "http://www.w3.org/Graphics/SVG/1.1/DTD/svg11.dtd">
<!-- Generated by graphviz version 2.38.0 (20140413.2041)
 -->
<!-- Title: GraphScene.hpp Pages: 1 -->
<svg width="341pt" height="140pt"
 viewBox="0.00 0.00 340.50 140.00" xmlns="http://www.w3.org/2000/svg" xmlns:xlink="http://www.w3.org/1999/xlink">
<g id="graph0" class="graph" transform="scale(1 1) rotate(0) translate(4 136)">
<title>GraphScene.hpp</title>
<!-- Node1 -->
<g id="node1" class="node"><title>Node1</title>
<polygon fill="#bfbfbf" stroke="black" points="91,-112.5 91,-131.5 180,-131.5 180,-112.5 91,-112.5"/>
<text text-anchor="middle" x="135.5" y="-119.5" font-family="Helvetica,sans-Serif" font-size="10.00">GraphScene.hpp</text>
</g>
<!-- Node2 -->
<g id="node2" class="node"><title>Node2</title>
<polygon fill="none" stroke="#bfbfbf" points="0,-56.5 0,-75.5 35,-75.5 35,-56.5 0,-56.5"/>
<text text-anchor="middle" x="17.5" y="-63.5" font-family="Helvetica,sans-Serif" font-size="10.00">map</text>
</g>
<!-- Node1&#45;&gt;Node2 -->
<g id="edge1" class="edge"><title>Node1&#45;&gt;Node2</title>
<path fill="none" stroke="midnightblue" d="M116.803,-112.444C97.3291,-103.532 66.6352,-89.4856 44.5251,-79.3674"/>
<polygon fill="midnightblue" stroke="midnightblue" points="45.8871,-76.1417 35.3376,-75.1629 42.9742,-82.5068 45.8871,-76.1417"/>
</g>
<!-- Node3 -->
<g id="node3" class="node"><title>Node3</title>
<polygon fill="none" stroke="#bfbfbf" points="53.5,-56.5 53.5,-75.5 97.5,-75.5 97.5,-56.5 53.5,-56.5"/>
<text text-anchor="middle" x="75.5" y="-63.5" font-family="Helvetica,sans-Serif" font-size="10.00">vector</text>
</g>
<!-- Node1&#45;&gt;Node3 -->
<g id="edge2" class="edge"><title>Node1&#45;&gt;Node3</title>
<path fill="none" stroke="midnightblue" d="M125.86,-112.324C116.99,-104.341 103.625,-92.3128 92.8921,-82.6529"/>
<polygon fill="midnightblue" stroke="midnightblue" points="95.0898,-79.922 85.3154,-75.8339 90.407,-85.1251 95.0898,-79.922"/>
</g>
<!-- Node4 -->
<g id="node4" class="node"><title>Node4</title>
<polygon fill="none" stroke="#bfbfbf" points="115.5,-56.5 115.5,-75.5 155.5,-75.5 155.5,-56.5 115.5,-56.5"/>
<text text-anchor="middle" x="135.5" y="-63.5" font-family="Helvetica,sans-Serif" font-size="10.00">utility</text>
</g>
<!-- Node1&#45;&gt;Node4 -->
<g id="edge3" class="edge"><title>Node1&#45;&gt;Node4</title>
<path fill="none" stroke="midnightblue" d="M135.5,-112.083C135.5,-105.006 135.5,-94.8611 135.5,-85.9865"/>
<polygon fill="midnightblue" stroke="midnightblue" points="139,-85.751 135.5,-75.7511 132,-85.7511 139,-85.751"/>
</g>
<!-- Node5 -->
<g id="node5" class="node"><title>Node5</title>
<polygon fill="none" stroke="#bfbfbf" points="173.5,-56.5 173.5,-75.5 217.5,-75.5 217.5,-56.5 173.5,-56.5"/>
<text text-anchor="middle" x="195.5" y="-63.5" font-family="Helvetica,sans-Serif" font-size="10.00">cmath</text>
</g>
<!-- Node1&#45;&gt;Node5 -->
<g id="edge4" class="edge"><title>Node1&#45;&gt;Node5</title>
<path fill="none" stroke="midnightblue" d="M145.14,-112.324C154.01,-104.341 167.375,-92.3128 178.108,-82.6529"/>
<polygon fill="midnightblue" stroke="midnightblue" points="180.593,-85.1251 185.685,-75.8339 175.91,-79.922 180.593,-85.1251"/>
</g>
<!-- Node6 -->
<g id="node6" class="node"><title>Node6</title>
<g id="a_node6"><a xlink:href="../../db/db2/a00020.php" target="_top" xlink:title="Scene.hpp">
<polygon fill="none" stroke="black" points="236,-56.5 236,-75.5 299,-75.5 299,-56.5 236,-56.5"/>
<text text-anchor="middle" x="267.5" y="-63.5" font-family="Helvetica,sans-Serif" font-size="10.00">Scene.hpp</text>
</a>
</g>
</g>
<!-- Node1&#45;&gt;Node6 -->
<g id="edge5" class="edge"><title>Node1&#45;&gt;Node6</title>
<path fill="none" stroke="midnightblue" d="M156.416,-112.444C178.236,-103.517 212.65,-89.4387 237.392,-79.3168"/>
<polygon fill="midnightblue" stroke="midnightblue" points="238.752,-82.5422 246.682,-75.5164 236.101,-76.0634 238.752,-82.5422"/>
</g>
<!-- Node7 -->
<g id="node7" class="node"><title>Node7</title>
<polygon fill="none" stroke="#bfbfbf" points="197,-0.5 197,-19.5 260,-19.5 260,-0.5 197,-0.5"/>
<text text-anchor="middle" x="228.5" y="-7.5" font-family="Helvetica,sans-Serif" font-size="10.00">QtWidgets</text>
</g>
<!-- Node6&#45;&gt;Node7 -->
<g id="edge6" class="edge"><title>Node6&#45;&gt;Node7</title>
<path fill="none" stroke="midnightblue" d="M261.06,-56.083C255.551,-48.4554 247.469,-37.2645 240.735,-27.9408"/>
<polygon fill="midnightblue" stroke="midnightblue" points="243.513,-25.8087 234.82,-19.7511 237.838,-29.9071 243.513,-25.8087"/>
</g>
<!-- Node8 -->
<g id="node8" class="node"><title>Node8</title>
<polygon fill="none" stroke="#bfbfbf" points="278.5,-0.5 278.5,-19.5 332.5,-19.5 332.5,-0.5 278.5,-0.5"/>
<text text-anchor="middle" x="305.5" y="-7.5" font-family="Helvetica,sans-Serif" font-size="10.00">iostream</text>
</g>
<!-- Node6&#45;&gt;Node8 -->
<g id="edge7" class="edge"><title>Node6&#45;&gt;Node8</title>
<path fill="none" stroke="midnightblue" d="M273.775,-56.083C279.142,-48.4554 287.018,-37.2645 293.579,-27.9408"/>
<polygon fill="midnightblue" stroke="midnightblue" points="296.449,-29.9434 299.342,-19.7511 290.725,-25.9149 296.449,-29.9434"/>
</g>
</g>
</svg>
