<?xml version="1.0" encoding="UTF-8" standalone="no"?>
<!DOCTYPE svg PUBLIC "-//W3C//DTD SVG 1.1//EN"
 "http://www.w3.org/Graphics/SVG/1.1/DTD/svg11.dtd">
<!-- Generated by graphviz version 2.38.0 (20140413.2041)
 -->
<!-- Title: QtDefines.hpp Pages: 1 -->
<svg width="224pt" height="308pt"
 viewBox="0.00 0.00 223.50 308.00" xmlns="http://www.w3.org/2000/svg" xmlns:xlink="http://www.w3.org/1999/xlink">
<g id="graph0" class="graph" transform="scale(1 1) rotate(0) translate(4 304)">
<title>QtDefines.hpp</title>
<!-- Node1 -->
<g id="node1" class="node"><title>Node1</title>
<polygon fill="#bfbfbf" stroke="black" points="15.5,-280.5 15.5,-299.5 95.5,-299.5 95.5,-280.5 15.5,-280.5"/>
<text text-anchor="middle" x="55.5" y="-287.5" font-family="Helvetica,sans-Serif" font-size="10.00">QtDefines.hpp</text>
</g>
<!-- Node2 -->
<g id="node2" class="node"><title>Node2</title>
<g id="a_node2"><a xlink:href="../../dd/d1b/a00015.php" target="_top" xlink:title="Font.hpp">
<polygon fill="none" stroke="black" points="0,-224.5 0,-243.5 55,-243.5 55,-224.5 0,-224.5"/>
<text text-anchor="middle" x="27.5" y="-231.5" font-family="Helvetica,sans-Serif" font-size="10.00">Font.hpp</text>
</a>
</g>
</g>
<!-- Node1&#45;&gt;Node2 -->
<g id="edge1" class="edge"><title>Node1&#45;&gt;Node2</title>
<path fill="none" stroke="midnightblue" d="M40.1015,-271.566C34.4922,-262.275 29.184,-251.248 26.9066,-243.751"/>
<polygon fill="midnightblue" stroke="midnightblue" points="37.2872,-273.656 45.71,-280.083 43.1336,-269.806 37.2872,-273.656"/>
</g>
<!-- Node3 -->
<g id="node3" class="node"><title>Node3</title>
<g id="a_node3"><a xlink:href="../../d4/d51/a00017.php" target="_top" xlink:title="Qt.hpp">
<polygon fill="none" stroke="black" points="96.5,-56.5 96.5,-75.5 142.5,-75.5 142.5,-56.5 96.5,-56.5"/>
<text text-anchor="middle" x="119.5" y="-63.5" font-family="Helvetica,sans-Serif" font-size="10.00">Qt.hpp</text>
</a>
</g>
</g>
<!-- Node1&#45;&gt;Node3 -->
<g id="edge3" class="edge"><title>Node1&#45;&gt;Node3</title>
<path fill="none" stroke="midnightblue" d="M60.809,-270.585C73.9115,-225.135 107.414,-108.924 116.939,-75.8837"/>
<polygon fill="midnightblue" stroke="midnightblue" points="57.416,-269.719 58.0089,-280.297 64.1421,-271.658 57.416,-269.719"/>
</g>
<!-- Node5 -->
<g id="node5" class="node"><title>Node5</title>
<g id="a_node5"><a xlink:href="../../d3/dfe/a00025.php" target="_top" xlink:title="WindowButton.hpp">
<polygon fill="none" stroke="black" points="113,-224.5 113,-243.5 212,-243.5 212,-224.5 113,-224.5"/>
<text text-anchor="middle" x="162.5" y="-231.5" font-family="Helvetica,sans-Serif" font-size="10.00">WindowButton.hpp</text>
</a>
</g>
</g>
<!-- Node1&#45;&gt;Node5 -->
<g id="edge6" class="edge"><title>Node1&#45;&gt;Node5</title>
<path fill="none" stroke="midnightblue" d="M81.802,-275.726C101.615,-265.727 128.207,-252.307 145.351,-243.655"/>
<polygon fill="midnightblue" stroke="midnightblue" points="80.042,-272.694 72.6914,-280.324 83.1959,-278.943 80.042,-272.694"/>
</g>
<!-- Node2&#45;&gt;Node1 -->
<g id="edge2" class="edge"><title>Node2&#45;&gt;Node1</title>
<path fill="none" stroke="midnightblue" d="M42.7748,-252.23C48.3883,-261.495 53.7209,-272.534 56.0427,-280.083"/>
<polygon fill="midnightblue" stroke="midnightblue" points="45.6036,-250.162 37.1686,-243.751 39.7645,-254.023 45.6036,-250.162"/>
</g>
<!-- Node4 -->
<g id="node4" class="node"><title>Node4</title>
<g id="a_node4"><a xlink:href="../../d7/de0/a00022.php" target="_top" xlink:title="TableWidget.hpp">
<polygon fill="none" stroke="black" points="74.5,-0.5 74.5,-19.5 164.5,-19.5 164.5,-0.5 74.5,-0.5"/>
<text text-anchor="middle" x="119.5" y="-7.5" font-family="Helvetica,sans-Serif" font-size="10.00">TableWidget.hpp</text>
</a>
</g>
</g>
<!-- Node3&#45;&gt;Node4 -->
<g id="edge4" class="edge"><title>Node3&#45;&gt;Node4</title>
<path fill="none" stroke="midnightblue" d="M113.028,-46.1005C112.396,-37.1357 112.843,-26.8579 114.369,-19.7511"/>
<polygon fill="midnightblue" stroke="midnightblue" points="109.566,-46.6216 114.334,-56.083 116.507,-45.7134 109.566,-46.6216"/>
</g>
<!-- Node4&#45;&gt;Node3 -->
<g id="edge5" class="edge"><title>Node4&#45;&gt;Node3</title>
<path fill="none" stroke="midnightblue" d="M125.958,-29.6911C126.606,-38.6353 126.176,-48.9272 124.666,-56.083"/>
<polygon fill="midnightblue" stroke="midnightblue" points="129.423,-29.2002 124.631,-19.7511 122.485,-30.1262 129.423,-29.2002"/>
</g>
<!-- Node6 -->
<g id="node6" class="node"><title>Node6</title>
<g id="a_node6"><a xlink:href="../../d6/d5b/a00026.php" target="_top" xlink:title="WindowTitleBar.hpp">
<polygon fill="none" stroke="black" points="111.5,-168.5 111.5,-187.5 215.5,-187.5 215.5,-168.5 111.5,-168.5"/>
<text text-anchor="middle" x="163.5" y="-175.5" font-family="Helvetica,sans-Serif" font-size="10.00">WindowTitleBar.hpp</text>
</a>
</g>
</g>
<!-- Node5&#45;&gt;Node6 -->
<g id="edge7" class="edge"><title>Node5&#45;&gt;Node6</title>
<path fill="none" stroke="midnightblue" d="M162.855,-213.805C163.02,-204.91 163.208,-194.78 163.338,-187.751"/>
<polygon fill="midnightblue" stroke="midnightblue" points="159.351,-214.02 162.665,-224.083 166.35,-214.15 159.351,-214.02"/>
</g>
<!-- Node7 -->
<g id="node7" class="node"><title>Node7</title>
<g id="a_node7"><a xlink:href="../../dc/de2/a00024.php" target="_top" xlink:title="Window.hpp">
<polygon fill="none" stroke="black" points="120,-112.5 120,-131.5 191,-131.5 191,-112.5 120,-112.5"/>
<text text-anchor="middle" x="155.5" y="-119.5" font-family="Helvetica,sans-Serif" font-size="10.00">Window.hpp</text>
</a>
</g>
</g>
<!-- Node6&#45;&gt;Node7 -->
<g id="edge8" class="edge"><title>Node6&#45;&gt;Node7</title>
<path fill="none" stroke="midnightblue" d="M160.7,-158.101C159.372,-149.136 157.849,-138.858 156.796,-131.751"/>
<polygon fill="midnightblue" stroke="midnightblue" points="157.251,-158.704 162.179,-168.083 164.176,-157.678 157.251,-158.704"/>
</g>
<!-- Node7&#45;&gt;Node3 -->
<g id="edge9" class="edge"><title>Node7&#45;&gt;Node3</title>
<path fill="none" stroke="midnightblue" d="M143.877,-103.566C137.683,-94.2747 130.332,-83.2484 125.334,-75.7511"/>
<polygon fill="midnightblue" stroke="midnightblue" points="141.096,-105.704 149.555,-112.083 146.92,-101.821 141.096,-105.704"/>
</g>
</g>
</svg>
