<?xml version="1.0" encoding="UTF-8" standalone="no"?>
<!DOCTYPE svg PUBLIC "-//W3C//DTD SVG 1.1//EN"
 "http://www.w3.org/Graphics/SVG/1.1/DTD/svg11.dtd">
<!-- Generated by graphviz version 2.38.0 (20140413.2041)
 -->
<!-- Title: Widget Pages: 1 -->
<svg width="254pt" height="140pt"
 viewBox="0.00 0.00 253.50 140.00" xmlns="http://www.w3.org/2000/svg" xmlns:xlink="http://www.w3.org/1999/xlink">
<g id="graph0" class="graph" transform="scale(1 1) rotate(0) translate(4 136)">
<title>Widget</title>
<!-- Node1 -->
<g id="node1" class="node"><title>Node1</title>
<polygon fill="#bfbfbf" stroke="black" points="92,-56.5 92,-75.5 139,-75.5 139,-56.5 92,-56.5"/>
<text text-anchor="middle" x="115.5" y="-63.5" font-family="Helvetica,sans-Serif" font-size="10.00">Widget</text>
</g>
<!-- Node3 -->
<g id="node3" class="node"><title>Node3</title>
<g id="a_node3"><a xlink:href="../../da/da0/a00009.php" target="_top" xlink:title="Create a personnalized TableWidget. ">
<polygon fill="none" stroke="black" points="0,-0.5 0,-19.5 71,-19.5 71,-0.5 0,-0.5"/>
<text text-anchor="middle" x="35.5" y="-7.5" font-family="Helvetica,sans-Serif" font-size="10.00">TableWidget</text>
</a>
</g>
</g>
<!-- Node1&#45;&gt;Node3 -->
<g id="edge2" class="edge"><title>Node1&#45;&gt;Node3</title>
<path fill="none" stroke="midnightblue" d="M94.1994,-50.6221C79.585,-40.7574 60.6732,-27.9919 48.3215,-19.6545"/>
<polygon fill="midnightblue" stroke="midnightblue" points="92.3999,-53.6302 102.647,-56.324 96.3163,-47.8282 92.3999,-53.6302"/>
</g>
<!-- Node4 -->
<g id="node4" class="node"><title>Node4</title>
<g id="a_node4"><a xlink:href="../../da/d45/a00011.php" target="_top" xlink:title="A custom window. ">
<polygon fill="none" stroke="black" points="89.5,-0.5 89.5,-19.5 141.5,-19.5 141.5,-0.5 89.5,-0.5"/>
<text text-anchor="middle" x="115.5" y="-7.5" font-family="Helvetica,sans-Serif" font-size="10.00">Window</text>
</a>
</g>
</g>
<!-- Node1&#45;&gt;Node4 -->
<g id="edge3" class="edge"><title>Node1&#45;&gt;Node4</title>
<path fill="none" stroke="midnightblue" d="M115.5,-45.8045C115.5,-36.9102 115.5,-26.7798 115.5,-19.7511"/>
<polygon fill="midnightblue" stroke="midnightblue" points="112,-46.083 115.5,-56.083 119,-46.083 112,-46.083"/>
</g>
<!-- Node5 -->
<g id="node5" class="node"><title>Node5</title>
<g id="a_node5"><a xlink:href="../../d7/dd4/a00013.php" target="_top" xlink:title="The titlebar of the Window class. ">
<polygon fill="none" stroke="black" points="159.5,-0.5 159.5,-19.5 245.5,-19.5 245.5,-0.5 159.5,-0.5"/>
<text text-anchor="middle" x="202.5" y="-7.5" font-family="Helvetica,sans-Serif" font-size="10.00">WindowTitleBar</text>
</a>
</g>
</g>
<!-- Node1&#45;&gt;Node5 -->
<g id="edge4" class="edge"><title>Node1&#45;&gt;Node5</title>
<path fill="none" stroke="midnightblue" d="M138.216,-50.9005C154.169,-40.9986 174.997,-28.0705 188.557,-19.6545"/>
<polygon fill="midnightblue" stroke="midnightblue" points="136.129,-48.0765 129.478,-56.324 139.82,-54.024 136.129,-48.0765"/>
</g>
<!-- Node2 -->
<g id="node2" class="node"><title>Node2</title>
<polygon fill="none" stroke="#bfbfbf" points="88,-112.5 88,-131.5 143,-131.5 143,-112.5 88,-112.5"/>
<text text-anchor="middle" x="115.5" y="-119.5" font-family="Helvetica,sans-Serif" font-size="10.00">QWidget</text>
</g>
<!-- Node2&#45;&gt;Node1 -->
<g id="edge1" class="edge"><title>Node2&#45;&gt;Node1</title>
<path fill="none" stroke="midnightblue" d="M115.5,-101.805C115.5,-92.9102 115.5,-82.7798 115.5,-75.7511"/>
<polygon fill="midnightblue" stroke="midnightblue" points="112,-102.083 115.5,-112.083 119,-102.083 112,-102.083"/>
</g>
</g>
</svg>
